<svg xmlns="http://www.w3.org/2000/svg" xmlns:xlink="http://www.w3.org/1999/xlink" version="1.1" id="v-10654" width="895" height="636"><g id="v-10655" class="viewport"><g id="j_523" model-id="5b58339c-0517-4cec-a5a7-16490b128f3f" class="element tp Element" transform="translate(830,59)"><polygon class="ui-arrowhead" fill="#000000" points="0,0 4.2,11.2 11.8,2" id="v-10657" transform="translate(-5.900000095367432,27.34645652770996)"/>
<rect class="ui-label-anchor" fill="none" width="1" height="1" id="v-10659" transform="translate(33.346458435058594,-0.5)"/>
<g class="rotatable" id="v-10661"><g class="scalable" id="v-10669">
<rect x="0" y="0" width="28.346457481384277" height="28.346456915242126" opacity="0" id="v-10670"/>
<path class="ui-stem" fill="none" stroke="#000000" stroke-width="1" d="M28.346457481384277,0C16.68079997942998,2.22616153784624,6.9775895338792076,13.35696922707744,0,28.346456915242126" id="v-10668"/>
</g></g><rect class="ui-number-box" id="v-10662" stroke="none" stroke-width="0" fill="#FFFFFF" x="0" y="0" width="0" height="0"/><path class="ui-number-leadline" id="v-10663" stroke="#000000" fill="none"/><text class="ui-number-label" id="v-10664" font-family="OpenSansCondensedLight" font-size="14pt" fill="black" transform="translate(0,0)"/><rect class="ui-label-box" id="v-10665" stroke-width="0" fill="none" width="1" height="1" transform="translate(33.34646224975586,-0.5)"/><text class="ui-label" id="v-10666" font-family="OpenSansCondensedLight" font-size="14pt" fill="black" text-decoration="none" transform="translate(33.34646224975586,-0.5)"><tspan x="0" y="6.800011250000001">1200</tspan></text><path class="ui-number-underline" id="v-10667" stroke="#000000" fill="none" transform="translate(33.34646224975586,-0.5)"/></g><g id="j_536" model-id="96b1b055-b82f-4d6c-8816-7d21d08c2ef8" class="element tp Element" transform="translate(55,165)"><g class="rotatable" id="v-10935"><g class="scalable" id="v-10946">
<g class="ui-fill" id="v-10943" fill="#FFFFFF">
    <path d="M108.36938804401,70.18233630996953h-5.405720062430617c0.13599295754542431,-0.13644196609471598,-0.03399823938635608,5.287126186170244,-0.03399823938635608,5.287126186170244H0.0849955984658902V10.403699914722093c0,0,5.541713019976041,-0.17055245761839496,5.439718301816972,-0.06822098304735799V5.116573728551849h5.099735907953412V0h102.84467414372713v65.06576258141767h-5.1337341473397675" id="v-10947"/>
</g>
<g class="ui-stroke" id="v-10942" stroke="#000000" stroke-dasharray="none">
    <path class="js-perimeter" fill="none" d="M10.624449808236275,5.116573728551849V0h102.84467414372713v65.06576258141767h-5.1337341473397675" id="v-10948"/>
    <path class="js-perimeter" fill="none" d="M5.524713900282863,10.335478931674736V5.116573728551849h102.84467414372713v65.06576258141767h-5.405720062430617" id="v-10949"/>
    <path class="js-perimeter" fill="none" d="M0.0849955984658902,10.403699914722093h102.84467414372713v65.06576258141767H0.0849955984658902V10.403699914722093z" id="v-10950"/>
</g>
<rect x="3.399823938635608" y="13.661251855233436" fill="none" width="96.33401130123995" height="58.31188525972924" class="ui-interior-label" id="v-10944"/>
<circle fill="none" cx="58.476971744532456" cy="0.08527622880919748" r="0.1" class="js-number-connector-1 js-link-connector" id="v-10951"/>
<circle fill="none" cx="93.24017151708154" cy="0.08527622880919748" r="0.1" class="js-number-connector-2 js-link-connector" id="v-10952"/>
<circle fill="none" cx="113.43512571257705" cy="6.105777982738539" r="0.1" class="js-number-connector-3 js-link-connector" id="v-10953"/>
<circle fill="none" cx="113.43512571257705" cy="29.21563599003106" r="0.1" class="js-number-connector-4 js-link-connector" id="v-10945"/>
<circle fill="none" cx="113.43512571257705" cy="60.81900638671965" r="0.1" class="js-number-connector-5 js-link-connector" id="v-10954"/>
<circle fill="none" cx="89.19438103010518" cy="75.58884921647265" r="0.1" class="js-number-connector-6 js-link-connector" id="v-10955"/>
<circle fill="none" cx="48.345496407398336" cy="75.38418626733058" r="0.1" class="js-number-connector-7 js-link-connector" id="v-10956"/>
<circle fill="none" cx="12.341360897247256" cy="75.38418626733058" r="0.1" class="js-number-connector-8 js-link-connector" id="v-10957"/>
<circle fill="none" cx="0.25498679539767055" cy="65.86735913222414" r="0.1" class="js-number-connector-9 js-link-connector" id="v-10958"/>
<circle fill="none" cx="0.25498679539767055" cy="41.154308023318706" r="0.1" class="js-number-connector-10 js-link-connector" id="v-10959"/>
<circle fill="none" cx="0.0849955984658902" cy="21.38727818534673" r="0.1" class="js-number-connector-11 js-link-connector" id="v-10960"/>
<circle fill="none" cx="24.155749084005993" cy="0.08527622880919748" r="0.1" class="js-number-connector-12 js-link-connector" id="v-10961"/>
</g></g><rect class="ui-number-box" id="v-10936" stroke="none" stroke-width="0" fill="#FFFFFF" x="0" y="0" width="0" height="0" transform="translate(113.33512115478516,29.115636825561523)"/><path class="ui-number-leadline" id="v-10937" stroke="#000000" fill="none" d=""/><text class="ui-number-label" id="v-10938" font-family="OpenSansCondensedLight" font-size="14pt" fill="black" transform="translate(113.33512115478516,29.115636825561523)"/><rect class="ui-label-box" id="v-10939" stroke-width="0" fill="none" width="96.33400964736938" height="58.31188488006592" transform="translate(3.3998236656188965,13.66125202178955)"/><text class="ui-label" id="v-10940" font-family="OpenSansCondensedLight" font-size="14pt" fill="black" transform="translate(3.3998239040374756,13.66125202178955)" text-anchor="middle"><tspan x="48.1670036315918" y="35.45595225952148">CPU 1202</tspan></text><path class="ui-number-underline" id="v-10941" stroke="#000000" fill="none" transform="translate(3.3998239040374756,13.66125202178955)" d="M 49.989646911621094 38 87.317626953125 38"/></g><g id="j_535" model-id="089c03ac-4b83-4011-9541-ce23cd49051f" class="element tp Element" transform="translate(38.99999999999949,315.9999999999957)"><g class="rotatable" id="v-10912"><g class="scalable" id="v-10922">
<g class="ui-stroke ui-fill" id="v-10919" stroke="#000000" stroke-dasharray="none" fill="#FFFFFF">
    <path class="js-perimeter" d="M724.5696969696969,37.31868538553352V49.74708060818427L828,24.873540304092135L724.5696969696969,0v12.445145081441384H103.56969696969698V0L0,24.873540304092135L103.56969696969698,49.74708060818427v-12.42839522265075H724.5696969696969z" id="v-10923"/>
</g>
<rect x="29.272727272727273" y="5.276205519049847" fill="none" width="769.4545454545455" height="39.19466957008458" class="ui-interior-label" id="v-10920"/>
<circle fill="none" cx="421.6666666666667" cy="12.31114621111631" r="0.1" class="js-number-connector-1 js-link-connector" id="v-10924"/>
<circle fill="none" cx="621" cy="12.31114621111631" r="0.1" class="js-number-connector-2 js-link-connector" id="v-10925"/>
<circle fill="none" cx="726.939393939394" cy="0.08374929395317217" r="0.1" class="js-number-connector-3 js-link-connector" id="v-10926"/>
<circle fill="none" cx="827.3030303030304" cy="25.04103889199848" r="0.1" class="js-number-connector-4 js-link-connector" id="v-10921"/>
<circle fill="none" cx="725.5454545454546" cy="49.663331314231094" r="0.1" class="js-number-connector-5 js-link-connector" id="v-10927"/>
<circle fill="none" cx="632.1515151515152" cy="37.268435809161616" r="0.1" class="js-number-connector-6 js-link-connector" id="v-10928"/>
<circle fill="none" cx="430.03030303030306" cy="37.268435809161616" r="0.1" class="js-number-connector-7 js-link-connector" id="v-10929"/>
<circle fill="none" cx="234.8787878787879" cy="37.268435809161616" r="0.1" class="js-number-connector-8 js-link-connector" id="v-10930"/>
<circle fill="none" cx="102.45454545454547" cy="49.99832849004378" r="0.1" class="js-number-connector-9 js-link-connector" id="v-10931"/>
<circle fill="none" cx="2.090909090909091" cy="24.538543128279446" r="0.1" class="js-number-connector-10 js-link-connector" id="v-10932"/>
<circle fill="none" cx="103.84848484848486" cy="0.08374929395317217" r="0.1" class="js-number-connector-11 js-link-connector" id="v-10933"/>
<circle fill="none" cx="232.0909090909091" cy="12.31114621111631" r="0.1" class="js-number-connector-12 js-link-connector" id="v-10934"/>
</g></g><rect class="ui-number-box" id="v-10913" stroke="none" stroke-width="0" fill="#FFFFFF" x="0" y="0" width="0" height="0" transform="translate(827.2030639648438,24.941038131713867)"/><path class="ui-number-leadline" id="v-10914" stroke="#000000" fill="none" d=""/><text class="ui-number-label" id="v-10915" font-family="OpenSansCondensedLight" font-size="14pt" fill="black" transform="translate(827.2030639648438,24.941038131713867)"/><rect class="ui-label-box" id="v-10916" stroke-width="0" fill="none" width="769.4545078277588" height="39.194669246673584" transform="translate(29.27272605895996,5.276205539703369)"/><text class="ui-label" id="v-10917" font-family="OpenSansCondensedLight" font-size="14pt" fill="black" transform="translate(29.27272605895996,5.276205539703369)" text-anchor="middle"><tspan x="384.72723388671875" y="25.897345158081055">BUS 1204</tspan></text><path class="ui-number-underline" id="v-10918" stroke="#000000" fill="none" transform="translate(29.27272605895996,5.276205539703369)" d="M 386.54987716674805 28 423.87785720825195 28"/></g><g id="j_533" model-id="4d4889b3-7e0c-c9e2-0347-10cf6f35ac10" class="element tp Element" transform="translate(222,165)"><g class="rotatable" id="v-10858"><g class="scalable" id="v-10869">
<g class="ui-fill" id="v-10866" fill="#FFFFFF">
    <path d="M108.36938804401,70.18233630996953h-5.405720062430617c0.13599295754542431,-0.13644196609471598,-0.03399823938635608,5.287126186170244,-0.03399823938635608,5.287126186170244H0.0849955984658902V10.403699914722093c0,0,5.541713019976041,-0.17055245761839496,5.439718301816972,-0.06822098304735799V5.116573728551849h5.099735907953412V0h102.84467414372713v65.06576258141767h-5.1337341473397675" id="v-10870"/>
</g>
<g class="ui-stroke" id="v-10865" stroke="#000000" stroke-dasharray="none">
    <path class="js-perimeter" fill="none" d="M10.624449808236275,5.116573728551849V0h102.84467414372713v65.06576258141767h-5.1337341473397675" id="v-10871"/>
    <path class="js-perimeter" fill="none" d="M5.524713900282863,10.335478931674736V5.116573728551849h102.84467414372713v65.06576258141767h-5.405720062430617" id="v-10872"/>
    <path class="js-perimeter" fill="none" d="M0.0849955984658902,10.403699914722093h102.84467414372713v65.06576258141767H0.0849955984658902V10.403699914722093z" id="v-10873"/>
</g>
<rect x="3.399823938635608" y="13.661251855233436" fill="none" width="96.33401130123995" height="58.31188525972924" class="ui-interior-label" id="v-10867"/>
<circle fill="none" cx="58.476971744532456" cy="0.08527622880919748" r="0.1" class="js-number-connector-1 js-link-connector" id="v-10874"/>
<circle fill="none" cx="93.24017151708154" cy="0.08527622880919748" r="0.1" class="js-number-connector-2 js-link-connector" id="v-10875"/>
<circle fill="none" cx="113.43512571257705" cy="6.105777982738539" r="0.1" class="js-number-connector-3 js-link-connector" id="v-10876"/>
<circle fill="none" cx="113.43512571257705" cy="29.21563599003106" r="0.1" class="js-number-connector-4 js-link-connector" id="v-10868"/>
<circle fill="none" cx="113.43512571257705" cy="60.81900638671965" r="0.1" class="js-number-connector-5 js-link-connector" id="v-10877"/>
<circle fill="none" cx="89.19438103010518" cy="75.58884921647265" r="0.1" class="js-number-connector-6 js-link-connector" id="v-10878"/>
<circle fill="none" cx="48.345496407398336" cy="75.38418626733058" r="0.1" class="js-number-connector-7 js-link-connector" id="v-10879"/>
<circle fill="none" cx="12.341360897247256" cy="75.38418626733058" r="0.1" class="js-number-connector-8 js-link-connector" id="v-10880"/>
<circle fill="none" cx="0.25498679539767055" cy="65.86735913222414" r="0.1" class="js-number-connector-9 js-link-connector" id="v-10881"/>
<circle fill="none" cx="0.25498679539767055" cy="41.154308023318706" r="0.1" class="js-number-connector-10 js-link-connector" id="v-10882"/>
<circle fill="none" cx="0.0849955984658902" cy="21.38727818534673" r="0.1" class="js-number-connector-11 js-link-connector" id="v-10883"/>
<circle fill="none" cx="24.155749084005993" cy="0.08527622880919748" r="0.1" class="js-number-connector-12 js-link-connector" id="v-10884"/>
</g></g><rect class="ui-number-box" id="v-10859" stroke="none" stroke-width="0" fill="#FFFFFF" x="0" y="0" width="0" height="0" transform="translate(113.33512115478516,29.115636825561523)"/><path class="ui-number-leadline" id="v-10860" stroke="#000000" fill="none" d=""/><text class="ui-number-label" id="v-10861" font-family="OpenSansCondensedLight" font-size="14pt" fill="black" transform="translate(113.33512115478516,29.115636825561523)"/><rect class="ui-label-box" id="v-10862" stroke-width="0" fill="none" width="96.33400964736938" height="58.31188488006592" transform="translate(3.3998236656188965,13.66125202178955)"/><text class="ui-label" id="v-10863" font-family="OpenSansCondensedLight" font-size="14pt" fill="black" transform="translate(3.3998239040374756,13.66125202178955)" text-anchor="middle"><tspan x="48.1670036315918" y="35.45595225952148">ROM 1206</tspan></text><path class="ui-number-underline" id="v-10864" stroke="#000000" fill="none" transform="translate(3.3998239040374756,13.66125202178955)" d="M 53.09727096557617 38 90.42525100708008 38"/></g><g id="j_527" model-id="e4dfb7e9-0910-7bea-d2ce-4704c2172a5f" class="element tp Element" transform="translate(367,165)"><g class="rotatable" id="v-10749"><g class="scalable" id="v-10760">
<g class="ui-fill" id="v-10757" fill="#FFFFFF">
    <path d="M108.36938804401,70.18233630996953h-5.405720062430617c0.13599295754542431,-0.13644196609471598,-0.03399823938635608,5.287126186170244,-0.03399823938635608,5.287126186170244H0.0849955984658902V10.403699914722093c0,0,5.541713019976041,-0.17055245761839496,5.439718301816972,-0.06822098304735799V5.116573728551849h5.099735907953412V0h102.84467414372713v65.06576258141767h-5.1337341473397675" id="v-10761"/>
</g>
<g class="ui-stroke" id="v-10756" stroke="#000000" stroke-dasharray="none">
    <path class="js-perimeter" fill="none" d="M10.624449808236275,5.116573728551849V0h102.84467414372713v65.06576258141767h-5.1337341473397675" id="v-10762"/>
    <path class="js-perimeter" fill="none" d="M5.524713900282863,10.335478931674736V5.116573728551849h102.84467414372713v65.06576258141767h-5.405720062430617" id="v-10763"/>
    <path class="js-perimeter" fill="none" d="M0.0849955984658902,10.403699914722093h102.84467414372713v65.06576258141767H0.0849955984658902V10.403699914722093z" id="v-10764"/>
</g>
<rect x="3.399823938635608" y="13.661251855233436" fill="none" width="96.33401130123995" height="58.31188525972924" class="ui-interior-label" id="v-10758"/>
<circle fill="none" cx="58.476971744532456" cy="0.08527622880919748" r="0.1" class="js-number-connector-1 js-link-connector" id="v-10765"/>
<circle fill="none" cx="93.24017151708154" cy="0.08527622880919748" r="0.1" class="js-number-connector-2 js-link-connector" id="v-10766"/>
<circle fill="none" cx="113.43512571257705" cy="6.105777982738539" r="0.1" class="js-number-connector-3 js-link-connector" id="v-10767"/>
<circle fill="none" cx="113.43512571257705" cy="29.21563599003106" r="0.1" class="js-number-connector-4 js-link-connector" id="v-10759"/>
<circle fill="none" cx="113.43512571257705" cy="60.81900638671965" r="0.1" class="js-number-connector-5 js-link-connector" id="v-10768"/>
<circle fill="none" cx="89.19438103010518" cy="75.58884921647265" r="0.1" class="js-number-connector-6 js-link-connector" id="v-10769"/>
<circle fill="none" cx="48.345496407398336" cy="75.38418626733058" r="0.1" class="js-number-connector-7 js-link-connector" id="v-10770"/>
<circle fill="none" cx="12.341360897247256" cy="75.38418626733058" r="0.1" class="js-number-connector-8 js-link-connector" id="v-10771"/>
<circle fill="none" cx="0.25498679539767055" cy="65.86735913222414" r="0.1" class="js-number-connector-9 js-link-connector" id="v-10772"/>
<circle fill="none" cx="0.25498679539767055" cy="41.154308023318706" r="0.1" class="js-number-connector-10 js-link-connector" id="v-10773"/>
<circle fill="none" cx="0.0849955984658902" cy="21.38727818534673" r="0.1" class="js-number-connector-11 js-link-connector" id="v-10774"/>
<circle fill="none" cx="24.155749084005993" cy="0.08527622880919748" r="0.1" class="js-number-connector-12 js-link-connector" id="v-10775"/>
</g></g><rect class="ui-number-box" id="v-10750" stroke="none" stroke-width="0" fill="#FFFFFF" x="0" y="0" width="0" height="0" transform="translate(113.33512115478516,29.115636825561523)"/><path class="ui-number-leadline" id="v-10751" stroke="#000000" fill="none" d=""/><text class="ui-number-label" id="v-10752" font-family="OpenSansCondensedLight" font-size="14pt" fill="black" transform="translate(113.33512115478516,29.115636825561523)"/><rect class="ui-label-box" id="v-10753" stroke-width="0" fill="none" width="96.33400964736938" height="58.31188488006592" transform="translate(3.3998236656188965,13.66125202178955)"/><text class="ui-label" id="v-10754" font-family="OpenSansCondensedLight" font-size="14pt" fill="black" transform="translate(3.3998239040374756,13.66125202178955)" text-anchor="middle"><tspan x="48.1670036315918" y="35.45595225952148">RAM 1208</tspan></text><path class="ui-number-underline" id="v-10755" stroke="#000000" fill="none" transform="translate(3.3998239040374756,13.66125202178955)" d="M 53.09727096557617 38 90.42525100708008 38"/></g><g id="j_524" model-id="30321c16-865e-719c-ca8a-44e4c7f4fbf1" class="element tp Element" transform="translate(513,162)"><g class="rotatable" id="v-10671"><g class="scalable" id="v-10682">
<g class="ui-fill" id="v-10679" fill="#FFFFFF">
    <path d="M108.36938804401,70.18233630996953h-5.405720062430617c0.13599295754542431,-0.13644196609471598,-0.03399823938635608,5.287126186170244,-0.03399823938635608,5.287126186170244H0.0849955984658902V10.403699914722093c0,0,5.541713019976041,-0.17055245761839496,5.439718301816972,-0.06822098304735799V5.116573728551849h5.099735907953412V0h102.84467414372713v65.06576258141767h-5.1337341473397675" id="v-10683"/>
</g>
<g class="ui-stroke" id="v-10678" stroke="#000000" stroke-dasharray="none">
    <path class="js-perimeter" fill="none" d="M10.624449808236275,5.116573728551849V0h102.84467414372713v65.06576258141767h-5.1337341473397675" id="v-10684"/>
    <path class="js-perimeter" fill="none" d="M5.524713900282863,10.335478931674736V5.116573728551849h102.84467414372713v65.06576258141767h-5.405720062430617" id="v-10685"/>
    <path class="js-perimeter" fill="none" d="M0.0849955984658902,10.403699914722093h102.84467414372713v65.06576258141767H0.0849955984658902V10.403699914722093z" id="v-10686"/>
</g>
<rect x="3.399823938635608" y="13.661251855233436" fill="none" width="96.33401130123995" height="58.31188525972924" class="ui-interior-label" id="v-10680"/>
<circle fill="none" cx="58.476971744532456" cy="0.08527622880919748" r="0.1" class="js-number-connector-1 js-link-connector" id="v-10687"/>
<circle fill="none" cx="93.24017151708154" cy="0.08527622880919748" r="0.1" class="js-number-connector-2 js-link-connector" id="v-10688"/>
<circle fill="none" cx="113.43512571257705" cy="6.105777982738539" r="0.1" class="js-number-connector-3 js-link-connector" id="v-10689"/>
<circle fill="none" cx="113.43512571257705" cy="29.21563599003106" r="0.1" class="js-number-connector-4 js-link-connector" id="v-10681"/>
<circle fill="none" cx="113.43512571257705" cy="60.81900638671965" r="0.1" class="js-number-connector-5 js-link-connector" id="v-10690"/>
<circle fill="none" cx="89.19438103010518" cy="75.58884921647265" r="0.1" class="js-number-connector-6 js-link-connector" id="v-10691"/>
<circle fill="none" cx="48.345496407398336" cy="75.38418626733058" r="0.1" class="js-number-connector-7 js-link-connector" id="v-10692"/>
<circle fill="none" cx="12.341360897247256" cy="75.38418626733058" r="0.1" class="js-number-connector-8 js-link-connector" id="v-10693"/>
<circle fill="none" cx="0.25498679539767055" cy="65.86735913222414" r="0.1" class="js-number-connector-9 js-link-connector" id="v-10694"/>
<circle fill="none" cx="0.25498679539767055" cy="41.154308023318706" r="0.1" class="js-number-connector-10 js-link-connector" id="v-10695"/>
<circle fill="none" cx="0.0849955984658902" cy="21.38727818534673" r="0.1" class="js-number-connector-11 js-link-connector" id="v-10696"/>
<circle fill="none" cx="24.155749084005993" cy="0.08527622880919748" r="0.1" class="js-number-connector-12 js-link-connector" id="v-10697"/>
</g></g><rect class="ui-number-box" id="v-10672" stroke="none" stroke-width="0" fill="#FFFFFF" x="0" y="0" width="0" height="0" transform="translate(113.33512115478516,29.115636825561523)"/><path class="ui-number-leadline" id="v-10673" stroke="#000000" fill="none" d=""/><text class="ui-number-label" id="v-10674" font-family="OpenSansCondensedLight" font-size="14pt" fill="black" transform="translate(113.33512115478516,29.115636825561523)"/><rect class="ui-label-box" id="v-10675" stroke-width="0" fill="none" width="96.33400964736938" height="58.31188488006592" transform="translate(3.3998236656188965,13.66125202178955)"/><text class="ui-label" id="v-10676" font-family="OpenSansCondensedLight" font-size="14pt" fill="black" transform="translate(3.3998239040374756,13.66125202178955)" text-anchor="middle"><tspan x="48.1670036315918" y="14.455914759521487">I/O</tspan><tspan x="48.1670036315918" y="35.45595225952148">ADAPTER</tspan><tspan x="48.1670036315918" y="56.45598975952148">1210</tspan></text><path class="ui-number-underline" id="v-10677" stroke="#000000" fill="none" transform="translate(3.3998239040374756,13.66125202178955)" d="M 29.503013610839844 59 66.83099365234375 59"/></g><g id="j_525" model-id="7fcd1282-4b46-48f5-8f90-1db7384e3b51" class="element tp Element" transform="translate(354.69291496276855,51.999999999999545)"><g class="rotatable" id="v-10698"><g class="scalable" id="v-10708">
<g class="ui-fill ui-stroke" id="v-10705" stroke="#000000" stroke-dasharray="none" fill="#FFFFFF">
    <path class="js-perimeter" d="M133.6983178602529,14.644553011610896H0v59.69821393622047c0,8.030202228588948,29.952003517663893,14.644553011610896,66.99833880376174,14.644553011610896s66.99833880376174,-6.6143507830219495,66.99833880376174,-14.644553011610896v-59.69821393622047L133.6983178602529,14.644553011610896L133.6983178602529,14.644553011610896z" id="v-10709"/>
    <path class="js-perimeter" d="M66.99833880376174,0C29.952003517663893,0,0,6.6143507830219495,0,14.644553011610896s29.952003517663893,14.644553011610896,66.99833880376174,14.644553011610896s66.99833880376174,-6.6143507830219495,66.99833880376174,-14.644553011610896C133.6983178602529,6.6143507830219495,103.746314342589,0,66.99833880376174,0L66.99833880376174,0z" id="v-10710"/>
</g>
<rect class="ui-interior-label" x="7.144058392979048" y="32.55401719247704" width="119.49307878186997" height="42.23252408903951" id="v-10706" fill="none"/>
<circle class="js-number-connector-1 js-link-connector" fill="none" cx="66.99833880376174" cy="0" r="0.1" id="v-10711"/>
<circle class="js-number-connector-2 js-link-connector" fill="none" cx="102.15506235714587" cy="2.2294377239898266" r="0.1" id="v-10712"/>
<circle class="js-number-connector-3 js-link-connector" fill="none" cx="133.99667760752348" cy="14.644553011610896" r="0.1" id="v-10713"/>
<circle class="js-number-connector-4 js-link-connector" fill="none" cx="133.99667760752348" cy="44.49365997972113" r="0.1" id="v-10707"/>
<circle class="js-number-connector-5 js-link-connector" fill="none" cx="133.99667760752348" cy="74.3533330033953" r="0.1" id="v-10714"/>
<circle class="js-number-connector-6 js-link-connector" fill="none" cx="103.92864529925436" cy="86.54656112417378" r="0.1" id="v-10715"/>
<circle class="js-number-connector-7 js-link-connector" fill="none" cx="66.99833880376174" cy="88.99788601500619" r="0.1" id="v-10716"/>
<circle class="js-number-connector-8 js-link-connector" fill="none" cx="28.112118409495277" cy="86.21901340169185" r="0.1" id="v-10717"/>
<circle class="js-number-connector-9 js-link-connector" fill="none" cx="0" cy="74.3533330033953" r="0.1" id="v-10718"/>
<circle class="js-number-connector-10 js-link-connector" fill="none" cx="0" cy="44.49365997972113" r="0.1" id="v-10719"/>
<circle class="js-number-connector-11 js-link-connector" fill="none" cx="0" cy="14.644553011610896" r="0.1" id="v-10720"/>
<circle class="js-number-connector-12 js-link-connector" fill="none" cx="31.609557669167152" cy="2.2294377239898266" r="0.1" id="v-10721"/>
</g></g><rect class="ui-number-box" id="v-10699" stroke="none" stroke-width="0" fill="#FFFFFF" x="0" y="0" width="0" height="0" transform="translate(133.89666748046875,44.39366149902344)"/><path class="ui-number-leadline" id="v-10700" stroke="#000000" fill="none" d=""/><text class="ui-number-label" id="v-10701" font-family="OpenSansCondensedLight" font-size="14pt" fill="black" transform="translate(133.89666748046875,44.39366149902344)"/><rect class="ui-label-box" id="v-10702" stroke-width="0" fill="none" width="119.49308013916016" height="42.232521057128906" transform="translate(7.1440582275390625,32.55401611328125)"/><text class="ui-label" id="v-10703" font-family="OpenSansCondensedLight" font-size="14pt" fill="black" transform="translate(7.1440582275390625,32.55401611328125)" text-anchor="middle"><tspan x="59.74654006958008" y="6.416234278564456">MEMORY</tspan><tspan x="59.74654006958008" y="27.416271778564454">STRUCTURE</tspan><tspan x="59.74654006958008" y="48.416309278564455">1212</tspan></text><path class="ui-number-underline" id="v-10704" stroke="#000000" fill="none" transform="translate(7.1440582275390625,32.55401611328125)" d="M 41.082550048828125 51 78.41053009033203 51"/></g><g id="j_526" model-id="4aa4b903-fca4-4618-ba20-7f254a580f56" class="element tp Element" transform="translate(705,159)"><g class="rotatable" id="v-10722"><g class="scalable" id="v-10733">
<g class="ui-fill" id="v-10730" fill="#FFFFFF">
    <path d="M126.16002573869731,72.41939626546802h-6.293158930965608c0.15831846367209076,-0.1407910498478115,-0.03957961591802269,5.4556531816026945,-0.03957961591802269,5.4556531816026945H0.09894903979505672V10.735317550895624c0,0,6.451477394637698,-0.17598881230976435,6.33273854688363,-0.07039552492390574V5.279664369292931h5.936942387703403V0h119.72833815201862v67.13973189617509h-5.976522003621426" id="v-10734"/>
</g>
<g class="ui-stroke" id="v-10729" stroke="#000000" stroke-dasharray="none">
    <path class="js-perimeter" fill="none" d="M12.36862997438209,5.279664369292931V0h119.72833815201862v67.13973189617509h-5.976522003621426" id="v-10735"/>
    <path class="js-perimeter" fill="none" d="M6.431687586678686,10.66492202597172V5.279664369292931h119.72833815201862v67.13973189617509h-6.293158930965608" id="v-10736"/>
    <path class="js-perimeter" fill="none" d="M0.09894903979505672,10.735317550895624h119.72833815201862v67.13973189617509H0.09894903979505672V10.735317550895624z" id="v-10737"/>
</g>
<rect x="3.9579615918022686" y="14.096703866012124" fill="none" width="112.1488417037173" height="60.170574928708426" class="ui-interior-label" id="v-10731"/>
<circle fill="none" cx="68.07693937899901" cy="0.08799440615488217" r="0.1" class="js-number-connector-1 js-link-connector" id="v-10738"/>
<circle fill="none" cx="108.54709665517721" cy="0.08799440615488217" r="0.1" class="js-number-connector-2 js-link-connector" id="v-10739"/>
<circle fill="none" cx="132.0573885104827" cy="6.300399480689563" r="0.1" class="js-number-connector-3 js-link-connector" id="v-10740"/>
<circle fill="none" cx="132.0573885104827" cy="30.146883548662636" r="0.1" class="js-number-connector-4 js-link-connector" id="v-10732"/>
<circle fill="none" cx="132.0573885104827" cy="62.75761046966197" r="0.1" class="js-number-connector-5 js-link-connector" id="v-10741"/>
<circle fill="none" cx="103.83712236093253" cy="77.99824161568756" r="0.1" class="js-number-connector-6 js-link-connector" id="v-10742"/>
<circle fill="none" cx="56.28221383542826" cy="77.78705504091585" r="0.1" class="js-number-connector-7 js-link-connector" id="v-10743"/>
<circle fill="none" cx="14.367400578242234" cy="77.78705504091585" r="0.1" class="js-number-connector-8 js-link-connector" id="v-10744"/>
<circle fill="none" cx="0.29684711938517017" cy="67.96687931403099" r="0.1" class="js-number-connector-9 js-link-connector" id="v-10745"/>
<circle fill="none" cx="0.29684711938517017" cy="42.46610041034614" r="0.1" class="js-number-connector-10 js-link-connector" id="v-10746"/>
<circle fill="none" cx="0.09894903979505672" cy="22.06899706364445" r="0.1" class="js-number-connector-11 js-link-connector" id="v-10747"/>
<circle fill="none" cx="28.12131710975512" cy="0.08799440615488217" r="0.1" class="js-number-connector-12 js-link-connector" id="v-10748"/>
</g></g><rect class="ui-number-box" id="v-10723" stroke="none" stroke-width="0" fill="#FFFFFF" x="0" y="0" width="0" height="0" transform="translate(131.95738220214844,30.046884536743164)"/><path class="ui-number-leadline" id="v-10724" stroke="#000000" fill="none" d=""/><text class="ui-number-label" id="v-10725" font-family="OpenSansCondensedLight" font-size="14pt" fill="black" transform="translate(131.95738220214844,30.046884536743164)"/><rect class="ui-label-box" id="v-10726" stroke-width="0" fill="none" width="112.14884233474731" height="60.170576095581055" transform="translate(3.9579615592956543,14.096704483032227)"/><text class="ui-label" id="v-10727" font-family="OpenSansCondensedLight" font-size="14pt" fill="black" transform="translate(3.9579617977142334,14.096704483032227)" text-anchor="middle"><tspan x="56.07442092895508" y="15.385260844116214">COMMUNICATION</tspan><tspan x="56.07442092895508" y="36.38529834411621">ADAPTER</tspan><tspan x="56.07442092895508" y="57.385335844116206">1214</tspan></text><path class="ui-number-underline" id="v-10728" stroke="#000000" fill="none" transform="translate(3.9579617977142334,14.096704483032227)" d="M 37.410430908203125 59 74.73841094970703 59"/></g><g id="j_537" model-id="29fe144e-a8fe-4855-9830-d2755c584969" class="element tp Element" transform="translate(749,62)"><g class="rotatable" id="v-10962"><g class="scalable" id="v-10971">
<g class="ui-stroke ui-fill" id="v-10969" stroke="#000000" stroke-dasharray="none" fill="#FFFFFF">
    <g id="v-10972">
        <path class="js-perimeter" d="M45.99999830457906,0L5.333333136762789,56.795848500550065l13.88888837698643,8.42906585520531L0,116.00000153115879l38.888887455562006,-57.19723258889317l-12.222221771748059,-9.031141987719975L45.99999830457906,0z" id="v-10973"/>
    </g>
</g>
<rect x="2.624999903250435" y="20.0692044171555" fill="none" width="39.486109655772424" height="65.9775095213987" class="ui-interior-label" id="v-10970"/>
<circle fill="none" cx="23.41666580359912" cy="31.533737440455578" r="0.1" id="v-2029" class="js-number-connector-1 js-link-connector"/>
<circle fill="none" cx="32.99999878371976" cy="18.262976019611504" r="0.1" id="v-2030" class="js-number-connector-2 js-link-connector"/>
<circle fill="none" cx="33.06944322560469" cy="33.51557137664968" r="0.1" id="v-2031" class="js-number-connector-3 js-link-connector"/>
<circle fill="none" cx="26.666665683813946" cy="49.77162695454564" r="0.1" id="v-2032" class="js-number-connector-4 js-link-connector"/>
<circle fill="none" cx="38.888887455562006" cy="58.802768942265615" r="0.1" id="v-2033" class="js-number-connector-5 js-link-connector"/>
<circle fill="none" cx="29.33333225219534" cy="72.85121203427445" r="0.1" id="v-2034" class="js-number-connector-6 js-link-connector"/>
<circle fill="none" cx="20.416665914170053" cy="86.0467139385542" r="0.1" id="v-2035" class="js-number-connector-7 js-link-connector"/>
<circle fill="none" cx="7.999999705144184" cy="104.28460345264426" r="0.1" id="v-2036" class="js-number-connector-8 js-link-connector"/>
<circle fill="none" cx="12.444443985779841" cy="83.28719833119533" r="0.1" id="v-2037" class="js-number-connector-9 js-link-connector"/>
<circle fill="none" cx="19.22222151374922" cy="65.35034688336259" r="0.1" id="v-2038" class="js-number-connector-10 js-link-connector"/>
<circle fill="none" cx="5.333333136762789" cy="56.795848500550065" r="0.1" id="v-2039" class="js-number-connector-11 js-link-connector"/>
<circle fill="none" cx="13.999999484002322" cy="44.75432585025676" r="0.1" id="v-2040" class="js-number-connector-12 js-link-connector"/>
</g></g><rect class="ui-number-box" id="v-10963" stroke="none" stroke-width="0" fill="#FFFFFF" x="0" y="0" width="0" height="0" transform="translate(26.566665649414062,49.671630859375)"/><path class="ui-number-leadline" id="v-10964" stroke="#000000" fill="none" d=""/><text class="ui-number-label" id="v-10965" font-family="OpenSansCondensedLight" font-size="14pt" fill="black" transform="translate(26.566665649414062,49.671630859375)"/><rect class="ui-label-box" id="v-10966" stroke-width="0" fill="none" width="138" transform="translate(-46,-10)"/><text class="ui-label" id="v-10967" font-family="OpenSansCondensedLight" font-size="14pt" fill="black" transform="translate(-46,-10)" text-anchor="middle"><tspan x="69" y="-25.200044999999996">COMMUNICATION</tspan><tspan x="69" y="-4.200007499999998">1216</tspan></text><path class="ui-number-underline" id="v-10968" stroke="#000000" fill="none" transform="translate(-46,-10)" d="M 50.33600997924805 -2 87.66399002075195 -2"/></g><g id="j_548" model-id="6e327b2e-b1cd-4768-b8e0-9ce303a70c49" class="tp Link link"><path class="connection" stroke="black" id="v-11145" stroke-dasharray="none" d="M 626 190 653 190 653 224 626 224"/><path class="marker-source" fill="black" stroke="black" id="v-11146" d="" transform="translate(626,190) scale(1,1) rotate(0)"/><path class="marker-target" fill="black" stroke="black" id="v-11147" d="" transform="translate(626,224) scale(1,1) rotate(0)"/><g class="labels" id="v-11149"><g class="js-link-label" id="v-11159" label-idx="0" cursor="move" transform="translate(653, 207)"><rect fill="white" rx="3" ry="3" x="0" y="0" width="0" height="0"/><text class="ui-link-label" text-anchor="middle" font-size="14pt" font-family="OpenSansCondensedLight" id="v-11160" y="0.8em" display="none" xml:space="preserve" transform="translate(0,0)"/></g></g></g><g id="j_543" model-id="4e42aa83-a2ce-4aca-98a1-f2dcf8da5f21" class="tp Link link"><path class="connection" stroke="black" id="v-11075" stroke-dasharray="none" d="M 144 316 144 241"/><path class="marker-source" fill="black" stroke="black" id="v-11076" d="" transform="translate(144,316) scale(1,1) rotate(-90)"/><path class="marker-target" fill="black" stroke="black" id="v-11077" d="" transform="translate(144,241) scale(1,1) rotate(-270)"/><g class="labels" id="v-11079"><g class="js-link-label" id="v-11087" label-idx="0" cursor="move" transform="translate(144, 278.5)"><rect fill="white" rx="3" ry="3" x="0" y="0" width="0" height="0"/><text class="ui-link-label" text-anchor="middle" font-size="14pt" font-family="OpenSansCondensedLight" id="v-11088" y="0.8em" display="none" xml:space="preserve" transform="translate(0,0)"/></g></g></g><g id="j_539" model-id="9398d5fe-25f1-4118-b94c-866314db5663" class="tp Link link"><path class="connection" stroke="black" id="v-11015" stroke-dasharray="none" d="M 270 328 270 240"/><path class="marker-source" fill="black" stroke="black" id="v-11016" d="" transform="translate(270,328) scale(1,1) rotate(-90)"/><path class="marker-target" fill="black" stroke="black" id="v-11017" d="" transform="translate(270,240) scale(1,1) rotate(-270)"/><g class="labels" id="v-11019"><g class="js-link-label" id="v-11027" label-idx="0" cursor="move" transform="translate(270, 284)"><rect fill="white" rx="3" ry="3" x="0" y="0" width="0" height="0"/><text class="ui-link-label" text-anchor="middle" font-size="14pt" font-family="OpenSansCondensedLight" id="v-11028" y="0.8em" display="none" xml:space="preserve" transform="translate(0,0)"/></g></g></g><g id="j_545" model-id="1958ae95-c833-4fd8-a6bc-ba4e4c9cf052" class="tp Link link"><path class="connection" stroke="black" id="v-11103" stroke-dasharray="none" d="M 761 316 761 237"/><path class="marker-source" fill="black" stroke="black" id="v-11104" d="" transform="translate(761,316) scale(1,1) rotate(-90)"/><path class="marker-target" fill="black" stroke="black" id="v-11105" d="" transform="translate(761,237) scale(1,1) rotate(-270)"/><g class="labels" id="v-11107"><g class="js-link-label" id="v-11115" label-idx="0" cursor="move" transform="translate(761, 276.5)"><rect fill="white" rx="3" ry="3" x="0" y="0" width="0" height="0"/><text class="ui-link-label" text-anchor="middle" font-size="14pt" font-family="OpenSansCondensedLight" id="v-11116" y="0.8em" display="none" xml:space="preserve" transform="translate(0,0)"/></g></g></g><g id="j_551" model-id="4ac57e29-dddb-499f-979e-95c0b8db118e" class="tp Link link"><path class="connection" stroke="black" id="v-11189" stroke-dasharray="none" d="M 456 328 456 241"/><path class="marker-source" fill="black" stroke="black" id="v-11190" d="" transform="translate(456,328) scale(1,1) rotate(-90)"/><path class="marker-target" fill="black" stroke="black" id="v-11191" d="" transform="translate(456,241) scale(1,1) rotate(-270)"/><g class="labels" id="v-11193"><g class="js-link-label" id="v-11201" label-idx="0" cursor="move" transform="translate(456, 284.5)"><rect fill="white" rx="3" ry="3" x="0" y="0" width="0" height="0"/><text class="ui-link-label" text-anchor="middle" font-size="14pt" font-family="OpenSansCondensedLight" id="v-11202" y="0.8em" display="none" xml:space="preserve" transform="translate(0,0)"/></g></g></g><g id="j_542" model-id="542f632f-1ddf-4efb-9197-9b9522317a71" class="tp Link link"><path class="connection" stroke="black" id="v-11059" stroke-dasharray="none" d="M 659 328 659 279 565 278 565 237"/><path class="marker-source" fill="black" stroke="black" id="v-11060" d="" transform="translate(659,328) scale(1,1) rotate(-90)"/><path class="marker-target" fill="black" stroke="black" id="v-11061" d="" transform="translate(565,237) scale(1,1) rotate(-270)"/><g class="labels" id="v-11063"><g class="js-link-label" id="v-11073" label-idx="0" cursor="move" transform="translate(615.999755859375, 278.54254150390625)"><rect fill="white" rx="3" ry="3" x="0" y="0" width="0" height="0"/><text class="ui-link-label" text-anchor="middle" font-size="14pt" font-family="OpenSansCondensedLight" id="v-11074" y="0.8em" display="none" xml:space="preserve" transform="translate(0,0)"/></g></g></g><g id="j_538" model-id="d7662c30-8922-42c7-b6a3-8c47235f8104" class="element tp Element" transform="translate(25,423)"><g class="rotatable" id="v-10974"><g class="scalable" id="v-10983">
<g class="ui-stroke ui-fill" id="v-10981" stroke="#000000" stroke-dasharray="none" fill="#FFFFFF">
    <path d="M108.70463541057909,55.0646043137299h-104.02651973039562C2.092841225345237,55.0646043137299,0,52.946734917047976,0,50.33054330938208V4.734061004347819C0,2.117869396681919,2.092841225345237,0,4.678115680183471,0h104.02651973039562c2.5852744548382343,0,4.678115680183471,2.117869396681919,4.678115680183471,4.734061004347819v45.59648230503426C113.38275109076255,52.946734917047976,111.28990986541733,55.0646043137299,108.70463541057909,55.0646043137299z" id="v-10984"/>
    <path d="M33.608567912897044,36.25294084908462h-5.662982139169465c-0.2462166147464985,0,-0.492433229492997,-0.2491611054919905,-0.492433229492997,-0.498322210983981V29.89933265903886c0,-0.2491611054919905,0.2462166147464985,-0.498322210983981,0.492433229492997,-0.498322210983981h5.662982139169465c0.2462166147464985,0,0.492433229492997,0.2491611054919905,0.492433229492997,0.498322210983981v5.855285979061777C34.22410944976329,35.879199190846634,33.977892835016796,36.25294084908462,33.608567912897044,36.25294084908462z" id="v-10985"/>
    <path d="M43.94966573224998,36.25294084908462h-5.662982139169465c-0.2462166147464985,0,-0.492433229492997,-0.2491611054919905,-0.492433229492997,-0.498322210983981V29.89933265903886c0,-0.2491611054919905,0.2462166147464985,-0.498322210983981,0.492433229492997,-0.498322210983981h5.662982139169465c0.2462166147464985,0,0.492433229492997,0.2491611054919905,0.492433229492997,0.498322210983981v5.855285979061777C44.56520726911623,35.879199190846634,44.31899065436973,36.25294084908462,43.94966573224998,36.25294084908462z" id="v-10986"/>
    <path d="M54.29076355160292,36.25294084908462H48.62778141243345c-0.2462166147464985,0,-0.492433229492997,-0.2491611054919905,-0.492433229492997,-0.498322210983981V29.89933265903886c0,-0.2491611054919905,0.2462166147464985,-0.498322210983981,0.492433229492997,-0.498322210983981h5.662982139169465c0.2462166147464985,0,0.492433229492997,0.2491611054919905,0.492433229492997,0.498322210983981v5.855285979061777C54.90630508846917,35.879199190846634,54.660088473722666,36.25294084908462,54.29076355160292,36.25294084908462z" id="v-10987"/>
    <path d="M64.63186137095586,36.25294084908462h-5.662982139169465c-0.2462166147464985,0,-0.492433229492997,-0.2491611054919905,-0.492433229492997,-0.498322210983981V29.89933265903886c0,-0.2491611054919905,0.2462166147464985,-0.498322210983981,0.492433229492997,-0.498322210983981H64.63186137095586c0.2462166147464985,0,0.492433229492997,0.2491611054919905,0.492433229492997,0.498322210983981v5.855285979061777C65.2474029078221,35.879199190846634,65.0011862930756,36.25294084908462,64.63186137095586,36.25294084908462z" id="v-10988"/>
    <path d="M74.97295919030879,36.25294084908462h-5.662982139169465c-0.2462166147464985,0,-0.492433229492997,-0.2491611054919905,-0.492433229492997,-0.498322210983981V29.89933265903886c0,-0.2491611054919905,0.2462166147464985,-0.498322210983981,0.492433229492997,-0.498322210983981h5.662982139169465c0.2462166147464985,0,0.492433229492997,0.2491611054919905,0.492433229492997,0.498322210983981v5.855285979061777C75.58850072717503,35.879199190846634,75.34228411242854,36.25294084908462,74.97295919030879,36.25294084908462z" id="v-10989"/>
    <path d="M85.31405700966172,36.25294084908462h-5.662982139169465c-0.2462166147464985,0,-0.492433229492997,-0.2491611054919905,-0.492433229492997,-0.498322210983981V29.89933265903886c0,-0.2491611054919905,0.2462166147464985,-0.498322210983981,0.492433229492997,-0.498322210983981h5.662982139169465c0.2462166147464985,0,0.492433229492997,0.2491611054919905,0.492433229492997,0.498322210983981v5.855285979061777C85.80649023915473,35.879199190846634,85.56027362440823,36.25294084908462,85.31405700966172,36.25294084908462z" id="v-10990"/>
    <path d="M29.053560540086824,25.788174418421015H23.390578400917356c-0.2462166147464985,0,-0.492433229492997,-0.2491611054919905,-0.492433229492997,-0.498322210983981v-5.855285979061777c0,-0.2491611054919905,0.2462166147464985,-0.498322210983981,0.492433229492997,-0.498322210983981h5.662982139169465c0.2462166147464985,0,0.492433229492997,0.2491611054919905,0.492433229492997,0.498322210983981v5.855285979061777C29.66910207695307,25.539013312929026,29.42288546220657,25.788174418421015,29.053560540086824,25.788174418421015z" id="v-10991"/>
    <path d="M39.39465835943976,25.788174418421015h-5.662982139169465c-0.2462166147464985,0,-0.492433229492997,-0.2491611054919905,-0.492433229492997,-0.498322210983981v-5.855285979061777c0,-0.2491611054919905,0.2462166147464985,-0.498322210983981,0.492433229492997,-0.498322210983981H39.39465835943976c0.2462166147464985,0,0.492433229492997,0.2491611054919905,0.492433229492997,0.498322210983981v5.855285979061777C39.887091588932755,25.539013312929026,39.64087497418626,25.788174418421015,39.39465835943976,25.788174418421015z" id="v-10992"/>
    <path d="M49.73575617879269,25.788174418421015h-5.662982139169465c-0.2462166147464985,0,-0.492433229492997,-0.2491611054919905,-0.492433229492997,-0.498322210983981v-5.855285979061777c0,-0.2491611054919905,0.2462166147464985,-0.498322210983981,0.492433229492997,-0.498322210983981h5.662982139169465c0.2462166147464985,0,0.492433229492997,0.2491611054919905,0.492433229492997,0.498322210983981v5.855285979061777C50.22818940828569,25.539013312929026,49.9819727935392,25.788174418421015,49.73575617879269,25.788174418421015z" id="v-10993"/>
    <path d="M60.07685399814563,25.788174418421015h-5.662982139169465c-0.2462166147464985,0,-0.492433229492997,-0.2491611054919905,-0.492433229492997,-0.498322210983981v-5.855285979061777c0,-0.2491611054919905,0.2462166147464985,-0.498322210983981,0.492433229492997,-0.498322210983981h5.662982139169465c0.2462166147464985,0,0.492433229492997,0.2491611054919905,0.492433229492997,0.498322210983981v5.855285979061777C60.56928722763863,25.539013312929026,60.32307061289213,25.788174418421015,60.07685399814563,25.788174418421015z" id="v-10994"/>
    <path d="M70.41795181749858,25.788174418421015h-5.662982139169465c-0.2462166147464985,0,-0.492433229492997,-0.2491611054919905,-0.492433229492997,-0.498322210983981v-5.855285979061777c0,-0.2491611054919905,0.2462166147464985,-0.498322210983981,0.492433229492997,-0.498322210983981h5.662982139169465c0.2462166147464985,0,0.492433229492997,0.2491611054919905,0.492433229492997,0.498322210983981v5.855285979061777C70.91038504699156,25.539013312929026,70.66416843224506,25.788174418421015,70.41795181749858,25.788174418421015z" id="v-10995"/>
    <path d="M80.7590496368515,25.788174418421015h-5.7860904465427145c-0.2462166147464985,0,-0.492433229492997,-0.2491611054919905,-0.492433229492997,-0.498322210983981v-5.855285979061777c0,-0.2491611054919905,0.2462166147464985,-0.498322210983981,0.492433229492997,-0.498322210983981H80.63594132947826c0.2462166147464985,0,0.492433229492997,0.2491611054919905,0.492433229492997,0.498322210983981v5.855285979061777C81.2514828663445,25.539013312929026,81.005266251598,25.788174418421015,80.7590496368515,25.788174418421015z" id="v-10996"/>
    <path d="M91.10014745620444,25.788174418421015h-5.662982139169465c-0.2462166147464985,0,-0.492433229492997,-0.2491611054919905,-0.492433229492997,-0.498322210983981v-5.855285979061777c0,-0.2491611054919905,0.2462166147464985,-0.498322210983981,0.492433229492997,-0.498322210983981H91.10014745620444c0.2462166147464985,0,0.492433229492997,0.2491611054919905,0.492433229492997,0.498322210983981v5.855285979061777C91.59258068569744,25.539013312929026,91.34636407095094,25.788174418421015,91.10014745620444,25.788174418421015z" id="v-10997"/>
    <path d="M14.157455347923664,15.323407987757415H8.494473208754199c-0.2462166147464985,0,-0.492433229492997,-0.2491611054919905,-0.492433229492997,-0.498322210983981V8.969799797711659c0,-0.2491611054919905,0.2462166147464985,-0.498322210983981,0.492433229492997,-0.498322210983981H14.157455347923664c0.2462166147464985,0,0.492433229492997,0.2491611054919905,0.492433229492997,0.498322210983981v5.855285979061777C14.649888577416661,15.074246882265424,14.403671962670161,15.323407987757415,14.157455347923664,15.323407987757415z" id="v-10998"/>
    <path d="M24.129228245156856,15.323407987757415H18.466246105987388c-0.2462166147464985,0,-0.492433229492997,-0.2491611054919905,-0.492433229492997,-0.498322210983981V8.969799797711659c0,-0.2491611054919905,0.2462166147464985,-0.498322210983981,0.492433229492997,-0.498322210983981h5.662982139169465c0.2462166147464985,0,0.492433229492997,0.2491611054919905,0.492433229492997,0.498322210983981v5.855285979061777C24.744769782023102,15.074246882265424,24.498553167276597,15.323407987757415,24.129228245156856,15.323407987757415z" id="v-10999"/>
    <path d="M34.22410944976329,15.323407987757415h-5.662982139169465c-0.2462166147464985,0,-0.492433229492997,-0.2491611054919905,-0.492433229492997,-0.498322210983981V8.969799797711659c0,-0.2491611054919905,0.2462166147464985,-0.498322210983981,0.492433229492997,-0.498322210983981h5.662982139169465c0.2462166147464985,0,0.492433229492997,0.2491611054919905,0.492433229492997,0.498322210983981v5.855285979061777C34.839650986629536,15.074246882265424,34.59343437188304,15.323407987757415,34.22410944976329,15.323407987757415z" id="v-11000"/>
    <path d="M44.31899065436973,15.323407987757415h-5.662982139169465c-0.2462166147464985,0,-0.492433229492997,-0.2491611054919905,-0.492433229492997,-0.498322210983981V8.969799797711659c0,-0.2491611054919905,0.2462166147464985,-0.498322210983981,0.492433229492997,-0.498322210983981H44.31899065436973c0.2462166147464985,0,0.492433229492997,0.2491611054919905,0.492433229492997,0.498322210983981v5.855285979061777C44.81142388386272,15.074246882265424,44.56520726911623,15.323407987757415,44.31899065436973,15.323407987757415z" id="v-11001"/>
    <path d="M54.29076355160292,15.323407987757415H48.62778141243345c-0.2462166147464985,0,-0.492433229492997,-0.2491611054919905,-0.492433229492997,-0.498322210983981V8.969799797711659c0,-0.2491611054919905,0.2462166147464985,-0.498322210983981,0.492433229492997,-0.498322210983981h5.662982139169465c0.2462166147464985,0,0.492433229492997,0.2491611054919905,0.492433229492997,0.498322210983981v5.855285979061777C54.90630508846917,15.074246882265424,54.660088473722666,15.323407987757415,54.29076355160292,15.323407987757415z" id="v-11002"/>
    <path d="M64.38564475620936,15.323407987757415h-5.662982139169465c-0.2462166147464985,0,-0.492433229492997,-0.2491611054919905,-0.492433229492997,-0.498322210983981V8.969799797711659c0,-0.2491611054919905,0.2462166147464985,-0.498322210983981,0.492433229492997,-0.498322210983981h5.662982139169465c0.2462166147464985,0,0.492433229492997,0.2491611054919905,0.492433229492997,0.498322210983981v5.855285979061777C65.0011862930756,15.074246882265424,64.7549696783291,15.323407987757415,64.38564475620936,15.323407987757415z" id="v-11003"/>
    <path d="M74.4805259608158,15.323407987757415h-5.662982139169465c-0.2462166147464985,0,-0.492433229492997,-0.2491611054919905,-0.492433229492997,-0.498322210983981V8.969799797711659c0,-0.2491611054919905,0.2462166147464985,-0.498322210983981,0.492433229492997,-0.498322210983981H74.4805259608158c0.2462166147464985,0,0.492433229492997,0.2491611054919905,0.492433229492997,0.498322210983981v5.855285979061777C74.97295919030879,15.074246882265424,74.7267425755623,15.323407987757415,74.4805259608158,15.323407987757415z" id="v-11004"/>
    <path d="M84.45229885804898,15.323407987757415H78.78931671887952c-0.2462166147464985,0,-0.492433229492997,-0.2491611054919905,-0.492433229492997,-0.498322210983981V8.969799797711659c0,-0.2491611054919905,0.2462166147464985,-0.498322210983981,0.492433229492997,-0.498322210983981h5.662982139169465c0.2462166147464985,0,0.492433229492997,0.2491611054919905,0.492433229492997,0.498322210983981v5.855285979061777C85.06784039491522,15.074246882265424,84.82162378016874,15.323407987757415,84.45229885804898,15.323407987757415z" id="v-11005"/>
    <path d="M94.54718006265541,15.323407987757415h-5.662982139169465c-0.2462166147464985,0,-0.492433229492997,-0.2491611054919905,-0.492433229492997,-0.498322210983981V8.969799797711659c0,-0.2491611054919905,0.2462166147464985,-0.498322210983981,0.492433229492997,-0.498322210983981h5.662982139169465c0.2462166147464985,0,0.492433229492997,0.2491611054919905,0.492433229492997,0.498322210983981v5.855285979061777C95.03961329214842,15.074246882265424,94.79339667740192,15.323407987757415,94.54718006265541,15.323407987757415z" id="v-11006"/>
    <path d="M104.64206126726187,15.323407987757415h-5.662982139169465c-0.2462166147464985,0,-0.492433229492997,-0.2491611054919905,-0.492433229492997,-0.498322210983981V8.969799797711659c0,-0.2491611054919905,0.2462166147464985,-0.498322210983981,0.492433229492997,-0.498322210983981H104.64206126726187c0.2462166147464985,0,0.492433229492997,0.2491611054919905,0.492433229492997,0.498322210983981v5.855285979061777C105.13449449675487,15.074246882265424,104.88827788200837,15.323407987757415,104.64206126726187,15.323407987757415z" id="v-11007"/>
    <path d="M27.822477466354332,46.59312672700222h57.4915795433074c0.3693249221197477,0,0.6155415368662462,-0.2491611054919905,0.6155415368662462,-0.6229027637299762v-5.73070542631578c0,-0.3737416582379857,-0.2462166147464985,-0.6229027637299762,-0.6155415368662462,-0.6229027637299762H27.822477466354332c-0.3693249221197477,0,-0.6155415368662462,0.2491611054919905,-0.6155415368662462,0.6229027637299762v5.73070542631578C27.206935929488086,46.343965621510236,27.453152544234584,46.59312672700222,27.822477466354332,46.59312672700222z" id="v-11008"/>
    <path d="M8.494473208754199,46.59312672700222h14.77299688478991c0.3693249221197477,0,0.6155415368662462,-0.2491611054919905,0.6155415368662462,-0.6229027637299762v-5.73070542631578c0,-0.3737416582379857,-0.2462166147464985,-0.6229027637299762,-0.6155415368662462,-0.6229027637299762h-14.77299688478991c-0.3693249221197477,0,-0.6155415368662462,0.2491611054919905,-0.6155415368662462,0.6229027637299762v5.73070542631578C7.878931671887952,46.343965621510236,8.12514828663445,46.59312672700222,8.494473208754199,46.59312672700222z" id="v-11009"/>
    <path d="M89.99217268984519,46.59312672700222h14.896105192163159c0.3693249221197477,0,0.6155415368662462,-0.2491611054919905,0.6155415368662462,-0.6229027637299762v-5.73070542631578c0,-0.3737416582379857,-0.2462166147464985,-0.6229027637299762,-0.6155415368662462,-0.6229027637299762h-14.896105192163159c-0.3693249221197477,0,-0.6155415368662462,0.2491611054919905,-0.6155415368662462,0.6229027637299762v5.73070542631578C89.37663115297894,46.343965621510236,89.62284776772545,46.59312672700222,89.99217268984519,46.59312672700222z" id="v-11010"/>
    <path d="M89.99217268984519,36.25294084908462h14.896105192163159c0.3693249221197477,0,0.6155415368662462,-0.2491611054919905,0.6155415368662462,-0.6229027637299762V29.89933265903886c0,-0.3737416582379857,-0.2462166147464985,-0.6229027637299762,-0.6155415368662462,-0.6229027637299762h-14.896105192163159c-0.3693249221197477,0,-0.6155415368662462,0.2491611054919905,-0.6155415368662462,0.6229027637299762v5.73070542631578C89.37663115297894,35.879199190846634,89.62284776772545,36.25294084908462,89.99217268984519,36.25294084908462z" id="v-11011"/>
    <path d="M8.494473208754199,36.25294084908462h14.77299688478991c0.3693249221197477,0,0.6155415368662462,-0.2491611054919905,0.6155415368662462,-0.6229027637299762V29.89933265903886c0,-0.3737416582379857,-0.2462166147464985,-0.6229027637299762,-0.6155415368662462,-0.6229027637299762h-14.77299688478991c-0.3693249221197477,0,-0.6155415368662462,0.2491611054919905,-0.6155415368662462,0.6229027637299762v5.73070542631578C7.878931671887952,35.879199190846634,8.12514828663445,36.25294084908462,8.494473208754199,36.25294084908462z" id="v-11012"/>
    <path d="M8.494473208754199,25.788174418421015h10.217989511979688c0.3693249221197477,0,0.6155415368662462,-0.2491611054919905,0.6155415368662462,-0.6229027637299762v-5.73070542631578c0,-0.3737416582379857,-0.2462166147464985,-0.6229027637299762,-0.6155415368662462,-0.6229027637299762H8.494473208754199c-0.3693249221197477,0,-0.6155415368662462,0.2491611054919905,-0.6155415368662462,0.6229027637299762v5.73070542631578C7.878931671887952,25.539013312929026,8.12514828663445,25.788174418421015,8.494473208754199,25.788174418421015z" id="v-11013"/>
    <path d="M95.65515482901466,25.788174418421015h9.233123052993694c0.3693249221197477,0,0.6155415368662462,-0.2491611054919905,0.6155415368662462,-0.6229027637299762v-5.73070542631578c0,-0.3737416582379857,-0.2462166147464985,-0.6229027637299762,-0.6155415368662462,-0.6229027637299762h-9.233123052993694c-0.3693249221197477,0,-0.6155415368662462,0.2491611054919905,-0.6155415368662462,0.6229027637299762v5.73070542631578C95.03961329214842,25.539013312929026,95.40893821426816,25.788174418421015,95.65515482901466,25.788174418421015z" id="v-11014"/>
</g>
<rect x="4.062574143317225" y="2.86535271315789" fill="none" width="105.25760280412811" height="49.45847944016012" class="ui-interior-label" id="v-10982"/>
<circle fill="none" cx="56.56826723800803" cy="0" r="0.1" id="v-2495" class="js-number-connector-1 js-link-connector"/>
<circle fill="none" cx="88.14554807924645" cy="0" r="0.1" id="v-2496" class="js-number-connector-2 js-link-connector"/>
<circle fill="none" cx="113.38275109076255" cy="7.023228661055482" r="0.1" id="v-2497" class="js-number-connector-3 js-link-connector"/>
<circle fill="none" cx="113.38275109076255" cy="27.67245527870419" r="0.1" id="v-2498" class="js-number-connector-4 js-link-connector"/>
<circle fill="none" cx="113.38275109076255" cy="48.18152877451366" r="0.1" id="v-2499" class="js-number-connector-5 js-link-connector"/>
<circle fill="none" cx="88.06860538713818" cy="55.0646043137299" r="0.1" id="v-2500" class="js-number-connector-6 js-link-connector"/>
<circle fill="none" cx="56.49132454589975" cy="55.0646043137299" r="0.1" id="v-2501" class="js-number-connector-7 js-link-connector"/>
<circle fill="none" cx="19.32800425760013" cy="55.0646043137299" r="0.1" id="v-2502" class="js-number-connector-8 js-link-connector"/>
<circle fill="none" cx="0" cy="48.2593916199799" r="0.1" id="v-2503" class="js-number-connector-9 js-link-connector"/>
<circle fill="none" cx="0" cy="27.750318124170438" r="0.1" id="v-2504" class="js-number-connector-10 js-link-connector"/>
<circle fill="none" cx="0" cy="6.945365815589235" r="0.1" id="v-2505" class="js-number-connector-11 js-link-connector"/>
<circle fill="none" cx="19.40494694970841" cy="0.07786284546624703" r="0.1" id="v-2506" class="js-number-connector-12 js-link-connector"/>
</g></g><rect class="ui-number-box" id="v-10975" stroke="none" stroke-width="0" fill="#FFFFFF" x="0" y="0" width="0" height="0" transform="translate(113.28275299072266,27.57245445251465)"/><path class="ui-number-leadline" id="v-10976" stroke="#000000" fill="none" d=""/><text class="ui-number-label" id="v-10977" font-family="OpenSansCondensedLight" font-size="14pt" fill="black" transform="translate(113.28275299072266,27.57245445251465)"/><rect class="ui-label-box" id="v-10978" stroke-width="0" fill="none" width="340.7482498213649" transform="translate(-113.68274002149701,65.16460800170898)"/><text class="ui-label" id="v-10979" font-family="OpenSansCondensedLight" font-size="14pt" fill="black" transform="translate(-113.6827392578125,65.16460418701172)" text-anchor="middle"><tspan x="170.37411499023438" y="16.80003">INTERFACE DEVICE 1218</tspan></text><path class="ui-number-underline" id="v-10980" stroke="#000000" fill="none" transform="translate(-113.6827392578125,65.16460418701172)" d="M 241.22523498535156 19 278.55321502685547 19"/></g><g id="j_534" model-id="2e65d7b8-9a71-44b5-816a-e63be4f4143a" class="element tp Element" transform="translate(206,407)"><g class="rotatable" id="v-10885"><g class="scalable" id="v-10896">
<g class="ui-fill" id="v-10893" fill="#FFFFFF">
    <path d="M122.47845089985499,79.31966754566201h-6.1095133154751196c0.15369844818805334,-0.15420591503409387,-0.038424612047013335,5.975479207571136,-0.038424612047013335,5.975479207571136H0.09606153011753332V11.758201021349656c0,0,6.263211763663173,-0.1927573937926173,6.147937927522133,-0.07710295751704693V5.782721813778519h5.763691807051999V0h116.23445144221532v73.5369457318835h-5.802116419099012" id="v-10897"/>
</g>
<g class="ui-stroke" id="v-10892" stroke="#000000" stroke-dasharray="none">
    <path class="js-perimeter" fill="none" d="M12.007691264691665,5.782721813778519V0h116.23445144221532v73.5369457318835h-5.802116419099012" id="v-10898"/>
    <path class="js-perimeter" fill="none" d="M6.243999457639666,11.681098063832609V5.782721813778519h116.23445144221532v73.5369457318835h-6.1095133154751196" id="v-10899"/>
    <path class="js-perimeter" fill="none" d="M0.09606153011753332,11.758201021349656h116.23445144221532v73.5369457318835H0.09606153011753332V11.758201021349656z" id="v-10900"/>
</g>
<rect x="3.842461204701333" y="15.439867242788646" fill="none" width="108.87613823521228" height="65.90375293769586" class="ui-interior-label" id="v-10894"/>
<circle fill="none" cx="66.09033272086293" cy="0.09637869689630865" r="0.1" class="js-number-connector-1 js-link-connector" id="v-10901"/>
<circle fill="none" cx="105.37949853893406" cy="0.09637869689630865" r="0.1" class="js-number-connector-2 js-link-connector" id="v-10902"/>
<circle fill="none" cx="128.20371809485997" cy="6.900714697775699" r="0.1" class="js-number-connector-3 js-link-connector" id="v-10903"/>
<circle fill="none" cx="128.20371809485997" cy="33.01934155667534" r="0.1" class="js-number-connector-4 js-link-connector" id="v-10895"/>
<circle fill="none" cx="128.20371809485997" cy="68.73728662644733" r="0.1" class="js-number-connector-5 js-link-connector" id="v-10904"/>
<circle fill="none" cx="100.80696970533948" cy="85.43007692888798" r="0.1" class="js-number-connector-6 js-link-connector" id="v-10905"/>
<circle fill="none" cx="54.63979833085295" cy="85.19876805633685" r="0.1" class="js-number-connector-7 js-link-connector" id="v-10906"/>
<circle fill="none" cx="13.948134173065837" cy="85.19876805633685" r="0.1" class="js-number-connector-8 js-link-connector" id="v-10907"/>
<circle fill="none" cx="0.28818459035259997" cy="74.4429054827088" r="0.1" class="js-number-connector-9 js-link-connector" id="v-10908"/>
<circle fill="none" cx="0.28818459035259997" cy="46.51235912215856" r="0.1" class="js-number-connector-10 js-link-connector" id="v-10909"/>
<circle fill="none" cx="0.09606153011753332" cy="24.171777181594212" r="0.1" class="js-number-connector-11 js-link-connector" id="v-10910"/>
<circle fill="none" cx="27.30068685940297" cy="0.09637869689630865" r="0.1" class="js-number-connector-12 js-link-connector" id="v-10911"/>
</g></g><rect class="ui-number-box" id="v-10886" stroke="none" stroke-width="0" fill="#FFFFFF" x="0" y="0" width="0" height="0" transform="translate(128.1037139892578,32.919342041015625)"/><path class="ui-number-leadline" id="v-10887" stroke="#000000" fill="none" d=""/><text class="ui-number-label" id="v-10888" font-family="OpenSansCondensedLight" font-size="14pt" fill="black" transform="translate(128.1037139892578,32.919342041015625)"/><rect class="ui-label-box" id="v-10889" stroke-width="0" fill="none" width="108.87613606452942" height="65.90375328063965" transform="translate(3.842461347579956,15.43986701965332)"/><text class="ui-label" id="v-10890" font-family="OpenSansCondensedLight" font-size="14pt" fill="black" transform="translate(3.842461347579956,15.43986701965332)" text-anchor="middle"><tspan x="54.43806838989258" y="7.751832593994145">USER</tspan><tspan x="54.43806838989258" y="28.751870093994143">INTERFACE</tspan><tspan x="54.43806838989258" y="49.75190759399414">ADAPTER</tspan><tspan x="54.43806838989258" y="70.75194509399414">1220</tspan></text><path class="ui-number-underline" id="v-10891" stroke="#000000" fill="none" transform="translate(3.842461347579956,15.43986701965332)" d="M 35.774078369140625 73 73.10205841064453 73"/></g><g id="j_552" model-id="dcf43173-387d-4e34-9448-7253156858e9" class="tp Link link"><path class="connection" stroke="black" id="v-11203" stroke-dasharray="none" d="M 274 407 274 353"/><path class="marker-source" fill="black" stroke="black" id="v-11204" d="" transform="translate(274,407) scale(1,1) rotate(-90)"/><path class="marker-target" fill="black" stroke="black" id="v-11205" d="" transform="translate(274,353) scale(1,1) rotate(-270)"/><g class="labels" id="v-11207"><g class="js-link-label" id="v-11215" label-idx="0" cursor="move" transform="translate(274, 380)"><rect fill="white" rx="3" ry="3" x="0" y="0" width="0" height="0"/><text class="ui-link-label" text-anchor="middle" font-size="14pt" font-family="OpenSansCondensedLight" id="v-11216" y="0.8em" display="none" xml:space="preserve" transform="translate(0,0)"/></g></g></g><g id="j_544" model-id="cdf36f75-daa8-4d63-a5ba-b69356ffc1e5" class="tp Link link"><path class="connection" stroke="black" id="v-11089" stroke-dasharray="none" d="M 138 454 206 454"/><path class="marker-source" fill="black" stroke="black" id="v-11090" d="" transform="translate(138,454) scale(1,1) rotate(0)"/><path class="marker-target" fill="black" stroke="black" id="v-11091" d="" transform="translate(206,454) scale(1,1) rotate(-180)"/><g class="labels" id="v-11093"><g class="js-link-label" id="v-11101" label-idx="0" cursor="move" transform="translate(172, 454)"><rect fill="white" rx="3" ry="3" x="0" y="0" width="0" height="0"/><text class="ui-link-label" text-anchor="middle" font-size="14pt" font-family="OpenSansCondensedLight" id="v-11102" y="0.8em" display="none" xml:space="preserve" transform="translate(0,0)"/></g></g></g><g id="j_532" model-id="855edadc-6bfb-451e-924e-a69f0cb851b9" class="element tp Element" transform="translate(206,520)"><g class="rotatable" id="v-10841"><g class="scalable" id="v-10850">
<g class="ui-stroke ui-fill" id="v-10848" stroke="#000000" stroke-dasharray="none" fill="#FFFFFF">
    <g id="v-10851">
        <path class="js-perimeter" d="M27.998036125863752,29.26391535716358V19.486485693438368c0,-0.47861543808445106,-0.3932308444643785,-0.8204836081447733,-0.9437540267145084,-0.8204836081447733s-0.9437540267145084,0.3418681700603222,-0.9437540267145084,0.8204836081447733v9.777429663725217c0,5.811758891025478,-5.426585653608424,10.529539637857924,-12.111510009502858,10.529539637857924S1.8875080534290167,35.07567424818906,1.8875080534290167,29.26391535716358V19.486485693438368c0,-0.47861543808445106,-0.3932308444643785,-0.8204836081447733,-0.9437540267145084,-0.8204836081447733S0,19.007870255353915,0,19.486485693438368v9.777429663725217C0,35.691036954297644,5.819816498072802,41.02418040723867,13.055264036217368,41.43442221131105v4.92290164886864H4.640123964679667c-0.5505231822501299,0,-0.9437540267145084,0.3418681700603222,-0.9437540267145084,0.8204836081447733s0.3932308444643785,0.8204836081447733,0.9437540267145084,0.8204836081447733h18.71778819650442c0.5505231822501299,0,0.9437540267145084,-0.3418681700603222,0.9437540267145084,-0.8204836081447733s-0.3932308444643785,-0.8204836081447733,-0.9437540267145084,-0.8204836081447733H14.942772089646382v-4.92290164886864C22.256865796683822,40.9558067732266,27.998036125863752,35.691036954297644,27.998036125863752,29.26391535716358L27.998036125863752,29.26391535716358z" id="v-10852"/>
    </g>
    <path class="js-perimeter" d="M6.76357052478731,6.2903743291099286C6.76357052478731,2.803318994494642,9.988063449395213,0,13.999018062931876,0S21.23446560107644,2.803318994494642,21.23446560107644,6.2903743291099286v23.38378283212604c0,3.4870553346152864,-3.2244929246079033,6.2903743291099286,-7.235447538144564,6.2903743291099286S6.76357052478731,33.16121249585125,6.76357052478731,29.674157161235968V6.2903743291099286z" id="v-10853"/>
    <line x1="6.76357052478731" y1="6.2903743291099286" x2="13.52714104957462" y2="6.2903743291099286" id="v-10854"/>
    <line x1="6.76357052478731" y1="8.888572421568378" x2="13.52714104957462" y2="8.888572421568378" id="v-10855"/>
    <line x1="6.76357052478731" y1="11.418396880014761" x2="13.52714104957462" y2="11.418396880014761" id="v-10856"/>
    <line x1="6.76357052478731" y1="14.01659497247321" x2="13.52714104957462" y2="14.01659497247321" id="v-10857"/>
</g>
<rect x="2.8017697668086967" y="4.709234042580938" fill="none" width="22.394496592246355" height="31.699726068843376" class="ui-interior-label" id="v-10849"/>
<circle fill="none" cx="13.999018062931876" cy="0" r="0.1" id="v-1985" class="js-number-connector-1 js-link-connector"/>
<circle fill="none" cx="21.23446560107644" cy="6.2903743291099286" r="0.1" id="v-1986" class="js-number-connector-2 js-link-connector"/>
<circle fill="none" cx="21.283619456634487" cy="14.01659497247321" r="0.1" id="v-1987" class="js-number-connector-3 js-link-connector"/>
<circle fill="none" cx="27.998036125863752" cy="21.221466656494503" r="0.1" id="v-1988" class="js-number-connector-4 js-link-connector"/>
<circle fill="none" cx="26.76918973691257" cy="34.22955052728976" r="0.1" id="v-1989" class="js-number-connector-5 js-link-connector"/>
<circle fill="none" cx="24.30166618789859" cy="47.17780746832447" r="0.1" id="v-1990" class="js-number-connector-6 js-link-connector"/>
<circle fill="none" cx="13.949864207373828" cy="47.99829107646924" r="0.1" id="v-1991" class="js-number-connector-7 js-link-connector"/>
<circle fill="none" cx="3.6963699379651582" cy="47.13507394706693" r="0.1" id="v-1992" class="js-number-connector-8 js-link-connector"/>
<circle fill="none" cx="1.2485079311744016" cy="34.18681700603222" r="0.1" id="v-1993" class="js-number-connector-9 js-link-connector"/>
<circle fill="none" cx="0" cy="21.178733135236964" r="0.1" id="v-1994" class="js-number-connector-10 js-link-connector"/>
<circle fill="none" cx="6.76357052478731" cy="14.059328493730751" r="0.1" id="v-1995" class="js-number-connector-11 js-link-connector"/>
<circle fill="none" cx="6.714416669229263" cy="6.247640807852388" r="0.1" id="v-1996" class="js-number-connector-12 js-link-connector"/>
</g></g><rect class="ui-number-box" id="v-10842" stroke="none" stroke-width="0" fill="#FFFFFF" x="0" y="0" width="0" height="0" transform="translate(27.898035049438477,21.1214656829834)"/><path class="ui-number-leadline" id="v-10843" stroke="#000000" fill="none" d=""/><text class="ui-number-label" id="v-10844" font-family="OpenSansCondensedLight" font-size="14pt" fill="black" transform="translate(27.898035049438477,21.1214656829834)"/><rect class="ui-label-box" id="v-10845" stroke-width="0" fill="none" width="84.59410744160414" transform="translate(-28.298036385327578,58.09829330444336)"/><text class="ui-label" id="v-10846" font-family="OpenSansCondensedLight" font-size="14pt" fill="black" transform="translate(-28.298038482666016,58.09829330444336)" text-anchor="middle"><tspan x="42.297054290771484" y="16.80003">INTERFACE</tspan><tspan x="42.297054290771484" y="37.8000675">DEVICE</tspan><tspan x="42.297054290771484" y="58.800104999999995">1222</tspan></text><path class="ui-number-underline" id="v-10847" stroke="#000000" fill="none" transform="translate(-28.298038482666016,58.09829330444336)" d="M 23.63306427001953 61 60.96104431152344 61"/></g><g id="j_531" model-id="c056fc8e-300d-4036-aaea-5e27c0115df6" class="element tp Element" transform="translate(297,523)"><g class="rotatable" id="v-10829"><g class="scalable" id="v-10838">
<g class="ui-stroke ui-fill" id="v-10836" stroke="#000000" stroke-dasharray="none" fill="#FFFFFF">
    <path class="js-perimeter" d="M14.031669640512604,43.99848132935875h-1.0649034995031887C5.763007173781962,43.99848132935875,0,38.35453820710997,0,31.436156315321142V12.5623250140376C0,5.6439431222487775,5.82564855610568,0,12.966766141009415,0h1.0649034995031887c7.1411175849037365,0,12.966766141009415,5.6439431222487775,12.966766141009415,12.5623250140376v18.873831301283545C26.998435781522023,38.35453820710997,21.17278722541634,43.99848132935875,14.031669640512604,43.99848132935875z" id="v-10839"/>
    <path d="M13.467897199599152,12.076824530403297L13.467897199599152,12.076824530403297c-0.8769793525320377,0,-1.6286759404166418,-0.7282507254514551,-1.6286759404166418,-1.5778765718114862v-5.461880440885913c0,-0.8496258463600309,0.7516965878846038,-1.5778765718114862,1.6286759404166418,-1.5778765718114862l0,0c0.8769793525320377,0,1.6286759404166418,0.7282507254514551,1.6286759404166418,1.5778765718114862v5.461880440885913C15.096573140015796,11.409261365406131,14.407517934454907,12.076824530403297,13.467897199599152,12.076824530403297z" id="v-10840"/>
</g>
<rect x="1.5033931757692076" y="13.123684948239763" fill="none" width="24.054290812307322" height="17.751111432879217" class="ui-interior-label" id="v-10837"/>
<circle fill="none" cx="13.467897199599152" cy="0" r="0.1" id="v-1867" class="js-number-connector-1 js-link-connector"/>
<circle fill="none" cx="21.595616556101433" cy="2.366814857717229" r="0.1" id="v-1868" class="js-number-connector-2 js-link-connector"/>
<circle fill="none" cx="26.834002152922263" cy="10.658252804784317" r="0.1" id="v-1869" class="js-number-connector-3 js-link-connector"/>
<circle fill="none" cx="26.998435781522023" cy="21.90820932399794" r="0.1" id="v-1870" class="js-number-connector-4 js-link-connector"/>
<circle fill="none" cx="26.91230388082691" cy="33.03679072230299" r="0.1" id="v-1871" class="js-number-connector-5 js-link-connector"/>
<circle fill="none" cx="21.485994137034925" cy="41.69235403209581" r="0.1" id="v-1872" class="js-number-connector-6 js-link-connector"/>
<circle fill="none" cx="13.499217890761011" cy="43.99848132935875" r="0.1" id="v-1873" class="js-number-connector-7 js-link-connector"/>
<circle fill="none" cx="5.410649398211055" cy="41.654424306811876" r="0.1" id="v-1874" class="js-number-connector-8 js-link-connector"/>
<circle fill="none" cx="0.125282764647434" cy="33.234025293779425" r="0.1" id="v-1875" class="js-number-connector-9 js-link-connector"/>
<circle fill="none" cx="0" cy="21.999240664679373" r="0.1" id="v-1876" class="js-number-connector-10 js-link-connector"/>
<circle fill="none" cx="0.18792414697115095" cy="10.658252804784317" r="0.1" id="v-1877" class="js-number-connector-11 js-link-connector"/>
<circle fill="none" cx="5.371498534258731" cy="2.404744583001159" r="0.1" id="v-1878" class="js-number-connector-12 js-link-connector"/>
</g></g><rect class="ui-number-box" id="v-10830" stroke="none" stroke-width="0" fill="#FFFFFF" x="0" y="0" width="0" height="0" transform="translate(26.898433685302734,21.808208465576172)"/><path class="ui-number-leadline" id="v-10831" stroke="#000000" fill="none" d=""/><text class="ui-number-label" id="v-10832" font-family="OpenSansCondensedLight" font-size="14pt" fill="black" transform="translate(26.898435592651367,21.808210372924805)"/><rect class="ui-label-box" id="v-10833" stroke-width="0" fill="none" width="81.59530334919691" transform="translate(-27.298435974866152,54.09848403930664)"/><text class="ui-label" id="v-10834" font-family="OpenSansCondensedLight" font-size="14pt" fill="black" transform="translate(-27.29843521118164,54.098487854003906)" text-anchor="middle"><tspan x="40.79765319824219" y="16.80003">INTERFACE</tspan><tspan x="40.79765319824219" y="37.8000675">DEVICE</tspan><tspan x="40.79765319824219" y="58.800104999999995">1224</tspan></text><path class="ui-number-underline" id="v-10835" stroke="#000000" fill="none" transform="translate(-27.29843521118164,54.098487854003906)" d="M 22.133663177490234 61 59.46164321899414 61"/></g><g id="j_550" model-id="e585f8f2-220a-43b1-ba45-fe1690e230ea" class="tp Link link"><path class="connection" stroke="black" id="v-11175" stroke-dasharray="none" d="M 307 523 307 492"/><path class="marker-source" fill="black" stroke="black" id="v-11176" d="" transform="translate(307,523) scale(1,1) rotate(-90)"/><path class="marker-target" fill="black" stroke="black" id="v-11177" d="" transform="translate(307,492) scale(1,1) rotate(-270)"/><g class="labels" id="v-11179"><g class="js-link-label" id="v-11187" label-idx="0" cursor="move" transform="translate(307, 507.5)"><rect fill="white" rx="3" ry="3" x="0" y="0" width="0" height="0"/><text class="ui-link-label" text-anchor="middle" font-size="14pt" font-family="OpenSansCondensedLight" id="v-11188" y="0.8em" display="none" xml:space="preserve" transform="translate(0,0)"/></g></g></g><g id="j_553" model-id="884e23ea-7e6a-4885-b53e-970c3c2923ed" class="tp Link link"><path class="connection" stroke="black" id="v-11217" stroke-dasharray="none" d="M 220 520 220 492"/><path class="marker-source" fill="black" stroke="black" id="v-11218" d="" transform="translate(220,520) scale(1,1) rotate(-90)"/><path class="marker-target" fill="black" stroke="black" id="v-11219" d="" transform="translate(220,492) scale(1,1) rotate(-270)"/><g class="labels" id="v-11221"><g class="js-link-label" id="v-11229" label-idx="0" cursor="move" transform="translate(220, 506)"><rect fill="white" rx="3" ry="3" x="0" y="0" width="0" height="0"/><text class="ui-link-label" text-anchor="middle" font-size="14pt" font-family="OpenSansCondensedLight" id="v-11230" y="0.8em" display="none" xml:space="preserve" transform="translate(0,0)"/></g></g></g><g id="j_530" model-id="dd36e54d-690e-4808-862c-2d4c3dafe448" class="element tp Element" transform="translate(385,527)"><g class="rotatable" id="v-10815"><g class="scalable" id="v-10824">
<g class="ui-stroke ui-fill" id="v-10822" stroke="#000000" stroke-dasharray="none" fill="#FFFFFF">
    <g id="v-10825">
        <path class="js-perimeter" d="M5.858055189818087,12.493191131005037H0v18.115127139957302h5.858055189818087L16.89823612447525,41.95630021495858c0,0,2.0277883349370303,2.3945283001092985,2.0277883349370303,-0.10410992609170865V0.8328794087336692c0,-1.8739786696507554,-1.8024785199440267,0,-1.8024785199440267,0L5.858055189818087,12.493191131005037z" id="v-10826"/>
    </g>
    <path class="js-perimeter" d="M25.234699279216375,8.953453643886942c-0.6008261733146756,-0.8328794087336692,-1.502065433286689,-0.8328794087336692,-2.1028916066013643,0s-0.6008261733146756,2.0821985218341728,0,2.9150779305678416c1.9526850632726958,2.7068580783844247,2.853924323244709,6.14248563941081,2.853924323244709,9.578113200437194s-0.9763425316363479,6.975365048144479,-2.853924323244709,9.578113200437194c-0.6008261733146756,0.8328794087336692,-0.6008261733146756,2.0821985218341728,0,2.9150779305678416c0.3004130866573378,0.4164397043668346,0.6759294449790101,0.6246595565502518,1.0514458033006822,0.6246595565502518c0.37551635832167224,0,0.7510327166433445,-0.2082198521834173,1.0514458033006822,-0.6246595565502518c2.478407964923037,-3.4356275610263847,3.7551635832167225,-8.016464309061565,3.7551635832167225,-12.597301057096745C28.9898628624331,16.96991795294851,27.788210515803744,12.389081204913328,25.234699279216375,8.953453643886942L25.234699279216375,8.953453643886942z" id="v-10827"/>
    <path class="js-perimeter" d="M29.290275949090436,2.4986382262010074c-0.6008261733146756,-0.8328794087336692,-1.502065433286689,-0.8328794087336692,-2.1028916066013643,0s-0.6008261733146756,2.0821985218341728,0,2.9150779305678416c3.229440681566381,4.476726821943471,4.806609386517405,10.306882683079156,4.806609386517405,16.13703854421484S30.416825024055452,33.315176349346764,27.18738434248907,37.79190317129023c-0.6008261733146756,0.8328794087336692,-0.6008261733146756,2.0821985218341728,0,2.9150779305678416c0.3004130866573378,0.4164397043668346,0.6759294449790101,0.6246595565502518,1.0514458033006822,0.6246595565502518s0.7510327166433445,-0.2082198521834173,1.0514458033006822,-0.6246595565502518c3.8302668548810566,-5.30960623067714,5.707848646489418,-12.18086135272991,5.707848646489418,-19.156226400874388C34.99812459557985,14.679499578930917,33.120542803971496,7.7041345307864395,29.290275949090436,2.4986382262010074L29.290275949090436,2.4986382262010074z" id="v-10828"/>
</g>
<rect x="2.2530981499300333" y="7.547969641648876" fill="none" width="30.548255749468034" height="28.369954859990603" class="ui-interior-label" id="v-10823"/>
<circle fill="none" cx="18.550508101090607" cy="0" r="0.1" id="v-912" class="js-number-connector-1 js-link-connector"/>
<circle fill="none" cx="28.16372687412542" cy="1.8739786696507554" r="0.1" id="v-913" class="js-number-connector-2 js-link-connector"/>
<circle fill="none" cx="33.5711624339575" cy="11.347981943996242" r="0.1" id="v-914" class="js-number-connector-3 js-link-connector"/>
<circle fill="none" cx="34.99812459557985" cy="21.602809664029543" r="0.1" id="v-915" class="js-number-connector-4 js-link-connector"/>
<circle fill="none" cx="33.665041523537916" cy="31.68845875416382" r="0.1" id="v-916" class="js-number-connector-5 js-link-connector"/>
<circle fill="none" cx="27.9571928770485" cy="41.33164065840833" r="0.1" id="v-917" class="js-number-connector-6 js-link-connector"/>
<circle fill="none" cx="18.40030155776194" cy="42.99739947587567" r="0.1" id="v-918" class="js-number-connector-7 js-link-connector"/>
<circle fill="none" cx="12.842659454601192" cy="37.79190317129023" r="0.1" id="v-919" class="js-number-connector-8 js-link-connector"/>
<circle fill="none" cx="5.858055189818087" cy="30.60831827096234" r="0.1" id="v-920" class="js-number-connector-9 js-link-connector"/>
<circle fill="none" cx="0" cy="21.537740960222223" r="0.1" id="v-921" class="js-number-connector-10 js-link-connector"/>
<circle fill="none" cx="5.811115645027877" cy="12.493191131005037" r="0.1" id="v-922" class="js-number-connector-11 js-link-connector"/>
<circle fill="none" cx="12.889598999391401" cy="5.205496304585432" r="0.1" id="v-923" class="js-number-connector-12 js-link-connector"/>
</g></g><rect class="ui-number-box" id="v-10816" stroke="none" stroke-width="0" fill="#FFFFFF" x="0" y="0" width="0" height="0" transform="translate(34.89812469482422,21.502809524536133)"/><path class="ui-number-leadline" id="v-10817" stroke="#000000" fill="none" d=""/><text class="ui-number-label" id="v-10818" font-family="OpenSansCondensedLight" font-size="14pt" fill="black" transform="translate(34.898128509521484,21.502809524536133)"/><rect class="ui-label-box" id="v-10819" stroke-width="0" fill="none" width="105.59437637776136" transform="translate(-35.298125077039,53.0974006652832)"/><text class="ui-label" id="v-10820" font-family="OpenSansCondensedLight" font-size="14pt" fill="black" transform="translate(-35.298126220703125,53.0974006652832)" text-anchor="middle"><tspan x="52.79718780517578" y="16.80003">INTERFACE</tspan><tspan x="52.79718780517578" y="37.8000675">DEVICE</tspan><tspan x="52.79718780517578" y="58.800104999999995">1226</tspan></text><path class="ui-number-underline" id="v-10821" stroke="#000000" fill="none" transform="translate(-35.298126220703125,53.0974006652832)" d="M 34.13319778442383 61 71.46117782592773 61"/></g><g id="j_541" model-id="792a44db-f343-49be-8cef-3e593d06b432" class="tp Link link"><path class="connection" stroke="black" id="v-11044" stroke-dasharray="none" d="M 406 527 406 471 334 471"/><path class="marker-source" fill="black" stroke="black" id="v-11045" d="" transform="translate(406,527) scale(1,1) rotate(-90)"/><path class="marker-target" fill="black" stroke="black" id="v-11046" d="" transform="translate(334,471) scale(1,1) rotate(0)"/><g class="labels" id="v-11048"><g class="js-link-label" id="v-11057" label-idx="0" cursor="move" transform="translate(398, 471)"><rect fill="white" rx="3" ry="3" x="0" y="0" width="0" height="0"/><text class="ui-link-label" text-anchor="middle" font-size="14pt" font-family="OpenSansCondensedLight" id="v-11058" y="0.8em" display="none" xml:space="preserve" transform="translate(0,0)"/></g></g></g><g id="j_529" model-id="323c06d3-adf8-4544-b90b-30662f8f82a5" class="element tp Element" transform="translate(571,405)"><g class="rotatable" id="v-10788"><g class="scalable" id="v-10799">
<g class="ui-fill" id="v-10796" fill="#FFFFFF">
    <path d="M116.40169979191734,75.38423340114086h-5.806390671973288c0.14607272130750412,-0.146555010257382,-0.03651818032687603,5.679006647473551,-0.03651818032687603,5.679006647473551H0.09129545081719007V11.174819532125376c0,0,5.952463393280793,-0.18319376282172747,5.842908852300164,-0.073277505128691V5.495812884651825h5.477727049031404V0h110.46749548879998v69.88842051648903h-5.51424522935828" id="v-10800"/>
</g>
<g class="ui-stroke" id="v-10795" stroke="#000000" stroke-dasharray="none">
    <path class="js-perimeter" fill="none" d="M11.411931352148759,5.495812884651825V0h110.46749548879998v69.88842051648903h-5.51424522935828" id="v-10801"/>
    <path class="js-perimeter" fill="none" d="M5.934204303117355,11.101542026996686V5.495812884651825h110.46749548879998v69.88842051648903h-5.806390671973288" id="v-10802"/>
    <path class="js-perimeter" fill="none" d="M0.09129545081719007,11.174819532125376h110.46749548879998v69.88842051648903H0.09129545081719007V11.174819532125376z" id="v-10803"/>
</g>
<rect x="3.6518180326876024" y="14.67382040202037" fill="none" width="103.47426395620323" height="62.63394750874862" class="ui-interior-label" id="v-10797"/>
<circle fill="none" cx="62.81127016222676" cy="0.09159688141086374" r="0.1" class="js-number-connector-1 js-link-connector" id="v-10804"/>
<circle fill="none" cx="100.1511095464575" cy="0.09159688141086374" r="0.1" class="js-number-connector-2 js-link-connector" id="v-10805"/>
<circle fill="none" cx="121.84290866062186" cy="6.558336709017843" r="0.1" class="js-number-connector-3 js-link-connector" id="v-10806"/>
<circle fill="none" cx="121.84290866062186" cy="31.381091571361917" r="0.1" class="js-number-connector-4 js-link-connector" id="v-10798"/>
<circle fill="none" cx="121.84290866062186" cy="65.32689582222802" r="0.1" class="js-number-connector-5 js-link-connector" id="v-10807"/>
<circle fill="none" cx="95.80544608755926" cy="81.19147568258961" r="0.1" class="js-number-connector-6 js-link-connector" id="v-10808"/>
<circle fill="none" cx="51.928852424817705" cy="80.97164316720354" r="0.1" class="js-number-connector-7 js-link-connector" id="v-10809"/>
<circle fill="none" cx="13.256099458655996" cy="80.97164316720354" r="0.1" class="js-number-connector-8 js-link-connector" id="v-10810"/>
<circle fill="none" cx="0.2738863524515702" cy="70.74943120175115" r="0.1" class="js-number-connector-9 js-link-connector" id="v-10811"/>
<circle fill="none" cx="0.2738863524515702" cy="44.20465496888284" r="0.1" class="js-number-connector-10 js-link-connector" id="v-10812"/>
<circle fill="none" cx="0.09129545081719007" cy="22.972497857844626" r="0.1" class="js-number-connector-11 js-link-connector" id="v-10813"/>
<circle fill="none" cx="25.946167122245416" cy="0.09159688141086374" r="0.1" class="js-number-connector-12 js-link-connector" id="v-10814"/>
</g></g><rect class="ui-number-box" id="v-10789" stroke="none" stroke-width="0" fill="#FFFFFF" x="0" y="0" width="0" height="0" transform="translate(121.74291229248047,31.281091690063477)"/><path class="ui-number-leadline" id="v-10790" stroke="#000000" fill="none" d=""/><text class="ui-number-label" id="v-10791" font-family="OpenSansCondensedLight" font-size="14pt" fill="black" transform="translate(121.74291229248047,31.281091690063477)"/><rect class="ui-label-box" id="v-10792" stroke-width="0" fill="none" width="103.47426533699036" height="62.633949279785156" transform="translate(3.651818037033081,14.673820495605469)"/><text class="ui-label" id="v-10793" font-family="OpenSansCondensedLight" font-size="14pt" fill="black" transform="translate(3.651818037033081,14.673820495605469)" text-anchor="middle"><tspan x="51.73713302612305" y="16.61694838989258">DISPLAY</tspan><tspan x="51.73713302612305" y="37.616985889892575">ADAPTER</tspan><tspan x="51.73713302612305" y="58.61702338989257">1228</tspan></text><path class="ui-number-underline" id="v-10794" stroke="#000000" fill="none" transform="translate(3.651818037033081,14.673820495605469)" d="M 33.073143005371094 61 70.401123046875 61"/></g><g id="j_549" model-id="537e8f70-1c1a-4fdb-b971-52bc2863cad0" class="tp Link link"><path class="connection" stroke="black" id="v-11161" stroke-dasharray="none" d="M 422 165 422 141"/><path class="marker-source" fill="black" stroke="black" id="v-11162" d="" transform="translate(422,165) scale(1,1) rotate(-90)"/><path class="marker-target" fill="black" stroke="black" id="v-11163" d="" transform="translate(422,141) scale(1,1) rotate(-270)"/><g class="labels" id="v-11165"><g class="js-link-label" id="v-11173" label-idx="0" cursor="move" transform="translate(422, 153)"><rect fill="white" rx="3" ry="3" x="0" y="0" width="0" height="0"/><text class="ui-link-label" text-anchor="middle" font-size="14pt" font-family="OpenSansCondensedLight" id="v-11174" y="0.8em" display="none" xml:space="preserve" transform="translate(0,0)"/></g></g></g><g id="j_528" model-id="b1c0a737-4f5c-44da-ac7a-de93bb249641" class="element tp Element" transform="translate(646,526)"><g class="rotatable" id="v-10776"><g class="scalable" id="v-10785">
<g class="ui-stroke ui-fill" id="v-10783" stroke="#000000" stroke-dasharray="none" fill="#FFFFFF">
    <path class="js-perimeter" d="M110.87210822392105,0H2.545533096977779C1.1313480431012353,0,0,1.137385508370716,0,2.559117393834111V66.82139861677958c0,1.4217318854633951,1.1313480431012353,2.559117393834111,2.545533096977779,2.559117393834111h43.55689965939755L43.132644143234586,80.89654428286718l-10.04071388252346,0.42651956563901855v2.8434637709267903h47.79945482102718v-2.8434637709267903l-8.767947334034572,-0.568692754185358l-2.9697886131407425,-11.5160282722535h41.57704058397039c1.414185053876544,0,2.545533096977779,-1.137385508370716,2.545533096977779,-2.559117393834111V2.559117393834111C113.41764132089882,1.137385508370716,112.2862932777976,0,110.87210822392105,0z" id="v-10786"/>
    <path d="M109.88217868620747,4.407368844936525v59.99708556655528H3.53546263469136V4.407368844936525H109.88217868620747z" id="v-10787"/>
</g>
<rect x="3.53546263469136" y="4.407368844936525" fill="none" width="106.34671605151611" height="59.99708556655528" class="ui-interior-label" id="v-10784"/>
<circle fill="none" cx="56.70882066044941" cy="0" r="0.1" id="v-1932" class="js-number-connector-1 js-link-connector"/>
<circle fill="none" cx="90.93209896426177" cy="0" r="0.1" id="v-1933" class="js-number-connector-2 js-link-connector"/>
<circle fill="none" cx="113.29390012868463" cy="16.065570305736365" r="0.1" id="v-1934" class="js-number-connector-3 js-link-connector"/>
<circle fill="none" cx="113.27622281551116" cy="34.40591162821416" r="0.1" id="v-1935" class="js-number-connector-4 js-link-connector"/>
<circle fill="none" cx="113.27622281551116" cy="55.44754353307241" r="0.1" id="v-1936" class="js-number-connector-5 js-link-connector"/>
<circle fill="none" cx="91.10887209599633" cy="69.23834282206735" r="0.1" id="v-1937" class="js-number-connector-6 js-link-connector"/>
<circle fill="none" cx="56.797207226316694" cy="84.166527619433" r="0.1" id="v-1938" class="js-number-connector-7 js-link-connector"/>
<circle fill="none" cx="22.626960862024703" cy="69.38051601061368" r="0.1" id="v-1939" class="js-number-connector-8 js-link-connector"/>
<circle fill="none" cx="0" cy="55.53640177591387" r="0.1" id="v-1940" class="js-number-connector-9 js-link-connector"/>
<circle fill="none" cx="-0.088386565867284" cy="34.3170533853727" r="0.1" id="v-1941" class="js-number-connector-10 js-link-connector"/>
<circle fill="none" cx="-0.088386565867284" cy="15.550192497255884" r="0.1" id="v-1942" class="js-number-connector-11 js-link-connector"/>
<circle fill="none" cx="22.538574296157417" cy="0.0888582428414622" r="0.1" id="v-1943" class="js-number-connector-12 js-link-connector"/>
</g></g><rect class="ui-number-box" id="v-10777" stroke="none" stroke-width="0" fill="#FFFFFF" x="0" y="0" width="0" height="0" transform="translate(113.17622375488281,34.305912017822266)"/><path class="ui-number-leadline" id="v-10778" stroke="#000000" fill="none" d=""/><text class="ui-number-label" id="v-10779" font-family="OpenSansCondensedLight" font-size="14pt" fill="black" transform="translate(113.17622375488281,34.305912017822266)"/><rect class="ui-label-box" id="v-10780" stroke-width="0" fill="none" width="106.34671664237976" height="59.99708080291748" transform="translate(3.5354626178741455,4.4073686599731445)"/><text class="ui-label" id="v-10781" font-family="OpenSansCondensedLight" font-size="14pt" fill="black" transform="translate(3.5354626178741455,4.4073686599731445)" text-anchor="middle"><tspan x="53.17335891723633" y="15.298514628295901">DISPLAY</tspan><tspan x="53.17335891723633" y="36.298552128295896">DEVICE</tspan><tspan x="53.17335891723633" y="57.29858962829589">1230</tspan></text><path class="ui-number-underline" id="v-10782" stroke="#000000" fill="none" transform="translate(3.5354626178741455,4.4073686599731445)" d="M 34.509368896484375 59 71.83734893798828 59"/></g><g id="j_547" model-id="0d512d98-1165-43b4-83e5-6824b790d843" class="tp Link link"><path class="connection" stroke="black" id="v-11131" stroke-dasharray="none" d="M 667 526 667 486"/><path class="marker-source" fill="black" stroke="black" id="v-11132" d="" transform="translate(667,526) scale(1,1) rotate(-90)"/><path class="marker-target" fill="black" stroke="black" id="v-11133" d="" transform="translate(667,486) scale(1,1) rotate(-270)"/><g class="labels" id="v-11135"><g class="js-link-label" id="v-11143" label-idx="0" cursor="move" transform="translate(667, 506)"><rect fill="white" rx="3" ry="3" x="0" y="0" width="0" height="0"/><text class="ui-link-label" text-anchor="middle" font-size="14pt" font-family="OpenSansCondensedLight" id="v-11144" y="0.8em" display="none" xml:space="preserve" transform="translate(0,0)"/></g></g></g><g id="j_546" model-id="1fed200c-79ce-4d41-8513-4e7ac1df154b" class="tp Link link"><path class="connection" stroke="black" id="v-11117" stroke-dasharray="none" d="M 671 405 671 353"/><path class="marker-source" fill="black" stroke="black" id="v-11118" d="" transform="translate(671,405) scale(1,1) rotate(-90)"/><path class="marker-target" fill="black" stroke="black" id="v-11119" d="" transform="translate(671,353) scale(1,1) rotate(-270)"/><g class="labels" id="v-11121"><g class="js-link-label" id="v-11129" label-idx="0" cursor="move" transform="translate(671, 379)"><rect fill="white" rx="3" ry="3" x="0" y="0" width="0" height="0"/><text class="ui-link-label" text-anchor="middle" font-size="14pt" font-family="OpenSansCondensedLight" id="v-11130" y="0.8em" display="none" xml:space="preserve" transform="translate(0,0)"/></g></g></g><g id="j_540" model-id="375dd74a-190c-40c7-93a5-033e1a31f344" class="tp Link link"><path class="connection" stroke="black" id="v-11029" stroke-dasharray="none" d="M 735 526 735 437 693 437"/><path class="marker-source" fill="black" stroke="black" id="v-11030" d="" transform="translate(735,526) scale(1,1) rotate(-90)"/><path class="marker-target" fill="black" stroke="black" id="v-11031" d="" transform="translate(693,437) scale(1,1) rotate(0)"/><g class="labels" id="v-11033"><g class="js-link-label" id="v-11042" label-idx="0" cursor="move" transform="translate(735, 460.5)"><rect fill="white" rx="3" ry="3" x="0" y="0" width="0" height="0"/><text class="ui-link-label" text-anchor="middle" font-size="14pt" font-family="OpenSansCondensedLight" id="v-11043" y="0.8em" display="none" xml:space="preserve" transform="translate(0,0)"/></g></g></g></g><defs id="v-10656"/></svg>