<svg xmlns="http://www.w3.org/2000/svg" xmlns:xlink="http://www.w3.org/1999/xlink" version="1.1" width="600.1000137329102" height="682.6000137329102" viewBox="63.900001525878906 123.4000015258789 600.1000137329102 682.6000137329102"><g><g transform="translate(64,123.5)"><g><g>
<path d="M536,0H0v230h536V0L536,0z" stroke="#000000" stroke-dasharray="none" fill="#FFFFFF"/>
<rect x="23.4" y="10.5" width="489.2" height="209" fill="none"/>
<circle fill="none" cx="268" cy="0" r="0.1"/>
<circle fill="none" cx="400.8" cy="0" r="0.1"/>
<circle fill="none" cx="536" cy="58" r="0.1"/>
<circle fill="none" cx="536" cy="115" r="0.1"/>
<circle fill="none" cx="536" cy="172" r="0.1"/>
<circle fill="none" cx="400.8" cy="230" r="0.1"/>
<circle fill="none" cx="268" cy="230" r="0.1"/>
<circle fill="none" cx="135.2" cy="230" r="0.1"/>
<circle fill="none" cx="0" cy="172" r="0.1"/>
<circle fill="none" cx="0" cy="115" r="0.1"/>
<circle fill="none" cx="0" cy="58" r="0.1"/>
<circle fill="none" cx="135.2" cy="0" r="0.1"/>
</g></g><rect stroke="none" stroke-width="0" fill="#FFFFFF" x="0" y="0" width="0" height="0" transform="translate(535.9,114.9)"/><path stroke="#000000" fill="none" d=""/><text font-family="OpenSansCondensedLight" font-size="14pt" fill="black" transform="translate(535.9,114.9)"/><rect stroke-width="0" fill="none" width="489.2" height="209" transform="translate(23.4,10.5)"/><text font-family="OpenSansCondensedLight" font-size="14pt" fill="black" transform="translate(23.4,10.5)" text-anchor="middle"><tspan x="244.6" y="16.8">HOST OE 1402</tspan></text><path stroke="#000000" fill="none" transform="translate(23.4,10.5)" d="M 267.4 19 304.7 19"/></g><g transform="translate(80,588)"><g><g>
<path d="M94.5,0H0v94.5h94.5V0L94.5,0z" stroke="#000000" stroke-dasharray="none" fill="#FFFFFF"/>
<rect x="4.1" y="4.3" width="86.2" height="85.9" fill="none"/>
<circle fill="none" cx="47.2" cy="0" r="0.1"/>
<circle fill="none" cx="70.7" cy="0" r="0.1"/>
<circle fill="none" cx="94.5" cy="23.8" r="0.1"/>
<circle fill="none" cx="94.5" cy="47.2" r="0.1"/>
<circle fill="none" cx="94.5" cy="70.7" r="0.1"/>
<circle fill="none" cx="70.7" cy="94.5" r="0.1"/>
<circle fill="none" cx="47.2" cy="94.5" r="0.1"/>
<circle fill="none" cx="23.8" cy="94.5" r="0.1"/>
<circle fill="none" cx="0" cy="70.7" r="0.1"/>
<circle fill="none" cx="0" cy="47.2" r="0.1"/>
<circle fill="none" cx="0" cy="23.8" r="0.1"/>
<circle fill="none" cx="23.8" cy="0" r="0.1"/>
</g></g><rect stroke="none" stroke-width="0" fill="#FFFFFF" x="0" y="0" width="0" height="0" transform="translate(94.4,47.1)"/><path stroke="#000000" fill="none" d=""/><text font-family="OpenSansCondensedLight" font-size="14pt" fill="black" transform="translate(94.4,47.1)"/><rect stroke-width="0" fill="none" width="86.2" height="85.9" transform="translate(4.1,4.3)"/><text font-family="OpenSansCondensedLight" font-size="14pt" fill="black" transform="translate(4.1,4.3)" text-anchor="middle"><tspan x="43.1" y="49.2">OE D 1404</tspan></text><path stroke="#000000" fill="none" transform="translate(4.1,4.3)" d="M 48.3 51 85.6 51"/></g><g transform="translate(220,434)"><g><g>
<path d="M47.1,0c-10.2,0,-18.8,6,-21.9,14.4C11.1,16,0,27.1,0,40.8c0,14.6,12.7,26.5,28.2,26.5c0.8,0,1.6,0,2.4,-0.2c2.7,8.7,11.1,15,21.4,15c8.4,0,15.8,-4.4,19.4,-10.9c3.9,3.8,9.4,6.2,15.5,6.2c9.6,0,17.8,-5.8,20.7,-13.9c0.2,0,0.2,0,0.4,0c12.9,0,23.3,-9.8,23.3,-21.9s-10.4,-22,-23.4,-22c-2.5,0,-4.7,0.4,-6.7,1c-2.1,-8.3,-10,-14.4,-19.4,-14.4c-5.5,0,-10.4,2.1,-14.1,5.6C63.9,4.8,56.1,0,47.1,0L47.1,0z" stroke="#000000" stroke-dasharray="none" fill="#FFFFFF"/>
<rect x="11.9" y="25.5" width="105.4" height="31.1" fill="none"/>
<circle fill="none" cx="67.7" cy="11.7" r="0.1"/>
<circle fill="none" cx="86.3" cy="6.6" r="0.1"/>
<circle fill="none" cx="101.4" cy="20.5" r="0.1"/>
<circle fill="none" cx="131.4" cy="40.8" r="0.1"/>
<circle fill="none" cx="107.7" cy="63.5" r="0.1"/>
<circle fill="none" cx="88.6" cy="77.2" r="0.1"/>
<circle fill="none" cx="71.5" cy="71.2" r="0.1"/>
<circle fill="none" cx="51.4" cy="82.1" r="0.1"/>
<circle fill="none" cx="0" cy="40.8" r="0.1"/>
<circle fill="none" cx="30.7" cy="67.1" r="0.1"/>
<circle fill="none" cx="25.2" cy="14.4" r="0.1"/>
<circle fill="none" cx="47" cy="0" r="0.1"/>
</g></g><rect stroke="none" stroke-width="0" fill="#FFFFFF" x="0" y="0" width="0" height="0" transform="translate(131.3,40.7)"/><path stroke="#000000" fill="none" d=""/><text font-family="OpenSansCondensedLight" font-size="14pt" fill="black" transform="translate(131.3,40.7)"/><rect stroke-width="0" fill="none" width="105.4" height="31.1" transform="translate(11.9,25.5)"/><text font-family="OpenSansCondensedLight" font-size="14pt" fill="black" transform="translate(11.9,25.5)" text-anchor="middle"><tspan x="52.7" y="11.4">NETWORK</tspan><tspan x="52.7" y="32.4">1406</tspan></text><path stroke="#000000" fill="none" transform="translate(11.9,25.5)" d="M 34.1 34 71.4 34"/></g><g transform="translate(130,193)"><g><g>
<path d="M94.5,0H0v94.5h94.5V0L94.5,0z" stroke="#000000" stroke-dasharray="none" fill="#FFFFFF"/>
<rect x="4.1" y="4.3" width="86.2" height="85.9" fill="none"/>
<circle fill="none" cx="47.2" cy="0" r="0.1"/>
<circle fill="none" cx="70.7" cy="0" r="0.1"/>
<circle fill="none" cx="94.5" cy="23.8" r="0.1"/>
<circle fill="none" cx="94.5" cy="47.2" r="0.1"/>
<circle fill="none" cx="94.5" cy="70.7" r="0.1"/>
<circle fill="none" cx="70.7" cy="94.5" r="0.1"/>
<circle fill="none" cx="47.2" cy="94.5" r="0.1"/>
<circle fill="none" cx="23.8" cy="94.5" r="0.1"/>
<circle fill="none" cx="0" cy="70.7" r="0.1"/>
<circle fill="none" cx="0" cy="47.2" r="0.1"/>
<circle fill="none" cx="0" cy="23.8" r="0.1"/>
<circle fill="none" cx="23.8" cy="0" r="0.1"/>
</g></g><rect stroke="none" stroke-width="0" fill="#FFFFFF" x="0" y="0" width="0" height="0" transform="translate(94.4,47.1)"/><path stroke="#000000" fill="none" d=""/><text font-family="OpenSansCondensedLight" font-size="14pt" fill="black" transform="translate(94.4,47.1)"/><rect stroke-width="0" fill="none" width="86.2" height="85.9" transform="translate(4.1,4.3)"/><text font-family="OpenSansCondensedLight" font-size="14pt" fill="black" transform="translate(4.1,4.3)" text-anchor="middle"><tspan x="43.1" y="49.2">OE B 1408</tspan></text><path stroke="#000000" fill="none" transform="translate(4.1,4.3)" d="M 47.8 51 85.1 51"/></g><g><path stroke="black" stroke-dasharray="none" d="M 245 506 157 583" fill="none"/><path fill="black" stroke="black" d="M 8 0 L 0 4 L 8 8 z" transform="translate(253.6,504) scale(1,1) rotate(-221)"/><path fill="black" stroke="black" d="M 8 0 L 0 4 L 8 8 z" transform="translate(148.4,585) scale(1,1) rotate(-41)"/><g><g label-idx="0" cursor="move" transform="translate(201, 544.5)"><rect fill="white" rx="3" ry="3" x="0" y="0" width="0" height="0"/><text text-anchor="middle" font-size="14pt" font-family="OpenSansCondensedLight" y="0.8em" display="none" xml:space="preserve" transform="translate(0,0)"/></g></g></g><g transform="translate(418,195)"><g><g>
<path d="M94.5,0H0v94.5h94.5V0L94.5,0z" stroke="#000000" stroke-dasharray="none" fill="#FFFFFF"/>
<rect x="4.1" y="4.3" width="86.2" height="85.9" fill="none"/>
<circle fill="none" cx="47.2" cy="0" r="0.1"/>
<circle fill="none" cx="70.7" cy="0" r="0.1"/>
<circle fill="none" cx="94.5" cy="23.8" r="0.1"/>
<circle fill="none" cx="94.5" cy="47.2" r="0.1"/>
<circle fill="none" cx="94.5" cy="70.7" r="0.1"/>
<circle fill="none" cx="70.7" cy="94.5" r="0.1"/>
<circle fill="none" cx="47.2" cy="94.5" r="0.1"/>
<circle fill="none" cx="23.8" cy="94.5" r="0.1"/>
<circle fill="none" cx="0" cy="70.7" r="0.1"/>
<circle fill="none" cx="0" cy="47.2" r="0.1"/>
<circle fill="none" cx="0" cy="23.8" r="0.1"/>
<circle fill="none" cx="23.8" cy="0" r="0.1"/>
</g></g><rect stroke="none" stroke-width="0" fill="#FFFFFF" x="0" y="0" width="0" height="0" transform="translate(94.4,47.1)"/><path stroke="#000000" fill="none" d=""/><text font-family="OpenSansCondensedLight" font-size="14pt" fill="black" transform="translate(94.4,47.1)"/><rect stroke-width="0" fill="none" width="86.2" height="85.9" transform="translate(4.1,4.3)"/><text font-family="OpenSansCondensedLight" font-size="14pt" fill="black" transform="translate(4.1,4.3)" text-anchor="middle"><tspan x="43.1" y="49.2">OE C 1410</tspan></text><path stroke="#000000" fill="none" transform="translate(4.1,4.3)" d="M 47.8 51 85.1 51"/></g><g><path stroke="black" stroke-dasharray="none" d="M 308 433 330 361" fill="none"/><path fill="black" stroke="black" d="M 8 0 L 0 4 L 8 8 z" transform="translate(302.2,439.9) scale(1,1) rotate(-73.5)"/><path fill="black" stroke="black" d="M 8 0 L 0 4 L 8 8 z" transform="translate(335.8,354.1) scale(1,1) rotate(-253.5)"/><g><g label-idx="0" cursor="move" transform="translate(319, 397)"><rect fill="white" rx="3" ry="3" x="0" y="0" width="0" height="0"/><text text-anchor="middle" font-size="14pt" font-family="OpenSansCondensedLight" y="0.8em" display="none" xml:space="preserve" transform="translate(0,0)"/></g></g></g></g><defs/></svg>