<svg xmlns="http://www.w3.org/2000/svg" xmlns:xlink="http://www.w3.org/1999/xlink" version="1.1" id="v-5909" width="664" height="867"><g id="v-5910" class="viewport"><g id="j_275" model-id="a95a5247-cec0-4e1d-84ee-a1504b363739" class="element tp Element" transform="translate(596,15)"><polygon class="ui-arrowhead" fill="#000000" points="0,0 4.2,11.2 11.8,2" id="v-5912" transform="translate(-5.900000095367432,27.34645652770996)"/>
<rect class="ui-label-anchor" fill="none" width="1" height="1" id="v-5914" transform="translate(33.346458435058594,-0.5)"/>
<g class="rotatable" id="v-5916"><g class="scalable" id="v-5924">
<rect x="0" y="0" width="28.346457481384277" height="28.346456915242126" opacity="0" id="v-5925"/>
<path class="ui-stem" fill="none" stroke="#000000" stroke-width="1" d="M28.346457481384277,0C16.68079997942998,2.22616153784624,6.9775895338792076,13.35696922707744,0,28.346456915242126" id="v-5923"/>
</g></g><rect class="ui-number-box" id="v-5917" stroke="none" stroke-width="0" fill="#FFFFFF" x="0" y="0" width="0" height="0"/><path class="ui-number-leadline" id="v-5918" stroke="#000000" fill="none"/><text class="ui-number-label" id="v-5919" font-family="OpenSansCondensedLight" font-size="14pt" fill="black" transform="translate(0,0)"/><rect class="ui-label-box" id="v-5920" stroke-width="0" fill="none" width="1" height="1" transform="translate(33.34646224975586,-0.5)"/><text class="ui-label" id="v-5921" font-family="OpenSansCondensedLight" font-size="14pt" fill="black" text-decoration="none" transform="translate(33.34646224975586,-0.5)"><tspan x="0" y="6.800011250000001">1400</tspan></text><path class="ui-number-underline" id="v-5922" stroke="#000000" fill="none" transform="translate(33.34646224975586,-0.5)"/></g><g id="j_276" model-id="f3c4b2da-b8b0-423f-be0d-db0d077285e8" class="element tp Element" transform="translate(63.99999999999915,123.48819160461525)"><g class="rotatable" id="v-5926"><g class="scalable" id="v-5936">
<path class="ui-fill ui-stroke js-perimeter" d="M535.9883447913106,0H0v229.99499869776392h535.9883447913106V0L535.9883447913106,0z" id="v-5933" stroke="#000000" stroke-dasharray="none" fill="#FFFFFF"/>
<rect class="ui-interior-label" x="23.44803549184739" y="10.486094165551545" width="489.1504575185137" height="209.02281036666082" id="v-5934" fill="none"/>
<circle class="js-number-connector-1 js-link-connector" fill="none" cx="267.9941723956553" cy="0" r="0.1" id="v-5937"/>
<circle class="js-number-connector-2 js-link-connector" fill="none" cx="400.82758437552525" cy="0" r="0.1" id="v-5938"/>
<circle class="js-number-connector-3 js-link-connector" fill="none" cx="535.9883447913106" cy="57.998087491848196" r="0.1" id="v-5939"/>
<circle class="js-number-connector-4 js-link-connector" fill="none" cx="535.9883447913106" cy="114.99749934888196" r="0.1" id="v-5935"/>
<circle class="js-number-connector-5 js-link-connector" fill="none" cx="535.9883447913106" cy="171.9969112059157" r="0.1" id="v-5940"/>
<circle class="js-number-connector-6 js-link-connector" fill="none" cx="400.82758437552525" cy="229.99499869776392" r="0.1" id="v-5941"/>
<circle class="js-number-connector-7 js-link-connector" fill="none" cx="267.9941723956553" cy="229.99499869776392" r="0.1" id="v-5942"/>
<circle class="js-number-connector-8 js-link-connector" fill="none" cx="135.21894412668323" cy="229.99499869776392" r="0.1" id="v-5943"/>
<circle class="js-number-connector-9 js-link-connector" fill="none" cx="0" cy="171.9969112059157" r="0.1" id="v-5944"/>
<circle class="js-number-connector-10 js-link-connector" fill="none" cx="0" cy="114.99749934888196" r="0.1" id="v-5945"/>
<circle class="js-number-connector-11 js-link-connector" fill="none" cx="0" cy="57.998087491848196" r="0.1" id="v-5946"/>
<circle class="js-number-connector-12 js-link-connector" fill="none" cx="135.21894412668323" cy="0" r="0.1" id="v-5947"/>
</g></g><rect class="ui-number-box" id="v-5927" stroke="none" stroke-width="0" fill="#FFFFFF" x="0" y="0" width="0" height="0" transform="translate(535.8883666992188,114.89749908447266)"/><path class="ui-number-leadline" id="v-5928" stroke="#000000" fill="none" d=""/><text class="ui-number-label" id="v-5929" font-family="OpenSansCondensedLight" font-size="14pt" fill="black" transform="translate(535.8883666992188,114.89749908447266)"/><rect class="ui-label-box" id="v-5930" stroke-width="0" fill="none" width="489.15047454833984" height="209.02280235290527" transform="translate(23.448036193847656,10.486093521118164)"/><text class="ui-label" id="v-5931" font-family="OpenSansCondensedLight" font-size="14pt" fill="black" transform="translate(23.448036193847656,10.486093521118164)" text-anchor="middle"><tspan x="244.5752410888672" y="16.80003">HOST OE 1402</tspan></text><path class="ui-number-underline" id="v-5932" stroke="#000000" fill="none" transform="translate(23.448036193847656,10.486093521118164)" d="M 267.38574981689453 19 304.71372985839844 19"/></g><g id="j_277" model-id="23e05e5b-7360-4972-bf5b-2318b0991ffc" class="element tp Element" transform="translate(80,588)"><g class="rotatable" id="v-5948"><g class="scalable" id="v-5958">
<path class="ui-fill ui-stroke js-perimeter" d="M94.48613697851009,0H0v94.48613697851009h94.48613697851009V0L94.48613697851009,0z" id="v-5955" stroke="#000000" stroke-dasharray="none" fill="#FFFFFF"/>
<rect class="ui-interior-label" x="4.133512071465432" y="4.307878585646357" width="86.22936968935457" height="85.87037980721738" id="v-5956" fill="none"/>
<circle class="js-number-connector-1 js-link-connector" fill="none" cx="47.243068489255045" cy="0" r="0.1" id="v-5959"/>
<circle class="js-number-connector-2 js-link-connector" fill="none" cx="70.6594656583756" cy="0" r="0.1" id="v-5960"/>
<circle class="js-number-connector-3 js-link-connector" fill="none" cx="94.48613697851009" cy="23.82667132013449" r="0.1" id="v-5961"/>
<circle class="js-number-connector-4 js-link-connector" fill="none" cx="94.48613697851009" cy="47.243068489255045" r="0.1" id="v-5957"/>
<circle class="js-number-connector-5 js-link-connector" fill="none" cx="94.48613697851009" cy="70.6594656583756" r="0.1" id="v-5962"/>
<circle class="js-number-connector-6 js-link-connector" fill="none" cx="70.6594656583756" cy="94.48613697851009" r="0.1" id="v-5963"/>
<circle class="js-number-connector-7 js-link-connector" fill="none" cx="47.243068489255045" cy="94.48613697851009" r="0.1" id="v-5964"/>
<circle class="js-number-connector-8 js-link-connector" fill="none" cx="23.83692817390984" cy="94.48613697851009" r="0.1" id="v-5965"/>
<circle class="js-number-connector-9 js-link-connector" fill="none" cx="0" cy="70.6594656583756" r="0.1" id="v-5966"/>
<circle class="js-number-connector-10 js-link-connector" fill="none" cx="0" cy="47.243068489255045" r="0.1" id="v-5967"/>
<circle class="js-number-connector-11 js-link-connector" fill="none" cx="0" cy="23.82667132013449" r="0.1" id="v-5968"/>
<circle class="js-number-connector-12 js-link-connector" fill="none" cx="23.83692817390984" cy="0" r="0.1" id="v-5969"/>
</g></g><rect class="ui-number-box" id="v-5949" stroke="none" stroke-width="0" fill="#FFFFFF" x="0" y="0" width="0" height="0" transform="translate(94.38613891601562,47.143070220947266)"/><path class="ui-number-leadline" id="v-5950" stroke="#000000" fill="none" d=""/><text class="ui-number-label" id="v-5951" font-family="OpenSansCondensedLight" font-size="14pt" fill="black" transform="translate(94.38613891601562,47.143070220947266)"/><rect class="ui-label-box" id="v-5952" stroke-width="0" fill="none" width="86.22937250137329" height="85.87037467956543" transform="translate(4.133512020111084,4.307878494262695)"/><text class="ui-label" id="v-5953" font-family="OpenSansCondensedLight" font-size="14pt" fill="black" transform="translate(4.133512020111084,4.307878494262695)" text-anchor="middle"><tspan x="43.11468505859375" y="49.235199543457036">OE D 1404</tspan></text><path class="ui-number-underline" id="v-5954" stroke="#000000" fill="none" transform="translate(4.133512020111084,4.307878494262695)" d="M 48.29556655883789 51 85.6235466003418 51"/></g><g id="j_278" model-id="aed0ef5c-7c6c-4011-872a-7f0c9ffd0c5f" class="element tp Element" transform="translate(220,434)"><g class="rotatable" id="v-5970"><g class="scalable" id="v-5980">
<path class="ui-fill ui-stroke js-perimeter" d="M47.10652002697931,0c-10.201742495377983,0,-18.815624765127453,5.984768384204247,-21.918698016519127,14.425826072674733C11.052752550943593,15.96588047773055,0,27.07766542560163,0,40.76270583508496c0,14.591528128914915,12.682125462209457,26.51232899842924,28.228626233395843,26.51232899842924c0.7887410271095897,0,1.6397510826751998,0,2.4284921097847896,-0.17544923601901702c2.729459080655554,8.665242823383675,11.104643407990277,14.991162499847123,21.36865493182428,14.991162499847123c8.375184327334724,0,15.785198713601131,-4.444713979148432,19.427936878278317,-10.946082891630896c3.8814361070919285,3.8208944733030377,9.413001468268394,6.160217620223265,15.53612259977705,6.160217620223265c9.589430382227118,0,17.788185795603116,-5.760583249291059,20.70445196162673,-13.85074246572351c0.18680708536806073,0,0.18680708536806073,0,0.42550502778280497,0c12.868932547577517,0,23.309372985370246,-9.805662857507285,23.309372985370246,-21.89216578326179s-10.440440437792727,-21.950648861934795,-23.371642013826264,-21.950648861934795c-2.49076113824081,0,-4.7324461626575385,0.39963437093220544,-6.735433244659524,0.9649707981045936c-2.0652561104580047,-8.265608452451469,-10.014935410009922,-14.425826072674733,-19.427936878278317,-14.425826072674733c-5.5211871897671285,0,-10.440440437792727,2.1053908322282044,-14.145447630925933,5.585134013272042C63.856888681648755,4.785865271407631,56.094016467464904,0,47.10652002697931,0L47.10652002697931,0z" id="v-5977" stroke="#000000" stroke-dasharray="none" fill="#FFFFFF"/>
<rect class="ui-interior-label" x="11.934897120737213" y="25.53761102054581" width="105.44222151886095" height="31.132492213596684" id="v-5978" fill="none"/>
<circle class="js-number-connector-1 js-link-connector" fill="none" cx="67.74870296015003" cy="11.6868685548223" r="0.1" id="v-5981"/>
<circle class="js-number-connector-2 js-link-connector" fill="none" cx="86.32562978286273" cy="6.618335069828476" r="0.1" id="v-5982"/>
<circle class="js-number-connector-3 js-link-connector" fill="none" cx="101.35322198358229" cy="20.527560614224992" r="0.1" id="v-5983"/>
<circle class="js-number-connector-4 js-link-connector" fill="none" cx="131.42916272784007" cy="40.821188913757965" r="0.1" id="v-5979"/>
<circle class="js-number-connector-5 js-link-connector" fill="none" cx="107.70466288609634" cy="63.46388753999" r="0.1" id="v-5984"/>
<circle class="js-number-connector-6 js-link-connector" fill="none" cx="88.62958383573549" cy="77.24639974726166" r="0.1" id="v-5985"/>
<circle class="js-number-connector-7 js-link-connector" fill="none" cx="71.45371015328323" cy="71.15441238549023" r="0.1" id="v-5986"/>
<circle class="js-number-connector-8 js-link-connector" fill="none" cx="51.35119213339803" cy="82.0907480973423" r="0.1" id="v-5987"/>
<circle class="js-number-connector-10 js-link-connector" fill="none" cx="0" cy="40.76270583508496" r="0.1" id="v-5988"/>
<circle class="js-number-connector-9 js-link-connector" fill="none" cx="30.65711834318063" cy="67.09958559749518" r="0.1" id="v-5989"/>
<circle class="js-number-connector-11 js-link-connector" fill="none" cx="25.187822010460188" cy="14.425826072674733" r="0.1" id="v-5990"/>
<circle class="js-number-connector-12 js-link-connector" fill="none" cx="47.044250998523296" cy="0" r="0.1" id="v-5991"/>
</g></g><rect class="ui-number-box" id="v-5971" stroke="none" stroke-width="0" fill="#FFFFFF" x="0" y="0" width="0" height="0" transform="translate(131.32916259765625,40.72119140625)"/><path class="ui-number-leadline" id="v-5972" stroke="#000000" fill="none" d=""/><text class="ui-number-label" id="v-5973" font-family="OpenSansCondensedLight" font-size="14pt" fill="black" transform="translate(131.32916259765625,40.72119140625)"/><rect class="ui-label-box" id="v-5974" stroke-width="0" fill="none" width="105.44222450256348" height="31.13249397277832" transform="translate(11.934896469116211,25.53761100769043)"/><text class="ui-label" id="v-5975" font-family="OpenSansCondensedLight" font-size="14pt" fill="black" transform="translate(11.934897422790527,25.53761100769043)" text-anchor="middle"><tspan x="52.72111129760742" y="11.366240440063478">NETWORK</tspan><tspan x="52.72111129760742" y="32.366277940063476">1406</tspan></text><path class="ui-number-underline" id="v-5976" stroke="#000000" fill="none" transform="translate(11.934897422790527,25.53761100769043)" d="M 34.05712127685547 34 71.38510131835938 34"/></g><g id="j_279" model-id="0cc399d9-c324-d7e9-d4ef-628179b620f9" class="element tp Element" transform="translate(130,193)"><g class="rotatable" id="v-5992"><g class="scalable" id="v-6002">
<path class="ui-fill ui-stroke js-perimeter" d="M94.48613697851009,0H0v94.48613697851009h94.48613697851009V0L94.48613697851009,0z" id="v-5999" stroke="#000000" stroke-dasharray="none" fill="#FFFFFF"/>
<rect class="ui-interior-label" x="4.133512071465432" y="4.307878585646357" width="86.22936968935457" height="85.87037980721738" id="v-6000" fill="none"/>
<circle class="js-number-connector-1 js-link-connector" fill="none" cx="47.243068489255045" cy="0" r="0.1" id="v-6003"/>
<circle class="js-number-connector-2 js-link-connector" fill="none" cx="70.6594656583756" cy="0" r="0.1" id="v-6004"/>
<circle class="js-number-connector-3 js-link-connector" fill="none" cx="94.48613697851009" cy="23.82667132013449" r="0.1" id="v-6005"/>
<circle class="js-number-connector-4 js-link-connector" fill="none" cx="94.48613697851009" cy="47.243068489255045" r="0.1" id="v-6001"/>
<circle class="js-number-connector-5 js-link-connector" fill="none" cx="94.48613697851009" cy="70.6594656583756" r="0.1" id="v-6006"/>
<circle class="js-number-connector-6 js-link-connector" fill="none" cx="70.6594656583756" cy="94.48613697851009" r="0.1" id="v-6007"/>
<circle class="js-number-connector-7 js-link-connector" fill="none" cx="47.243068489255045" cy="94.48613697851009" r="0.1" id="v-6008"/>
<circle class="js-number-connector-8 js-link-connector" fill="none" cx="23.83692817390984" cy="94.48613697851009" r="0.1" id="v-6009"/>
<circle class="js-number-connector-9 js-link-connector" fill="none" cx="0" cy="70.6594656583756" r="0.1" id="v-6010"/>
<circle class="js-number-connector-10 js-link-connector" fill="none" cx="0" cy="47.243068489255045" r="0.1" id="v-6011"/>
<circle class="js-number-connector-11 js-link-connector" fill="none" cx="0" cy="23.82667132013449" r="0.1" id="v-6012"/>
<circle class="js-number-connector-12 js-link-connector" fill="none" cx="23.83692817390984" cy="0" r="0.1" id="v-6013"/>
</g></g><rect class="ui-number-box" id="v-5993" stroke="none" stroke-width="0" fill="#FFFFFF" x="0" y="0" width="0" height="0" transform="translate(94.38613891601562,47.143070220947266)"/><path class="ui-number-leadline" id="v-5994" stroke="#000000" fill="none" d=""/><text class="ui-number-label" id="v-5995" font-family="OpenSansCondensedLight" font-size="14pt" fill="black" transform="translate(94.38613891601562,47.143070220947266)"/><rect class="ui-label-box" id="v-5996" stroke-width="0" fill="none" width="86.22937250137329" height="85.87037467956543" transform="translate(4.133512020111084,4.307878494262695)"/><text class="ui-label" id="v-5997" font-family="OpenSansCondensedLight" font-size="14pt" fill="black" transform="translate(4.133512020111084,4.307878494262695)" text-anchor="middle"><tspan x="43.11468505859375" y="49.235199543457036">OE B 1408</tspan></text><path class="ui-number-underline" id="v-5998" stroke="#000000" fill="none" transform="translate(4.133512020111084,4.307878494262695)" d="M 47.780670166015625 51 85.10865020751953 51"/></g><g id="j_280" model-id="293269a5-cd4f-dd34-4089-97f74cfb7c72" class="element tp Element" transform="translate(418,195)"><g class="rotatable" id="v-6014"><g class="scalable" id="v-6024">
<path class="ui-fill ui-stroke js-perimeter" d="M94.48613697851009,0H0v94.48613697851009h94.48613697851009V0L94.48613697851009,0z" id="v-6021" stroke="#000000" stroke-dasharray="none" fill="#FFFFFF"/>
<rect class="ui-interior-label" x="4.133512071465432" y="4.307878585646357" width="86.22936968935457" height="85.87037980721738" id="v-6022" fill="none"/>
<circle class="js-number-connector-1 js-link-connector" fill="none" cx="47.243068489255045" cy="0" r="0.1" id="v-6025"/>
<circle class="js-number-connector-2 js-link-connector" fill="none" cx="70.6594656583756" cy="0" r="0.1" id="v-6026"/>
<circle class="js-number-connector-3 js-link-connector" fill="none" cx="94.48613697851009" cy="23.82667132013449" r="0.1" id="v-6027"/>
<circle class="js-number-connector-4 js-link-connector" fill="none" cx="94.48613697851009" cy="47.243068489255045" r="0.1" id="v-6023"/>
<circle class="js-number-connector-5 js-link-connector" fill="none" cx="94.48613697851009" cy="70.6594656583756" r="0.1" id="v-6028"/>
<circle class="js-number-connector-6 js-link-connector" fill="none" cx="70.6594656583756" cy="94.48613697851009" r="0.1" id="v-6029"/>
<circle class="js-number-connector-7 js-link-connector" fill="none" cx="47.243068489255045" cy="94.48613697851009" r="0.1" id="v-6030"/>
<circle class="js-number-connector-8 js-link-connector" fill="none" cx="23.83692817390984" cy="94.48613697851009" r="0.1" id="v-6031"/>
<circle class="js-number-connector-9 js-link-connector" fill="none" cx="0" cy="70.6594656583756" r="0.1" id="v-6032"/>
<circle class="js-number-connector-10 js-link-connector" fill="none" cx="0" cy="47.243068489255045" r="0.1" id="v-6033"/>
<circle class="js-number-connector-11 js-link-connector" fill="none" cx="0" cy="23.82667132013449" r="0.1" id="v-6034"/>
<circle class="js-number-connector-12 js-link-connector" fill="none" cx="23.83692817390984" cy="0" r="0.1" id="v-6035"/>
</g></g><rect class="ui-number-box" id="v-6015" stroke="none" stroke-width="0" fill="#FFFFFF" x="0" y="0" width="0" height="0" transform="translate(94.38613891601562,47.143070220947266)"/><path class="ui-number-leadline" id="v-6016" stroke="#000000" fill="none" d=""/><text class="ui-number-label" id="v-6017" font-family="OpenSansCondensedLight" font-size="14pt" fill="black" transform="translate(94.38613891601562,47.143070220947266)"/><rect class="ui-label-box" id="v-6018" stroke-width="0" fill="none" width="86.22937250137329" height="85.87037467956543" transform="translate(4.133512020111084,4.307878494262695)"/><text class="ui-label" id="v-6019" font-family="OpenSansCondensedLight" font-size="14pt" fill="black" transform="translate(4.133512020111084,4.307878494262695)" text-anchor="middle"><tspan x="43.11468505859375" y="49.235199543457036">OE C 1410</tspan></text><path class="ui-number-underline" id="v-6020" stroke="#000000" fill="none" transform="translate(4.133512020111084,4.307878494262695)" d="M 47.780670166015625 51 85.10865020751953 51"/></g><g id="j_282" model-id="b63ec939-5628-4b5c-b0d9-ea7c187b0526" class="tp Link link"><path class="connection" stroke="black" id="v-6050" stroke-dasharray="none" d="M 245 506 157 583"/><path class="marker-source" fill="black" stroke="black" id="v-6051" d="M 8 0 L 0 4 L 8 8 z" transform="translate(253.6254577428062,504.0177681026395) scale(1,1) rotate(-221.0232696533203)"/><path class="marker-target" fill="black" stroke="black" id="v-6052" d="M 8 0 L 0 4 L 8 8 z" transform="translate(148.3745422571938,584.9822013797824) scale(1,1) rotate(-41.02326965332031)"/><g class="labels" id="v-6054"><g class="js-link-label" id="v-6062" label-idx="0" cursor="move" transform="translate(201, 544.5)"><rect fill="white" rx="3" ry="3" x="0" y="0" width="0" height="0"/><text class="ui-link-label" text-anchor="middle" font-size="14pt" font-family="OpenSansCondensedLight" id="v-6063" y="0.8em" display="none" xml:space="preserve" transform="translate(0,0)"/></g></g></g><g id="j_281" model-id="2e55b662-ee68-444e-834e-da0a95ae7e3d" class="tp Link link"><path class="connection" stroke="black" id="v-6036" stroke-dasharray="none" d="M 308 433 330 361"/><path class="marker-source" fill="black" stroke="black" id="v-6037" d="M 8 0 L 0 4 L 8 8 z" transform="translate(302.1639369597918,439.8666267385122) scale(1,1) rotate(-73.53998565673828)"/><path class="marker-target" fill="black" stroke="black" id="v-6038" d="M 8 0 L 0 4 L 8 8 z" transform="translate(335.8360634000926,354.13337392321085) scale(1,1) rotate(-253.53997802734372)"/><g class="labels" id="v-6040"><g class="js-link-label" id="v-6048" label-idx="0" cursor="move" transform="translate(319, 397)"><rect fill="white" rx="3" ry="3" x="0" y="0" width="0" height="0"/><text class="ui-link-label" text-anchor="middle" font-size="14pt" font-family="OpenSansCondensedLight" id="v-6049" y="0.8em" display="none" xml:space="preserve" transform="translate(0,0)"/></g></g></g></g><defs id="v-5911"/></svg>