<svg xmlns="http://www.w3.org/2000/svg" xmlns:xlink="http://www.w3.org/1999/xlink" version="1.1" id="v-6064" width="664" height="867"><g id="v-6065" class="viewport"><g id="j_283" model-id="abfa3240-4165-4a8e-80c9-02a5e7677eca" class="element tp Element" transform="translate(92.99999999999932,10.000000000002018)"><g class="rotatable" id="v-6067"><g class="scalable" id="v-6077">
<path class="ui-fill ui-stroke js-perimeter" d="M180.28118008045294,0c-39.043049133968985,0,-72.00920455736092,17.132102605324626,-83.88496416169126,41.29562191511474C42.29994641676193,45.70420857902564,0,77.51299843255997,0,116.68803435743908c0,41.769963518193755,48.535713165524015,75.8946564926433,108.03366596581449,75.8946564926433c3.0185877255154048,0,6.275485008308342,0,9.294072733823747,-0.502244050318963c10.445902260665152,24.805275596308785,42.4985377144932,42.9139638550314,81.77989640573972,42.9139638550314c32.05263545382805,0,60.411472769854356,-12.72351594141373,74.35258187058997,-31.334448250455303c14.854629070299493,10.937759318057418,36.02446140845358,17.63434665564359,59.45823454074422,17.63434665564359c36.69967182073993,0,68.07709686228164,-16.490346318805955,79.23792779477938,-39.64937752795814c0.714928671832596,0,0.714928671832596,0,1.6284486413964685,0c49.25064183735661,0,89.20721094088947,-28.069861923382042,89.20721094088947,-62.668896500910606s-39.95656910353286,-62.83631118435026,-89.445520498167,-62.83631118435026c-9.532382291101278,0,-18.11152635309243,1.144000336837638,-25.777150445519712,2.7623422767542967c-7.90393364970481,-23.661275259471147,-38.3281204621364,-41.29562191511474,-74.35258187058997,-41.29562191511474c-21.130114078607836,0,-39.95656910353286,6.026928603827557,-54.13598776154602,15.988102268486989C244.38645098810903,13.700101594811715,214.67719284751007,0,180.28118008045294,0L180.28118008045294,0z" id="v-6074" stroke="#000000" stroke-dasharray="5,5" fill="#FFFFFF"/>
<rect class="ui-interior-label" x="45.67599847819363" y="73.10441176864906" width="403.53751698995416" height="89.120416484376" id="v-6075" fill="none"/>
<circle class="js-number-connector-1 js-link-connector" fill="none" cx="259.2807983179548" cy="33.45503424069093" r="0.1" id="v-6078"/>
<circle class="js-number-connector-2 js-link-connector" fill="none" cx="330.3764829057518" cy="18.945761675920885" r="0.1" id="v-6079"/>
<circle class="js-number-connector-3 js-link-connector" fill="none" cx="387.8885227287296" cy="58.762553887318674" r="0.1" id="v-6080"/>
<circle class="js-number-connector-4 js-link-connector" fill="none" cx="502.99203889377753" cy="116.85544904087874" r="0.1" id="v-6076"/>
<circle class="js-number-connector-5 js-link-connector" fill="none" cx="412.1960975710378" cy="181.6728339792649" r="0.1" id="v-6081"/>
<circle class="js-number-connector-6 js-link-connector" fill="none" cx="339.19393652502055" cy="221.12689437654345" r="0.1" id="v-6082"/>
<circle class="js-number-connector-7 js-link-connector" fill="none" cx="273.46021697596797" cy="203.68786485157946" r="0.1" id="v-6083"/>
<circle class="js-number-connector-8 js-link-connector" fill="none" cx="196.52594823487138" cy="234.99441065479482" r="0.1" id="v-6084"/>
<circle class="js-number-connector-10 js-link-connector" fill="none" cx="0" cy="116.68803435743908" r="0.1" id="v-6085"/>
<circle class="js-number-connector-9 js-link-connector" fill="none" cx="117.32773869963823" cy="192.08044679976342" r="0.1" id="v-6086"/>
<circle class="js-number-connector-11 js-link-connector" fill="none" cx="96.39621591876168" cy="41.29562191511474" r="0.1" id="v-6087"/>
<circle class="js-number-connector-12 js-link-connector" fill="none" cx="180.04287052317542" cy="0" r="0.1" id="v-6088"/>
</g></g><rect class="ui-number-box" id="v-6068" stroke="none" stroke-width="0" fill="#FFFFFF" x="0" y="0" width="0" height="0" transform="translate(502.89202880859375,116.75544738769531)"/><path class="ui-number-leadline" id="v-6069" stroke="#000000" fill="none" d=""/><text class="ui-number-label" id="v-6070" font-family="OpenSansCondensedLight" font-size="14pt" fill="black" transform="translate(502.8920593261719,116.75544738769531)"/><rect class="ui-label-box" id="v-6071" stroke-width="0" fill="none" width="403.5375328063965" height="89.12040710449219" transform="translate(45.67599868774414,73.10441589355469)"/><text class="ui-label" id="v-6072" font-family="OpenSansCondensedLight" font-size="14pt" fill="black" transform="translate(45.67599868774414,73.10442352294922)" text-anchor="middle"><tspan x="201.76876831054688" y="50.8602148022461">CLOUD 1512</tspan></text><path class="ui-number-underline" id="v-6073" stroke="#000000" fill="none" transform="translate(45.67599868774414,73.10442352294922)" d="M 217.58028411865234 53 254.90826416015625 53"/></g><g id="j_284" model-id="5bb86925-008a-4a62-8cd1-1d1dd6b49270" class="element tp Element" transform="translate(595.6066665649414,13.6875)"><polygon class="ui-arrowhead" fill="#000000" points="0,0 4.2,11.2 11.8,2" id="v-6089" transform="translate(-5.900000095367432,27.34645652770996)"/>
<rect class="ui-label-anchor" fill="none" width="1" height="1" id="v-6091" transform="translate(33.346458435058594,-0.5)"/>
<g class="rotatable" id="v-6093"><g class="scalable" id="v-6101">
<rect x="0" y="0" width="28.346457481384277" height="28.346456915242126" opacity="0" id="v-6102"/>
<path class="ui-stem" fill="none" stroke="#000000" stroke-width="1" d="M28.346457481384277,0C16.68079997942998,2.22616153784624,6.9775895338792076,13.35696922707744,0,28.346456915242126" id="v-6100"/>
</g></g><rect class="ui-number-box" id="v-6094" stroke="none" stroke-width="0" fill="#FFFFFF" x="0" y="0" width="0" height="0"/><path class="ui-number-leadline" id="v-6095" stroke="#000000" fill="none"/><text class="ui-number-label" id="v-6096" font-family="OpenSansCondensedLight" font-size="14pt" fill="black" transform="translate(0,0)"/><rect class="ui-label-box" id="v-6097" stroke-width="0" fill="none" width="1" height="1" transform="translate(33.34646224975586,-0.5)"/><text class="ui-label" id="v-6098" font-family="OpenSansCondensedLight" font-size="14pt" fill="black" text-decoration="none" transform="translate(33.34646224975586,-0.5)"><tspan x="0" y="6.800011250000001">1500</tspan></text><path class="ui-number-underline" id="v-6099" stroke="#000000" fill="none" transform="translate(33.34646224975586,-0.5)"/></g><g id="j_285" model-id="b09ab120-e079-4c4a-8630-c0868a904f69" class="element tp Element" transform="translate(287,243)"><g class="rotatable" id="v-6103"><g class="scalable" id="v-6113">
<path class="ui-fill ui-stroke js-perimeter" d="M112.99754283846661,0H0v56.99876054683714h112.99754283846661V0L112.99754283846661,0z" id="v-6110" stroke="#000000" stroke-dasharray="none" fill="#FFFFFF"/>
<rect class="ui-interior-label" x="4.943335840632006" y="2.5987276845062524" width="103.12313749923891" height="51.80130517782464" id="v-6111" fill="none"/>
<circle class="js-number-connector-1 js-link-connector" fill="none" cx="56.49877141923331" cy="0" r="0.1" id="v-6114"/>
<circle class="js-number-connector-2 js-link-connector" fill="none" cx="84.50283028812379" cy="0" r="0.1" id="v-6115"/>
<circle class="js-number-connector-3 js-link-connector" fill="none" cx="112.99754283846661" cy="14.373439074066725" r="0.1" id="v-6116"/>
<circle class="js-number-connector-4 js-link-connector" fill="none" cx="112.99754283846661" cy="28.49938027341857" r="0.1" id="v-6112"/>
<circle class="js-number-connector-5 js-link-connector" fill="none" cx="112.99754283846661" cy="42.62532147277041" r="0.1" id="v-6117"/>
<circle class="js-number-connector-6 js-link-connector" fill="none" cx="84.50283028812379" cy="56.99876054683714" r="0.1" id="v-6118"/>
<circle class="js-number-connector-7 js-link-connector" fill="none" cx="56.49877141923331" cy="56.99876054683714" r="0.1" id="v-6119"/>
<circle class="js-number-connector-8 js-link-connector" fill="none" cx="28.506978892379113" cy="56.99876054683714" r="0.1" id="v-6120"/>
<circle class="js-number-connector-9 js-link-connector" fill="none" cx="0" cy="42.62532147277041" r="0.1" id="v-6121"/>
<circle class="js-number-connector-10 js-link-connector" fill="none" cx="0" cy="28.49938027341857" r="0.1" id="v-6122"/>
<circle class="js-number-connector-11 js-link-connector" fill="none" cx="0" cy="14.373439074066725" r="0.1" id="v-6123"/>
<circle class="js-number-connector-12 js-link-connector" fill="none" cx="28.506978892379113" cy="0" r="0.1" id="v-6124"/>
</g></g><rect class="ui-number-box" id="v-6104" stroke="none" stroke-width="0" fill="#FFFFFF" x="0" y="0" width="0" height="0" transform="translate(112.89754486083984,28.39937973022461)"/><path class="ui-number-leadline" id="v-6105" stroke="#000000" fill="none" d=""/><text class="ui-number-label" id="v-6106" font-family="OpenSansCondensedLight" font-size="14pt" fill="black" transform="translate(112.89754486083984,28.399381637573242)"/><rect class="ui-label-box" id="v-6107" stroke-width="0" fill="none" width="103.12313175201416" height="51.801308155059814" transform="translate(4.94333553314209,2.5987277030944824)"/><text class="ui-label" id="v-6108" font-family="OpenSansCondensedLight" font-size="14pt" fill="black" transform="translate(4.943336009979248,2.5987279415130615)" text-anchor="middle"><tspan x="51.56156539916992" y="21.70064633911133">GATEWAY</tspan><tspan x="51.56156539916992" y="42.70068383911133">1502</tspan></text><path class="ui-number-underline" id="v-6109" stroke="#000000" fill="none" transform="translate(4.943336009979248,2.5987279415130615)" d="M 32.89757537841797 45 70.22555541992188 45"/></g><g id="j_286" model-id="ec8be86c-4864-48be-a950-2726d18c18e6" class="element tp Element" transform="translate(207,548)"><g class="rotatable" id="v-6125"><g class="scalable" id="v-6135">
<path class="ui-fill ui-stroke js-perimeter" d="M94.48613697851009,0H0v94.48613697851009h94.48613697851009V0L94.48613697851009,0z" id="v-6132" stroke="#000000" stroke-dasharray="none" fill="#FFFFFF"/>
<rect class="ui-interior-label" x="4.133512071465432" y="4.307878585646357" width="86.22936968935457" height="85.87037980721738" id="v-6133" fill="none"/>
<circle class="js-number-connector-1 js-link-connector" fill="none" cx="47.243068489255045" cy="0" r="0.1" id="v-6136"/>
<circle class="js-number-connector-2 js-link-connector" fill="none" cx="70.6594656583756" cy="0" r="0.1" id="v-6137"/>
<circle class="js-number-connector-3 js-link-connector" fill="none" cx="94.48613697851009" cy="23.82667132013449" r="0.1" id="v-6138"/>
<circle class="js-number-connector-4 js-link-connector" fill="none" cx="94.48613697851009" cy="47.243068489255045" r="0.1" id="v-6134"/>
<circle class="js-number-connector-5 js-link-connector" fill="none" cx="94.48613697851009" cy="70.6594656583756" r="0.1" id="v-6139"/>
<circle class="js-number-connector-6 js-link-connector" fill="none" cx="70.6594656583756" cy="94.48613697851009" r="0.1" id="v-6140"/>
<circle class="js-number-connector-7 js-link-connector" fill="none" cx="47.243068489255045" cy="94.48613697851009" r="0.1" id="v-6141"/>
<circle class="js-number-connector-8 js-link-connector" fill="none" cx="23.83692817390984" cy="94.48613697851009" r="0.1" id="v-6142"/>
<circle class="js-number-connector-9 js-link-connector" fill="none" cx="0" cy="70.6594656583756" r="0.1" id="v-6143"/>
<circle class="js-number-connector-10 js-link-connector" fill="none" cx="0" cy="47.243068489255045" r="0.1" id="v-6144"/>
<circle class="js-number-connector-11 js-link-connector" fill="none" cx="0" cy="23.82667132013449" r="0.1" id="v-6145"/>
<circle class="js-number-connector-12 js-link-connector" fill="none" cx="23.83692817390984" cy="0" r="0.1" id="v-6146"/>
</g></g><rect class="ui-number-box" id="v-6126" stroke="none" stroke-width="0" fill="#FFFFFF" x="0" y="0" width="0" height="0" transform="translate(94.38613891601562,47.143070220947266)"/><path class="ui-number-leadline" id="v-6127" stroke="#000000" fill="none" d=""/><text class="ui-number-label" id="v-6128" font-family="OpenSansCondensedLight" font-size="14pt" fill="black" transform="translate(94.38613891601562,47.143070220947266)"/><rect class="ui-label-box" id="v-6129" stroke-width="0" fill="none" width="86.22937250137329" height="85.87037467956543" transform="translate(4.133512020111084,4.307878494262695)"/><text class="ui-label" id="v-6130" font-family="OpenSansCondensedLight" font-size="14pt" fill="black" transform="translate(4.133512020111084,4.307878494262695)" text-anchor="middle"><tspan x="43.11468505859375" y="49.235199543457036">OE A 1504</tspan></text><path class="ui-number-underline" id="v-6131" stroke="#000000" fill="none" transform="translate(4.133512020111084,4.307878494262695)" d="M 48.29556655883789 51 85.6235466003418 51"/></g><g id="j_287" model-id="adf586fc-5dfb-437f-b395-787d3a37b71a" class="element tp Element" transform="translate(298,385)"><g class="rotatable" id="v-6147"><g class="scalable" id="v-6157">
<path class="ui-fill ui-stroke js-perimeter" d="M47.10652002697931,0c-10.201742495377983,0,-18.815624765127453,5.984768384204247,-21.918698016519127,14.425826072674733C11.052752550943593,15.96588047773055,0,27.07766542560163,0,40.76270583508496c0,14.591528128914915,12.682125462209457,26.51232899842924,28.228626233395843,26.51232899842924c0.7887410271095897,0,1.6397510826751998,0,2.4284921097847896,-0.17544923601901702c2.729459080655554,8.665242823383675,11.104643407990277,14.991162499847123,21.36865493182428,14.991162499847123c8.375184327334724,0,15.785198713601131,-4.444713979148432,19.427936878278317,-10.946082891630896c3.8814361070919285,3.8208944733030377,9.413001468268394,6.160217620223265,15.53612259977705,6.160217620223265c9.589430382227118,0,17.788185795603116,-5.760583249291059,20.70445196162673,-13.85074246572351c0.18680708536806073,0,0.18680708536806073,0,0.42550502778280497,0c12.868932547577517,0,23.309372985370246,-9.805662857507285,23.309372985370246,-21.89216578326179s-10.440440437792727,-21.950648861934795,-23.371642013826264,-21.950648861934795c-2.49076113824081,0,-4.7324461626575385,0.39963437093220544,-6.735433244659524,0.9649707981045936c-2.0652561104580047,-8.265608452451469,-10.014935410009922,-14.425826072674733,-19.427936878278317,-14.425826072674733c-5.5211871897671285,0,-10.440440437792727,2.1053908322282044,-14.145447630925933,5.585134013272042C63.856888681648755,4.785865271407631,56.094016467464904,0,47.10652002697931,0L47.10652002697931,0z" id="v-6154" stroke="#000000" stroke-dasharray="none" fill="#FFFFFF"/>
<rect class="ui-interior-label" x="11.934897120737213" y="25.53761102054581" width="105.44222151886095" height="31.132492213596684" id="v-6155" fill="none"/>
<circle class="js-number-connector-1 js-link-connector" fill="none" cx="67.74870296015003" cy="11.6868685548223" r="0.1" id="v-6158"/>
<circle class="js-number-connector-2 js-link-connector" fill="none" cx="86.32562978286273" cy="6.618335069828476" r="0.1" id="v-6159"/>
<circle class="js-number-connector-3 js-link-connector" fill="none" cx="101.35322198358229" cy="20.527560614224992" r="0.1" id="v-6160"/>
<circle class="js-number-connector-4 js-link-connector" fill="none" cx="131.42916272784007" cy="40.821188913757965" r="0.1" id="v-6156"/>
<circle class="js-number-connector-5 js-link-connector" fill="none" cx="107.70466288609634" cy="63.46388753999" r="0.1" id="v-6161"/>
<circle class="js-number-connector-6 js-link-connector" fill="none" cx="88.62958383573549" cy="77.24639974726166" r="0.1" id="v-6162"/>
<circle class="js-number-connector-7 js-link-connector" fill="none" cx="71.45371015328323" cy="71.15441238549023" r="0.1" id="v-6163"/>
<circle class="js-number-connector-8 js-link-connector" fill="none" cx="51.35119213339803" cy="82.0907480973423" r="0.1" id="v-6164"/>
<circle class="js-number-connector-10 js-link-connector" fill="none" cx="0" cy="40.76270583508496" r="0.1" id="v-6165"/>
<circle class="js-number-connector-9 js-link-connector" fill="none" cx="30.65711834318063" cy="67.09958559749518" r="0.1" id="v-6166"/>
<circle class="js-number-connector-11 js-link-connector" fill="none" cx="25.187822010460188" cy="14.425826072674733" r="0.1" id="v-6167"/>
<circle class="js-number-connector-12 js-link-connector" fill="none" cx="47.044250998523296" cy="0" r="0.1" id="v-6168"/>
</g></g><rect class="ui-number-box" id="v-6148" stroke="none" stroke-width="0" fill="#FFFFFF" x="0" y="0" width="0" height="0" transform="translate(131.32916259765625,40.72119140625)"/><path class="ui-number-leadline" id="v-6149" stroke="#000000" fill="none" d=""/><text class="ui-number-label" id="v-6150" font-family="OpenSansCondensedLight" font-size="14pt" fill="black" transform="translate(131.32916259765625,40.72119140625)"/><rect class="ui-label-box" id="v-6151" stroke-width="0" fill="none" width="105.44222450256348" height="31.13249397277832" transform="translate(11.934896469116211,25.53761100769043)"/><text class="ui-label" id="v-6152" font-family="OpenSansCondensedLight" font-size="14pt" fill="black" transform="translate(11.934897422790527,25.53761100769043)" text-anchor="middle"><tspan x="52.72111129760742" y="11.366240440063478">NETWORK</tspan><tspan x="52.72111129760742" y="32.366277940063476">1506</tspan></text><path class="ui-number-underline" id="v-6153" stroke="#000000" fill="none" transform="translate(11.934897422790527,25.53761100769043)" d="M 34.05712127685547 34 71.38510131835938 34"/></g><g id="j_288" model-id="3327c3af-e80f-aa3a-fb8c-7f7f98322604" class="element tp Element" transform="translate(414,84)"><g class="rotatable" id="v-6169"><g class="scalable" id="v-6179">
<path class="ui-fill ui-stroke js-perimeter" d="M94.48613697851009,0H0v94.48613697851009h94.48613697851009V0L94.48613697851009,0z" id="v-6176" stroke="#000000" stroke-dasharray="none" fill="#FFFFFF"/>
<rect class="ui-interior-label" x="4.133512071465432" y="4.307878585646357" width="86.22936968935457" height="85.87037980721738" id="v-6177" fill="none"/>
<circle class="js-number-connector-1 js-link-connector" fill="none" cx="47.243068489255045" cy="0" r="0.1" id="v-6180"/>
<circle class="js-number-connector-2 js-link-connector" fill="none" cx="70.6594656583756" cy="0" r="0.1" id="v-6181"/>
<circle class="js-number-connector-3 js-link-connector" fill="none" cx="94.48613697851009" cy="23.82667132013449" r="0.1" id="v-6182"/>
<circle class="js-number-connector-4 js-link-connector" fill="none" cx="94.48613697851009" cy="47.243068489255045" r="0.1" id="v-6178"/>
<circle class="js-number-connector-5 js-link-connector" fill="none" cx="94.48613697851009" cy="70.6594656583756" r="0.1" id="v-6183"/>
<circle class="js-number-connector-6 js-link-connector" fill="none" cx="70.6594656583756" cy="94.48613697851009" r="0.1" id="v-6184"/>
<circle class="js-number-connector-7 js-link-connector" fill="none" cx="47.243068489255045" cy="94.48613697851009" r="0.1" id="v-6185"/>
<circle class="js-number-connector-8 js-link-connector" fill="none" cx="23.83692817390984" cy="94.48613697851009" r="0.1" id="v-6186"/>
<circle class="js-number-connector-9 js-link-connector" fill="none" cx="0" cy="70.6594656583756" r="0.1" id="v-6187"/>
<circle class="js-number-connector-10 js-link-connector" fill="none" cx="0" cy="47.243068489255045" r="0.1" id="v-6188"/>
<circle class="js-number-connector-11 js-link-connector" fill="none" cx="0" cy="23.82667132013449" r="0.1" id="v-6189"/>
<circle class="js-number-connector-12 js-link-connector" fill="none" cx="23.83692817390984" cy="0" r="0.1" id="v-6190"/>
</g></g><rect class="ui-number-box" id="v-6170" stroke="none" stroke-width="0" fill="#FFFFFF" x="0" y="0" width="0" height="0" transform="translate(94.38613891601562,47.143070220947266)"/><path class="ui-number-leadline" id="v-6171" stroke="#000000" fill="none" d=""/><text class="ui-number-label" id="v-6172" font-family="OpenSansCondensedLight" font-size="14pt" fill="black" transform="translate(94.38613891601562,47.143070220947266)"/><rect class="ui-label-box" id="v-6173" stroke-width="0" fill="none" width="86.22937250137329" height="85.87037467956543" transform="translate(4.133512020111084,4.307878494262695)"/><text class="ui-label" id="v-6174" font-family="OpenSansCondensedLight" font-size="14pt" fill="black" transform="translate(4.133512020111084,4.307878494262695)" text-anchor="middle"><tspan x="43.11468505859375" y="49.235199543457036">OE B 1508</tspan></text><path class="ui-number-underline" id="v-6175" stroke="#000000" fill="none" transform="translate(4.133512020111084,4.307878494262695)" d="M 47.780670166015625 51 85.10865020751953 51"/></g><g id="j_289" model-id="e433ff03-8c75-ab20-8f84-e67825d5e16f" class="element tp Element" transform="translate(166,68)"><g class="rotatable" id="v-6191"><g class="scalable" id="v-6201">
<path class="ui-fill ui-stroke js-perimeter" d="M94.48613697851009,0H0v94.48613697851009h94.48613697851009V0L94.48613697851009,0z" id="v-6198" stroke="#000000" stroke-dasharray="none" fill="#FFFFFF"/>
<rect class="ui-interior-label" x="4.133512071465432" y="4.307878585646357" width="86.22936968935457" height="85.87037980721738" id="v-6199" fill="none"/>
<circle class="js-number-connector-1 js-link-connector" fill="none" cx="47.243068489255045" cy="0" r="0.1" id="v-6202"/>
<circle class="js-number-connector-2 js-link-connector" fill="none" cx="70.6594656583756" cy="0" r="0.1" id="v-6203"/>
<circle class="js-number-connector-3 js-link-connector" fill="none" cx="94.48613697851009" cy="23.82667132013449" r="0.1" id="v-6204"/>
<circle class="js-number-connector-4 js-link-connector" fill="none" cx="94.48613697851009" cy="47.243068489255045" r="0.1" id="v-6200"/>
<circle class="js-number-connector-5 js-link-connector" fill="none" cx="94.48613697851009" cy="70.6594656583756" r="0.1" id="v-6205"/>
<circle class="js-number-connector-6 js-link-connector" fill="none" cx="70.6594656583756" cy="94.48613697851009" r="0.1" id="v-6206"/>
<circle class="js-number-connector-7 js-link-connector" fill="none" cx="47.243068489255045" cy="94.48613697851009" r="0.1" id="v-6207"/>
<circle class="js-number-connector-8 js-link-connector" fill="none" cx="23.83692817390984" cy="94.48613697851009" r="0.1" id="v-6208"/>
<circle class="js-number-connector-9 js-link-connector" fill="none" cx="0" cy="70.6594656583756" r="0.1" id="v-6209"/>
<circle class="js-number-connector-10 js-link-connector" fill="none" cx="0" cy="47.243068489255045" r="0.1" id="v-6210"/>
<circle class="js-number-connector-11 js-link-connector" fill="none" cx="0" cy="23.82667132013449" r="0.1" id="v-6211"/>
<circle class="js-number-connector-12 js-link-connector" fill="none" cx="23.83692817390984" cy="0" r="0.1" id="v-6212"/>
</g></g><rect class="ui-number-box" id="v-6192" stroke="none" stroke-width="0" fill="#FFFFFF" x="0" y="0" width="0" height="0" transform="translate(94.38613891601562,47.143070220947266)"/><path class="ui-number-leadline" id="v-6193" stroke="#000000" fill="none" d=""/><text class="ui-number-label" id="v-6194" font-family="OpenSansCondensedLight" font-size="14pt" fill="black" transform="translate(94.38613891601562,47.143070220947266)"/><rect class="ui-label-box" id="v-6195" stroke-width="0" fill="none" width="86.22937250137329" height="85.87037467956543" transform="translate(4.133512020111084,4.307878494262695)"/><text class="ui-label" id="v-6196" font-family="OpenSansCondensedLight" font-size="14pt" fill="black" transform="translate(4.133512020111084,4.307878494262695)" text-anchor="middle"><tspan x="43.11468505859375" y="49.235199543457036">OE C 1510</tspan></text><path class="ui-number-underline" id="v-6197" stroke="#000000" fill="none" transform="translate(4.133512020111084,4.307878494262695)" d="M 47.780670166015625 51 85.10865020751953 51"/></g><g id="j_291" model-id="7cdd346d-c19d-497d-b529-77bd55d9c87e" class="tp Link link"><path class="connection" stroke="black" id="v-6227" stroke-dasharray="none" d="M 283 542 344 473"/><path class="marker-source" fill="black" stroke="black" id="v-6228" d="M 8 0 L 0 4 L 8 8 z" transform="translate(274.99200601734555,545.3633630001007) scale(1,1) rotate(-48.76403427124023)"/><path class="marker-target" fill="black" stroke="black" id="v-6229" d="M 8 0 L 0 4 L 8 8 z" transform="translate(352.0079939579298,469.63663662408396) scale(1,1) rotate(-228.7640380859375)"/><g class="labels" id="v-6231"><g class="js-link-label" id="v-6239" label-idx="0" cursor="move" transform="translate(313.5, 507.5)"><rect fill="white" rx="3" ry="3" x="0" y="0" width="0" height="0"/><text class="ui-link-label" text-anchor="middle" font-size="14pt" font-family="OpenSansCondensedLight" id="v-6240" y="0.8em" display="none" xml:space="preserve" transform="translate(0,0)"/></g></g></g><g id="j_290" model-id="c8d28ede-8278-47d5-965e-de2d9f7dda6f" class="tp Link link"><path class="connection" stroke="black" id="v-6213" stroke-dasharray="none" d="M 343 377 343 308"/><path class="marker-source" fill="black" stroke="black" id="v-6214" d="M 8 0 L 0 4 L 8 8 z" transform="translate(339,385) scale(1,1) rotate(-90)"/><path class="marker-target" fill="black" stroke="black" id="v-6215" d="M 8 0 L 0 4 L 8 8 z" transform="translate(347,300) scale(1,1) rotate(-270)"/><g class="labels" id="v-6217"><g class="js-link-label" id="v-6225" label-idx="0" cursor="move" transform="translate(343, 342.5)"><rect fill="white" rx="3" ry="3" x="0" y="0" width="0" height="0"/><text class="ui-link-label" text-anchor="middle" font-size="14pt" font-family="OpenSansCondensedLight" id="v-6226" y="0.8em" display="none" xml:space="preserve" transform="translate(0,0)"/></g></g></g></g><defs id="v-6066"/></svg>