<svg xmlns="http://www.w3.org/2000/svg" xmlns:xlink="http://www.w3.org/1999/xlink" version="1.1" id="v-9810" width="664" height="867"><g><g model-id="abfa3240-4165-4a8e-80c9-02a5e7677eca" transform="translate(93,10)"><g><g>
<path d="M180.3,0c-39,0,-72,17.1,-83.9,41.3C42.3,45.7,0,77.5,0,116.7c0,41.8,48.5,75.9,108,75.9c3,0,6.3,0,9.3,-0.5c10.4,24.8,42.5,42.9,81.8,42.9c32.1,0,60.4,-12.7,74.4,-31.3c14.9,10.9,36,17.6,59.5,17.6c36.7,0,68.1,-16.5,79.2,-39.6c0.7,0,0.7,0,1.6,0c49.3,0,89.2,-28.1,89.2,-62.7s-40,-62.8,-89.4,-62.8c-9.5,0,-18.1,1.1,-25.8,2.8c-7.9,-23.7,-38.3,-41.3,-74.4,-41.3c-21.1,0,-40,6,-54.1,16C244.4,13.7,214.7,0,180.3,0L180.3,0z" stroke="#000000" stroke-dasharray="5,5" fill="#FFFFFF"/>
<rect x="45.7" y="73.1" width="403.5" height="89.1" fill="none"/>
<circle fill="none" cx="259.3" cy="33.5" r="0.1"/>
<circle fill="none" cx="330.4" cy="18.9" r="0.1"/>
<circle fill="none" cx="387.9" cy="58.8" r="0.1"/>
<circle fill="none" cx="503" cy="116.9" r="0.1"/>
<circle fill="none" cx="412.2" cy="181.7" r="0.1"/>
<circle fill="none" cx="339.2" cy="221.1" r="0.1"/>
<circle fill="none" cx="273.5" cy="203.7" r="0.1"/>
<circle fill="none" cx="196.5" cy="235" r="0.1"/>
<circle fill="none" cx="0" cy="116.7" r="0.1"/>
<circle fill="none" cx="117.3" cy="192.1" r="0.1"/>
<circle fill="none" cx="96.4" cy="41.3" r="0.1"/>
<circle fill="none" cx="180" cy="0" r="0.1"/>
</g></g><rect stroke="none" stroke-width="0" fill="#FFFFFF" x="0" y="0" width="0" height="0" transform="translate(502.9,116.8)"/><path stroke="#000000" fill="none" d=""/><text font-family="OpenSansCondensedLight" font-size="14pt" fill="black" transform="translate(502.9,116.8)"/><rect stroke-width="0" fill="none" width="403.5" height="89.1" transform="translate(45.7,73.1)"/><text font-family="OpenSansCondensedLight" font-size="14pt" fill="black" transform="translate(45.7,73.1)" text-anchor="middle"><tspan x="201.8" y="50.9">CLOUD 1512</tspan></text><path stroke="#000000" fill="none" transform="translate(45.7,73.1)" d="M 217.6 53 254.9 53"/></g><g model-id="5bb86925-008a-4a62-8cd1-1d1dd6b49270" transform="translate(595.6,13.7)"><polygon fill="#000000" points="0,0 4.2,11.2 11.8,2" transform="translate(-5.9,27.3)"/>
<rect fill="none" width="1" height="1" transform="translate(33.3,-0.5)"/>
<g><g>
<rect x="0" y="0" width="28.3" height="28.3" opacity="0"/>
<path fill="none" stroke="#000000" stroke-width="1" d="M28.3,0C16.7,2.2,7,13.4,0,28.3"/>
</g></g><rect stroke="none" stroke-width="0" fill="#FFFFFF" x="0" y="0" width="0" height="0"/><path stroke="#000000" fill="none"/><text font-family="OpenSansCondensedLight" font-size="14pt" fill="black" transform="translate(0,0)"/><rect stroke-width="0" fill="none" width="1" height="1" transform="translate(33.3,-0.5)"/><text font-family="OpenSansCondensedLight" font-size="14pt" fill="black" text-decoration="none" transform="translate(33.3,-0.5)"><tspan x="0" y="6.8">1500</tspan></text><path stroke="#000000" fill="none" transform="translate(33.3,-0.5)"/></g><g model-id="b09ab120-e079-4c4a-8630-c0868a904f69" transform="translate(287,243)"><g><g>
<path d="M113,0H0v57h113V0L113,0z" stroke="#000000" stroke-dasharray="none" fill="#FFFFFF"/>
<rect x="4.9" y="2.6" width="103.1" height="51.8" fill="none"/>
<circle fill="none" cx="56.5" cy="0" r="0.1"/>
<circle fill="none" cx="84.5" cy="0" r="0.1"/>
<circle fill="none" cx="113" cy="14.4" r="0.1"/>
<circle fill="none" cx="113" cy="28.5" r="0.1"/>
<circle fill="none" cx="113" cy="42.6" r="0.1"/>
<circle fill="none" cx="84.5" cy="57" r="0.1"/>
<circle fill="none" cx="56.5" cy="57" r="0.1"/>
<circle fill="none" cx="28.5" cy="57" r="0.1"/>
<circle fill="none" cx="0" cy="42.6" r="0.1"/>
<circle fill="none" cx="0" cy="28.5" r="0.1"/>
<circle fill="none" cx="0" cy="14.4" r="0.1"/>
<circle fill="none" cx="28.5" cy="0" r="0.1"/>
</g></g><rect stroke="none" stroke-width="0" fill="#FFFFFF" x="0" y="0" width="0" height="0" transform="translate(112.9,28.4)"/><path stroke="#000000" fill="none" d=""/><text font-family="OpenSansCondensedLight" font-size="14pt" fill="black" transform="translate(112.9,28.4)"/><rect stroke-width="0" fill="none" width="103.1" height="51.8" transform="translate(4.9,2.6)"/><text font-family="OpenSansCondensedLight" font-size="14pt" fill="black" transform="translate(4.9,2.6)" text-anchor="middle"><tspan x="51.6" y="21.7">GATEWAY</tspan><tspan x="51.6" y="42.7">1502</tspan></text><path stroke="#000000" fill="none" transform="translate(4.9,2.6)" d="M 32.9 45 70.2 45"/></g><g model-id="ec8be86c-4864-48be-a950-2726d18c18e6" transform="translate(207,548)"><g><g>
<path d="M94.5,0H0v94.5h94.5V0L94.5,0z" stroke="#000000" stroke-dasharray="none" fill="#FFFFFF"/>
<rect x="4.1" y="4.3" width="86.2" height="85.9" fill="none"/>
<circle fill="none" cx="47.2" cy="0" r="0.1"/>
<circle fill="none" cx="70.7" cy="0" r="0.1"/>
<circle fill="none" cx="94.5" cy="23.8" r="0.1"/>
<circle fill="none" cx="94.5" cy="47.2" r="0.1"/>
<circle fill="none" cx="94.5" cy="70.7" r="0.1"/>
<circle fill="none" cx="70.7" cy="94.5" r="0.1"/>
<circle fill="none" cx="47.2" cy="94.5" r="0.1"/>
<circle fill="none" cx="23.8" cy="94.5" r="0.1"/>
<circle fill="none" cx="0" cy="70.7" r="0.1"/>
<circle fill="none" cx="0" cy="47.2" r="0.1"/>
<circle fill="none" cx="0" cy="23.8" r="0.1"/>
<circle fill="none" cx="23.8" cy="0" r="0.1"/>
</g></g><rect stroke="none" stroke-width="0" fill="#FFFFFF" x="0" y="0" width="0" height="0" transform="translate(94.4,47.1)"/><path stroke="#000000" fill="none" d=""/><text font-family="OpenSansCondensedLight" font-size="14pt" fill="black" transform="translate(94.4,47.1)"/><rect stroke-width="0" fill="none" width="86.2" height="85.9" transform="translate(4.1,4.3)"/><text font-family="OpenSansCondensedLight" font-size="14pt" fill="black" transform="translate(4.1,4.3)" text-anchor="middle"><tspan x="43.1" y="49.2">OE A 1504</tspan></text><path stroke="#000000" fill="none" transform="translate(4.1,4.3)" d="M 48.3 51 85.6 51"/></g><g model-id="adf586fc-5dfb-437f-b395-787d3a37b71a" transform="translate(298,385)"><g><g>
<path d="M47.1,0c-10.2,0,-18.8,6,-21.9,14.4C11.1,16,0,27.1,0,40.8c0,14.6,12.7,26.5,28.2,26.5c0.8,0,1.6,0,2.4,-0.2c2.7,8.7,11.1,15,21.4,15c8.4,0,15.8,-4.4,19.4,-10.9c3.9,3.8,9.4,6.2,15.5,6.2c9.6,0,17.8,-5.8,20.7,-13.9c0.2,0,0.2,0,0.4,0c12.9,0,23.3,-9.8,23.3,-21.9s-10.4,-22,-23.4,-22c-2.5,0,-4.7,0.4,-6.7,1c-2.1,-8.3,-10,-14.4,-19.4,-14.4c-5.5,0,-10.4,2.1,-14.1,5.6C63.9,4.8,56.1,0,47.1,0L47.1,0z" stroke="#000000" stroke-dasharray="none" fill="#FFFFFF"/>
<rect x="11.9" y="25.5" width="105.4" height="31.1" fill="none"/>
<circle fill="none" cx="67.7" cy="11.7" r="0.1"/>
<circle fill="none" cx="86.3" cy="6.6" r="0.1"/>
<circle fill="none" cx="101.4" cy="20.5" r="0.1"/>
<circle fill="none" cx="131.4" cy="40.8" r="0.1"/>
<circle fill="none" cx="107.7" cy="63.5" r="0.1"/>
<circle fill="none" cx="88.6" cy="77.2" r="0.1"/>
<circle fill="none" cx="71.5" cy="71.2" r="0.1"/>
<circle fill="none" cx="51.4" cy="82.1" r="0.1"/>
<circle fill="none" cx="0" cy="40.8" r="0.1"/>
<circle fill="none" cx="30.7" cy="67.1" r="0.1"/>
<circle fill="none" cx="25.2" cy="14.4" r="0.1"/>
<circle fill="none" cx="47" cy="0" r="0.1"/>
</g></g><rect stroke="none" stroke-width="0" fill="#FFFFFF" x="0" y="0" width="0" height="0" transform="translate(131.3,40.7)"/><path stroke="#000000" fill="none" d=""/><text font-family="OpenSansCondensedLight" font-size="14pt" fill="black" transform="translate(131.3,40.7)"/><rect stroke-width="0" fill="none" width="105.4" height="31.1" transform="translate(11.9,25.5)"/><text font-family="OpenSansCondensedLight" font-size="14pt" fill="black" transform="translate(11.9,25.5)" text-anchor="middle"><tspan x="52.7" y="11.4">NETWORK</tspan><tspan x="52.7" y="32.4">1506</tspan></text><path stroke="#000000" fill="none" transform="translate(11.9,25.5)" d="M 34.1 34 71.4 34"/></g><g model-id="3327c3af-e80f-aa3a-fb8c-7f7f98322604" transform="translate(414,84)"><g><g>
<path d="M94.5,0H0v94.5h94.5V0L94.5,0z" stroke="#000000" stroke-dasharray="none" fill="#FFFFFF"/>
<rect x="4.1" y="4.3" width="86.2" height="85.9" fill="none"/>
<circle fill="none" cx="47.2" cy="0" r="0.1"/>
<circle fill="none" cx="70.7" cy="0" r="0.1"/>
<circle fill="none" cx="94.5" cy="23.8" r="0.1"/>
<circle fill="none" cx="94.5" cy="47.2" r="0.1"/>
<circle fill="none" cx="94.5" cy="70.7" r="0.1"/>
<circle fill="none" cx="70.7" cy="94.5" r="0.1"/>
<circle fill="none" cx="47.2" cy="94.5" r="0.1"/>
<circle fill="none" cx="23.8" cy="94.5" r="0.1"/>
<circle fill="none" cx="0" cy="70.7" r="0.1"/>
<circle fill="none" cx="0" cy="47.2" r="0.1"/>
<circle fill="none" cx="0" cy="23.8" r="0.1"/>
<circle fill="none" cx="23.8" cy="0" r="0.1"/>
</g></g><rect stroke="none" stroke-width="0" fill="#FFFFFF" x="0" y="0" width="0" height="0" transform="translate(94.4,47.1)"/><path stroke="#000000" fill="none" d=""/><text font-family="OpenSansCondensedLight" font-size="14pt" fill="black" transform="translate(94.4,47.1)"/><rect stroke-width="0" fill="none" width="86.2" height="85.9" transform="translate(4.1,4.3)"/><text font-family="OpenSansCondensedLight" font-size="14pt" fill="black" transform="translate(4.1,4.3)" text-anchor="middle"><tspan x="43.1" y="49.2">OE B 1508</tspan></text><path stroke="#000000" fill="none" transform="translate(4.1,4.3)" d="M 47.8 51 85.1 51"/></g><g model-id="e433ff03-8c75-ab20-8f84-e67825d5e16f" transform="translate(166,68)"><g><g>
<path d="M94.5,0H0v94.5h94.5V0L94.5,0z" stroke="#000000" stroke-dasharray="none" fill="#FFFFFF"/>
<rect x="4.1" y="4.3" width="86.2" height="85.9" fill="none"/>
<circle fill="none" cx="47.2" cy="0" r="0.1"/>
<circle fill="none" cx="70.7" cy="0" r="0.1"/>
<circle fill="none" cx="94.5" cy="23.8" r="0.1"/>
<circle fill="none" cx="94.5" cy="47.2" r="0.1"/>
<circle fill="none" cx="94.5" cy="70.7" r="0.1"/>
<circle fill="none" cx="70.7" cy="94.5" r="0.1"/>
<circle fill="none" cx="47.2" cy="94.5" r="0.1"/>
<circle fill="none" cx="23.8" cy="94.5" r="0.1"/>
<circle fill="none" cx="0" cy="70.7" r="0.1"/>
<circle fill="none" cx="0" cy="47.2" r="0.1"/>
<circle fill="none" cx="0" cy="23.8" r="0.1"/>
<circle fill="none" cx="23.8" cy="0" r="0.1"/>
</g></g><rect stroke="none" stroke-width="0" fill="#FFFFFF" x="0" y="0" width="0" height="0" transform="translate(94.4,47.1)"/><path stroke="#000000" fill="none" d=""/><text font-family="OpenSansCondensedLight" font-size="14pt" fill="black" transform="translate(94.4,47.1)"/><rect stroke-width="0" fill="none" width="86.2" height="85.9" transform="translate(4.1,4.3)"/><text font-family="OpenSansCondensedLight" font-size="14pt" fill="black" transform="translate(4.1,4.3)" text-anchor="middle"><tspan x="43.1" y="49.2">OE C 1510</tspan></text><path stroke="#000000" fill="none" transform="translate(4.1,4.3)" d="M 47.8 51 85.1 51"/></g><g model-id="7cdd346d-c19d-497d-b529-77bd55d9c87e"><path stroke="black" stroke-dasharray="none" d="M 283 542 344 473"/><path fill="black" stroke="black" d="M 8 0 L 0 4 L 8 8 z" transform="translate(275,545.4) scale(1,1) rotate(-48.8)"/><path fill="black" stroke="black" d="M 8 0 L 0 4 L 8 8 z" transform="translate(352,469.6) scale(1,1) rotate(-228.8)"/><g><g label-idx="0" cursor="move" transform="translate(313.5, 507.5)"><rect fill="white" rx="3" ry="3" x="0" y="0" width="0" height="0"/><text text-anchor="middle" font-size="14pt" font-family="OpenSansCondensedLight" y="0.8em" display="none" xml:space="preserve" transform="translate(0,0)"/></g></g></g><g model-id="c8d28ede-8278-47d5-965e-de2d9f7dda6f"><path stroke="black" stroke-dasharray="none" d="M 343 377 343 308"/><path fill="black" stroke="black" d="M 8 0 L 0 4 L 8 8 z" transform="translate(339,385) scale(1,1) rotate(-90)"/><path fill="black" stroke="black" d="M 8 0 L 0 4 L 8 8 z" transform="translate(347,300) scale(1,1) rotate(-270)"/><g><g label-idx="0" cursor="move" transform="translate(343, 342.5)"><rect fill="white" rx="3" ry="3" x="0" y="0" width="0" height="0"/><text text-anchor="middle" font-size="14pt" font-family="OpenSansCondensedLight" y="0.8em" display="none" xml:space="preserve" transform="translate(0,0)"/></g></g></g></g><defs/></svg>