<svg xmlns="http://www.w3.org/2000/svg" xmlns:xlink="http://www.w3.org/1999/xlink" version="1.1" width="627.8000144958496" height="836.1000137329102" viewBox="32.60000228881836 59.900001525878906 627.8000144958496 836.1000137329102"><g><g transform="translate(32.7,60)"><g><g>
<path d="M595,0H0v776h595V0L595,0z" stroke="#000000" stroke-dasharray="none" fill="#FFFFFF"/>
<rect x="26" y="35.4" width="543" height="705.2" fill="none"/>
<circle fill="none" cx="297.5" cy="0" r="0.1"/>
<circle fill="none" cx="444.9" cy="0" r="0.1"/>
<circle fill="none" cx="595" cy="195.7" r="0.1"/>
<circle fill="none" cx="595" cy="388" r="0.1"/>
<circle fill="none" cx="595" cy="580.3" r="0.1"/>
<circle fill="none" cx="444.9" cy="776" r="0.1"/>
<circle fill="none" cx="297.5" cy="776" r="0.1"/>
<circle fill="none" cx="150.1" cy="776" r="0.1"/>
<circle fill="none" cx="0" cy="580.3" r="0.1"/>
<circle fill="none" cx="0" cy="388" r="0.1"/>
<circle fill="none" cx="0" cy="195.7" r="0.1"/>
<circle fill="none" cx="150.1" cy="0" r="0.1"/>
</g></g><rect stroke="none" stroke-width="0" fill="#FFFFFF" x="0" y="0" width="0" height="0" transform="translate(594.9,387.9)"/><path stroke="#000000" fill="none" d=""/><text font-family="OpenSansCondensedLight" font-size="14pt" fill="black" transform="translate(594.9,387.9)"/><rect stroke-width="0" fill="none" width="543" height="705.2" transform="translate(26,35.4)"/><text font-family="OpenSansCondensedLight" font-size="14pt" fill="black" transform="translate(26,35.4)" text-anchor="middle"><tspan x="271.5" y="358.9"> </tspan></text><path stroke="#000000" fill="none" transform="translate(26,35.4)" d="M 0 0"/></g><g transform="translate(424,69)"><g><g>
<path d="M193,0H0v28h193V0L193,0z" stroke="none" stroke-dasharray="none" fill="#FFFFFF"/>
<rect x="8.4" y="1.3" width="176.1" height="25.4" fill="none"/>
<circle fill="none" cx="96.5" cy="0" r="0.1"/>
<circle fill="none" cx="144.3" cy="0" r="0.1"/>
<circle fill="none" cx="193" cy="7.1" r="0.1"/>
<circle fill="none" cx="193" cy="14" r="0.1"/>
<circle fill="none" cx="193" cy="20.9" r="0.1"/>
<circle fill="none" cx="144.3" cy="28" r="0.1"/>
<circle fill="none" cx="96.5" cy="28" r="0.1"/>
<circle fill="none" cx="48.7" cy="28" r="0.1"/>
<circle fill="none" cx="0" cy="20.9" r="0.1"/>
<circle fill="none" cx="0" cy="14" r="0.1"/>
<circle fill="none" cx="0" cy="7.1" r="0.1"/>
<circle fill="none" cx="48.7" cy="0" r="0.1"/>
</g></g><rect stroke="none" stroke-width="0" fill="#FFFFFF" x="0" y="0" width="0" height="0" transform="translate(192.9,13.9)"/><path stroke="#000000" fill="none" d=""/><text font-family="OpenSansCondensedLight" font-size="14pt" fill="black" transform="translate(192.9,13.9)"/><rect stroke-width="0" fill="none" width="176.1" height="25.4" transform="translate(8.4,1.3)"/><text font-family="OpenSansCondensedLight" font-size="14pt" fill="black" transform="translate(8.4,1.3)" text-anchor="middle"><tspan x="88.1" y="8.5">OPERATING</tspan><tspan x="88.1" y="29.5">ENVIRONMENT</tspan></text><path stroke="#000000" fill="none" transform="translate(8.4,1.3)" d="M 0 0"/></g><g transform="translate(62,187)"><g><g>
<path d="M268,0H0v430h268V0L268,0z" stroke="#000000" stroke-dasharray="none" fill="#FFFFFF"/>
<rect x="11.7" y="19.6" width="244.6" height="390.8" fill="none"/>
<circle fill="none" cx="134" cy="0" r="0.1"/>
<circle fill="none" cx="200.4" cy="0" r="0.1"/>
<circle fill="none" cx="268" cy="108.4" r="0.1"/>
<circle fill="none" cx="268" cy="215" r="0.1"/>
<circle fill="none" cx="268" cy="321.6" r="0.1"/>
<circle fill="none" cx="200.4" cy="430" r="0.1"/>
<circle fill="none" cx="134" cy="430" r="0.1"/>
<circle fill="none" cx="67.6" cy="430" r="0.1"/>
<circle fill="none" cx="0" cy="321.6" r="0.1"/>
<circle fill="none" cx="0" cy="215" r="0.1"/>
<circle fill="none" cx="0" cy="108.4" r="0.1"/>
<circle fill="none" cx="67.6" cy="0" r="0.1"/>
</g></g><rect stroke="none" stroke-width="0" fill="#FFFFFF" x="0" y="0" width="0" height="0" transform="translate(267.9,214.9)"/><path stroke="#000000" fill="none" d=""/><text font-family="OpenSansCondensedLight" font-size="14pt" fill="black" transform="translate(267.9,214.9)"/><rect stroke-width="0" fill="none" width="244.6" height="390.8" transform="translate(11.7,19.6)"/><text font-family="OpenSansCondensedLight" font-size="14pt" fill="black" transform="translate(11.7,19.6)" text-anchor="middle"><tspan x="122.3" y="16.8">APPLICATION 1702</tspan></text><path stroke="#000000" fill="none" transform="translate(11.7,19.6)" d="M 166.1 19 203.4 19"/></g><g transform="translate(342,187)"><g><g>
<path d="M268,0H0v430h268V0L268,0z" stroke="#000000" stroke-dasharray="none" fill="#FFFFFF"/>
<rect x="11.7" y="19.6" width="244.6" height="390.8" fill="none"/>
<circle fill="none" cx="134" cy="0" r="0.1"/>
<circle fill="none" cx="200.4" cy="0" r="0.1"/>
<circle fill="none" cx="268" cy="108.4" r="0.1"/>
<circle fill="none" cx="268" cy="215" r="0.1"/>
<circle fill="none" cx="268" cy="321.6" r="0.1"/>
<circle fill="none" cx="200.4" cy="430" r="0.1"/>
<circle fill="none" cx="134" cy="430" r="0.1"/>
<circle fill="none" cx="67.6" cy="430" r="0.1"/>
<circle fill="none" cx="0" cy="321.6" r="0.1"/>
<circle fill="none" cx="0" cy="215" r="0.1"/>
<circle fill="none" cx="0" cy="108.4" r="0.1"/>
<circle fill="none" cx="67.6" cy="0" r="0.1"/>
</g></g><rect stroke="none" stroke-width="0" fill="#FFFFFF" x="0" y="0" width="0" height="0" transform="translate(267.9,214.9)"/><path stroke="#000000" fill="none" d=""/><text font-family="OpenSansCondensedLight" font-size="14pt" fill="black" transform="translate(267.9,214.9)"/><rect stroke-width="0" fill="none" width="244.6" height="390.8" transform="translate(11.7,19.6)"/><text font-family="OpenSansCondensedLight" font-size="14pt" fill="black" transform="translate(11.7,19.6)" text-anchor="middle"><tspan x="122.3" y="16.8">WEB BROWSER 1704</tspan></text><path stroke="#000000" fill="none" transform="translate(11.7,19.6)" d="M 174.1 19 211.4 19"/></g><g transform="translate(95,434)"><g><g>
<path d="M201,0H0v179h201V0L201,0z" stroke="#000000" stroke-dasharray="none" fill="#FFFFFF"/>
<rect x="8.8" y="8.2" width="183.4" height="162.7" fill="none"/>
<circle fill="none" cx="100.5" cy="0" r="0.1"/>
<circle fill="none" cx="150.3" cy="0" r="0.1"/>
<circle fill="none" cx="201" cy="45.1" r="0.1"/>
<circle fill="none" cx="201" cy="89.5" r="0.1"/>
<circle fill="none" cx="201" cy="133.9" r="0.1"/>
<circle fill="none" cx="150.3" cy="179" r="0.1"/>
<circle fill="none" cx="100.5" cy="179" r="0.1"/>
<circle fill="none" cx="50.7" cy="179" r="0.1"/>
<circle fill="none" cx="0" cy="133.9" r="0.1"/>
<circle fill="none" cx="0" cy="89.5" r="0.1"/>
<circle fill="none" cx="0" cy="45.1" r="0.1"/>
<circle fill="none" cx="50.7" cy="0" r="0.1"/>
</g></g><rect stroke="none" stroke-width="0" fill="#FFFFFF" x="0" y="0" width="0" height="0" transform="translate(200.9,89.4)"/><path stroke="#000000" fill="none" d=""/><text font-family="OpenSansCondensedLight" font-size="14pt" fill="black" transform="translate(200.9,89.4)"/><rect stroke-width="0" fill="none" width="183.4" height="162.7" transform="translate(8.8,8.2)"/><text font-family="OpenSansCondensedLight" font-size="14pt" fill="black" transform="translate(8.8,8.2)" text-anchor="middle"><tspan x="91.7" y="77.1">APPLICATION LOGIC</tspan><tspan x="91.7" y="98.1">1706</tspan></text><path stroke="#000000" fill="none" transform="translate(8.8,8.2)" d="M 73.1 100 110.4 100"/></g><g transform="translate(354,415)"><g><g>
<path d="M250,0H0v168h250V0L250,0z" stroke="#000000" stroke-dasharray="none" fill="#FFFFFF"/>
<rect x="10.9" y="7.7" width="228.1" height="152.7" fill="none"/>
<circle fill="none" cx="125" cy="0" r="0.1"/>
<circle fill="none" cx="187" cy="0" r="0.1"/>
<circle fill="none" cx="250" cy="42.4" r="0.1"/>
<circle fill="none" cx="250" cy="84" r="0.1"/>
<circle fill="none" cx="250" cy="125.6" r="0.1"/>
<circle fill="none" cx="187" cy="168" r="0.1"/>
<circle fill="none" cx="125" cy="168" r="0.1"/>
<circle fill="none" cx="63.1" cy="168" r="0.1"/>
<circle fill="none" cx="0" cy="125.6" r="0.1"/>
<circle fill="none" cx="0" cy="84" r="0.1"/>
<circle fill="none" cx="0" cy="42.4" r="0.1"/>
<circle fill="none" cx="63.1" cy="0" r="0.1"/>
</g></g><rect stroke="none" stroke-width="0" fill="#FFFFFF" x="0" y="0" width="0" height="0" transform="translate(249.9,83.9)"/><path stroke="#000000" fill="none" d=""/><text font-family="OpenSansCondensedLight" font-size="14pt" fill="black" transform="translate(249.9,83.9)"/><rect stroke-width="0" fill="none" width="228.1" height="152.7" transform="translate(10.9,7.7)"/><text font-family="OpenSansCondensedLight" font-size="14pt" fill="black" transform="translate(10.9,7.7)" text-anchor="middle"><tspan x="114.1" y="148.5">APPLICATION LOGIC 1708</tspan></text><path stroke="#000000" fill="none" transform="translate(10.9,7.7)" d="M 188.7 151 226 151"/></g><g transform="translate(95,239)"><g><g>
<path d="M201,0H0v194h201V0L201,0z" stroke="#000000" stroke-dasharray="none" fill="#FFFFFF"/>
<rect x="8.8" y="8.8" width="183.4" height="176.3" fill="none"/>
<circle fill="none" cx="100.5" cy="0" r="0.1"/>
<circle fill="none" cx="150.3" cy="0" r="0.1"/>
<circle fill="none" cx="201" cy="48.9" r="0.1"/>
<circle fill="none" cx="201" cy="97" r="0.1"/>
<circle fill="none" cx="201" cy="145.1" r="0.1"/>
<circle fill="none" cx="150.3" cy="194" r="0.1"/>
<circle fill="none" cx="100.5" cy="194" r="0.1"/>
<circle fill="none" cx="50.7" cy="194" r="0.1"/>
<circle fill="none" cx="0" cy="145.1" r="0.1"/>
<circle fill="none" cx="0" cy="97" r="0.1"/>
<circle fill="none" cx="0" cy="48.9" r="0.1"/>
<circle fill="none" cx="50.7" cy="0" r="0.1"/>
</g></g><rect stroke="none" stroke-width="0" fill="#FFFFFF" x="0" y="0" width="0" height="0" transform="translate(200.9,96.9)"/><path stroke="#000000" fill="none" d=""/><text font-family="OpenSansCondensedLight" font-size="14pt" fill="black" transform="translate(200.9,96.9)"/><rect stroke-width="0" fill="none" width="183.4" height="176.3" transform="translate(8.8,8.8)"/><text font-family="OpenSansCondensedLight" font-size="14pt" fill="black" transform="translate(8.8,8.8)" text-anchor="middle"><tspan x="91.7" y="16.8">PRESENTATION</tspan><tspan x="91.7" y="37.8">CONTROLLER 1726</tspan></text><path stroke="#000000" fill="none" transform="translate(8.8,8.8)" d="M 137.1 40 174.4 40"/></g><g transform="translate(354,237)"><g><g>
<path d="M250,0H0v178h250V0L250,0z" stroke="#000000" stroke-dasharray="none" fill="#FFFFFF"/>
<rect x="10.9" y="8.1" width="228.1" height="161.8" fill="none"/>
<circle fill="none" cx="125" cy="0" r="0.1"/>
<circle fill="none" cx="187" cy="0" r="0.1"/>
<circle fill="none" cx="250" cy="44.9" r="0.1"/>
<circle fill="none" cx="250" cy="89" r="0.1"/>
<circle fill="none" cx="250" cy="133.1" r="0.1"/>
<circle fill="none" cx="187" cy="178" r="0.1"/>
<circle fill="none" cx="125" cy="178" r="0.1"/>
<circle fill="none" cx="63.1" cy="178" r="0.1"/>
<circle fill="none" cx="0" cy="133.1" r="0.1"/>
<circle fill="none" cx="0" cy="89" r="0.1"/>
<circle fill="none" cx="0" cy="44.9" r="0.1"/>
<circle fill="none" cx="63.1" cy="0" r="0.1"/>
</g></g><rect stroke="none" stroke-width="0" fill="#FFFFFF" x="0" y="0" width="0" height="0" transform="translate(249.9,88.9)"/><path stroke="#000000" fill="none" d=""/><text font-family="OpenSansCondensedLight" font-size="14pt" fill="black" transform="translate(249.9,88.9)"/><rect stroke-width="0" fill="none" width="228.1" height="161.8" transform="translate(10.9,8.1)"/><text font-family="OpenSansCondensedLight" font-size="14pt" fill="black" transform="translate(10.9,8.1)" text-anchor="middle"><tspan x="114.1" y="16.8">PRESENTATION</tspan><tspan x="114.1" y="37.8">CONTROLLER 1728</tspan></text><path stroke="#000000" fill="none" transform="translate(10.9,8.1)" d="M 159.4 40 196.7 40"/></g><g transform="translate(293,631)"><g><g>
<path d="M311,0H0v130h311V0L311,0z" stroke="#000000" stroke-dasharray="none" fill="#FFFFFF"/>
<rect x="13.6" y="5.9" width="283.8" height="118.1" fill="none"/>
<circle fill="none" cx="155.5" cy="0" r="0.1"/>
<circle fill="none" cx="232.6" cy="0" r="0.1"/>
<circle fill="none" cx="311" cy="32.8" r="0.1"/>
<circle fill="none" cx="311" cy="65" r="0.1"/>
<circle fill="none" cx="311" cy="97.2" r="0.1"/>
<circle fill="none" cx="232.6" cy="130" r="0.1"/>
<circle fill="none" cx="155.5" cy="130" r="0.1"/>
<circle fill="none" cx="78.5" cy="130" r="0.1"/>
<circle fill="none" cx="0" cy="97.2" r="0.1"/>
<circle fill="none" cx="0" cy="65" r="0.1"/>
<circle fill="none" cx="0" cy="32.8" r="0.1"/>
<circle fill="none" cx="78.5" cy="0" r="0.1"/>
</g></g><rect stroke="none" stroke-width="0" fill="#FFFFFF" x="0" y="0" width="0" height="0" transform="translate(310.9,64.9)"/><path stroke="#000000" fill="none" d=""/><text font-family="OpenSansCondensedLight" font-size="14pt" fill="black" transform="translate(310.9,64.9)"/><rect stroke-width="0" fill="none" width="283.8" height="118.1" transform="translate(13.6,5.9)"/><text font-family="OpenSansCondensedLight" font-size="14pt" fill="black" transform="translate(13.6,5.9)" text-anchor="middle"><tspan x="141.9" y="65.4">SUBSYSTEM 1712</tspan></text><path stroke="#000000" fill="none" transform="translate(13.6,5.9)" d="M 180.5 67 217.9 67"/></g><g transform="translate(53,120)"><g><g>
<path d="M262,0H0v44h262V0L262,0z" stroke="#000000" stroke-dasharray="none" fill="#FFFFFF"/>
<rect x="11.5" y="2" width="239.1" height="40" fill="none"/>
<circle fill="none" cx="131" cy="0" r="0.1"/>
<circle fill="none" cx="195.9" cy="0" r="0.1"/>
<circle fill="none" cx="262" cy="11.1" r="0.1"/>
<circle fill="none" cx="262" cy="22" r="0.1"/>
<circle fill="none" cx="262" cy="32.9" r="0.1"/>
<circle fill="none" cx="195.9" cy="44" r="0.1"/>
<circle fill="none" cx="131" cy="44" r="0.1"/>
<circle fill="none" cx="66.1" cy="44" r="0.1"/>
<circle fill="none" cx="0" cy="32.9" r="0.1"/>
<circle fill="none" cx="0" cy="22" r="0.1"/>
<circle fill="none" cx="0" cy="11.1" r="0.1"/>
<circle fill="none" cx="66.1" cy="0" r="0.1"/>
</g></g><rect stroke="none" stroke-width="0" fill="#FFFFFF" x="0" y="0" width="0" height="0" transform="translate(261.9,21.9)"/><path stroke="#000000" fill="none" d=""/><text font-family="OpenSansCondensedLight" font-size="14pt" fill="black" transform="translate(261.9,21.9)"/><rect stroke-width="0" fill="none" width="239.1" height="40" transform="translate(11.5,2)"/><text font-family="OpenSansCondensedLight" font-size="14pt" fill="black" transform="translate(11.5,2)" text-anchor="middle"><tspan x="119.5" y="26.3">GUI SUBSYSTEM 1730</tspan></text><path stroke="#000000" fill="none" transform="translate(11.5,2)" d="M 177.1 28 214.4 28"/></g><g transform="translate(368,365)"><g><g>
<path d="M96,0H0v83h96V0L96,0z" stroke="#000000" stroke-dasharray="none" fill="#FFFFFF"/>
<rect x="4.2" y="3.8" width="87.6" height="75.4" fill="none"/>
<circle fill="none" cx="48" cy="0" r="0.1"/>
<circle fill="none" cx="71.8" cy="0" r="0.1"/>
<circle fill="none" cx="96" cy="20.9" r="0.1"/>
<circle fill="none" cx="96" cy="41.5" r="0.1"/>
<circle fill="none" cx="96" cy="62.1" r="0.1"/>
<circle fill="none" cx="71.8" cy="83" r="0.1"/>
<circle fill="none" cx="48" cy="83" r="0.1"/>
<circle fill="none" cx="24.2" cy="83" r="0.1"/>
<circle fill="none" cx="0" cy="62.1" r="0.1"/>
<circle fill="none" cx="0" cy="41.5" r="0.1"/>
<circle fill="none" cx="0" cy="20.9" r="0.1"/>
<circle fill="none" cx="24.2" cy="0" r="0.1"/>
</g></g><rect stroke="none" stroke-width="0" fill="#FFFFFF" x="0" y="0" width="0" height="0" transform="translate(95.9,41.4)"/><path stroke="#000000" fill="none" d=""/><text font-family="OpenSansCondensedLight" font-size="14pt" fill="black" transform="translate(95.9,41.4)"/><rect stroke-width="0" fill="none" width="87.6" height="75.4" transform="translate(4.2,3.8)"/><text font-family="OpenSansCondensedLight" font-size="14pt" fill="black" transform="translate(4.2,3.8)" text-anchor="middle"><tspan x="43.8" y="44">SAA 1710</tspan></text><path stroke="#000000" fill="none" transform="translate(4.2,3.8)" d="M 46.1 46 83.5 46"/></g><g transform="translate(58,803)"><g><g>
<path d="M546,0H0v33h546V0L546,0z" stroke="#000000" stroke-dasharray="none" fill="#FFFFFF"/>
<rect x="23.9" y="1.5" width="498.3" height="30" fill="none"/>
<circle fill="none" cx="273" cy="0" r="0.1"/>
<circle fill="none" cx="408.3" cy="0" r="0.1"/>
<circle fill="none" cx="546" cy="8.3" r="0.1"/>
<circle fill="none" cx="546" cy="16.5" r="0.1"/>
<circle fill="none" cx="546" cy="24.7" r="0.1"/>
<circle fill="none" cx="408.3" cy="33" r="0.1"/>
<circle fill="none" cx="273" cy="33" r="0.1"/>
<circle fill="none" cx="137.7" cy="33" r="0.1"/>
<circle fill="none" cx="0" cy="24.7" r="0.1"/>
<circle fill="none" cx="0" cy="16.5" r="0.1"/>
<circle fill="none" cx="0" cy="8.3" r="0.1"/>
<circle fill="none" cx="137.7" cy="0" r="0.1"/>
</g></g><rect stroke="none" stroke-width="0" fill="#FFFFFF" x="0" y="0" width="0" height="0" transform="translate(545.9,16.4)"/><path stroke="#000000" fill="none" d=""/><text font-family="OpenSansCondensedLight" font-size="14pt" fill="black" transform="translate(545.9,16.4)"/><rect stroke-width="0" fill="none" width="498.3" height="30" transform="translate(23.9,1.5)"/><text font-family="OpenSansCondensedLight" font-size="14pt" fill="black" transform="translate(23.9,1.5)" text-anchor="middle"><tspan x="249.1" y="21.3">NETWORK STACK 1714</tspan></text><path stroke="#000000" fill="none" transform="translate(23.9,1.5)" d="M 311.6 23 348.9 23"/></g><g transform="translate(100,76)"><g><g>
<path d="M214,0H0v44h214V0L214,0z" stroke="#000000" stroke-dasharray="none" fill="#FFFFFF"/>
<rect x="9.4" y="2" width="195.3" height="40" fill="none"/>
<circle fill="none" cx="107" cy="0" r="0.1"/>
<circle fill="none" cx="160" cy="0" r="0.1"/>
<circle fill="none" cx="214" cy="11.1" r="0.1"/>
<circle fill="none" cx="214" cy="22" r="0.1"/>
<circle fill="none" cx="214" cy="32.9" r="0.1"/>
<circle fill="none" cx="160" cy="44" r="0.1"/>
<circle fill="none" cx="107" cy="44" r="0.1"/>
<circle fill="none" cx="54" cy="44" r="0.1"/>
<circle fill="none" cx="0" cy="32.9" r="0.1"/>
<circle fill="none" cx="0" cy="22" r="0.1"/>
<circle fill="none" cx="0" cy="11.1" r="0.1"/>
<circle fill="none" cx="54" cy="0" r="0.1"/>
</g></g><rect stroke="none" stroke-width="0" fill="#FFFFFF" x="0" y="0" width="0" height="0" transform="translate(213.9,21.9)"/><path stroke="#000000" fill="none" d=""/><text font-family="OpenSansCondensedLight" font-size="14pt" fill="black" transform="translate(213.9,21.9)"/><rect stroke-width="0" fill="none" width="195.3" height="40" transform="translate(9.4,2)"/><text font-family="OpenSansCondensedLight" font-size="14pt" fill="black" transform="translate(9.4,2)" text-anchor="middle"><tspan x="97.6" y="15.8">GRAPHICS</tspan><tspan x="97.6" y="36.8">SUBSYSTEM 1732</tspan></text><path stroke="#000000" fill="none" transform="translate(9.4,2)" d="M 136.3 39 173.6 39"/></g><g transform="translate(58,770)"><g><g>
<path d="M282,0H0v33h282V0L282,0z" stroke="#000000" stroke-dasharray="none" fill="#FFFFFF"/>
<rect x="12.3" y="1.5" width="257.4" height="30" fill="none"/>
<circle fill="none" cx="141" cy="0" r="0.1"/>
<circle fill="none" cx="210.9" cy="0" r="0.1"/>
<circle fill="none" cx="282" cy="8.3" r="0.1"/>
<circle fill="none" cx="282" cy="16.5" r="0.1"/>
<circle fill="none" cx="282" cy="24.7" r="0.1"/>
<circle fill="none" cx="210.9" cy="33" r="0.1"/>
<circle fill="none" cx="141" cy="33" r="0.1"/>
<circle fill="none" cx="71.1" cy="33" r="0.1"/>
<circle fill="none" cx="0" cy="24.7" r="0.1"/>
<circle fill="none" cx="0" cy="16.5" r="0.1"/>
<circle fill="none" cx="0" cy="8.3" r="0.1"/>
<circle fill="none" cx="71.1" cy="0" r="0.1"/>
</g></g><rect stroke="none" stroke-width="0" fill="#FFFFFF" x="0" y="0" width="0" height="0" transform="translate(281.9,16.4)"/><path stroke="#000000" fill="none" d=""/><text font-family="OpenSansCondensedLight" font-size="14pt" fill="black" transform="translate(281.9,16.4)"/><rect stroke-width="0" fill="none" width="257.4" height="30" transform="translate(12.3,1.5)"/><text font-family="OpenSansCondensedLight" font-size="14pt" fill="black" transform="translate(12.3,1.5)" text-anchor="middle"><tspan x="128.7" y="10.8">APPLICATION PROTOCOL</tspan><tspan x="128.7" y="31.8">SERVICE 1716</tspan></text><path stroke="#000000" fill="none" transform="translate(12.3,1.5)" d="M 150.5 34 187.8 34"/></g><g transform="translate(443,119)"><g><g>
<path d="M99.5,0H0v51.5h99.5V0L99.5,0z" stroke="#000000" stroke-dasharray="none" fill="#FFFFFF"/>
<rect x="4.4" y="2.3" width="90.8" height="46.8" fill="none"/>
<circle fill="none" cx="49.8" cy="0" r="0.1"/>
<circle fill="none" cx="74.4" cy="0" r="0.1"/>
<circle fill="none" cx="99.5" cy="13" r="0.1"/>
<circle fill="none" cx="99.5" cy="25.8" r="0.1"/>
<circle fill="none" cx="99.5" cy="38.5" r="0.1"/>
<circle fill="none" cx="74.4" cy="51.5" r="0.1"/>
<circle fill="none" cx="49.8" cy="51.5" r="0.1"/>
<circle fill="none" cx="25.1" cy="51.5" r="0.1"/>
<circle fill="none" cx="0" cy="38.5" r="0.1"/>
<circle fill="none" cx="0" cy="25.8" r="0.1"/>
<circle fill="none" cx="0" cy="13" r="0.1"/>
<circle fill="none" cx="25.1" cy="0" r="0.1"/>
</g></g><rect stroke="none" stroke-width="0" fill="#FFFFFF" x="0" y="0" width="0" height="0" transform="translate(99.4,25.7)"/><path stroke="#000000" fill="none" d=""/><text font-family="OpenSansCondensedLight" font-size="14pt" fill="black" transform="translate(99.4,25.7)"/><rect stroke-width="0" fill="none" width="90.8" height="46.8" transform="translate(4.4,2.3)"/><text font-family="OpenSansCondensedLight" font-size="14pt" fill="black" transform="translate(4.4,2.3)" text-anchor="middle"><tspan x="45.4" y="8.7">INPUT</tspan><tspan x="45.4" y="29.7">DRIVER</tspan><tspan x="45.4" y="50.7">1734</tspan></text><path stroke="#000000" fill="none" transform="translate(4.4,2.3)" d="M 26.7 53 64.1 53"/></g><g transform="translate(354,582)"><g><g>
<path d="M250,0H0v34h250V0L250,0z" stroke="#000000" stroke-dasharray="none" fill="#FFFFFF"/>
<rect x="10.9" y="1.6" width="228.1" height="30.9" fill="none"/>
<circle fill="none" cx="125" cy="0" r="0.1"/>
<circle fill="none" cx="187" cy="0" r="0.1"/>
<circle fill="none" cx="250" cy="8.6" r="0.1"/>
<circle fill="none" cx="250" cy="17" r="0.1"/>
<circle fill="none" cx="250" cy="25.4" r="0.1"/>
<circle fill="none" cx="187" cy="34" r="0.1"/>
<circle fill="none" cx="125" cy="34" r="0.1"/>
<circle fill="none" cx="63.1" cy="34" r="0.1"/>
<circle fill="none" cx="0" cy="25.4" r="0.1"/>
<circle fill="none" cx="0" cy="17" r="0.1"/>
<circle fill="none" cx="0" cy="8.6" r="0.1"/>
<circle fill="none" cx="63.1" cy="0" r="0.1"/>
</g></g><rect stroke="none" stroke-width="0" fill="#FFFFFF" x="0" y="0" width="0" height="0" transform="translate(249.9,16.9)"/><path stroke="#000000" fill="none" d=""/><text font-family="OpenSansCondensedLight" font-size="14pt" fill="black" transform="translate(249.9,16.9)"/><rect stroke-width="0" fill="none" width="228.1" height="30.9" transform="translate(10.9,1.6)"/><text font-family="OpenSansCondensedLight" font-size="14pt" fill="black" transform="translate(10.9,1.6)" text-anchor="middle"><tspan x="114.1" y="21.7">CONTENT MANAGER 1718</tspan></text><path stroke="#000000" fill="none" transform="translate(10.9,1.6)" d="M 190.8 24 228.1 24"/></g><g transform="translate(475,390)"><g><g>
<g fill="#FFFFFF">
    <path d="M110.9,75.2h-5.5c0.1,-0.1,-0,5.7,-0,5.7H0.1V11.1c0,0,5.7,-0.2,5.6,-0.1V5.5h5.2V0h105.2v69.7h-5.3"/>
</g>
<g stroke="#000000" stroke-dasharray="none">
    <path fill="none" d="M10.9,5.5V0h105.2v69.7h-5.3"/>
    <path fill="none" d="M5.7,11.1V5.5h105.2v69.7h-5.5"/>
    <path fill="none" d="M0.1,11.1h105.2v69.7H0.1V11.1z"/>
</g>
<rect x="3.5" y="14.6" fill="none" width="98.6" height="62.5"/>
<circle fill="none" cx="59.8" cy="0.1" r="0.1"/>
<circle fill="none" cx="95.4" cy="0.1" r="0.1"/>
<circle fill="none" cx="116.1" cy="6.5" r="0.1"/>
<circle fill="none" cx="116.1" cy="31.3" r="0.1"/>
<circle fill="none" cx="116.1" cy="65.2" r="0.1"/>
<circle fill="none" cx="91.3" cy="81" r="0.1"/>
<circle fill="none" cx="49.5" cy="80.8" r="0.1"/>
<circle fill="none" cx="12.6" cy="80.8" r="0.1"/>
<circle fill="none" cx="0.3" cy="70.6" r="0.1"/>
<circle fill="none" cx="0.3" cy="44.1" r="0.1"/>
<circle fill="none" cx="0.1" cy="22.9" r="0.1"/>
<circle fill="none" cx="24.7" cy="0.1" r="0.1"/>
</g></g><rect stroke="none" stroke-width="0" fill="#FFFFFF" x="0" y="0" width="0" height="0" transform="translate(116,31.2)"/><path stroke="#000000" fill="none" d=""/><text font-family="OpenSansCondensedLight" font-size="14pt" fill="black" transform="translate(116,31.2)"/><rect stroke-width="0" fill="none" width="98.6" height="62.5" transform="translate(3.5,14.6)"/><text font-family="OpenSansCondensedLight" font-size="14pt" fill="black" transform="translate(3.5,14.6)" text-anchor="middle"><tspan x="49.3" y="16.5">CONTENT</tspan><tspan x="49.3" y="37.5">HANDLER</tspan><tspan x="49.3" y="58.5">1720</tspan></text><path stroke="#000000" fill="none" transform="translate(3.5,14.6)" d="M 30.6 61 67.9 61"/></g><g transform="translate(127,310)"><g><g>
<g fill="#FFFFFF">
    <path d="M138.6,79.8h-6.9c0.2,-0.2,-0,6,-0,6H0.1V11.8c0,0,7.1,-0.2,7,-0.1V5.8h6.5V0h131.5v74h-6.6"/>
</g>
<g stroke="#000000" stroke-dasharray="none">
    <path fill="none" d="M13.6,5.8V0h131.5v74h-6.6"/>
    <path fill="none" d="M7.1,11.8V5.8h131.5v74h-6.9"/>
    <path fill="none" d="M0.1,11.8h131.5v74H0.1V11.8z"/>
</g>
<rect x="4.3" y="15.5" fill="none" width="123.2" height="66.3"/>
<circle fill="none" cx="74.8" cy="0.1" r="0.1"/>
<circle fill="none" cx="119.2" cy="0.1" r="0.1"/>
<circle fill="none" cx="145.1" cy="6.9" r="0.1"/>
<circle fill="none" cx="145.1" cy="33.2" r="0.1"/>
<circle fill="none" cx="145.1" cy="69.2" r="0.1"/>
<circle fill="none" cx="114.1" cy="86" r="0.1"/>
<circle fill="none" cx="61.8" cy="85.8" r="0.1"/>
<circle fill="none" cx="15.8" cy="85.8" r="0.1"/>
<circle fill="none" cx="0.3" cy="74.9" r="0.1"/>
<circle fill="none" cx="0.3" cy="46.8" r="0.1"/>
<circle fill="none" cx="0.1" cy="24.3" r="0.1"/>
<circle fill="none" cx="30.9" cy="0.1" r="0.1"/>
</g></g><rect stroke="none" stroke-width="0" fill="#FFFFFF" x="0" y="0" width="0" height="0" transform="translate(145,33.1)"/><path stroke="#000000" fill="none" d=""/><text font-family="OpenSansCondensedLight" font-size="14pt" fill="black" transform="translate(145,33.1)"/><rect stroke-width="0" fill="none" width="123.2" height="66.3" transform="translate(4.3,15.5)"/><text font-family="OpenSansCondensedLight" font-size="14pt" fill="black" transform="translate(4.3,15.5)" text-anchor="middle"><tspan x="61.6" y="18.5">UI ELEMENT</tspan><tspan x="61.6" y="39.5">HANDLER</tspan><tspan x="61.6" y="60.5">1722</tspan></text><path stroke="#000000" fill="none" transform="translate(4.3,15.5)" d="M 42.9 63 80.3 63"/></g><g transform="translate(439,275)"><g><g>
<g fill="#FFFFFF">
    <path d="M138.6,74.3h-6.9c0.2,-0.1,-0,5.6,-0,5.6H0.1V11c0,0,7.1,-0.2,7,-0.1V5.4h6.5V0h131.5v68.9h-6.6"/>
</g>
<g stroke="#000000" stroke-dasharray="none">
    <path fill="none" d="M13.6,5.4V0h131.5v68.9h-6.6"/>
    <path fill="none" d="M7.1,10.9V5.4h131.5v68.9h-6.9"/>
    <path fill="none" d="M0.1,11h131.5v68.9H0.1V11z"/>
</g>
<rect x="4.3" y="14.5" fill="none" width="123.2" height="61.7"/>
<circle fill="none" cx="74.8" cy="0.1" r="0.1"/>
<circle fill="none" cx="119.2" cy="0.1" r="0.1"/>
<circle fill="none" cx="145.1" cy="6.5" r="0.1"/>
<circle fill="none" cx="145.1" cy="30.9" r="0.1"/>
<circle fill="none" cx="145.1" cy="64.4" r="0.1"/>
<circle fill="none" cx="114.1" cy="80" r="0.1"/>
<circle fill="none" cx="61.8" cy="79.8" r="0.1"/>
<circle fill="none" cx="15.8" cy="79.8" r="0.1"/>
<circle fill="none" cx="0.3" cy="69.7" r="0.1"/>
<circle fill="none" cx="0.3" cy="43.6" r="0.1"/>
<circle fill="none" cx="0.1" cy="22.6" r="0.1"/>
<circle fill="none" cx="30.9" cy="0.1" r="0.1"/>
</g></g><rect stroke="none" stroke-width="0" fill="#FFFFFF" x="0" y="0" width="0" height="0" transform="translate(145,30.8)"/><path stroke="#000000" fill="none" d=""/><text font-family="OpenSansCondensedLight" font-size="14pt" fill="black" transform="translate(145,30.8)"/><rect stroke-width="0" fill="none" width="123.2" height="61.7" transform="translate(4.3,14.5)"/><text font-family="OpenSansCondensedLight" font-size="14pt" fill="black" transform="translate(4.3,14.5)" text-anchor="middle"><tspan x="61.6" y="16.2">UI ELEMENT</tspan><tspan x="61.6" y="37.2">HANDLER</tspan><tspan x="61.6" y="58.2">1724</tspan></text><path stroke="#000000" fill="none" transform="translate(4.3,14.5)" d="M 42.9 60 80.3 60"/></g><g><path stroke="black" stroke-dasharray="none" d="M 443 142 315 142" fill="none"/><path fill="black" stroke="black" d="" transform="translate(443,142) scale(1,1) rotate(-180)"/><path fill="black" stroke="black" d="" transform="translate(315,142) scale(1,1) rotate(0)"/><g><g label-idx="0" cursor="move" transform="translate(379, 142)"><rect fill="white" rx="3" ry="3" x="0" y="0" width="0" height="0"/><text text-anchor="middle" font-size="14pt" font-family="OpenSansCondensedLight" y="0.8em" display="none" xml:space="preserve" transform="translate(0,0)"/></g></g></g></g><defs/></svg>