<svg xmlns="http://www.w3.org/2000/svg" xmlns:xlink="http://www.w3.org/1999/xlink" version="1.1" width="642.1000118255615" height="837.1000137329102" viewBox="16.899999618530273 60.900001525878906 642.1000118255615 837.1000137329102"><g><g transform="translate(17,61)"><g><g>
<path d="M625,0H0v776h625V0L625,0z" stroke="#000000" stroke-dasharray="none" fill="#FFFFFF"/>
<rect x="27.3" y="35.4" width="570.4" height="705.2" fill="none"/>
<circle fill="none" cx="312.5" cy="0" r="0.1"/>
<circle fill="none" cx="467.4" cy="0" r="0.1"/>
<circle fill="none" cx="625" cy="195.7" r="0.1"/>
<circle fill="none" cx="625" cy="388" r="0.1"/>
<circle fill="none" cx="625" cy="580.3" r="0.1"/>
<circle fill="none" cx="467.4" cy="776" r="0.1"/>
<circle fill="none" cx="312.5" cy="776" r="0.1"/>
<circle fill="none" cx="157.7" cy="776" r="0.1"/>
<circle fill="none" cx="0" cy="580.3" r="0.1"/>
<circle fill="none" cx="0" cy="388" r="0.1"/>
<circle fill="none" cx="0" cy="195.7" r="0.1"/>
<circle fill="none" cx="157.7" cy="0" r="0.1"/>
</g></g><rect stroke="none" stroke-width="0" fill="#FFFFFF" x="0" y="0" width="0" height="0" transform="translate(624.9,387.9)"/><path stroke="#000000" fill="none" d=""/><text font-family="OpenSansCondensedLight" font-size="14pt" fill="black" transform="translate(624.9,387.9)"/><rect stroke-width="0" fill="none" width="570.4" height="705.2" transform="translate(27.3,35.4)"/><text font-family="OpenSansCondensedLight" font-size="14pt" fill="black" transform="translate(27.3,35.4)" text-anchor="middle"><tspan x="285.2" y="358.9"> </tspan></text><path stroke="#000000" fill="none" transform="translate(27.3,35.4)" d="M 0 0"/></g><g transform="translate(435,790)"><g><g>
<path d="M198,0H0v37h198V0L198,0z" stroke="none" stroke-dasharray="none" fill="#FFFFFF"/>
<rect x="8.7" y="1.7" width="180.7" height="33.6" fill="none"/>
<circle fill="none" cx="99" cy="0" r="0.1"/>
<circle fill="none" cx="148.1" cy="0" r="0.1"/>
<circle fill="none" cx="198" cy="9.3" r="0.1"/>
<circle fill="none" cx="198" cy="18.5" r="0.1"/>
<circle fill="none" cx="198" cy="27.7" r="0.1"/>
<circle fill="none" cx="148.1" cy="37" r="0.1"/>
<circle fill="none" cx="99" cy="37" r="0.1"/>
<circle fill="none" cx="50" cy="37" r="0.1"/>
<circle fill="none" cx="0" cy="27.7" r="0.1"/>
<circle fill="none" cx="0" cy="18.5" r="0.1"/>
<circle fill="none" cx="0" cy="9.3" r="0.1"/>
<circle fill="none" cx="50" cy="0" r="0.1"/>
</g></g><rect stroke="none" stroke-width="0" fill="#FFFFFF" x="0" y="0" width="0" height="0" transform="translate(197.9,18.4)"/><path stroke="#000000" fill="none" d=""/><text font-family="OpenSansCondensedLight" font-size="14pt" fill="black" transform="translate(197.9,18.4)"/><rect stroke-width="0" fill="none" width="180.7" height="33.6" transform="translate(8.7,1.7)"/><text font-family="OpenSansCondensedLight" font-size="14pt" fill="black" transform="translate(8.7,1.7)" text-anchor="middle"><tspan x="90.3" y="12.6">COMPUTING</tspan><tspan x="90.3" y="33.6">ENVIRONMENT</tspan></text><path stroke="#000000" fill="none" transform="translate(8.7,1.7)" d="M 0 0"/></g><g transform="translate(54,720.5)"><g><g>
<path d="M197,0H0v94h197V0L197,0z" stroke="#000000" stroke-dasharray="none" fill="#FFFFFF"/>
<rect x="8.6" y="4.3" width="179.8" height="85.4" fill="none"/>
<circle fill="none" cx="98.5" cy="0" r="0.1"/>
<circle fill="none" cx="147.3" cy="0" r="0.1"/>
<circle fill="none" cx="197" cy="23.7" r="0.1"/>
<circle fill="none" cx="197" cy="47" r="0.1"/>
<circle fill="none" cx="197" cy="70.3" r="0.1"/>
<circle fill="none" cx="147.3" cy="94" r="0.1"/>
<circle fill="none" cx="98.5" cy="94" r="0.1"/>
<circle fill="none" cx="49.7" cy="94" r="0.1"/>
<circle fill="none" cx="0" cy="70.3" r="0.1"/>
<circle fill="none" cx="0" cy="47" r="0.1"/>
<circle fill="none" cx="0" cy="23.7" r="0.1"/>
<circle fill="none" cx="49.7" cy="0" r="0.1"/>
</g></g><rect stroke="none" stroke-width="0" fill="#FFFFFF" x="0" y="0" width="0" height="0" transform="translate(196.9,46.9)"/><path stroke="#000000" fill="none" d=""/><text font-family="OpenSansCondensedLight" font-size="14pt" fill="black" transform="translate(196.9,46.9)"/><rect stroke-width="0" fill="none" width="179.8" height="85.4" transform="translate(8.6,4.3)"/><text font-family="OpenSansCondensedLight" font-size="14pt" fill="black" transform="translate(8.6,4.3)" text-anchor="middle"><tspan x="89.9" y="16.8">TEMPLATE</tspan><tspan x="89.9" y="37.8">DATABASE 1822</tspan></text><path stroke="#000000" fill="none" transform="translate(8.6,4.3)" d="M 121.5 40 158.9 40"/></g><g transform="translate(95,761)"><g><g>
<path d="M119,0H0v36h119V0L119,0z" stroke="#000000" stroke-dasharray="none" fill="#FFFFFF"/>
<rect x="5.2" y="1.6" width="108.6" height="32.7" fill="none"/>
<circle fill="none" cx="59.5" cy="0" r="0.1"/>
<circle fill="none" cx="89" cy="0" r="0.1"/>
<circle fill="none" cx="119" cy="9.1" r="0.1"/>
<circle fill="none" cx="119" cy="18" r="0.1"/>
<circle fill="none" cx="119" cy="26.9" r="0.1"/>
<circle fill="none" cx="89" cy="36" r="0.1"/>
<circle fill="none" cx="59.5" cy="36" r="0.1"/>
<circle fill="none" cx="30" cy="36" r="0.1"/>
<circle fill="none" cx="0" cy="26.9" r="0.1"/>
<circle fill="none" cx="0" cy="18" r="0.1"/>
<circle fill="none" cx="0" cy="9.1" r="0.1"/>
<circle fill="none" cx="30" cy="0" r="0.1"/>
</g></g><rect stroke="none" stroke-width="0" fill="#FFFFFF" x="0" y="0" width="0" height="0" transform="translate(118.9,17.9)"/><path stroke="#000000" fill="none" d=""/><text font-family="OpenSansCondensedLight" font-size="14pt" fill="black" transform="translate(118.9,17.9)"/><rect stroke-width="0" fill="none" width="108.6" height="32.7" transform="translate(5.2,1.6)"/><text font-family="OpenSansCondensedLight" font-size="14pt" fill="black" transform="translate(5.2,1.6)" text-anchor="middle"><tspan x="54.3" y="12.2">TEMPLATE</tspan><tspan x="54.3" y="33.2">1824</tspan></text><path stroke="#000000" fill="none" transform="translate(5.2,1.6)" d="M 35.6 35 73 35"/></g><g transform="translate(293,691)"><g><g>
<g stroke="#000000" stroke-dasharray="none" fill="#FFFFFF">
    <path d="M124.4,20.5H0v83.6c0,11.2,27.9,20.5,62.3,20.5s62.3,-9.3,62.3,-20.5v-83.6L124.4,20.5L124.4,20.5z"/>
    <path d="M62.3,0C27.9,0,0,9.3,0,20.5s27.9,20.5,62.3,20.5s62.3,-9.3,62.3,-20.5C124.4,9.3,96.5,0,62.3,0L62.3,0z"/>
</g>
<rect x="6.6" y="45.6" width="111.1" height="59.1" fill="none"/>
<circle fill="none" cx="62.3" cy="0" r="0.1"/>
<circle fill="none" cx="95" cy="3.1" r="0.1"/>
<circle fill="none" cx="124.6" cy="20.5" r="0.1"/>
<circle fill="none" cx="124.6" cy="62.3" r="0.1"/>
<circle fill="none" cx="124.6" cy="104.1" r="0.1"/>
<circle fill="none" cx="96.7" cy="121.2" r="0.1"/>
<circle fill="none" cx="62.3" cy="124.6" r="0.1"/>
<circle fill="none" cx="26.1" cy="120.7" r="0.1"/>
<circle fill="none" cx="0" cy="104.1" r="0.1"/>
<circle fill="none" cx="0" cy="62.3" r="0.1"/>
<circle fill="none" cx="0" cy="20.5" r="0.1"/>
<circle fill="none" cx="29.4" cy="3.1" r="0.1"/>
</g></g><rect stroke="none" stroke-width="0" fill="#FFFFFF" x="0" y="0" width="0" height="0" transform="translate(124.5,62.2)"/><path stroke="#000000" fill="none" d=""/><text font-family="OpenSansCondensedLight" font-size="14pt" fill="black" transform="translate(124.5,62.2)"/><rect stroke-width="0" fill="none" width="111.1" height="59.1" transform="translate(6.6,45.6)"/><text font-family="OpenSansCondensedLight" font-size="14pt" fill="black" transform="translate(6.6,45.6)" text-anchor="middle"><tspan x="55.6" y="14.9">MODEL</tspan><tspan x="55.6" y="35.9">DATABASE</tspan><tspan x="55.6" y="56.9">1816</tspan></text><path stroke="#000000" fill="none" transform="translate(6.6,45.6)" d="M 36.9 59 74.2 59"/></g><g transform="translate(68,246)"><g><g>
<path d="M564,0H0v422h564V0L564,0z" stroke="#000000" stroke-dasharray="5,5" fill="#FFFFFF"/>
<rect x="24.7" y="19.2" width="514.7" height="383.5" fill="none"/>
<circle fill="none" cx="282" cy="0" r="0.1"/>
<circle fill="none" cx="421.8" cy="0" r="0.1"/>
<circle fill="none" cx="564" cy="106.4" r="0.1"/>
<circle fill="none" cx="564" cy="211" r="0.1"/>
<circle fill="none" cx="564" cy="315.6" r="0.1"/>
<circle fill="none" cx="421.8" cy="422" r="0.1"/>
<circle fill="none" cx="282" cy="422" r="0.1"/>
<circle fill="none" cx="142.3" cy="422" r="0.1"/>
<circle fill="none" cx="0" cy="315.6" r="0.1"/>
<circle fill="none" cx="0" cy="211" r="0.1"/>
<circle fill="none" cx="0" cy="106.4" r="0.1"/>
<circle fill="none" cx="142.3" cy="0" r="0.1"/>
</g></g><rect stroke="none" stroke-width="0" fill="#FFFFFF" x="0" y="0" width="0" height="0" transform="translate(563.9,210.9)"/><path stroke="#000000" fill="none" d=""/><text font-family="OpenSansCondensedLight" font-size="14pt" fill="black" transform="translate(563.9,210.9)"/><rect stroke-width="0" fill="none" width="514.7" height="383.5" transform="translate(24.7,19.2)"/><text font-family="OpenSansCondensedLight" font-size="14pt" fill="black" transform="translate(24.7,19.2)" text-anchor="middle"><tspan x="257.4" y="198.1"> </tspan></text><path stroke="#000000" fill="none" transform="translate(24.7,19.2)" d="M 0 0"/></g><g transform="translate(44,75)"><g><g>
<path d="M567,0H0v40h567V0L567,0z" stroke="#000000" stroke-dasharray="none" fill="#FFFFFF"/>
<rect x="24.8" y="1.8" width="517.4" height="36.4" fill="none"/>
<circle fill="none" cx="283.5" cy="0" r="0.1"/>
<circle fill="none" cx="424" cy="0" r="0.1"/>
<circle fill="none" cx="567" cy="10.1" r="0.1"/>
<circle fill="none" cx="567" cy="20" r="0.1"/>
<circle fill="none" cx="567" cy="29.9" r="0.1"/>
<circle fill="none" cx="424" cy="40" r="0.1"/>
<circle fill="none" cx="283.5" cy="40" r="0.1"/>
<circle fill="none" cx="143" cy="40" r="0.1"/>
<circle fill="none" cx="0" cy="29.9" r="0.1"/>
<circle fill="none" cx="0" cy="20" r="0.1"/>
<circle fill="none" cx="0" cy="10.1" r="0.1"/>
<circle fill="none" cx="143" cy="0" r="0.1"/>
</g></g><rect stroke="none" stroke-width="0" fill="#FFFFFF" x="0" y="0" width="0" height="0" transform="translate(566.9,19.9)"/><path stroke="#000000" fill="none" d=""/><text font-family="OpenSansCondensedLight" font-size="14pt" fill="black" transform="translate(566.9,19.9)"/><rect stroke-width="0" fill="none" width="517.4" height="36.4" transform="translate(24.8,1.8)"/><text font-family="OpenSansCondensedLight" font-size="14pt" fill="black" transform="translate(24.8,1.8)" text-anchor="middle"><tspan x="258.7" y="24.5">NETWORK STACK 1804</tspan></text><path stroke="#000000" fill="none" transform="translate(24.8,1.8)" d="M 321.2 27 358.5 27"/></g><g transform="translate(59,226)"><g><g>
<path d="M564,0H0v428h564V0L564,0z" stroke="#000000" stroke-dasharray="5,5" fill="#FFFFFF"/>
<rect x="24.7" y="19.5" width="514.7" height="389" fill="none"/>
<circle fill="none" cx="282" cy="0" r="0.1"/>
<circle fill="none" cx="421.8" cy="0" r="0.1"/>
<circle fill="none" cx="564" cy="107.9" r="0.1"/>
<circle fill="none" cx="564" cy="214" r="0.1"/>
<circle fill="none" cx="564" cy="320.1" r="0.1"/>
<circle fill="none" cx="421.8" cy="428" r="0.1"/>
<circle fill="none" cx="282" cy="428" r="0.1"/>
<circle fill="none" cx="142.3" cy="428" r="0.1"/>
<circle fill="none" cx="0" cy="320.1" r="0.1"/>
<circle fill="none" cx="0" cy="214" r="0.1"/>
<circle fill="none" cx="0" cy="107.9" r="0.1"/>
<circle fill="none" cx="142.3" cy="0" r="0.1"/>
</g></g><rect stroke="none" stroke-width="0" fill="#FFFFFF" x="0" y="0" width="0" height="0" transform="translate(563.9,213.9)"/><path stroke="#000000" fill="none" d=""/><text font-family="OpenSansCondensedLight" font-size="14pt" fill="black" transform="translate(563.9,213.9)"/><rect stroke-width="0" fill="none" width="514.7" height="389" transform="translate(24.7,19.5)"/><text font-family="OpenSansCondensedLight" font-size="14pt" fill="black" transform="translate(24.7,19.5)" text-anchor="middle"><tspan x="257.4" y="200.8"> </tspan></text><path stroke="#000000" fill="none" transform="translate(24.7,19.5)" d="M 0 0"/></g><g transform="translate(44,113)"><g><g>
<path d="M567,0H0v40h567V0L567,0z" stroke="#000000" stroke-dasharray="none" fill="#FFFFFF"/>
<rect x="24.8" y="1.8" width="517.4" height="36.4" fill="none"/>
<circle fill="none" cx="283.5" cy="0" r="0.1"/>
<circle fill="none" cx="424" cy="0" r="0.1"/>
<circle fill="none" cx="567" cy="10.1" r="0.1"/>
<circle fill="none" cx="567" cy="20" r="0.1"/>
<circle fill="none" cx="567" cy="29.9" r="0.1"/>
<circle fill="none" cx="424" cy="40" r="0.1"/>
<circle fill="none" cx="283.5" cy="40" r="0.1"/>
<circle fill="none" cx="143" cy="40" r="0.1"/>
<circle fill="none" cx="0" cy="29.9" r="0.1"/>
<circle fill="none" cx="0" cy="20" r="0.1"/>
<circle fill="none" cx="0" cy="10.1" r="0.1"/>
<circle fill="none" cx="143" cy="0" r="0.1"/>
</g></g><rect stroke="none" stroke-width="0" fill="#FFFFFF" x="0" y="0" width="0" height="0" transform="translate(566.9,19.9)"/><path stroke="#000000" fill="none" d=""/><text font-family="OpenSansCondensedLight" font-size="14pt" fill="black" transform="translate(566.9,19.9)"/><rect stroke-width="0" fill="none" width="517.4" height="36.4" transform="translate(24.8,1.8)"/><text font-family="OpenSansCondensedLight" font-size="14pt" fill="black" transform="translate(24.8,1.8)" text-anchor="middle"><tspan x="258.7" y="24.5">APPLICATION PROTOCOL SERVICE 1808</tspan></text><path stroke="#000000" fill="none" transform="translate(24.8,1.8)" d="M 394.4 27 431.7 27"/></g><g transform="translate(49,216)"><g><g>
<path d="M564,0H0v428h564V0L564,0z" stroke="#000000" stroke-dasharray="none" fill="#FFFFFF"/>
<rect x="24.7" y="19.5" width="514.7" height="389" fill="none"/>
<circle fill="none" cx="282" cy="0" r="0.1"/>
<circle fill="none" cx="421.8" cy="0" r="0.1"/>
<circle fill="none" cx="564" cy="107.9" r="0.1"/>
<circle fill="none" cx="564" cy="214" r="0.1"/>
<circle fill="none" cx="564" cy="320.1" r="0.1"/>
<circle fill="none" cx="421.8" cy="428" r="0.1"/>
<circle fill="none" cx="282" cy="428" r="0.1"/>
<circle fill="none" cx="142.3" cy="428" r="0.1"/>
<circle fill="none" cx="0" cy="320.1" r="0.1"/>
<circle fill="none" cx="0" cy="214" r="0.1"/>
<circle fill="none" cx="0" cy="107.9" r="0.1"/>
<circle fill="none" cx="142.3" cy="0" r="0.1"/>
</g></g><rect stroke="none" stroke-width="0" fill="#FFFFFF" x="0" y="0" width="0" height="0" transform="translate(563.9,213.9)"/><path stroke="#000000" fill="none" d=""/><text font-family="OpenSansCondensedLight" font-size="14pt" fill="black" transform="translate(563.9,213.9)"/><rect stroke-width="0" fill="none" width="514.7" height="389" transform="translate(24.7,19.5)"/><text font-family="OpenSansCondensedLight" font-size="14pt" fill="black" transform="translate(24.7,19.5)" text-anchor="middle"><tspan x="257.4" y="200.8"> </tspan></text><path stroke="#000000" fill="none" transform="translate(24.7,19.5)" d="M 0 0"/></g><g transform="translate(44,152)"><g><g>
<path d="M567,0H0v40h567V0L567,0z" stroke="#000000" stroke-dasharray="none" fill="#FFFFFF"/>
<rect x="24.8" y="1.8" width="517.4" height="36.4" fill="none"/>
<circle fill="none" cx="283.5" cy="0" r="0.1"/>
<circle fill="none" cx="424" cy="0" r="0.1"/>
<circle fill="none" cx="567" cy="10.1" r="0.1"/>
<circle fill="none" cx="567" cy="20" r="0.1"/>
<circle fill="none" cx="567" cy="29.9" r="0.1"/>
<circle fill="none" cx="424" cy="40" r="0.1"/>
<circle fill="none" cx="283.5" cy="40" r="0.1"/>
<circle fill="none" cx="143" cy="40" r="0.1"/>
<circle fill="none" cx="0" cy="29.9" r="0.1"/>
<circle fill="none" cx="0" cy="20" r="0.1"/>
<circle fill="none" cx="0" cy="10.1" r="0.1"/>
<circle fill="none" cx="143" cy="0" r="0.1"/>
</g></g><rect stroke="none" stroke-width="0" fill="#FFFFFF" x="0" y="0" width="0" height="0" transform="translate(566.9,19.9)"/><path stroke="#000000" fill="none" d=""/><text font-family="OpenSansCondensedLight" font-size="14pt" fill="black" transform="translate(566.9,19.9)"/><rect stroke-width="0" fill="none" width="517.4" height="36.4" transform="translate(24.8,1.8)"/><text font-family="OpenSansCondensedLight" font-size="14pt" fill="black" transform="translate(24.8,1.8)" text-anchor="middle"><tspan x="258.7" y="24.5">NETWORK APPLICATION PLATFORM 1806</tspan></text><path stroke="#000000" fill="none" transform="translate(24.8,1.8)" d="M 402.6 27 439.9 27"/></g><g transform="translate(104,192)"><g><g>
<path d="M441,0H0v40h441V0L441,0z" stroke="#000000" stroke-dasharray="none" fill="#FFFFFF"/>
<rect x="19.3" y="1.8" width="402.5" height="36.4" fill="none"/>
<circle fill="none" cx="220.5" cy="0" r="0.1"/>
<circle fill="none" cx="329.8" cy="0" r="0.1"/>
<circle fill="none" cx="441" cy="10.1" r="0.1"/>
<circle fill="none" cx="441" cy="20" r="0.1"/>
<circle fill="none" cx="441" cy="29.9" r="0.1"/>
<circle fill="none" cx="329.8" cy="40" r="0.1"/>
<circle fill="none" cx="220.5" cy="40" r="0.1"/>
<circle fill="none" cx="111.3" cy="40" r="0.1"/>
<circle fill="none" cx="0" cy="29.9" r="0.1"/>
<circle fill="none" cx="0" cy="20" r="0.1"/>
<circle fill="none" cx="0" cy="10.1" r="0.1"/>
<circle fill="none" cx="111.3" cy="0" r="0.1"/>
</g></g><rect stroke="none" stroke-width="0" fill="#FFFFFF" x="0" y="0" width="0" height="0" transform="translate(440.9,19.9)"/><path stroke="#000000" fill="none" d=""/><text font-family="OpenSansCondensedLight" font-size="14pt" fill="black" transform="translate(440.9,19.9)"/><rect stroke-width="0" fill="none" width="402.5" height="36.4" transform="translate(19.3,1.8)"/><text font-family="OpenSansCondensedLight" font-size="14pt" fill="black" transform="translate(19.3,1.8)" text-anchor="middle"><tspan x="201.2" y="24.5">CONTROLLER 1810</tspan></text><path stroke="#000000" fill="none" transform="translate(19.3,1.8)" d="M 246.6 27 283.9 27"/></g><g transform="translate(408,606)"><g><g>
<path d="M200,0H0v29h200V0L200,0z" stroke="none" stroke-dasharray="none" fill="#FFFFFF"/>
<rect x="8.7" y="1.3" width="182.5" height="26.4" fill="none"/>
<circle fill="none" cx="100" cy="0" r="0.1"/>
<circle fill="none" cx="149.6" cy="0" r="0.1"/>
<circle fill="none" cx="200" cy="7.3" r="0.1"/>
<circle fill="none" cx="200" cy="14.5" r="0.1"/>
<circle fill="none" cx="200" cy="21.7" r="0.1"/>
<circle fill="none" cx="149.6" cy="29" r="0.1"/>
<circle fill="none" cx="100" cy="29" r="0.1"/>
<circle fill="none" cx="50.5" cy="29" r="0.1"/>
<circle fill="none" cx="0" cy="21.7" r="0.1"/>
<circle fill="none" cx="0" cy="14.5" r="0.1"/>
<circle fill="none" cx="0" cy="7.3" r="0.1"/>
<circle fill="none" cx="50.5" cy="0" r="0.1"/>
</g></g><rect stroke="none" stroke-width="0" fill="#FFFFFF" x="0" y="0" width="0" height="0" transform="translate(199.9,14.4)"/><path stroke="#000000" fill="none" d=""/><text font-family="OpenSansCondensedLight" font-size="14pt" fill="black" transform="translate(199.9,14.4)"/><rect stroke-width="0" fill="none" width="182.5" height="26.4" transform="translate(8.7,1.3)"/><text font-family="OpenSansCondensedLight" font-size="14pt" fill="black" transform="translate(8.7,1.3)" text-anchor="middle"><tspan x="91.3" y="9">SERVICE</tspan><tspan x="91.3" y="30">APPLICATION 1802</tspan></text><path stroke="#000000" fill="none" transform="translate(8.7,1.3)" d="M 135.1 32 172.4 32"/></g><g transform="translate(81.2,269.5)"><g><g>
<path d="M218,0H0v322h218V0L218,0z" stroke="#000000" stroke-dasharray="none" fill="#FFFFFF"/>
<rect x="9.5" y="14.7" width="198.9" height="292.6" fill="none"/>
<circle fill="none" cx="109" cy="0" r="0.1"/>
<circle fill="none" cx="163" cy="0" r="0.1"/>
<circle fill="none" cx="218" cy="81.2" r="0.1"/>
<circle fill="none" cx="218" cy="161" r="0.1"/>
<circle fill="none" cx="218" cy="240.8" r="0.1"/>
<circle fill="none" cx="163" cy="322" r="0.1"/>
<circle fill="none" cx="109" cy="322" r="0.1"/>
<circle fill="none" cx="55" cy="322" r="0.1"/>
<circle fill="none" cx="0" cy="240.8" r="0.1"/>
<circle fill="none" cx="0" cy="161" r="0.1"/>
<circle fill="none" cx="0" cy="81.2" r="0.1"/>
<circle fill="none" cx="55" cy="0" r="0.1"/>
</g></g><rect stroke="none" stroke-width="0" fill="#FFFFFF" x="0" y="0" width="0" height="0" transform="translate(217.9,160.9)"/><path stroke="#000000" fill="none" d=""/><text font-family="OpenSansCondensedLight" font-size="14pt" fill="black" transform="translate(217.9,160.9)"/><rect stroke-width="0" fill="none" width="198.9" height="292.6" transform="translate(9.5,14.7)"/><text font-family="OpenSansCondensedLight" font-size="14pt" fill="black" transform="translate(9.5,14.7)" text-anchor="middle"><tspan x="99.5" y="16.8">VIEW 1826</tspan></text><path stroke="#000000" fill="none" transform="translate(9.5,14.7)" d="M 107.5 19 144.8 19"/></g><g transform="translate(299.5,269)"><g><g>
<path d="M286,0H0v322h286V0L286,0z" stroke="#000000" stroke-dasharray="none" fill="#FFFFFF"/>
<rect x="12.5" y="14.7" width="261" height="292.6" fill="none"/>
<circle fill="none" cx="143" cy="0" r="0.1"/>
<circle fill="none" cx="213.9" cy="0" r="0.1"/>
<circle fill="none" cx="286" cy="81.2" r="0.1"/>
<circle fill="none" cx="286" cy="161" r="0.1"/>
<circle fill="none" cx="286" cy="240.8" r="0.1"/>
<circle fill="none" cx="213.9" cy="322" r="0.1"/>
<circle fill="none" cx="143" cy="322" r="0.1"/>
<circle fill="none" cx="72.2" cy="322" r="0.1"/>
<circle fill="none" cx="0" cy="240.8" r="0.1"/>
<circle fill="none" cx="0" cy="161" r="0.1"/>
<circle fill="none" cx="0" cy="81.2" r="0.1"/>
<circle fill="none" cx="72.2" cy="0" r="0.1"/>
</g></g><rect stroke="none" stroke-width="0" fill="#FFFFFF" x="0" y="0" width="0" height="0" transform="translate(285.9,160.9)"/><path stroke="#000000" fill="none" d=""/><text font-family="OpenSansCondensedLight" font-size="14pt" fill="black" transform="translate(285.9,160.9)"/><rect stroke-width="0" fill="none" width="261" height="292.6" transform="translate(12.5,14.7)"/><text font-family="OpenSansCondensedLight" font-size="14pt" fill="black" transform="translate(12.5,14.7)" text-anchor="middle"><tspan x="130.5" y="16.8">MODEL 1812</tspan></text><path stroke="#000000" fill="none" transform="translate(12.5,14.7)" d="M 147.3 19 184.7 19"/></g><g transform="translate(133,319)"><g><g>
<path d="M117,0H0v65h117V0L117,0z" stroke="#000000" stroke-dasharray="none" fill="#FFFFFF"/>
<rect x="5.1" y="3" width="106.8" height="59.1" fill="none"/>
<circle fill="none" cx="58.5" cy="0" r="0.1"/>
<circle fill="none" cx="87.5" cy="0" r="0.1"/>
<circle fill="none" cx="117" cy="16.4" r="0.1"/>
<circle fill="none" cx="117" cy="32.5" r="0.1"/>
<circle fill="none" cx="117" cy="48.6" r="0.1"/>
<circle fill="none" cx="87.5" cy="65" r="0.1"/>
<circle fill="none" cx="58.5" cy="65" r="0.1"/>
<circle fill="none" cx="29.5" cy="65" r="0.1"/>
<circle fill="none" cx="0" cy="48.6" r="0.1"/>
<circle fill="none" cx="0" cy="32.5" r="0.1"/>
<circle fill="none" cx="0" cy="16.4" r="0.1"/>
<circle fill="none" cx="29.5" cy="0" r="0.1"/>
</g></g><rect stroke="none" stroke-width="0" fill="#FFFFFF" x="0" y="0" width="0" height="0" transform="translate(116.9,32.4)"/><path stroke="#000000" fill="none" d=""/><text font-family="OpenSansCondensedLight" font-size="14pt" fill="black" transform="translate(116.9,32.4)"/><rect stroke-width="0" fill="none" width="106.8" height="59.1" transform="translate(5.1,3)"/><text font-family="OpenSansCondensedLight" font-size="14pt" fill="black" transform="translate(5.1,3)" text-anchor="middle"><tspan x="53.4" y="25.3">DATA-OUT</tspan><tspan x="53.4" y="46.3">1830</tspan></text><path stroke="#000000" fill="none" transform="translate(5.1,3)" d="M 34.7 48 72 48"/></g><g transform="translate(132,404)"><g><g>
<path d="M117,0H0v65h117V0L117,0z" stroke="#000000" stroke-dasharray="none" fill="#FFFFFF"/>
<rect x="5.1" y="3" width="106.8" height="59.1" fill="none"/>
<circle fill="none" cx="58.5" cy="0" r="0.1"/>
<circle fill="none" cx="87.5" cy="0" r="0.1"/>
<circle fill="none" cx="117" cy="16.4" r="0.1"/>
<circle fill="none" cx="117" cy="32.5" r="0.1"/>
<circle fill="none" cx="117" cy="48.6" r="0.1"/>
<circle fill="none" cx="87.5" cy="65" r="0.1"/>
<circle fill="none" cx="58.5" cy="65" r="0.1"/>
<circle fill="none" cx="29.5" cy="65" r="0.1"/>
<circle fill="none" cx="0" cy="48.6" r="0.1"/>
<circle fill="none" cx="0" cy="32.5" r="0.1"/>
<circle fill="none" cx="0" cy="16.4" r="0.1"/>
<circle fill="none" cx="29.5" cy="0" r="0.1"/>
</g></g><rect stroke="none" stroke-width="0" fill="#FFFFFF" x="0" y="0" width="0" height="0" transform="translate(116.9,32.4)"/><path stroke="#000000" fill="none" d=""/><text font-family="OpenSansCondensedLight" font-size="14pt" fill="black" transform="translate(116.9,32.4)"/><rect stroke-width="0" fill="none" width="106.8" height="59.1" transform="translate(5.1,3)"/><text font-family="OpenSansCondensedLight" font-size="14pt" fill="black" transform="translate(5.1,3)" text-anchor="middle"><tspan x="53.4" y="14.8">RESPONSE</tspan><tspan x="53.4" y="35.8">HANDLER</tspan><tspan x="53.4" y="56.8">1828</tspan></text><path stroke="#000000" fill="none" transform="translate(5.1,3)" d="M 34.7 59 72 59"/></g><g transform="translate(102,500)"><g><g>
<path d="M117,0H0v65h117V0L117,0z" stroke="#000000" stroke-dasharray="none" fill="#FFFFFF"/>
<rect x="5.1" y="3" width="106.8" height="59.1" fill="none"/>
<circle fill="none" cx="58.5" cy="0" r="0.1"/>
<circle fill="none" cx="87.5" cy="0" r="0.1"/>
<circle fill="none" cx="117" cy="16.4" r="0.1"/>
<circle fill="none" cx="117" cy="32.5" r="0.1"/>
<circle fill="none" cx="117" cy="48.6" r="0.1"/>
<circle fill="none" cx="87.5" cy="65" r="0.1"/>
<circle fill="none" cx="58.5" cy="65" r="0.1"/>
<circle fill="none" cx="29.5" cy="65" r="0.1"/>
<circle fill="none" cx="0" cy="48.6" r="0.1"/>
<circle fill="none" cx="0" cy="32.5" r="0.1"/>
<circle fill="none" cx="0" cy="16.4" r="0.1"/>
<circle fill="none" cx="29.5" cy="0" r="0.1"/>
</g></g><rect stroke="none" stroke-width="0" fill="#FFFFFF" x="0" y="0" width="0" height="0" transform="translate(116.9,32.4)"/><path stroke="#000000" fill="none" d=""/><text font-family="OpenSansCondensedLight" font-size="14pt" fill="black" transform="translate(116.9,32.4)"/><rect stroke-width="0" fill="none" width="106.8" height="59.1" transform="translate(5.1,3)"/><text font-family="OpenSansCondensedLight" font-size="14pt" fill="black" transform="translate(5.1,3)" text-anchor="middle"><tspan x="53.4" y="14.8">TEMPLATE</tspan><tspan x="53.4" y="35.8">ENGINE</tspan><tspan x="53.4" y="56.8">1820</tspan></text><path stroke="#000000" fill="none" transform="translate(5.1,3)" d="M 34.7 59 72 59"/></g><g transform="translate(380,400)"><g><g>
<path d="M131.2,0H0v72.9h131.2V0L131.2,0z" stroke="#000000" stroke-dasharray="none" fill="#FFFFFF"/>
<rect x="5.7" y="3.3" width="119.7" height="66.2" fill="none"/>
<circle fill="none" cx="65.6" cy="0" r="0.1"/>
<circle fill="none" cx="98.1" cy="0" r="0.1"/>
<circle fill="none" cx="131.2" cy="18.4" r="0.1"/>
<circle fill="none" cx="131.2" cy="36.4" r="0.1"/>
<circle fill="none" cx="131.2" cy="54.5" r="0.1"/>
<circle fill="none" cx="98.1" cy="72.9" r="0.1"/>
<circle fill="none" cx="65.6" cy="72.9" r="0.1"/>
<circle fill="none" cx="33.1" cy="72.9" r="0.1"/>
<circle fill="none" cx="0" cy="54.5" r="0.1"/>
<circle fill="none" cx="0" cy="36.4" r="0.1"/>
<circle fill="none" cx="0" cy="18.4" r="0.1"/>
<circle fill="none" cx="33.1" cy="0" r="0.1"/>
</g></g><rect stroke="none" stroke-width="0" fill="#FFFFFF" x="0" y="0" width="0" height="0" transform="translate(131.1,36.3)"/><path stroke="#000000" fill="none" d=""/><text font-family="OpenSansCondensedLight" font-size="14pt" fill="black" transform="translate(131.1,36.3)"/><rect stroke-width="0" fill="none" width="119.7" height="66.2" transform="translate(5.7,3.3)"/><text font-family="OpenSansCondensedLight" font-size="14pt" fill="black" transform="translate(5.7,3.3)" text-anchor="middle"><tspan x="59.9" y="18.4">REQUEST</tspan><tspan x="59.9" y="39.4">HANDLER</tspan><tspan x="59.9" y="60.4">1814</tspan></text><path stroke="#000000" fill="none" transform="translate(5.7,3.3)" d="M 41.2 63 78.5 63"/></g><g transform="translate(380,494)"><g><g>
<path d="M131.2,0H0v72.9h131.2V0L131.2,0z" stroke="#000000" stroke-dasharray="none" fill="#FFFFFF"/>
<rect x="5.7" y="3.3" width="119.7" height="66.2" fill="none"/>
<circle fill="none" cx="65.6" cy="0" r="0.1"/>
<circle fill="none" cx="98.1" cy="0" r="0.1"/>
<circle fill="none" cx="131.2" cy="18.4" r="0.1"/>
<circle fill="none" cx="131.2" cy="36.4" r="0.1"/>
<circle fill="none" cx="131.2" cy="54.5" r="0.1"/>
<circle fill="none" cx="98.1" cy="72.9" r="0.1"/>
<circle fill="none" cx="65.6" cy="72.9" r="0.1"/>
<circle fill="none" cx="33.1" cy="72.9" r="0.1"/>
<circle fill="none" cx="0" cy="54.5" r="0.1"/>
<circle fill="none" cx="0" cy="36.4" r="0.1"/>
<circle fill="none" cx="0" cy="18.4" r="0.1"/>
<circle fill="none" cx="33.1" cy="0" r="0.1"/>
</g></g><rect stroke="none" stroke-width="0" fill="#FFFFFF" x="0" y="0" width="0" height="0" transform="translate(131.1,36.3)"/><path stroke="#000000" fill="none" d=""/><text font-family="OpenSansCondensedLight" font-size="14pt" fill="black" transform="translate(131.1,36.3)"/><rect stroke-width="0" fill="none" width="119.7" height="66.2" transform="translate(5.7,3.3)"/><text font-family="OpenSansCondensedLight" font-size="14pt" fill="black" transform="translate(5.7,3.3)" text-anchor="middle"><tspan x="59.9" y="7.9">DATA</tspan><tspan x="59.9" y="28.9">ACCESS</tspan><tspan x="59.9" y="49.9">MANAGER</tspan><tspan x="59.9" y="70.9">1818</tspan></text><path stroke="#000000" fill="none" transform="translate(5.7,3.3)" d="M 41.2 73 78.5 73"/></g><g><path stroke="black" stroke-dasharray="none" d="M 325 232 325 249 190 249 190 269" fill="none"/><path fill="black" stroke="black" d="" transform="translate(325,232) scale(1,1) rotate(-270)"/><path fill="black" stroke="black" d="" transform="translate(190,269) scale(1,1) rotate(-90)"/><g><g label-idx="0" cursor="move" transform="translate(256, 249)"><rect fill="white" rx="3" ry="3" x="0" y="0" width="0" height="0"/><text text-anchor="middle" font-size="14pt" font-family="OpenSansCondensedLight" y="0.8em" display="none" xml:space="preserve" transform="translate(0,0)"/></g></g></g><g><path stroke="black" stroke-dasharray="none" d="M 325 232 325 250 440 250 440 269" fill="none"/><path fill="black" stroke="black" d="" transform="translate(325,232) scale(1,1) rotate(-270)"/><path fill="black" stroke="black" d="" transform="translate(440,269) scale(1,1) rotate(-90)"/><g><g label-idx="0" cursor="move" transform="translate(383, 250)"><rect fill="white" rx="3" ry="3" x="0" y="0" width="0" height="0"/><text text-anchor="middle" font-size="14pt" font-family="OpenSansCondensedLight" y="0.8em" display="none" xml:space="preserve" transform="translate(0,0)"/></g></g></g><g><path stroke="black" stroke-dasharray="none" d="M 190 384 190 404" fill="none"/><path fill="black" stroke="black" d="" transform="translate(190,384) scale(1,1) rotate(-270)"/><path fill="black" stroke="black" d="" transform="translate(190,404) scale(1,1) rotate(-90)"/><g><g label-idx="0" cursor="move" transform="translate(190, 394)"><rect fill="white" rx="3" ry="3" x="0" y="0" width="0" height="0"/><text text-anchor="middle" font-size="14pt" font-family="OpenSansCondensedLight" y="0.8em" display="none" xml:space="preserve" transform="translate(0,0)"/></g></g></g><g><path stroke="black" stroke-dasharray="none" d="M 249 436 380 436" fill="none"/><path fill="black" stroke="black" d="" transform="translate(249,436) scale(1,1) rotate(0)"/><path fill="black" stroke="black" d="" transform="translate(380,436) scale(1,1) rotate(-180)"/><g><g label-idx="0" cursor="move" transform="translate(314.5, 436)"><rect fill="white" rx="3" ry="3" x="0" y="0" width="0" height="0"/><text text-anchor="middle" font-size="14pt" font-family="OpenSansCondensedLight" y="0.8em" display="none" xml:space="preserve" transform="translate(0,0)"/></g></g></g><g><path stroke="black" stroke-dasharray="none" d="M 156 565 156 645 156 720" fill="none"/><path fill="black" stroke="black" d="" transform="translate(156,565) scale(1,1) rotate(-270)"/><path fill="black" stroke="black" d="" transform="translate(156,720) scale(1,1) rotate(-90)"/><g><g label-idx="0" cursor="move" transform="translate(156, 642.5)"><rect fill="white" rx="3" ry="3" x="0" y="0" width="0" height="0"/><text text-anchor="middle" font-size="14pt" font-family="OpenSansCondensedLight" y="0.8em" display="none" xml:space="preserve" transform="translate(0,0)"/></g></g></g><g><path stroke="black" stroke-dasharray="none" d="M 380 534 351.2 534 351 691" fill="none"/><path fill="black" stroke="black" d="" transform="translate(380,534) scale(1,1) rotate(-180)"/><path fill="black" stroke="black" d="" transform="translate(351,691) scale(1,1) rotate(-89.9)"/><g><g label-idx="0" cursor="move" transform="translate(351.1, 598.1)"><rect fill="white" rx="3" ry="3" x="0" y="0" width="0" height="0"/><text text-anchor="middle" font-size="14pt" font-family="OpenSansCondensedLight" y="0.8em" display="none" xml:space="preserve" transform="translate(0,0)"/></g></g></g></g><defs/></svg>