<svg xmlns="http://www.w3.org/2000/svg" xmlns:xlink="http://www.w3.org/1999/xlink" version="1.1" width="664" height="867"><g><g transform="translate(552,266)"><g><g>
<path d="M14,0H0v16h14V0L14,0z" stroke="#000000" stroke-dasharray="none" fill="#FFFFFF"/>
<rect x="0.6" y="0.7" width="12.8" height="14.5" fill="none"/>
<circle fill="none" cx="7" cy="0" r="0.1"/>
<circle fill="none" cx="10.5" cy="0" r="0.1"/>
<circle fill="none" cx="14" cy="4" r="0.1"/>
<circle fill="none" cx="14" cy="8" r="0.1"/>
<circle fill="none" cx="14" cy="12" r="0.1"/>
<circle fill="none" cx="10.5" cy="16" r="0.1"/>
<circle fill="none" cx="7" cy="16" r="0.1"/>
<circle fill="none" cx="3.5" cy="16" r="0.1"/>
<circle fill="none" cx="0" cy="12" r="0.1"/>
<circle fill="none" cx="0" cy="8" r="0.1"/>
<circle fill="none" cx="0" cy="4" r="0.1"/>
<circle fill="none" cx="3.5" cy="0" r="0.1"/>
</g></g><rect stroke="none" stroke-width="0" fill="#FFFFFF" x="0" y="0" width="0" height="0" transform="translate(13.9,7.9)"/><path stroke="#000000" fill="none" d=""/><text font-family="OpenSansCondensedLight" font-size="14pt" fill="black" transform="translate(13.9,7.9)"/><rect stroke-width="0" fill="none" width="12.8" height="14.5" transform="translate(0.6,0.7)"/><text font-family="OpenSansCondensedLight" font-size="14pt" fill="black" transform="translate(0.6,0.7)" text-anchor="middle"><tspan x="6.4" y="13.6"> </tspan></text><path stroke="#000000" fill="none" transform="translate(0.6,0.7)" d="M 0 0"/></g><g transform="translate(299.5,265.4)"><g><g>
<path d="M14,0H0v16h14V0L14,0z" stroke="#000000" stroke-dasharray="none" fill="#FFFFFF"/>
<rect x="0.6" y="0.7" width="12.8" height="14.5" fill="none"/>
<circle fill="none" cx="7" cy="0" r="0.1"/>
<circle fill="none" cx="10.5" cy="0" r="0.1"/>
<circle fill="none" cx="14" cy="4" r="0.1"/>
<circle fill="none" cx="14" cy="8" r="0.1"/>
<circle fill="none" cx="14" cy="12" r="0.1"/>
<circle fill="none" cx="10.5" cy="16" r="0.1"/>
<circle fill="none" cx="7" cy="16" r="0.1"/>
<circle fill="none" cx="3.5" cy="16" r="0.1"/>
<circle fill="none" cx="0" cy="12" r="0.1"/>
<circle fill="none" cx="0" cy="8" r="0.1"/>
<circle fill="none" cx="0" cy="4" r="0.1"/>
<circle fill="none" cx="3.5" cy="0" r="0.1"/>
</g></g><rect stroke="none" stroke-width="0" fill="#FFFFFF" x="0" y="0" width="0" height="0" transform="translate(13.9,7.9)"/><path stroke="#000000" fill="none" d=""/><text font-family="OpenSansCondensedLight" font-size="14pt" fill="black" transform="translate(13.9,7.9)"/><rect stroke-width="0" fill="none" width="12.8" height="14.5" transform="translate(0.6,0.7)"/><text font-family="OpenSansCondensedLight" font-size="14pt" fill="black" transform="translate(0.6,0.7)" text-anchor="middle"><tspan x="6.4" y="13.6"> </tspan></text><path stroke="#000000" fill="none" transform="translate(0.6,0.7)" d="M 0 0"/></g><g transform="translate(180,32)"><g><g>
<g stroke="#000000" stroke-dasharray="none" fill="#FFFFFF">
    <path d="M225.9,0H5.2C2.3,0,0,1.9,0,4.3V111.1c0,2.4,2.3,4.3,5.2,4.3h88.7L87.9,134.6l-20.5,0.7v4.7h97.4v-4.7l-17.9,-0.9l-6.1,-19.2h84.7c2.9,0,5.2,-1.9,5.2,-4.3V4.3C231.1,1.9,228.8,0,225.9,0z"/>
    <path d="M223.9,7.3v99.8H7.2V7.3H223.9z"/>
</g>
<rect x="7.2" y="7.3" fill="none" width="216.7" height="99.8"/>
<circle fill="none" cx="115.5" cy="0" r="0.1"/>
<circle fill="none" cx="185.3" cy="0" r="0.1"/>
<circle fill="none" cx="230.8" cy="26.7" r="0.1"/>
<circle fill="none" cx="230.8" cy="57.2" r="0.1"/>
<circle fill="none" cx="230.8" cy="92.2" r="0.1"/>
<circle fill="none" cx="185.6" cy="115.2" r="0.1"/>
<circle fill="none" cx="115.7" cy="140" r="0.1"/>
<circle fill="none" cx="46.1" cy="115.4" r="0.1"/>
<circle fill="none" cx="0" cy="92.4" r="0.1"/>
<circle fill="none" cx="-0.2" cy="57.1" r="0.1"/>
<circle fill="none" cx="-0.2" cy="25.9" r="0.1"/>
<circle fill="none" cx="45.9" cy="0.1" r="0.1"/>
</g></g><rect stroke="none" stroke-width="0" fill="#FFFFFF" x="0" y="0" width="0" height="0" transform="translate(230.7,57.1)"/><path stroke="#000000" fill="none" d=""/><text font-family="OpenSansCondensedLight" font-size="14pt" fill="black" transform="translate(230.7,57.1)"/><rect stroke-width="0" fill="none" width="216.7" height="99.8" transform="translate(7.2,7.3)"/><text font-family="OpenSansCondensedLight" font-size="14pt" fill="black" transform="translate(7.2,7.3)" text-anchor="middle"><tspan x="108.3" y="56.2"> </tspan></text><path stroke="#000000" fill="none" transform="translate(7.2,7.3)" d="M 0 0"/></g><g transform="translate(121,233)"><g><g>
<path d="M516,0H0v161h516V0L516,0z" stroke="#000000" stroke-dasharray="none" fill="#FFFFFF"/>
<rect x="22.6" y="7.3" width="470.9" height="146.3" fill="none"/>
<circle fill="none" cx="258" cy="0" r="0.1"/>
<circle fill="none" cx="385.9" cy="0" r="0.1"/>
<circle fill="none" cx="516" cy="40.6" r="0.1"/>
<circle fill="none" cx="516" cy="80.5" r="0.1"/>
<circle fill="none" cx="516" cy="120.4" r="0.1"/>
<circle fill="none" cx="385.9" cy="161" r="0.1"/>
<circle fill="none" cx="258" cy="161" r="0.1"/>
<circle fill="none" cx="130.2" cy="161" r="0.1"/>
<circle fill="none" cx="0" cy="120.4" r="0.1"/>
<circle fill="none" cx="0" cy="80.5" r="0.1"/>
<circle fill="none" cx="0" cy="40.6" r="0.1"/>
<circle fill="none" cx="130.2" cy="0" r="0.1"/>
</g></g><rect stroke="none" stroke-width="0" fill="#FFFFFF" x="0" y="0" width="0" height="0" transform="translate(-0.1,40.5)"/><path stroke="#000000" fill="none" d=""/><text font-family="OpenSansCondensedLight" font-size="14pt" fill="black" transform="translate(-0.1,40.5)"/><rect stroke-width="0" fill="none" width="470.9" height="146.3" transform="translate(22.6,7.3)"/><text font-family="OpenSansCondensedLight" font-size="14pt" fill="black" transform="translate(22.6,7.3)" text-anchor="middle"><tspan x="235.4" y="79.5">NAME</tspan></text><path stroke="#000000" fill="none" transform="translate(22.6,7.3)" d="M 0 0"/></g><g transform="translate(594,16)"><polygon fill="#000000" points="0,0 4.2,11.2 11.8,2" transform="translate(-5.9,27.3)"/>
<rect fill="none" width="1" height="1" transform="translate(33.3,-0.5)"/>
<g><g>
<rect x="0" y="0" width="28.3" height="28.3" opacity="0"/>
<path fill="none" stroke="#000000" stroke-width="1" d="M28.3,0C16.7,2.2,7,13.4,0,28.3"/>
</g></g><rect stroke="none" stroke-width="0" fill="#FFFFFF" x="0" y="0" width="0" height="0"/><path stroke="#000000" fill="none"/><text font-family="OpenSansCondensedLight" font-size="14pt" fill="black" transform="translate(0,0)"/><rect stroke-width="0" fill="none" width="1" height="1" transform="translate(33.3,-0.5)"/><text font-family="OpenSansCondensedLight" font-size="14pt" fill="black" text-decoration="none" transform="translate(33.3,-0.5)"><tspan x="0" y="6.8">200</tspan></text><path stroke="#000000" fill="none" transform="translate(33.3,-0.5)"/></g><g transform="translate(231.6,44)"><g><g>
<path d="M134,0H0v91h134V0L134,0z" stroke="none" stroke-dasharray="none" fill="#FFFFFF"/>
<rect x="5.9" y="4.1" width="122.3" height="82.7" fill="none"/>
<circle fill="none" cx="67" cy="0" r="0.1"/>
<circle fill="none" cx="100.2" cy="0" r="0.1"/>
<circle fill="none" cx="134" cy="22.9" r="0.1"/>
<circle fill="none" cx="134" cy="45.5" r="0.1"/>
<circle fill="none" cx="134" cy="68.1" r="0.1"/>
<circle fill="none" cx="100.2" cy="91" r="0.1"/>
<circle fill="none" cx="67" cy="91" r="0.1"/>
<circle fill="none" cx="33.8" cy="91" r="0.1"/>
<circle fill="none" cx="0" cy="68.1" r="0.1"/>
<circle fill="none" cx="0" cy="45.5" r="0.1"/>
<circle fill="none" cx="0" cy="22.9" r="0.1"/>
<circle fill="none" cx="33.8" cy="0" r="0.1"/>
</g></g><rect stroke="none" stroke-width="0" fill="#FFFFFF" x="0" y="0" width="0" height="0" transform="translate(133.9,45.4)"/><path stroke="#000000" fill="none" d=""/><text font-family="OpenSansCondensedLight" font-size="14pt" fill="black" transform="translate(133.9,45.4)"/><rect stroke-width="0" fill="none" width="122.3" height="82.7" transform="translate(5.9,4.1)"/><text font-family="OpenSansCondensedLight" font-size="14pt" fill="black" transform="translate(5.9,4.1)" text-anchor="middle"><tspan x="61.1" y="5.7">MONITOR OR</tspan><tspan x="61.1" y="26.7">GRAPHICAL</tspan><tspan x="61.1" y="47.7">USER</tspan><tspan x="61.1" y="68.7">INTERFACE</tspan><tspan x="61.1" y="89.7">202</tspan></text><path stroke="#000000" fill="none" transform="translate(5.9,4.1)" d="M 47.1 92 75.1 92"/></g><g transform="translate(170,266)"><g><g>
<path d="M104.1,0H0v55h104.1V0L104.1,0z" stroke="#000000" stroke-dasharray="none" fill="#FFFFFF"/>
<rect x="4.6" y="2.5" width="95" height="50" fill="none"/>
<circle fill="none" cx="52" cy="0" r="0.1"/>
<circle fill="none" cx="77.8" cy="0" r="0.1"/>
<circle fill="none" cx="104.1" cy="13.9" r="0.1"/>
<circle fill="none" cx="104.1" cy="27.5" r="0.1"/>
<circle fill="none" cx="104.1" cy="41.2" r="0.1"/>
<circle fill="none" cx="77.8" cy="55" r="0.1"/>
<circle fill="none" cx="52" cy="55" r="0.1"/>
<circle fill="none" cx="26.2" cy="55" r="0.1"/>
<circle fill="none" cx="0" cy="41.2" r="0.1"/>
<circle fill="none" cx="0" cy="27.5" r="0.1"/>
<circle fill="none" cx="0" cy="13.9" r="0.1"/>
<circle fill="none" cx="26.2" cy="0" r="0.1"/>
</g></g><rect stroke="none" stroke-width="0" fill="#FFFFFF" x="0" y="0" width="0" height="0" transform="translate(77.7,-0.1)"/><path stroke="#000000" fill="none" d=""/><text font-family="OpenSansCondensedLight" font-size="14pt" fill="black" transform="translate(77.7,-0.1)"/><rect stroke-width="0" fill="none" width="95" height="50" transform="translate(4.6,2.5)"/><text font-family="OpenSansCondensedLight" font-size="14pt" fill="black" transform="translate(4.6,2.5)" text-anchor="middle"><tspan x="47.5" y="20.8">PROCESSOR(S)</tspan><tspan x="47.5" y="41.8">204</tspan></text><path stroke="#000000" fill="none" transform="translate(4.6,2.5)" d="M 33.5 44 61.5 44"/></g><g transform="translate(494,433)"><g><g>
<path d="M104,0H0v74h104V0L104,0z" stroke="#000000" stroke-dasharray="none" fill="#FFFFFF"/>
<rect x="4.5" y="3.4" width="94.9" height="67.3" fill="none"/>
<circle fill="none" cx="52" cy="0" r="0.1"/>
<circle fill="none" cx="77.8" cy="0" r="0.1"/>
<circle fill="none" cx="104" cy="18.7" r="0.1"/>
<circle fill="none" cx="104" cy="37" r="0.1"/>
<circle fill="none" cx="104" cy="55.3" r="0.1"/>
<circle fill="none" cx="77.8" cy="74" r="0.1"/>
<circle fill="none" cx="52" cy="74" r="0.1"/>
<circle fill="none" cx="26.2" cy="74" r="0.1"/>
<circle fill="none" cx="0" cy="55.3" r="0.1"/>
<circle fill="none" cx="0" cy="37" r="0.1"/>
<circle fill="none" cx="0" cy="18.7" r="0.1"/>
<circle fill="none" cx="26.2" cy="0" r="0.1"/>
</g></g><rect stroke="none" stroke-width="0" fill="#FFFFFF" x="0" y="0" width="0" height="0" transform="translate(77.7,73.9)"/><path stroke="#000000" fill="none" d=""/><text font-family="OpenSansCondensedLight" font-size="14pt" fill="black" transform="translate(77.7,73.9)"/><rect stroke-width="0" fill="none" width="94.9" height="67.3" transform="translate(4.5,3.4)"/><text font-family="OpenSansCondensedLight" font-size="14pt" fill="black" transform="translate(4.5,3.4)" text-anchor="middle"><tspan x="47.5" y="18.9">OUTPUT</tspan><tspan x="47.5" y="39.9">DEVICE(S)</tspan><tspan x="47.5" y="60.9">206</tspan></text><path stroke="#000000" fill="none" transform="translate(4.5,3.4)" d="M 33.5 63 61.4 63"/></g><g transform="translate(328.3,431.3)"><g><g>
<path d="M104,0H0v73h104V0L104,0z" stroke="#000000" stroke-dasharray="none" fill="#FFFFFF"/>
<rect x="4.5" y="3.3" width="94.9" height="66.3" fill="none"/>
<circle fill="none" cx="52" cy="0" r="0.1"/>
<circle fill="none" cx="77.8" cy="0" r="0.1"/>
<circle fill="none" cx="104" cy="18.4" r="0.1"/>
<circle fill="none" cx="104" cy="36.5" r="0.1"/>
<circle fill="none" cx="104" cy="54.6" r="0.1"/>
<circle fill="none" cx="77.8" cy="73" r="0.1"/>
<circle fill="none" cx="52" cy="73" r="0.1"/>
<circle fill="none" cx="26.2" cy="73" r="0.1"/>
<circle fill="none" cx="0" cy="54.6" r="0.1"/>
<circle fill="none" cx="0" cy="36.5" r="0.1"/>
<circle fill="none" cx="0" cy="18.4" r="0.1"/>
<circle fill="none" cx="26.2" cy="0" r="0.1"/>
</g></g><rect stroke="none" stroke-width="0" fill="#FFFFFF" x="0" y="0" width="0" height="0" transform="translate(77.7,72.9)"/><path stroke="#000000" fill="none" d=""/><text font-family="OpenSansCondensedLight" font-size="14pt" fill="black" transform="translate(77.7,72.9)"/><rect stroke-width="0" fill="none" width="94.9" height="66.3" transform="translate(4.5,3.3)"/><text font-family="OpenSansCondensedLight" font-size="14pt" fill="black" transform="translate(4.5,3.3)" text-anchor="middle"><tspan x="47.5" y="18.5">INPUT</tspan><tspan x="47.5" y="39.5">DEVICE(S)</tspan><tspan x="47.5" y="60.5">208</tspan></text><path stroke="#000000" fill="none" transform="translate(4.5,3.3)" d="M 33.5 63 61.4 63"/></g><g transform="translate(312,265)"><g><g>
<path d="M120.7,0H0v73.1h120.7V0L120.7,0z" stroke="#000000" stroke-dasharray="none" fill="#FFFFFF"/>
<rect x="5.3" y="3.3" width="110.1" height="66.4" fill="none"/>
<circle fill="none" cx="60.3" cy="0" r="0.1"/>
<circle fill="none" cx="90.2" cy="0" r="0.1"/>
<circle fill="none" cx="120.7" cy="18.4" r="0.1"/>
<circle fill="none" cx="120.7" cy="36.5" r="0.1"/>
<circle fill="none" cx="120.7" cy="54.7" r="0.1"/>
<circle fill="none" cx="90.2" cy="73.1" r="0.1"/>
<circle fill="none" cx="60.3" cy="73.1" r="0.1"/>
<circle fill="none" cx="30.4" cy="73.1" r="0.1"/>
<circle fill="none" cx="0" cy="54.7" r="0.1"/>
<circle fill="none" cx="0" cy="36.5" r="0.1"/>
<circle fill="none" cx="0" cy="18.4" r="0.1"/>
<circle fill="none" cx="30.4" cy="0" r="0.1"/>
</g></g><rect stroke="none" stroke-width="0" fill="#FFFFFF" x="0" y="0" width="0" height="0" transform="translate(90.1,-0.1)"/><path stroke="#000000" fill="none" d=""/><text font-family="OpenSansCondensedLight" font-size="14pt" fill="black" transform="translate(90.1,-0.1)"/><rect stroke-width="0" fill="none" width="110.1" height="66.4" transform="translate(5.3,3.3)"/><text font-family="OpenSansCondensedLight" font-size="14pt" fill="black" transform="translate(5.3,3.3)" text-anchor="middle"><tspan x="55.1" y="18.5">VOLATILE</tspan><tspan x="55.1" y="39.5">MEMORY</tspan><tspan x="55.1" y="60.5">210</tspan></text><path stroke="#000000" fill="none" transform="translate(5.3,3.3)" d="M 41.1 63 69.1 63"/></g><g transform="translate(167.3,431.3)"><g><g>
<path d="M104,0H0v76h104V0L104,0z" stroke="#000000" stroke-dasharray="none" fill="#FFFFFF"/>
<rect x="4.5" y="3.5" width="94.9" height="69.1" fill="none"/>
<circle fill="none" cx="52" cy="0" r="0.1"/>
<circle fill="none" cx="77.8" cy="0" r="0.1"/>
<circle fill="none" cx="104" cy="19.2" r="0.1"/>
<circle fill="none" cx="104" cy="38" r="0.1"/>
<circle fill="none" cx="104" cy="56.8" r="0.1"/>
<circle fill="none" cx="77.8" cy="76" r="0.1"/>
<circle fill="none" cx="52" cy="76" r="0.1"/>
<circle fill="none" cx="26.2" cy="76" r="0.1"/>
<circle fill="none" cx="0" cy="56.8" r="0.1"/>
<circle fill="none" cx="0" cy="38" r="0.1"/>
<circle fill="none" cx="0" cy="19.2" r="0.1"/>
<circle fill="none" cx="26.2" cy="0" r="0.1"/>
</g></g><rect stroke="none" stroke-width="0" fill="#FFFFFF" x="0" y="0" width="0" height="0" transform="translate(77.7,75.9)"/><path stroke="#000000" fill="none" d=""/><text font-family="OpenSansCondensedLight" font-size="14pt" fill="black" transform="translate(77.7,75.9)"/><rect stroke-width="0" fill="none" width="94.9" height="69.1" transform="translate(4.5,3.5)"/><text font-family="OpenSansCondensedLight" font-size="14pt" fill="black" transform="translate(4.5,3.5)" text-anchor="middle"><tspan x="47.5" y="19.8">COMM</tspan><tspan x="47.5" y="40.8">INTERFACE</tspan><tspan x="47.5" y="61.8">212</tspan></text><path stroke="#000000" fill="none" transform="translate(4.5,3.5)" d="M 33.5 64 61.4 64"/></g><g transform="translate(456,265)"><g><g>
<path d="M104,0H0v70h104V0L104,0z" stroke="#000000" stroke-dasharray="none" fill="#FFFFFF"/>
<rect x="4.5" y="3.2" width="94.9" height="63.6" fill="none"/>
<circle fill="none" cx="52" cy="0" r="0.1"/>
<circle fill="none" cx="77.8" cy="0" r="0.1"/>
<circle fill="none" cx="104" cy="17.7" r="0.1"/>
<circle fill="none" cx="104" cy="35" r="0.1"/>
<circle fill="none" cx="104" cy="52.3" r="0.1"/>
<circle fill="none" cx="77.8" cy="70" r="0.1"/>
<circle fill="none" cx="52" cy="70" r="0.1"/>
<circle fill="none" cx="26.2" cy="70" r="0.1"/>
<circle fill="none" cx="0" cy="52.3" r="0.1"/>
<circle fill="none" cx="0" cy="35" r="0.1"/>
<circle fill="none" cx="0" cy="17.7" r="0.1"/>
<circle fill="none" cx="26.2" cy="0" r="0.1"/>
</g></g><rect stroke="none" stroke-width="0" fill="#FFFFFF" x="0" y="0" width="0" height="0" transform="translate(77.7,-0.1)"/><path stroke="#000000" fill="none" d=""/><text font-family="OpenSansCondensedLight" font-size="14pt" fill="black" transform="translate(77.7,-0.1)"/><rect stroke-width="0" fill="none" width="94.9" height="63.6" transform="translate(4.5,3.2)"/><text font-family="OpenSansCondensedLight" font-size="14pt" fill="black" transform="translate(4.5,3.2)" text-anchor="middle"><tspan x="47.5" y="17.1">NONVOLATILE</tspan><tspan x="47.5" y="38.1">MEMORY</tspan><tspan x="47.5" y="59.1">214</tspan></text><path stroke="#000000" fill="none" transform="translate(4.5,3.2)" d="M 33.5 61 61.4 61"/></g><g transform="translate(156,361)"><g><g>
<g fill="#FFFFFF">
    <rect y="0" width="455" height="3"/>
</g>
<g stroke="#000000" stroke-dasharray="none">
    <line fill="none" stroke-linejoin="round" x1="0" y1="3" x2="449.8" y2="3"/>
</g>
<rect x="17.8" y="0.1" fill="none" width="419.4" height="2.8"/>
<circle fill="none" cx="241.7" cy="3" r="0.1"/>
<circle fill="none" cx="318.3" cy="3" r="0.1"/>
<circle fill="none" cx="394.9" cy="3" r="0.1"/>
<circle fill="none" cx="433.2" cy="3" r="0.1"/>
<circle fill="none" cx="356.6" cy="3" r="0.1"/>
<circle fill="none" cx="280" cy="3" r="0.1"/>
<circle fill="none" cx="203.4" cy="3" r="0.1"/>
<circle fill="none" cx="126.8" cy="3" r="0.1"/>
<circle fill="none" cx="50.3" cy="3" r="0.1"/>
<circle fill="none" cx="12" cy="3" r="0.1"/>
<circle fill="none" cx="88.6" cy="3" r="0.1"/>
<circle fill="none" cx="165.2" cy="3" r="0.1"/>
</g></g><rect stroke="none" stroke-width="0" fill="#FFFFFF" x="0" y="0" width="0" height="0" transform="translate(279.9,2.9)"/><path stroke="#000000" fill="none" d=""/><text font-family="OpenSansCondensedLight" font-size="14pt" fill="black" transform="translate(279.9,2.9)"/><rect stroke-width="0" fill="none" width="419.4" height="2.8" transform="translate(17.8,0.1)"/><text font-family="OpenSansCondensedLight" font-size="14pt" fill="black" transform="translate(17.8,0.1)" text-anchor="middle"><tspan x="209.7" y="7.7"> </tspan></text><path stroke="#000000" fill="none" transform="translate(17.8,0.1)" d="M 0 0"/></g><g transform="translate(156,369)"><g><g>
<g fill="#FFFFFF">
    <rect y="0" width="455" height="3"/>
</g>
<g stroke="#000000" stroke-dasharray="none">
    <line fill="none" stroke-linejoin="round" x1="0" y1="3" x2="449.8" y2="3"/>
</g>
<rect x="17.8" y="0.1" fill="none" width="419.4" height="2.8"/>
<circle fill="none" cx="241.7" cy="3" r="0.1"/>
<circle fill="none" cx="318.3" cy="3" r="0.1"/>
<circle fill="none" cx="394.9" cy="3" r="0.1"/>
<circle fill="none" cx="433.2" cy="3" r="0.1"/>
<circle fill="none" cx="356.6" cy="3" r="0.1"/>
<circle fill="none" cx="280" cy="3" r="0.1"/>
<circle fill="none" cx="203.4" cy="3" r="0.1"/>
<circle fill="none" cx="126.8" cy="3" r="0.1"/>
<circle fill="none" cx="50.3" cy="3" r="0.1"/>
<circle fill="none" cx="12" cy="3" r="0.1"/>
<circle fill="none" cx="88.6" cy="3" r="0.1"/>
<circle fill="none" cx="165.2" cy="3" r="0.1"/>
</g></g><rect stroke="none" stroke-width="0" fill="#FFFFFF" x="0" y="0" width="0" height="0" transform="translate(279.9,2.9)"/><path stroke="#000000" fill="none" d=""/><text font-family="OpenSansCondensedLight" font-size="14pt" fill="black" transform="translate(279.9,2.9)"/><rect stroke-width="0" fill="none" width="419.4" height="2.8" transform="translate(17.8,0.1)"/><text font-family="OpenSansCondensedLight" font-size="14pt" fill="black" transform="translate(17.8,0.1)" text-anchor="middle"><tspan x="209.7" y="7.7"> </tspan></text><path stroke="#000000" fill="none" transform="translate(17.8,0.1)" d="M 0 0"/></g><g transform="translate(138,363)"><g transform="rotate(90,12,5.5)"><g>
<g stroke="#000000" stroke-dasharray="none" fill="#FFFFFF">
    <polygon points="24,0 12,11 0,0"/>
</g>
<rect x="8" y="0.1" fill="none" width="8" height="7.1"/>
<circle fill="none" cx="12.1" cy="0" r="0.1"/>
<circle fill="none" cx="19.2" cy="0" r="0.1"/>
<circle fill="none" cx="24" cy="0" r="0.1"/>
<circle fill="none" cx="21" cy="2.8" r="0.1"/>
<circle fill="none" cx="17.9" cy="5.5" r="0.1"/>
<circle fill="none" cx="15.1" cy="8.3" r="0.1"/>
<circle fill="none" cx="12" cy="11" r="0.1"/>
<circle fill="none" cx="9" cy="8.3" r="0.1"/>
<circle fill="none" cx="6" cy="5.5" r="0.1"/>
<circle fill="none" cx="3" cy="2.8" r="0.1"/>
<circle fill="none" cx="0" cy="0" r="0.1"/>
<circle fill="none" cx="5" cy="0" r="0.1"/>
</g></g><rect stroke="none" stroke-width="0" fill="#FFFFFF" x="0" y="0" width="0" height="0" transform="translate(17.4,5.5)"/><path stroke="#000000" fill="none" d=""/><text font-family="OpenSansCondensedLight" font-size="14pt" fill="black" transform="translate(17.4,5.5)"/><rect stroke-width="0" fill="none" width="7.1" height="8" transform="translate(10.3,1.5)"/><text font-family="OpenSansCondensedLight" font-size="14pt" fill="black" transform="translate(10.3,1.5)" text-anchor="middle"><tspan x="3.6" y="10.3"> </tspan></text><path stroke="#000000" fill="none" transform="translate(10.3,1.5)" d="M 0 0"/></g><g transform="translate(600,362)"><g transform="rotate(270,12,5.5)"><g>
<g stroke="#000000" stroke-dasharray="none" fill="#FFFFFF">
    <polygon points="24,0 12,11 0,0"/>
</g>
<rect x="8" y="0.1" fill="none" width="8" height="7.1"/>
<circle fill="none" cx="12.1" cy="0" r="0.1"/>
<circle fill="none" cx="19.2" cy="0" r="0.1"/>
<circle fill="none" cx="24" cy="0" r="0.1"/>
<circle fill="none" cx="21" cy="2.8" r="0.1"/>
<circle fill="none" cx="17.9" cy="5.5" r="0.1"/>
<circle fill="none" cx="15.1" cy="8.3" r="0.1"/>
<circle fill="none" cx="12" cy="11" r="0.1"/>
<circle fill="none" cx="9" cy="8.3" r="0.1"/>
<circle fill="none" cx="6" cy="5.5" r="0.1"/>
<circle fill="none" cx="3" cy="2.8" r="0.1"/>
<circle fill="none" cx="0" cy="0" r="0.1"/>
<circle fill="none" cx="5" cy="0" r="0.1"/>
</g></g><rect stroke="none" stroke-width="0" fill="#FFFFFF" x="0" y="0" width="0" height="0" transform="translate(17.4,5.4)"/><path stroke="#000000" fill="none" d=""/><text font-family="OpenSansCondensedLight" font-size="14pt" fill="black" transform="translate(17.4,5.4)"/><rect stroke-width="0" fill="none" width="7.1" height="8" transform="translate(6.6,1.5)"/><text font-family="OpenSansCondensedLight" font-size="14pt" fill="black" transform="translate(6.6,1.5)" text-anchor="middle"><tspan x="3.6" y="10.3"> </tspan></text><path stroke="#000000" fill="none" transform="translate(6.6,1.5)" d="M 0 0"/></g><g transform="translate(155,364)"><g><g>
<g fill="#FFFFFF">
    <rect width="1" height="7"/>
</g>
<g stroke="none" stroke-dasharray="none">
    <line fill="none" stroke-linejoin="round" x1="0" y1="0" x2="0" y2="7"/>
</g>
<rect fill="none" width="1" height="7"/>
<circle fill="none" cx="0" cy="0.8" r="0.1"/>
<circle fill="none" cx="0" cy="2" r="0.1"/>
<circle fill="none" cx="0" cy="3.2" r="0.1"/>
<circle fill="none" cx="0" cy="4.4" r="0.1"/>
<circle fill="none" cx="0" cy="5.6" r="0.1"/>
<circle fill="none" cx="0" cy="6.7" r="0.1"/>
<circle fill="none" cx="0" cy="6.2" r="0.1"/>
<circle fill="none" cx="0" cy="5" r="0.1"/>
<circle fill="none" cx="0" cy="3.8" r="0.1"/>
<circle fill="none" cx="0" cy="2.6" r="0.1"/>
<circle fill="none" cx="0" cy="1.4" r="0.1"/>
<circle fill="none" cx="0" cy="0.3" r="0.1"/>
</g></g><rect stroke="none" stroke-width="0" fill="#FFFFFF" x="0" y="0" width="0" height="0" transform="translate(-0.1,2.5)"/><path stroke="#000000" fill="none" d=""/><text font-family="OpenSansCondensedLight" font-size="14pt" fill="black" transform="translate(-0.1,2.5)"/><rect stroke-width="0" fill="none" width="1" height="7" transform="translate(0,0)"/><text font-family="OpenSansCondensedLight" font-size="14pt" fill="black" transform="translate(0,0)" text-anchor="middle"><tspan x="0.5" y="9.8"> </tspan></text><path stroke="#000000" fill="none" transform="translate(0,0)" d="M 0 0"/></g><g transform="translate(606,364)"><g transform="rotate(180,0.5,3.5)"><g>
<g fill="#FFFFFF">
    <rect width="1" height="7"/>
</g>
<g stroke="none" stroke-dasharray="none">
    <line fill="none" stroke-linejoin="round" x1="0" y1="0" x2="0" y2="7"/>
</g>
<rect fill="none" width="1" height="7"/>
<circle fill="none" cx="0" cy="0.8" r="0.1"/>
<circle fill="none" cx="0" cy="2" r="0.1"/>
<circle fill="none" cx="0" cy="3.2" r="0.1"/>
<circle fill="none" cx="0" cy="4.4" r="0.1"/>
<circle fill="none" cx="0" cy="5.6" r="0.1"/>
<circle fill="none" cx="0" cy="6.7" r="0.1"/>
<circle fill="none" cx="0" cy="6.2" r="0.1"/>
<circle fill="none" cx="0" cy="5" r="0.1"/>
<circle fill="none" cx="0" cy="3.8" r="0.1"/>
<circle fill="none" cx="0" cy="2.6" r="0.1"/>
<circle fill="none" cx="0" cy="1.4" r="0.1"/>
<circle fill="none" cx="0" cy="0.3" r="0.1"/>
</g></g><rect stroke="none" stroke-width="0" fill="#FFFFFF" x="0" y="0" width="0" height="0" transform="translate(0.9,2.5)"/><path stroke="#000000" fill="none" d=""/><text font-family="OpenSansCondensedLight" font-size="14pt" fill="black" transform="translate(0.9,2.5)"/><rect stroke-width="0" fill="none" width="1" height="7" transform="translate(0,0)"/><text font-family="OpenSansCondensedLight" font-size="14pt" fill="black" transform="translate(0,0)" text-anchor="middle"><tspan x="0.5" y="9.8"> </tspan></text><path stroke="#000000" fill="none" transform="translate(0,0)" d="M 0 0"/></g><g transform="translate(31,369)"><g><g>
<g stroke="#000000" stroke-dasharray="none" fill="#FFFFFF">
    <path d="M15.7,18H20.9L10.4,0L0,18h5.2v108H0L10.4,144L20.9,126h-5.2V18z"/>
</g>
<rect x="2.2" y="5.1" fill="none" width="16.5" height="133.8"/>
<circle fill="none" cx="10.5" cy="0.1" r="0.1"/>
<circle fill="none" cx="20.9" cy="17.8" r="0.1"/>
<circle fill="none" cx="15.7" cy="34.1" r="0.1"/>
<circle fill="none" cx="15.7" cy="69.2" r="0.1"/>
<circle fill="none" cx="15.7" cy="103.2" r="0.1"/>
<circle fill="none" cx="21" cy="126.2" r="0.1"/>
<circle fill="none" cx="10.3" cy="143.6" r="0.1"/>
<circle fill="none" cx="0" cy="125.9" r="0.1"/>
<circle fill="none" cx="5.2" cy="103.6" r="0.1"/>
<circle fill="none" cx="5.2" cy="70.7" r="0.1"/>
<circle fill="none" cx="5.2" cy="36" r="0.1"/>
<circle fill="none" cx="0" cy="17.6" r="0.1"/>
</g></g><rect stroke="none" stroke-width="1" fill="#FFFFFF" x="0" y="0" width="40" height="20" transform="translate(30.9,168)"/><path stroke="#000000" fill="none" d="M21,126.2 C13.5,154.2 52.7,140 45.1 168"/><text font-family="OpenSansCondensedLight" font-size="14pt" fill="black" transform="translate(30.9,168)" text-anchor="middle"><tspan x="20" y="16.3">216</tspan></text><rect stroke-width="0" fill="none" width="63.5" transform="translate(-21.2,-10)"/><text font-family="OpenSansCondensedLight" font-size="14pt" fill="black" transform="translate(-21.2,-10)" text-anchor="middle"><tspan x="31.7" y="-25.2">COMM</tspan><tspan x="31.7" y="-4.2">NETWORK</tspan></text><path stroke="#000000" fill="none" transform="translate(-21.2,-10)" d="M 0 0"/></g><g transform="translate(137,314)"><g><g>
<rect y="0" fill="#FFFFFF" width="20" height="25" stroke="none" stroke-dasharray="none"/>
<rect x="1.4" y="1.9" fill="none" width="17.2" height="21.3"/>
<circle fill="none" cx="10" cy="0" r="0.1"/>
<circle fill="none" cx="15.5" cy="0" r="0.1"/>
<circle fill="none" cx="20" cy="6.1" r="0.1"/>
<circle fill="none" cx="20" cy="12.2" r="0.1"/>
<circle fill="none" cx="20" cy="19" r="0.1"/>
<circle fill="none" cx="15.5" cy="25" r="0.1"/>
<circle fill="none" cx="10" cy="25" r="0.1"/>
<circle fill="none" cx="5" cy="25" r="0.1"/>
<circle fill="none" cx="0" cy="19" r="0.1"/>
<circle fill="none" cx="0" cy="12.2" r="0.1"/>
<circle fill="none" cx="0" cy="6.1" r="0.1"/>
<circle fill="none" cx="5.1" cy="0" r="0.1"/>
</g></g><rect stroke="none" stroke-width="0" fill="#FFFFFF" x="0" y="0" width="0" height="0" transform="translate(19.9,12.1)"/><path stroke="#000000" fill="none" d=""/><text font-family="OpenSansCondensedLight" font-size="14pt" fill="black" transform="translate(19.9,12.1)"/><rect stroke-width="0" fill="none" width="17.2" height="21.3" transform="translate(1.4,1.9)"/><text font-family="OpenSansCondensedLight" font-size="14pt" fill="black" text-decoration="none" transform="translate(1.4,1.9)" text-anchor="middle"><tspan x="8.6" y="16.9">218</tspan></text><path stroke="#000000" fill="none" transform="translate(1.4,1.9)"/></g><g><path stroke="black" stroke-dasharray="none" d="M 153 339 C 160.5 339 160.5 364 168 364" fill="none"/><path fill="black" stroke="black" d="" transform="translate(153,339) scale(1,1) rotate(59)"/><path fill="black" stroke="black" d="" transform="translate(168,364) scale(1,1) rotate(-121)"/><g><g label-idx="0" cursor="move" transform="translate(160.5, 351.5)"><rect fill="white" rx="3" ry="3" x="0" y="0" width="0" height="0"/><text text-anchor="middle" font-size="14pt" font-family="OpenSansCondensedLight" y="0.8em" display="none" xml:space="preserve" transform="translate(0,0)"/></g></g></g><g transform="translate(156,168)"><g><g>
<rect y="0" fill="#FFFFFF" width="20" height="25" stroke="none" stroke-dasharray="none"/>
<rect x="1.4" y="1.9" fill="none" width="17.2" height="21.3"/>
<circle fill="none" cx="10" cy="0" r="0.1"/>
<circle fill="none" cx="15.5" cy="0" r="0.1"/>
<circle fill="none" cx="20" cy="6.1" r="0.1"/>
<circle fill="none" cx="20" cy="12.2" r="0.1"/>
<circle fill="none" cx="20" cy="19" r="0.1"/>
<circle fill="none" cx="15.5" cy="25" r="0.1"/>
<circle fill="none" cx="10" cy="25" r="0.1"/>
<circle fill="none" cx="5" cy="25" r="0.1"/>
<circle fill="none" cx="0" cy="19" r="0.1"/>
<circle fill="none" cx="0" cy="12.2" r="0.1"/>
<circle fill="none" cx="0" cy="6.1" r="0.1"/>
<circle fill="none" cx="5.1" cy="0" r="0.1"/>
</g></g><rect stroke="none" stroke-width="0" fill="#FFFFFF" x="0" y="0" width="0" height="0" transform="translate(19.9,12.1)"/><path stroke="#000000" fill="none" d=""/><text font-family="OpenSansCondensedLight" font-size="14pt" fill="black" transform="translate(19.9,12.1)"/><rect stroke-width="0" fill="none" width="17.2" height="21.3" transform="translate(1.4,1.9)"/><text font-family="OpenSansCondensedLight" font-size="14pt" fill="black" text-decoration="none" transform="translate(1.4,1.9)" text-anchor="middle"><tspan x="8.6" y="16.9">220</tspan></text><path stroke="#000000" fill="none" transform="translate(1.4,1.9)"/></g><g><path stroke="black" stroke-dasharray="none" d="M 172 193 C 179 193 179 232 186 232" fill="none"/><path fill="black" stroke="black" d="" transform="translate(172,193) scale(1,1) rotate(70.3)"/><path fill="black" stroke="black" d="" transform="translate(186,232) scale(1,1) rotate(-109.7)"/><g><g label-idx="0" cursor="move" transform="translate(179, 212.5)"><rect fill="white" rx="3" ry="3" x="0" y="0" width="0" height="0"/><text text-anchor="middle" font-size="14pt" font-family="OpenSansCondensedLight" y="0.8em" display="none" xml:space="preserve" transform="translate(0,0)"/></g></g></g><g><path stroke="black" stroke-dasharray="none" d="M 245 329 245 356" fill="none"/><path fill="black" stroke="black" d="M 8 0 L 0 4 L 8 8 z" transform="translate(249,321) scale(1,1) rotate(-270)"/><path fill="black" stroke="black" d="M 8 0 L 0 4 L 8 8 z" transform="translate(241,364) scale(1,1) rotate(-90)"/><g><g label-idx="0" cursor="move" transform="translate(245, 342.5)"><rect fill="white" rx="3" ry="3" x="0" y="0" width="0" height="0"/><text text-anchor="middle" font-size="14pt" font-family="OpenSansCondensedLight" y="0.8em" display="none" xml:space="preserve" transform="translate(0,0)"/></g></g></g><g><path stroke="black" stroke-dasharray="none" d="M 398 346 398 356" fill="none"/><path fill="black" stroke="black" d="M 8 0 L 0 4 L 8 8 z" transform="translate(402,338) scale(1,1) rotate(-270)"/><path fill="black" stroke="black" d="M 8 0 L 0 4 L 8 8 z" transform="translate(394,364) scale(1,1) rotate(-90)"/><g><g label-idx="0" cursor="move" transform="translate(398, 351)"><rect fill="white" rx="3" ry="3" x="0" y="0" width="0" height="0"/><text text-anchor="middle" font-size="14pt" font-family="OpenSansCondensedLight" y="0.8em" display="none" xml:space="preserve" transform="translate(0,0)"/></g></g></g><g><path stroke="black" stroke-dasharray="none" d="M 513 343 513 356" fill="none"/><path fill="black" stroke="black" d="M 8 0 L 0 4 L 8 8 z" transform="translate(517,335) scale(1,1) rotate(-270)"/><path fill="black" stroke="black" d="M 8 0 L 0 4 L 8 8 z" transform="translate(509,364) scale(1,1) rotate(-90)"/><g><g label-idx="0" cursor="move" transform="translate(513, 349.5)"><rect fill="white" rx="3" ry="3" x="0" y="0" width="0" height="0"/><text text-anchor="middle" font-size="14pt" font-family="OpenSansCondensedLight" y="0.8em" display="none" xml:space="preserve" transform="translate(0,0)"/></g></g></g><g><path stroke="black" stroke-dasharray="none" d="M 551 425 551 380" fill="none"/><path fill="black" stroke="black" d="M 8 0 L 0 4 L 8 8 z" transform="translate(547,433) scale(1,1) rotate(-90)"/><path fill="black" stroke="black" d="M 8 0 L 0 4 L 8 8 z" transform="translate(555,372) scale(1,1) rotate(-270)"/><g><g label-idx="0" cursor="move" transform="translate(551, 402.5)"><rect fill="white" rx="3" ry="3" x="0" y="0" width="0" height="0"/><text text-anchor="middle" font-size="14pt" font-family="OpenSansCondensedLight" y="0.8em" display="none" xml:space="preserve" transform="translate(0,0)"/></g></g></g><g><path stroke="black" stroke-dasharray="none" d="M 359 423 359 380" fill="none"/><path fill="black" stroke="black" d="M 8 0 L 0 4 L 8 8 z" transform="translate(355,431) scale(1,1) rotate(-90)"/><path fill="black" stroke="black" d="M 8 0 L 0 4 L 8 8 z" transform="translate(363,372) scale(1,1) rotate(-270)"/><g><g label-idx="0" cursor="move" transform="translate(359, 401.5)"><rect fill="white" rx="3" ry="3" x="0" y="0" width="0" height="0"/><text text-anchor="middle" font-size="14pt" font-family="OpenSansCondensedLight" y="0.8em" display="none" xml:space="preserve" transform="translate(0,0)"/></g></g></g><g><path stroke="black" stroke-dasharray="none" d="M 245 423 245 380" fill="none"/><path fill="black" stroke="black" d="M 8 0 L 0 4 L 8 8 z" transform="translate(241,431) scale(1,1) rotate(-90)"/><path fill="black" stroke="black" d="M 8 0 L 0 4 L 8 8 z" transform="translate(249,372) scale(1,1) rotate(-270)"/><g><g label-idx="0" cursor="move" transform="translate(245, 401.5)"><rect fill="white" rx="3" ry="3" x="0" y="0" width="0" height="0"/><text text-anchor="middle" font-size="14pt" font-family="OpenSansCondensedLight" y="0.8em" display="none" xml:space="preserve" transform="translate(0,0)"/></g></g></g><g><path stroke="black" stroke-dasharray="none" d="M 295 142 285 160 285 356" fill="none"/><path fill="black" stroke="black" d="M 8 0 L 0 4 L 8 8 z" transform="translate(302.5,137) scale(1,1) rotate(-240.8)"/><path fill="black" stroke="black" d="M 8 0 L 0 4 L 8 8 z" transform="translate(281,364) scale(1,1) rotate(-90)"/><g><g label-idx="0" cursor="move" transform="translate(285, 247.7)"><rect fill="white" rx="3" ry="3" x="0" y="0" width="0" height="0"/><text text-anchor="middle" font-size="14pt" font-family="OpenSansCondensedLight" y="0.8em" display="none" xml:space="preserve" transform="translate(0,0)"/></g></g></g><g><path stroke="black" stroke-dasharray="none" d="M 159 470 69 470 55 470" fill="none"/><path fill="black" stroke="black" d="M 8 0 L 0 4 L 8 8 z" transform="translate(167,474) scale(1,1) rotate(-180)"/><path fill="black" stroke="black" d="M 8 0 L 0 4 L 8 8 z" transform="translate(47,466) scale(1,1) rotate(0)"/><g><g label-idx="0" cursor="move" transform="translate(107, 470)"><rect fill="white" rx="3" ry="3" x="0" y="0" width="0" height="0"/><text text-anchor="middle" font-size="14pt" font-family="OpenSansCondensedLight" y="0.8em" display="none" xml:space="preserve" transform="translate(0,0)"/></g></g></g><g><path stroke="black" stroke-dasharray="5,5" d="M 313 269 470 105" fill="none"/><path fill="black" stroke="black" d="" transform="translate(313,269) scale(1,1) rotate(-46.2)"/><path fill="black" stroke="black" d="" transform="translate(470,105) scale(1,1) rotate(-226.2)"/><g><g label-idx="0" cursor="move" transform="translate(391.5, 187)"><rect fill="white" rx="3" ry="3" x="0" y="0" width="0" height="0"/><text text-anchor="middle" font-size="14pt" font-family="OpenSansCondensedLight" y="0.8em" display="none" xml:space="preserve" transform="translate(0,0)"/></g></g></g><g><path stroke="black" stroke-dasharray="5,5" d="M 559 266 581 132" fill="none"/><path fill="black" stroke="black" d="" transform="translate(559,266) scale(1,1) rotate(-80.7)"/><path fill="black" stroke="black" d="" transform="translate(581,132) scale(1,1) rotate(-260.7)"/><g><g label-idx="0" cursor="move" transform="translate(570, 199)"><rect fill="white" rx="3" ry="3" x="0" y="0" width="0" height="0"/><text text-anchor="middle" font-size="14pt" font-family="OpenSansCondensedLight" y="0.8em" display="none" xml:space="preserve" transform="translate(0,0)"/></g></g></g><g transform="translate(472,105)"><g><g>
<path d="M109,0H0v30h109V0L109,0z" stroke="#000000" stroke-dasharray="none" fill="#FFFFFF"/>
<rect x="4.8" y="1.4" width="99.5" height="27.3" fill="none"/>
<circle fill="none" cx="54.5" cy="0" r="0.1"/>
<circle fill="none" cx="81.5" cy="0" r="0.1"/>
<circle fill="none" cx="109" cy="7.6" r="0.1"/>
<circle fill="none" cx="109" cy="15" r="0.1"/>
<circle fill="none" cx="109" cy="22.4" r="0.1"/>
<circle fill="none" cx="81.5" cy="30" r="0.1"/>
<circle fill="none" cx="54.5" cy="30" r="0.1"/>
<circle fill="none" cx="27.5" cy="30" r="0.1"/>
<circle fill="none" cx="0" cy="22.4" r="0.1"/>
<circle fill="none" cx="0" cy="15" r="0.1"/>
<circle fill="none" cx="0" cy="7.6" r="0.1"/>
<circle fill="none" cx="27.5" cy="0" r="0.1"/>
</g></g><rect stroke="none" stroke-width="0" fill="#FFFFFF" x="0" y="0" width="0" height="0" transform="translate(108.9,14.9)"/><path stroke="#000000" fill="none" d=""/><text font-family="OpenSansCondensedLight" font-size="14pt" fill="black" transform="translate(108.9,14.9)"/><rect stroke-width="0" fill="none" width="99.5" height="27.3" transform="translate(4.8,1.4)"/><text font-family="OpenSansCondensedLight" font-size="14pt" fill="black" transform="translate(4.8,1.4)" text-anchor="middle"><tspan x="49.7" y="19.9"> 222</tspan></text><path stroke="#000000" fill="none" transform="translate(4.8,1.4)" d="M 35.7 22 63.7 22"/></g></g><defs/></svg>