<svg xmlns="http://www.w3.org/2000/svg" xmlns:xlink="http://www.w3.org/1999/xlink" version="1.1" width="664" height="867"><g><g transform="translate(538,21)"><polygon fill="#000000" points="0,0 4.2,11.2 11.8,2" transform="translate(-5.9,27.3)"/>
<rect fill="none" width="1" height="1" transform="translate(33.3,-0.5)"/>
<g><g>
<rect x="0" y="0" width="28.3" height="28.3" opacity="0"/>
<path fill="none" stroke="#000000" stroke-width="1" d="M28.3,0C16.7,2.2,7,13.4,0,28.3"/>
</g></g><rect stroke="none" stroke-width="0" fill="#FFFFFF" x="0" y="0" width="0" height="0"/><path stroke="#000000" fill="none"/><text font-family="OpenSansCondensedLight" font-size="14pt" fill="black" transform="translate(0,0)"/><rect stroke-width="0" fill="none" width="1" height="1" transform="translate(33.3,-0.5)"/><text font-family="OpenSansCondensedLight" font-size="14pt" fill="black" text-decoration="none" transform="translate(33.3,-0.5)"><tspan x="0" y="6.8">300</tspan></text><path stroke="#000000" fill="none" transform="translate(33.3,-0.5)"/></g><g transform="translate(315,117)"><g><g>
<path d="M1,0H0v242.3h1V0L1,0z" stroke="none" stroke-dasharray="none" fill="#FFFFFF"/>
<rect x="0" y="11" width="0.9" height="220.2" fill="none"/>
<circle fill="none" cx="0.5" cy="0" r="0.1"/>
<circle fill="none" cx="0.7" cy="0" r="0.1"/>
<circle fill="none" cx="1" cy="61.1" r="0.1"/>
<circle fill="none" cx="1" cy="121.2" r="0.1"/>
<circle fill="none" cx="1" cy="181.2" r="0.1"/>
<circle fill="none" cx="0.7" cy="242.3" r="0.1"/>
<circle fill="none" cx="0.5" cy="242.3" r="0.1"/>
<circle fill="none" cx="0.3" cy="242.3" r="0.1"/>
<circle fill="none" cx="0" cy="181.2" r="0.1"/>
<circle fill="none" cx="0" cy="121.2" r="0.1"/>
<circle fill="none" cx="0" cy="61.1" r="0.1"/>
<circle fill="none" cx="0.3" cy="0" r="0.1"/>
</g></g><rect stroke="none" stroke-width="1" fill="#FFFFFF" x="0" y="0" width="40" height="20" transform="translate(-72.1,201.1)"/><path stroke="#000000" fill="none" d="M0,181.2 C-23.1,174.9 -11.5,207.4 -34.6 201.1"/><text font-family="OpenSansCondensedLight" font-size="14pt" fill="black" transform="translate(-72.1,201.1)" text-anchor="middle"><tspan x="20" y="16.3">302</tspan></text><rect stroke-width="0" fill="none" width="0.9" height="220.2" transform="translate(0,11)"/><text font-family="OpenSansCondensedLight" font-size="14pt" fill="black" transform="translate(0,11)" text-anchor="middle"><tspan x="0.5" y="116.4"> </tspan></text><path stroke="#000000" fill="none" transform="translate(0,11)" d="M 0 0"/></g><g transform="translate(59.8,394.3)"><g><g>
<path d="M515.5,0H0v374.3h515.5V0L515.5,0z" stroke="#000000" stroke-dasharray="none" fill="#FFFFFF"/>
<rect x="22.6" y="17.1" width="470.4" height="340.2" fill="none"/>
<circle fill="none" cx="257.7" cy="0" r="0.1"/>
<circle fill="none" cx="385.5" cy="0" r="0.1"/>
<circle fill="none" cx="515.5" cy="94.4" r="0.1"/>
<circle fill="none" cx="515.5" cy="187.2" r="0.1"/>
<circle fill="none" cx="515.5" cy="279.9" r="0.1"/>
<circle fill="none" cx="385.5" cy="374.3" r="0.1"/>
<circle fill="none" cx="257.7" cy="374.3" r="0.1"/>
<circle fill="none" cx="130" cy="374.3" r="0.1"/>
<circle fill="none" cx="0" cy="279.9" r="0.1"/>
<circle fill="none" cx="0" cy="187.2" r="0.1"/>
<circle fill="none" cx="0" cy="94.4" r="0.1"/>
<circle fill="none" cx="130" cy="0" r="0.1"/>
</g></g><rect stroke="none" stroke-width="1" fill="#FFFFFF" x="0" y="0" width="40" height="20" transform="translate(555.4,177.1)"/><path stroke="#000000" fill="none" d="M515.5,187.2 C532.4,204.1 538.4,170.2 555.4 187.1"/><text font-family="OpenSansCondensedLight" font-size="14pt" fill="black" transform="translate(555.4,177.1)" text-anchor="middle"><tspan x="20" y="16.3">304</tspan></text><rect stroke-width="0" fill="none" width="470.4" height="340.2" transform="translate(22.6,17.1)"/><text font-family="OpenSansCondensedLight" font-size="14pt" fill="black" transform="translate(22.6,17.1)" text-anchor="middle"><tspan x="235.2" y="176.4"> </tspan></text><path stroke="#000000" fill="none" transform="translate(22.6,17.1)" d="M 0 0"/></g><g transform="translate(363.7,155)"><g><g>
<path d="M183.5,0H0v43.3h183.5V0L183.5,0z" stroke="#000000" stroke-dasharray="none" fill="#FFFFFF"/>
<rect x="8" y="2" width="167.5" height="39.4" fill="none"/>
<circle fill="none" cx="91.7" cy="0" r="0.1"/>
<circle fill="none" cx="137.2" cy="0" r="0.1"/>
<circle fill="none" cx="183.5" cy="10.9" r="0.1"/>
<circle fill="none" cx="183.5" cy="21.7" r="0.1"/>
<circle fill="none" cx="183.5" cy="32.4" r="0.1"/>
<circle fill="none" cx="137.2" cy="43.3" r="0.1"/>
<circle fill="none" cx="91.7" cy="43.3" r="0.1"/>
<circle fill="none" cx="46.3" cy="43.3" r="0.1"/>
<circle fill="none" cx="0" cy="32.4" r="0.1"/>
<circle fill="none" cx="0" cy="21.7" r="0.1"/>
<circle fill="none" cx="0" cy="10.9" r="0.1"/>
<circle fill="none" cx="46.3" cy="0" r="0.1"/>
</g></g><rect stroke="none" stroke-width="1" fill="#FFFFFF" x="0" y="0" width="40" height="20" transform="translate(223.4,11.6)"/><path stroke="#000000" fill="none" d="M183.5,21.7 C200.4,38.6 206.4,4.7 223.4 21.6"/><text font-family="OpenSansCondensedLight" font-size="14pt" fill="black" transform="translate(223.4,11.6)" text-anchor="middle"><tspan x="20" y="16.3">306</tspan></text><rect stroke-width="0" fill="none" width="167.5" height="39.4" transform="translate(8,2)"/><text font-family="OpenSansCondensedLight" font-size="14pt" fill="black" transform="translate(8,2)" text-anchor="middle"><tspan x="83.7" y="26">DISPLAY</tspan></text><path stroke="#000000" fill="none" transform="translate(8,2)" d="M 0 0"/></g><g transform="translate(270.3,396.3)"><g><g>
<path d="M94.5,0H0v23.3h94.5V0L94.5,0z" stroke="none" stroke-dasharray="none" fill="#FFFFFF"/>
<rect x="4.1" y="1.1" width="86.2" height="21.2" fill="none"/>
<circle fill="none" cx="47.2" cy="0" r="0.1"/>
<circle fill="none" cx="70.7" cy="0" r="0.1"/>
<circle fill="none" cx="94.5" cy="5.9" r="0.1"/>
<circle fill="none" cx="94.5" cy="11.7" r="0.1"/>
<circle fill="none" cx="94.5" cy="17.4" r="0.1"/>
<circle fill="none" cx="70.7" cy="23.3" r="0.1"/>
<circle fill="none" cx="47.2" cy="23.3" r="0.1"/>
<circle fill="none" cx="23.8" cy="23.3" r="0.1"/>
<circle fill="none" cx="0" cy="17.4" r="0.1"/>
<circle fill="none" cx="0" cy="11.7" r="0.1"/>
<circle fill="none" cx="0" cy="5.9" r="0.1"/>
<circle fill="none" cx="23.8" cy="0" r="0.1"/>
</g></g><rect stroke="none" stroke-width="0" fill="#FFFFFF" x="0" y="0" width="0" height="0" transform="translate(94.4,11.6)"/><path stroke="#000000" fill="none" d=""/><text font-family="OpenSansCondensedLight" font-size="14pt" fill="black" transform="translate(94.4,11.6)"/><rect stroke-width="0" fill="none" width="86.2" height="21.2" transform="translate(4.1,1.1)"/><text font-family="OpenSansCondensedLight" font-size="14pt" fill="black" transform="translate(4.1,1.1)" text-anchor="middle"><tspan x="43.1" y="16.9">MEMORY</tspan></text><path stroke="#000000" fill="none" transform="translate(4.1,1.1)" d="M 0 0"/></g><g transform="translate(220.8,15.7)"><g><g>
<path d="M189.5,0H0v55.6h189.5V0L189.5,0z" stroke="#000000" stroke-dasharray="none" fill="#FFFFFF"/>
<rect x="8.3" y="2.5" width="172.9" height="50.6" fill="none"/>
<circle fill="none" cx="94.7" cy="0" r="0.1"/>
<circle fill="none" cx="141.7" cy="0" r="0.1"/>
<circle fill="none" cx="189.5" cy="14" r="0.1"/>
<circle fill="none" cx="189.5" cy="27.8" r="0.1"/>
<circle fill="none" cx="189.5" cy="41.6" r="0.1"/>
<circle fill="none" cx="141.7" cy="55.6" r="0.1"/>
<circle fill="none" cx="94.7" cy="55.6" r="0.1"/>
<circle fill="none" cx="47.8" cy="55.6" r="0.1"/>
<circle fill="none" cx="0" cy="41.6" r="0.1"/>
<circle fill="none" cx="0" cy="27.8" r="0.1"/>
<circle fill="none" cx="0" cy="14" r="0.1"/>
<circle fill="none" cx="47.8" cy="0" r="0.1"/>
</g></g><rect stroke="none" stroke-width="1" fill="#FFFFFF" x="0" y="0" width="40" height="20" transform="translate(229.4,17.7)"/><path stroke="#000000" fill="none" d="M189.5,27.8 C206.4,44.7 212.4,10.8 229.4 27.7"/><text font-family="OpenSansCondensedLight" font-size="14pt" fill="black" transform="translate(229.4,17.7)" text-anchor="middle"><tspan x="20" y="16.3">308</tspan></text><rect stroke-width="0" fill="none" width="172.9" height="50.6" transform="translate(8.3,2.5)"/><text font-family="OpenSansCondensedLight" font-size="14pt" fill="black" transform="translate(8.3,2.5)" text-anchor="middle"><tspan x="86.5" y="31.6">NETWORK INTERFACE</tspan></text><path stroke="#000000" fill="none" transform="translate(8.3,2.5)" d="M 0 0"/></g><g transform="translate(84,211)"><g><g>
<path d="M183.5,0H0v51.9h183.5V0L183.5,0z" stroke="#000000" stroke-dasharray="none" fill="#FFFFFF"/>
<rect x="8" y="2.4" width="167.5" height="47.2" fill="none"/>
<circle fill="none" cx="91.7" cy="0" r="0.1"/>
<circle fill="none" cx="137.2" cy="0" r="0.1"/>
<circle fill="none" cx="183.5" cy="13.1" r="0.1"/>
<circle fill="none" cx="183.5" cy="26" r="0.1"/>
<circle fill="none" cx="183.5" cy="38.8" r="0.1"/>
<circle fill="none" cx="137.2" cy="51.9" r="0.1"/>
<circle fill="none" cx="91.7" cy="51.9" r="0.1"/>
<circle fill="none" cx="46.3" cy="51.9" r="0.1"/>
<circle fill="none" cx="0" cy="38.8" r="0.1"/>
<circle fill="none" cx="0" cy="26" r="0.1"/>
<circle fill="none" cx="0" cy="13.1" r="0.1"/>
<circle fill="none" cx="46.3" cy="0" r="0.1"/>
</g></g><rect stroke="none" stroke-width="1" fill="#FFFFFF" x="0" y="0" width="40" height="20" transform="translate(-80.1,15.9)"/><path stroke="#000000" fill="none" d="M0,26 C-17,8.9 -23.1,42.9 -40.1 25.9"/><text font-family="OpenSansCondensedLight" font-size="14pt" fill="black" transform="translate(-80.1,15.9)" text-anchor="middle"><tspan x="20" y="16.3">310</tspan></text><rect stroke-width="0" fill="none" width="167.5" height="47.2" transform="translate(8,2.4)"/><text font-family="OpenSansCondensedLight" font-size="14pt" fill="black" transform="translate(8,2.4)" text-anchor="middle"><tspan x="83.7" y="19.4">CENTRAL</tspan><tspan x="83.7" y="40.4">PROCESSING UNIT</tspan></text><path stroke="#000000" fill="none" transform="translate(8,2.4)" d="M 0 0"/></g><g><path stroke="black" stroke-dasharray="none" d="M 275 238 308 238" fill="none"/><path fill="black" stroke="black" d="M 8 0 L 0 4 L 8 8 z" transform="translate(267,234) scale(1,1) rotate(0)"/><path fill="black" stroke="black" d="M 8 0 L 0 4 L 8 8 z" transform="translate(316,242) scale(1,1) rotate(-180)"/><g><g label-idx="0" cursor="move" transform="translate(291.5, 238)"><rect fill="white" rx="3" ry="3" x="0" y="0" width="0" height="0"/><text text-anchor="middle" font-size="14pt" font-family="OpenSansCondensedLight" y="0.8em" display="none" xml:space="preserve" transform="translate(0,0)"/></g></g></g><g><path stroke="black" stroke-dasharray="none" d="M 356 178 324 178" fill="none"/><path fill="black" stroke="black" d="M 8 0 L 0 4 L 8 8 z" transform="translate(364,182) scale(1,1) rotate(-180)"/><path fill="black" stroke="black" d="M 8 0 L 0 4 L 8 8 z" transform="translate(316,174) scale(1,1) rotate(0)"/><g><g label-idx="0" cursor="move" transform="translate(340, 178)"><rect fill="white" rx="3" ry="3" x="0" y="0" width="0" height="0"/><text text-anchor="middle" font-size="14pt" font-family="OpenSansCondensedLight" y="0.8em" display="none" xml:space="preserve" transform="translate(0,0)"/></g></g></g><g transform="translate(84,436)"><g><g>
<path d="M464.5,0H0v27.6h464.5V0L464.5,0z" stroke="#000000" stroke-dasharray="none" fill="#FFFFFF"/>
<rect x="20.3" y="1.3" width="423.9" height="25.1" fill="none"/>
<circle fill="none" cx="232.2" cy="0" r="0.1"/>
<circle fill="none" cx="347.4" cy="0" r="0.1"/>
<circle fill="none" cx="464.5" cy="7" r="0.1"/>
<circle fill="none" cx="464.5" cy="13.8" r="0.1"/>
<circle fill="none" cx="464.5" cy="20.7" r="0.1"/>
<circle fill="none" cx="347.4" cy="27.6" r="0.1"/>
<circle fill="none" cx="232.2" cy="27.6" r="0.1"/>
<circle fill="none" cx="117.2" cy="27.6" r="0.1"/>
<circle fill="none" cx="0" cy="20.7" r="0.1"/>
<circle fill="none" cx="0" cy="13.8" r="0.1"/>
<circle fill="none" cx="0" cy="7" r="0.1"/>
<circle fill="none" cx="117.2" cy="0" r="0.1"/>
</g></g><rect stroke="none" stroke-width="1" fill="#FFFFFF" x="0" y="0" width="40" height="20" transform="translate(-80.1,3.7)"/><path stroke="#000000" fill="none" d="M0,13.8 C-17,-3.2 -23.1,30.8 -40.1 13.7"/><text font-family="OpenSansCondensedLight" font-size="14pt" fill="black" transform="translate(-80.1,3.7)" text-anchor="middle"><tspan x="20" y="16.3">312</tspan></text><rect stroke-width="0" fill="none" width="423.9" height="25.1" transform="translate(20.3,1.3)"/><text font-family="OpenSansCondensedLight" font-size="14pt" fill="black" transform="translate(20.3,1.3)" text-anchor="middle"><tspan x="211.9" y="18.9">OPERATING SYSTEM</tspan></text><path stroke="#000000" fill="none" transform="translate(20.3,1.3)" d="M 0 0"/></g><g transform="translate(84,674)"><g><g>
<g stroke="#000000" stroke-dasharray="none" fill="#FFFFFF">
    <path d="M93.7,11.2H0v45.6c0,6.1,21,11.2,47,11.2s47,-5.1,47,-11.2v-45.6L93.7,11.2L93.7,11.2z"/>
    <path d="M47,0C21,0,0,5.1,0,11.2s21,11.2,47,11.2s47,-5.1,47,-11.2C93.7,5.1,72.7,0,47,0L47,0z"/>
</g>
<rect x="5" y="24.9" width="83.8" height="32.2" fill="none"/>
<circle fill="none" cx="47" cy="0" r="0.1"/>
<circle fill="none" cx="71.6" cy="1.7" r="0.1"/>
<circle fill="none" cx="94" cy="11.2" r="0.1"/>
<circle fill="none" cx="94" cy="34" r="0.1"/>
<circle fill="none" cx="94" cy="56.8" r="0.1"/>
<circle fill="none" cx="72.9" cy="66.1" r="0.1"/>
<circle fill="none" cx="47" cy="68" r="0.1"/>
<circle fill="none" cx="19.7" cy="65.8" r="0.1"/>
<circle fill="none" cx="0" cy="56.8" r="0.1"/>
<circle fill="none" cx="0" cy="34" r="0.1"/>
<circle fill="none" cx="0" cy="11.2" r="0.1"/>
<circle fill="none" cx="22.2" cy="1.7" r="0.1"/>
</g></g><rect stroke="none" stroke-width="1" fill="#FFFFFF" x="0" y="0" width="40" height="20" transform="translate(-80.1,23.9)"/><path stroke="#000000" fill="none" d="M0,34 C-17,16.9 -23.1,50.9 -40.1 33.9"/><text font-family="OpenSansCondensedLight" font-size="14pt" fill="black" transform="translate(-80.1,23.9)" text-anchor="middle"><tspan x="20" y="16.3">314</tspan></text><rect stroke-width="0" fill="none" width="83.8" height="32.2" transform="translate(5,24.9)"/><text font-family="OpenSansCondensedLight" font-size="14pt" fill="black" transform="translate(5,24.9)" text-anchor="middle"><tspan x="41.9" y="22.4">DATABASE</tspan></text><path stroke="#000000" fill="none" transform="translate(5,24.9)" d="M 0 0"/></g><g><path stroke="black" stroke-dasharray="none" d="M 315 386 315 79" fill="none"/><path fill="black" stroke="black" d="M 8 0 L 0 4 L 8 8 z" transform="translate(311,394) scale(1,1) rotate(-90)"/><path fill="black" stroke="black" d="M 8 0 L 0 4 L 8 8 z" transform="translate(319,71) scale(1,1) rotate(-270)"/><g><g label-idx="0" cursor="move" transform="translate(315, 232.5)"><rect fill="white" rx="3" ry="3" x="0" y="0" width="0" height="0"/><text text-anchor="middle" font-size="14pt" font-family="OpenSansCondensedLight" y="0.8em" display="none" xml:space="preserve" transform="translate(0,0)"/></g></g></g><g transform="translate(0,0)"><g><g>
<path d="M90,0C40.2,0,0,40.4,0,90s40.2,90,90,90s90,-40.4,90,-90S140,0,90,0L90,0z" stroke="#000000" stroke-dasharray="none" fill="#FFFFFF"/>
<rect x="17.7" y="45.8" width="145" height="88.5" fill="none"/>
<circle fill="none" cx="90.3" cy="0" r="0.1"/>
<circle fill="none" cx="133.1" cy="11" r="0.1"/>
<circle fill="none" cx="168.6" cy="46" r="0.1"/>
<circle fill="none" cx="180.1" cy="90" r="0.1"/>
<circle fill="none" cx="168.5" cy="134.2" r="0.1"/>
<circle fill="none" cx="134.3" cy="168.4" r="0.1"/>
<circle fill="none" cx="90" cy="180.1" r="0.1"/>
<circle fill="none" cx="45.6" cy="168.4" r="0.1"/>
<circle fill="none" cx="11.6" cy="134.2" r="0.1"/>
<circle fill="none" cx="0" cy="89.2" r="0.1"/>
<circle fill="none" cx="11.5" cy="46" r="0.1"/>
<circle fill="none" cx="46.8" cy="11" r="0.1"/>
</g></g><rect stroke="none" stroke-width="1" fill="#FFFFFF" x="0" y="0" width="40" height="20" transform="translate(200.4,154.1)"/><path stroke="#000000" fill="none" d="M168.5,134.2 C174.7,157.3 196.8,131 203 154.1"/><text font-family="OpenSansCondensedLight" font-size="14pt" fill="black" transform="translate(200.4,154.1)" text-anchor="middle"><tspan x="20" y="16.3">316</tspan></text><rect stroke-width="0" fill="none" width="145" height="88.5" transform="translate(17.7,45.8)"/><text font-family="OpenSansCondensedLight" font-size="14pt" fill="black" transform="translate(17.7,45.8)" text-anchor="middle"><tspan x="72.5" y="29.5">NON-TRANSITORY</tspan><tspan x="72.5" y="50.5">COMPUTER-READABLE </tspan><tspan x="72.5" y="71.5">MEDIUM</tspan></text><path stroke="#000000" fill="none" transform="translate(17.7,45.8)" d="M 0 0"/></g><g><path stroke="black" stroke-dasharray="none" d="M 188 90 307 97" fill="none"/><path fill="black" stroke="black" d="M 8 0 L 0 4 L 8 8 z" transform="translate(180.2,86) scale(1,1) rotate(3)"/><path fill="black" stroke="black" d="M 8 0 L 0 4 L 8 8 z" transform="translate(314.8,101) scale(1,1) rotate(-177)"/><g><g label-idx="0" cursor="move" transform="translate(247.5, 93.5)"><rect fill="white" rx="3" ry="3" x="0" y="0" width="0" height="0"/><text text-anchor="middle" font-size="14pt" font-family="OpenSansCondensedLight" y="0.8em" display="none" xml:space="preserve" transform="translate(0,0)"/></g></g></g></g><defs/></svg>