<svg xmlns="http://www.w3.org/2000/svg" xmlns:xlink="http://www.w3.org/1999/xlink" version="1.1" id="v-6326" width="664" height="867"><g id="v-6327" class="viewport"><g id="j_329" model-id="6883a5a5-0af1-4dfc-9c46-14825a9344d6" class="element tp Element" transform="translate(538,21)"><polygon class="ui-arrowhead" fill="#000000" points="0,0 4.2,11.2 11.8,2" id="v-6329" transform="translate(-5.900000095367432,27.34645652770996)"/>
<rect class="ui-label-anchor" fill="none" width="1" height="1" id="v-6331" transform="translate(33.346458435058594,-0.5)"/>
<g class="rotatable" id="v-6333"><g class="scalable" id="v-6341">
<rect x="0" y="0" width="28.346457481384277" height="28.346456915242126" opacity="0" id="v-6342"/>
<path class="ui-stem" fill="none" stroke="#000000" stroke-width="1" d="M28.346457481384277,0C16.68079997942998,2.22616153784624,6.9775895338792076,13.35696922707744,0,28.346456915242126" id="v-6340"/>
</g></g><rect class="ui-number-box" id="v-6334" stroke="none" stroke-width="0" fill="#FFFFFF" x="0" y="0" width="0" height="0"/><path class="ui-number-leadline" id="v-6335" stroke="#000000" fill="none"/><text class="ui-number-label" id="v-6336" font-family="OpenSansCondensedLight" font-size="14pt" fill="black" transform="translate(0,0)"/><rect class="ui-label-box" id="v-6337" stroke-width="0" fill="none" width="1" height="1" transform="translate(33.34646224975586,-0.5)"/><text class="ui-label" id="v-6338" font-family="OpenSansCondensedLight" font-size="14pt" fill="black" text-decoration="none" transform="translate(33.34646224975586,-0.5)"><tspan x="0" y="6.800011250000001">300</tspan></text><path class="ui-number-underline" id="v-6339" stroke="#000000" fill="none" transform="translate(33.34646224975586,-0.5)"/></g><g id="j_335" model-id="ef90ea86-7d98-448b-a08b-13b20a0413fe" class="element tp Element" transform="translate(315,117)"><g class="rotatable" id="v-6453"><g class="scalable" id="v-6463">
<path class="ui-fill ui-stroke js-perimeter" d="M0.9999782552076691,0H0v242.30743910140737h0.9999782552076691V0L0.9999782552076691,0z" id="v-6460" stroke="none" stroke-dasharray="none" fill="#FFFFFF"/>
<rect class="ui-interior-label" x="0.04374633487284961" y="11.047451630763252" width="0.9125941371614062" height="220.21253583988084" id="v-6461" fill="none"/>
<circle class="js-number-connector-1 js-link-connector" fill="none" cx="0.49998912760383457" cy="0" r="0.1" id="v-6464"/>
<circle class="js-number-connector-2 js-link-connector" fill="none" cx="0.7478126574170247" cy="0" r="0.1" id="v-6465"/>
<circle class="js-number-connector-3 js-link-connector" fill="none" cx="0.9999782552076691" cy="61.10292890062628" r="0.1" id="v-6466"/>
<circle class="js-number-connector-4 js-link-connector" fill="none" cx="0.9999782552076691" cy="121.15371955070368" r="0.1" id="v-6467"/>
<circle class="js-number-connector-5 js-link-connector" fill="none" cx="0.9999782552076691" cy="181.20451020078107" r="0.1" id="v-6468"/>
<circle class="js-number-connector-6 js-link-connector" fill="none" cx="0.7478126574170247" cy="242.30743910140737" r="0.1" id="v-6469"/>
<circle class="js-number-connector-7 js-link-connector" fill="none" cx="0.49998912760383457" cy="242.30743910140737" r="0.1" id="v-6470"/>
<circle class="js-number-connector-8 js-link-connector" fill="none" cx="0.25227414949008065" cy="242.30743910140737" r="0.1" id="v-6471"/>
<circle class="js-number-connector-9 js-link-connector" fill="none" cx="0" cy="181.20451020078107" r="0.1" id="v-6462"/>
<circle class="js-number-connector-10 js-link-connector" fill="none" cx="0" cy="121.15371955070368" r="0.1" id="v-6472"/>
<circle class="js-number-connector-11 js-link-connector" fill="none" cx="0" cy="61.10292890062628" r="0.1" id="v-6473"/>
<circle class="js-number-connector-12 js-link-connector" fill="none" cx="0.25227414949008065" cy="0" r="0.1" id="v-6474"/>
</g></g><rect class="ui-number-box" id="v-6454" stroke="none" stroke-width="1" fill="#FFFFFF" x="0" y="0" width="40" height="20" transform="translate(-72.06152422855644,201.1044921875)"/><path class="ui-number-leadline" id="v-6455" stroke="#000000" fill="none" d="M0,181.2044906616211 C-23.143454378456525,174.94674751265043 -11.50618919929163,207.36223533647063 -34.649643577748165 201.1044921875"/><text class="ui-number-label" id="v-6456" font-family="OpenSansCondensedLight" font-size="14pt" fill="black" transform="translate(-72.0615234375,201.1044921875)" text-anchor="middle"><tspan x="20" y="16.30001125">302</tspan></text><rect class="ui-label-box" id="v-6457" stroke-width="0" fill="none" width="0.9125941582024097" height="220.21252727508545" transform="translate(0.043746333569288254,11.047451972961426)"/><text class="ui-label" id="v-6458" font-family="OpenSansCondensedLight" font-size="14pt" fill="black" transform="translate(0.04374633729457855,11.047451972961426)" text-anchor="middle"><tspan x="0.4562970697879791" y="116.40627345703126"> </tspan></text><path class="ui-number-underline" id="v-6459" stroke="#000000" fill="none" transform="translate(0.04374633729457855,11.047451972961426)" d="M 0 0"/></g><g id="j_330" model-id="6a86ee42-838b-4e5e-80e7-1bb31f561dc9" class="element tp Element" transform="translate(59.75590419769287,394.312708140925)"><g class="rotatable" id="v-6343"><g class="scalable" id="v-6353">
<path class="ui-fill ui-stroke js-perimeter" d="M515.4769824209388,0H0v374.3045686835243h515.4769824209388V0L515.4769824209388,0z" id="v-6350" stroke="#000000" stroke-dasharray="none" fill="#FFFFFF"/>
<rect class="ui-interior-label" x="22.55071905293512" y="17.065557842713872" width="470.43150143430665" height="340.17345299809654" id="v-6351" fill="none"/>
<circle class="js-number-connector-1 js-link-connector" fill="none" cx="257.7384912104694" cy="0" r="0.1" id="v-6354"/>
<circle class="js-number-connector-2 js-link-connector" fill="none" cx="385.48859443094307" cy="0" r="0.1" id="v-6355"/>
<circle class="js-number-connector-3 js-link-connector" fill="none" cx="515.4769824209388" cy="94.38878778243888" r="0.1" id="v-6356"/>
<circle class="js-number-connector-4 js-link-connector" fill="none" cx="515.4769824209388" cy="187.15228434176214" r="0.1" id="v-6352"/>
<circle class="js-number-connector-5 js-link-connector" fill="none" cx="515.4769824209388" cy="279.9157809010854" r="0.1" id="v-6357"/>
<circle class="js-number-connector-6 js-link-connector" fill="none" cx="385.48859443094307" cy="374.3045686835243" r="0.1" id="v-6358"/>
<circle class="js-number-connector-7 js-link-connector" fill="none" cx="257.7384912104694" cy="374.3045686835243" r="0.1" id="v-6359"/>
<circle class="js-number-connector-8 js-link-connector" fill="none" cx="130.0443451092338" cy="374.3045686835243" r="0.1" id="v-6360"/>
<circle class="js-number-connector-9 js-link-connector" fill="none" cx="0" cy="279.9157809010854" r="0.1" id="v-6361"/>
<circle class="js-number-connector-10 js-link-connector" fill="none" cx="0" cy="187.15228434176214" r="0.1" id="v-6362"/>
<circle class="js-number-connector-11 js-link-connector" fill="none" cx="0" cy="94.38878778243888" r="0.1" id="v-6363"/>
<circle class="js-number-connector-12 js-link-connector" fill="none" cx="130.0443451092338" cy="0" r="0.1" id="v-6364"/>
</g></g><rect class="ui-number-box" id="v-6344" stroke="none" stroke-width="1" fill="#FFFFFF" x="0" y="0" width="40" height="20" transform="translate(555.3770141601562,177.05227661132812)"/><path class="ui-number-leadline" id="v-6345" stroke="#000000" fill="none" d="M515.4770202636719,187.15227508544922 C532.4334142447807,204.05214860854755 538.4206201790474,170.18579156379252 555.3770141601562 187.08566508689088"/><text class="ui-number-label" id="v-6346" font-family="OpenSansCondensedLight" font-size="14pt" fill="black" transform="translate(555.3770141601562,177.05227661132812)" text-anchor="middle"><tspan x="20" y="16.30001125">304</tspan></text><rect class="ui-label-box" id="v-6347" stroke-width="0" fill="none" width="470.431489944458" height="340.1734561920166" transform="translate(22.550718307495117,17.0655574798584)"/><text class="ui-label" id="v-6348" font-family="OpenSansCondensedLight" font-size="14pt" fill="black" transform="translate(22.550718307495117,17.0655574798584)" text-anchor="middle"><tspan x="235.2157440185547" y="176.38674220703123"> </tspan></text><path class="ui-number-underline" id="v-6349" stroke="#000000" fill="none" transform="translate(22.550718307495117,17.0655574798584)" d="M 0 0"/></g><g id="j_331" model-id="d37ec08d-bf4c-4d62-9b9e-28312325a5b2" class="element tp Element" transform="translate(363.74409580230713,154.99999986390173)"><g class="rotatable" id="v-6365"><g class="scalable" id="v-6375">
<path class="ui-fill ui-stroke js-perimeter" d="M183.48420169199264,0H0v43.31176485667306h183.48420169199264V0L183.48420169199264,0z" id="v-6372" stroke="#000000" stroke-dasharray="none" fill="#FFFFFF"/>
<rect class="ui-interior-label" x="8.026935875149048" y="1.9747005253802303" width="167.45024789671973" height="39.362363805912594" id="v-6373" fill="none"/>
<circle class="js-number-connector-1 js-link-connector" fill="none" cx="91.74210084599632" cy="0" r="0.1" id="v-6376"/>
<circle class="js-number-connector-2 js-link-connector" fill="none" cx="137.2147921684908" cy="0" r="0.1" id="v-6377"/>
<circle class="js-number-connector-3 js-link-connector" fill="none" cx="183.48420169199264" cy="10.921974572519703" r="0.1" id="v-6378"/>
<circle class="js-number-connector-4 js-link-connector" fill="none" cx="183.48420169199264" cy="21.65588242833653" r="0.1" id="v-6374"/>
<circle class="js-number-connector-5 js-link-connector" fill="none" cx="183.48420169199264" cy="32.38979028415335" r="0.1" id="v-6379"/>
<circle class="js-number-connector-6 js-link-connector" fill="none" cx="137.2147921684908" cy="43.31176485667306" r="0.1" id="v-6380"/>
<circle class="js-number-connector-7 js-link-connector" fill="none" cx="91.74210084599632" cy="43.31176485667306" r="0.1" id="v-6381"/>
<circle class="js-number-connector-8 js-link-connector" fill="none" cx="46.28932747852702" cy="43.31176485667306" r="0.1" id="v-6382"/>
<circle class="js-number-connector-9 js-link-connector" fill="none" cx="0" cy="32.38979028415335" r="0.1" id="v-6383"/>
<circle class="js-number-connector-10 js-link-connector" fill="none" cx="0" cy="21.65588242833653" r="0.1" id="v-6384"/>
<circle class="js-number-connector-11 js-link-connector" fill="none" cx="0" cy="10.921974572519703" r="0.1" id="v-6385"/>
<circle class="js-number-connector-12 js-link-connector" fill="none" cx="46.28932747852702" cy="0" r="0.1" id="v-6386"/>
</g></g><rect class="ui-number-box" id="v-6366" stroke="none" stroke-width="1" fill="#FFFFFF" x="0" y="0" width="40" height="20" transform="translate(223.3842010498047,11.55588150024414)"/><path class="ui-number-leadline" id="v-6367" stroke="#000000" fill="none" d="M183.48419952392578,21.655881881713867 C200.44059727914663,38.55575810445608 206.42780329458387,4.689394394140482 223.3842010498047 21.58927061688271"/><text class="ui-number-label" id="v-6368" font-family="OpenSansCondensedLight" font-size="14pt" fill="black" transform="translate(223.3842010498047,11.55588150024414)" text-anchor="middle"><tspan x="20.00000762939453" y="16.30001125">306</tspan></text><rect class="ui-label-box" id="v-6369" stroke-width="0" fill="none" width="167.45023727416992" height="39.36236226558685" transform="translate(8.026935577392578,1.9747005701065063)"/><text class="ui-label" id="v-6370" font-family="OpenSansCondensedLight" font-size="14pt" fill="black" transform="translate(8.026935577392578,1.9747005701065063)" text-anchor="middle"><tspan x="83.72511291503906" y="25.981192203979493">DISPLAY</tspan></text><path class="ui-number-underline" id="v-6371" stroke="#000000" fill="none" transform="translate(8.026935577392578,1.9747005701065063)" d="M 0 0"/></g><g id="j_332" model-id="5149656d-61af-4be3-9c65-f46453387fa6" class="element tp Element" transform="translate(270.25590419769287,396.312708140925)"><g class="rotatable" id="v-6387"><g class="scalable" id="v-6397">
<path class="ui-fill ui-stroke js-perimeter" d="M94.48613697851009,0H0v23.312201105632465h94.48613697851009V0L94.48613697851009,0z" id="v-6394" stroke="none" stroke-dasharray="none" fill="#FFFFFF"/>
<rect class="ui-interior-label" x="4.133512071465432" y="1.0628663118069512" width="86.22936968935457" height="21.18646848201856" id="v-6395" fill="none"/>
<circle class="js-number-connector-1 js-link-connector" fill="none" cx="47.243068489255045" cy="0" r="0.1" id="v-6398"/>
<circle class="js-number-connector-2 js-link-connector" fill="none" cx="70.6594656583756" cy="0" r="0.1" id="v-6399"/>
<circle class="js-number-connector-3 js-link-connector" fill="none" cx="94.48613697851009" cy="5.8786629579227325" r="0.1" id="v-6400"/>
<circle class="js-number-connector-4 js-link-connector" fill="none" cx="94.48613697851009" cy="11.656100552816232" r="0.1" id="v-6396"/>
<circle class="js-number-connector-5 js-link-connector" fill="none" cx="94.48613697851009" cy="17.43353814770973" r="0.1" id="v-6401"/>
<circle class="js-number-connector-6 js-link-connector" fill="none" cx="70.6594656583756" cy="23.312201105632465" r="0.1" id="v-6402"/>
<circle class="js-number-connector-7 js-link-connector" fill="none" cx="47.243068489255045" cy="23.312201105632465" r="0.1" id="v-6403"/>
<circle class="js-number-connector-8 js-link-connector" fill="none" cx="23.83692817390984" cy="23.312201105632465" r="0.1" id="v-6404"/>
<circle class="js-number-connector-9 js-link-connector" fill="none" cx="0" cy="17.43353814770973" r="0.1" id="v-6405"/>
<circle class="js-number-connector-10 js-link-connector" fill="none" cx="0" cy="11.656100552816232" r="0.1" id="v-6406"/>
<circle class="js-number-connector-11 js-link-connector" fill="none" cx="0" cy="5.8786629579227325" r="0.1" id="v-6407"/>
<circle class="js-number-connector-12 js-link-connector" fill="none" cx="23.83692817390984" cy="0" r="0.1" id="v-6408"/>
</g></g><rect class="ui-number-box" id="v-6388" stroke="none" stroke-width="0" fill="#FFFFFF" x="0" y="0" width="0" height="0" transform="translate(94.38613891601562,11.556099891662598)"/><path class="ui-number-leadline" id="v-6389" stroke="#000000" fill="none" d=""/><text class="ui-number-label" id="v-6390" font-family="OpenSansCondensedLight" font-size="14pt" fill="black" transform="translate(94.38613891601562,11.556099891662598)"/><rect class="ui-label-box" id="v-6391" stroke-width="0" fill="none" width="86.22937250137329" height="21.18646800518036" transform="translate(4.133512020111084,1.0628663301467896)"/><text class="ui-label" id="v-6392" font-family="OpenSansCondensedLight" font-size="14pt" fill="black" transform="translate(4.133512020111084,1.0628663301467896)" text-anchor="middle"><tspan x="43.11468505859375" y="16.893245312194825">MEMORY</tspan></text><path class="ui-number-underline" id="v-6393" stroke="#000000" fill="none" transform="translate(4.133512020111084,1.0628663301467896)" d="M 0 0"/></g><g id="j_333" model-id="492f702d-168c-4fd6-93d2-9f458ba4c27e" class="element tp Element" transform="translate(220.75590419769287,15.703124999999996)"><g class="rotatable" id="v-6409"><g class="scalable" id="v-6419">
<path class="ui-fill ui-stroke js-perimeter" d="M189.48407122323866,0H0v55.62420650813395h189.48407122323866V0L189.48407122323866,0z" id="v-6416" stroke="#000000" stroke-dasharray="none" fill="#FFFFFF"/>
<rect class="ui-interior-label" x="8.289413884386144" y="2.5360580474833108" width="172.92581271968817" height="50.552090413167335" id="v-6417" fill="none"/>
<circle class="js-number-connector-1 js-link-connector" fill="none" cx="94.74203561161933" cy="0" r="0.1" id="v-6420"/>
<circle class="js-number-connector-2 js-link-connector" fill="none" cx="141.70166811299293" cy="0" r="0.1" id="v-6421"/>
<circle class="js-number-connector-3 js-link-connector" fill="none" cx="189.48407122323866" cy="14.026816295961265" r="0.1" id="v-6422"/>
<circle class="js-number-connector-4 js-link-connector" fill="none" cx="189.48407122323866" cy="27.812103254066976" r="0.1" id="v-6418"/>
<circle class="js-number-connector-5 js-link-connector" fill="none" cx="189.48407122323866" cy="41.597390212172684" r="0.1" id="v-6423"/>
<circle class="js-number-connector-6 js-link-connector" fill="none" cx="141.70166811299293" cy="55.62420650813395" r="0.1" id="v-6424"/>
<circle class="js-number-connector-7 js-link-connector" fill="none" cx="94.74203561161933" cy="55.62420650813395" r="0.1" id="v-6425"/>
<circle class="js-number-connector-8 js-link-connector" fill="none" cx="47.8029723754675" cy="55.62420650813395" r="0.1" id="v-6426"/>
<circle class="js-number-connector-9 js-link-connector" fill="none" cx="0" cy="41.597390212172684" r="0.1" id="v-6427"/>
<circle class="js-number-connector-10 js-link-connector" fill="none" cx="0" cy="27.812103254066976" r="0.1" id="v-6428"/>
<circle class="js-number-connector-11 js-link-connector" fill="none" cx="0" cy="14.026816295961265" r="0.1" id="v-6429"/>
<circle class="js-number-connector-12 js-link-connector" fill="none" cx="47.8029723754675" cy="0" r="0.1" id="v-6430"/>
</g></g><rect class="ui-number-box" id="v-6410" stroke="none" stroke-width="1" fill="#FFFFFF" x="0" y="0" width="40" height="20" transform="translate(229.38406372070312,17.71210289001465)"/><path class="ui-number-leadline" id="v-6411" stroke="#000000" fill="none" d="M189.48406219482422,27.812103271484375 C206.44045968412993,44.711979760141745 212.42766623139744,10.84561614476383 229.38406372070312 27.7454926334212"/><text class="ui-number-label" id="v-6412" font-family="OpenSansCondensedLight" font-size="14pt" fill="black" transform="translate(229.38406372070312,17.71210289001465)" text-anchor="middle"><tspan x="20" y="16.300012203674317">308</tspan></text><rect class="ui-label-box" id="v-6413" stroke-width="0" fill="none" width="172.9258108139038" height="50.552088260650635" transform="translate(8.289414405822754,2.536057949066162)"/><text class="ui-label" id="v-6414" font-family="OpenSansCondensedLight" font-size="14pt" fill="black" transform="translate(8.289414405822754,2.536058187484741)" text-anchor="middle"><tspan x="86.46290588378906" y="31.576054188232423">NETWORK INTERFACE</tspan></text><path class="ui-number-underline" id="v-6415" stroke="#000000" fill="none" transform="translate(8.289414405822754,2.536058187484741)" d="M 0 0"/></g><g id="j_334" model-id="d8e08710-f6d0-4884-a7fb-b4348cba492c" class="element tp Element" transform="translate(84,211)"><g class="rotatable" id="v-6431"><g class="scalable" id="v-6441">
<path class="ui-fill ui-stroke js-perimeter" d="M183.48420169199264,0H0v51.93698201901949h183.48420169199264V0L183.48420169199264,0z" id="v-6438" stroke="#000000" stroke-dasharray="none" fill="#FFFFFF"/>
<rect class="ui-interior-label" x="8.026935875149048" y="2.367947508465934" width="167.45024789671973" height="47.20108700208762" id="v-6439" fill="none"/>
<circle class="js-number-connector-1 js-link-connector" fill="none" cx="91.74210084599632" cy="0" r="0.1" id="v-6442"/>
<circle class="js-number-connector-2 js-link-connector" fill="none" cx="137.2147921684908" cy="0" r="0.1" id="v-6443"/>
<circle class="js-number-connector-3 js-link-connector" fill="none" cx="183.48420169199264" cy="13.097004909919916" r="0.1" id="v-6444"/>
<circle class="js-number-connector-4 js-link-connector" fill="none" cx="183.48420169199264" cy="25.968491009509744" r="0.1" id="v-6445"/>
<circle class="js-number-connector-5 js-link-connector" fill="none" cx="183.48420169199264" cy="38.839977109099564" r="0.1" id="v-6446"/>
<circle class="js-number-connector-6 js-link-connector" fill="none" cx="137.2147921684908" cy="51.93698201901949" r="0.1" id="v-6447"/>
<circle class="js-number-connector-7 js-link-connector" fill="none" cx="91.74210084599632" cy="51.93698201901949" r="0.1" id="v-6448"/>
<circle class="js-number-connector-8 js-link-connector" fill="none" cx="46.28932747852702" cy="51.93698201901949" r="0.1" id="v-6449"/>
<circle class="js-number-connector-9 js-link-connector" fill="none" cx="0" cy="38.839977109099564" r="0.1" id="v-6450"/>
<circle class="js-number-connector-10 js-link-connector" fill="none" cx="0" cy="25.968491009509744" r="0.1" id="v-6440"/>
<circle class="js-number-connector-11 js-link-connector" fill="none" cx="0" cy="13.097004909919916" r="0.1" id="v-6451"/>
<circle class="js-number-connector-12 js-link-connector" fill="none" cx="46.28932747852702" cy="0" r="0.1" id="v-6452"/>
</g></g><rect class="ui-number-box" id="v-6432" stroke="none" stroke-width="1" fill="#FFFFFF" x="0" y="0" width="40" height="20" transform="translate(-80.10000000149012,15.868490219116204)"/><path class="ui-number-leadline" id="v-6433" stroke="#000000" fill="none" d="M0,25.968490600585938 C-16.984682619681152,8.927192967443645 -23.11531966913721,42.94306680050272 -40.10000228881836 25.901769167360428"/><text class="ui-number-label" id="v-6434" font-family="OpenSansCondensedLight" font-size="14pt" fill="black" transform="translate(-80.0999984741211,15.868491172790527)" text-anchor="middle"><tspan x="19.999998092651367" y="16.30001172683716">310</tspan></text><rect class="ui-label-box" id="v-6435" stroke-width="0" fill="none" width="167.45023727416992" height="47.20108699798584" transform="translate(8.026935577392578,2.367947578430176)"/><text class="ui-label" id="v-6436" font-family="OpenSansCondensedLight" font-size="14pt" fill="black" transform="translate(8.026935577392578,2.367947578430176)" text-anchor="middle"><tspan x="83.72511291503906" y="19.40053647583008">CENTRAL</tspan><tspan x="83.72511291503906" y="40.40057397583008">PROCESSING UNIT</tspan></text><path class="ui-number-underline" id="v-6437" stroke="#000000" fill="none" transform="translate(8.026935577392578,2.367947578430176)" d="M 0 0"/></g><g id="j_339" model-id="0bac9236-726f-47f4-ae61-1b4183782ca9" class="tp Link link"><path class="connection" stroke="black" id="v-6543" stroke-dasharray="none" d="M 275 238 308 238"/><path class="marker-source" fill="black" stroke="black" id="v-6544" d="M 8 0 L 0 4 L 8 8 z" transform="translate(267,234) scale(1,1) rotate(0)"/><path class="marker-target" fill="black" stroke="black" id="v-6545" d="M 8 0 L 0 4 L 8 8 z" transform="translate(316,242) scale(1,1) rotate(-180)"/><g class="labels" id="v-6547"><g class="js-link-label" id="v-6555" label-idx="0" cursor="move" transform="translate(291.5, 238)"><rect fill="white" rx="3" ry="3" x="0" y="0" width="0" height="0"/><text class="ui-link-label" text-anchor="middle" font-size="14pt" font-family="OpenSansCondensedLight" id="v-6556" y="0.8em" display="none" xml:space="preserve" transform="translate(0,0)"/></g></g></g><g id="j_341" model-id="5f252858-ea3d-4190-9639-570edab902bc" class="tp Link link"><path class="connection" stroke="black" id="v-6571" stroke-dasharray="none" d="M 356 178 324 178"/><path class="marker-source" fill="black" stroke="black" id="v-6572" d="M 8 0 L 0 4 L 8 8 z" transform="translate(364,182) scale(1,1) rotate(-180)"/><path class="marker-target" fill="black" stroke="black" id="v-6573" d="M 8 0 L 0 4 L 8 8 z" transform="translate(316,174) scale(1,1) rotate(0)"/><g class="labels" id="v-6575"><g class="js-link-label" id="v-6583" label-idx="0" cursor="move" transform="translate(340, 178)"><rect fill="white" rx="3" ry="3" x="0" y="0" width="0" height="0"/><text class="ui-link-label" text-anchor="middle" font-size="14pt" font-family="OpenSansCondensedLight" id="v-6584" y="0.8em" display="none" xml:space="preserve" transform="translate(0,0)"/></g></g></g><g id="j_337" model-id="0d4ced2c-109c-4f30-a0a9-2fa684ead129" class="element tp Element" transform="translate(84,435.99999999999994)"><g class="rotatable" id="v-6497"><g class="scalable" id="v-6507">
<path class="ui-fill ui-stroke js-perimeter" d="M464.4780914053477,0H0v27.624815362319218h464.4780914053477V0L464.4780914053477,0z" id="v-6504" stroke="#000000" stroke-dasharray="none" fill="#FFFFFF"/>
<rect class="ui-interior-label" x="20.31965597441979" y="1.2594900621118184" width="423.8892004390749" height="25.10583523809558" id="v-6505" fill="none"/>
<circle class="js-number-connector-1 js-link-connector" fill="none" cx="232.23904570267385" cy="0" r="0.1" id="v-6508"/>
<circle class="js-number-connector-2 js-link-connector" fill="none" cx="347.3501489026748" cy="0" r="0.1" id="v-6509"/>
<circle class="js-number-connector-3 js-link-connector" fill="none" cx="464.4780914053477" cy="6.966179557823224" r="0.1" id="v-6510"/>
<circle class="js-number-connector-4 js-link-connector" fill="none" cx="464.4780914053477" cy="13.812407681159609" r="0.1" id="v-6511"/>
<circle class="js-number-connector-5 js-link-connector" fill="none" cx="464.4780914053477" cy="20.65863580449599" r="0.1" id="v-6512"/>
<circle class="js-number-connector-6 js-link-connector" fill="none" cx="347.3501489026748" cy="27.624815362319218" r="0.1" id="v-6513"/>
<circle class="js-number-connector-7 js-link-connector" fill="none" cx="232.23904570267385" cy="27.624815362319218" r="0.1" id="v-6514"/>
<circle class="js-number-connector-8 js-link-connector" fill="none" cx="117.17836348523969" cy="27.624815362319218" r="0.1" id="v-6515"/>
<circle class="js-number-connector-9 js-link-connector" fill="none" cx="0" cy="20.65863580449599" r="0.1" id="v-6516"/>
<circle class="js-number-connector-10 js-link-connector" fill="none" cx="0" cy="13.812407681159609" r="0.1" id="v-6506"/>
<circle class="js-number-connector-11 js-link-connector" fill="none" cx="0" cy="6.966179557823224" r="0.1" id="v-6517"/>
<circle class="js-number-connector-12 js-link-connector" fill="none" cx="117.17836348523969" cy="0" r="0.1" id="v-6518"/>
</g></g><rect class="ui-number-box" id="v-6498" stroke="none" stroke-width="1" fill="#FFFFFF" x="0" y="0" width="40" height="20" transform="translate(-80.10000000149012,3.7124061584472585)"/><path class="ui-number-leadline" id="v-6499" stroke="#000000" fill="none" d="M0,13.812406063079834 C-16.984682349716916,-3.228891840026698 -23.115319939101447,30.78698189664901 -40.10000228881836 13.745683993542476"/><text class="ui-number-label" id="v-6500" font-family="OpenSansCondensedLight" font-size="14pt" fill="black" transform="translate(-80.0999984741211,3.7124061584472656)" text-anchor="middle"><tspan x="19.999998092651367" y="16.30001125">312</tspan></text><rect class="ui-label-box" id="v-6501" stroke-width="0" fill="none" width="423.8892059326172" height="25.105835795402527" transform="translate(20.319656372070312,1.2594901323318481)"/><text class="ui-label" id="v-6502" font-family="OpenSansCondensedLight" font-size="14pt" fill="black" transform="translate(20.319656372070312,1.2594901323318481)" text-anchor="middle"><tspan x="211.94461059570312" y="18.852929684143067">OPERATING SYSTEM</tspan></text><path class="ui-number-underline" id="v-6503" stroke="#000000" fill="none" transform="translate(20.319656372070312,1.2594901323318481)" d="M 0 0"/></g><g id="j_338" model-id="0f1d93ba-eca1-480f-9597-5d0d8bfb679c" class="element tp Element" transform="translate(84.00000000000001,674)"><g class="rotatable" id="v-6519"><g class="scalable" id="v-6529">
<g class="ui-fill ui-stroke" id="v-6526" stroke="#000000" stroke-dasharray="none" fill="#FFFFFF">
    <path class="js-perimeter" d="M93.74123699571557,11.181323289721126H0v45.58043043789637c0,6.131172943858627,21.000547390436154,11.181323289721126,46.97521447268563,11.181323289721126s46.97521447268563,-5.050150345862501,46.97521447268563,-11.181323289721126v-45.58043043789637L93.74123699571557,11.181323289721126L93.74123699571557,11.181323289721126z" id="v-6530"/>
    <path class="js-perimeter" d="M46.97521447268563,0C21.000547390436154,0,0,5.050150345862501,0,11.181323289721126s21.000547390436154,11.181323289721126,46.97521447268563,11.181323289721126s46.97521447268563,-5.050150345862501,46.97521447268563,-11.181323289721126C93.74123699571557,5.050150345862501,72.7406896052794,0,46.97521447268563,0L46.97521447268563,0z" id="v-6531"/>
</g>
<rect class="ui-interior-label" x="5.00898501675594" y="24.85545242109004" width="83.78137583710804" height="32.245129285003856" id="v-6527" fill="none"/>
<circle class="js-number-connector-1 js-link-connector" fill="none" cx="46.97521447268563" cy="0" r="0.1" id="v-6532"/>
<circle class="js-number-connector-2 js-link-connector" fill="none" cx="71.62499920711566" cy="1.7022072252028557" r="0.1" id="v-6533"/>
<circle class="js-number-connector-3 js-link-connector" fill="none" cx="93.95042894537126" cy="11.181323289721126" r="0.1" id="v-6534"/>
<circle class="js-number-connector-4 js-link-connector" fill="none" cx="93.95042894537126" cy="33.97153850866931" r="0.1" id="v-6535"/>
<circle class="js-number-connector-5 js-link-connector" fill="none" cx="93.95042894537126" cy="56.76982106043837" r="0.1" id="v-6536"/>
<circle class="js-number-connector-6 js-link-connector" fill="none" cx="72.86852913006899" cy="66.07952313571843" r="0.1" id="v-6537"/>
<circle class="js-number-connector-7 js-link-connector" fill="none" cx="46.97521447268563" cy="67.95114435015948" r="0.1" id="v-6538"/>
<circle class="js-number-connector-8 js-link-connector" fill="none" cx="19.710530367559333" cy="65.82943581827158" r="0.1" id="v-6539"/>
<circle class="js-number-connector-9 js-link-connector" fill="none" cx="0" cy="56.76982106043837" r="0.1" id="v-6540"/>
<circle class="js-number-connector-10 js-link-connector" fill="none" cx="0" cy="33.97153850866931" r="0.1" id="v-6528"/>
<circle class="js-number-connector-11 js-link-connector" fill="none" cx="0" cy="11.181323289721126" r="0.1" id="v-6541"/>
<circle class="js-number-connector-12 js-link-connector" fill="none" cx="22.16272488852338" cy="1.7022072252028557" r="0.1" id="v-6542"/>
</g></g><rect class="ui-number-box" id="v-6520" stroke="none" stroke-width="1" fill="#FFFFFF" x="0" y="0" width="40" height="20" transform="translate(-80.10000000149012,23.87154006958007)"/><path class="ui-number-leadline" id="v-6521" stroke="#000000" fill="none" d="M0,33.971540451049805 C-16.98468221473481,16.930242412961167 -23.11532007408355,50.946116101445156 -40.10000228881836 33.90481806335652"/><text class="ui-number-label" id="v-6522" font-family="OpenSansCondensedLight" font-size="14pt" fill="black" transform="translate(-80.0999984741211,23.871540069580078)" text-anchor="middle"><tspan x="19.999998092651367" y="16.30001125">314</tspan></text><rect class="ui-label-box" id="v-6523" stroke-width="0" fill="none" width="83.78138208389282" height="32.245126724243164" transform="translate(5.0089850425720215,24.855451583862305)"/><text class="ui-label" id="v-6524" font-family="OpenSansCondensedLight" font-size="14pt" fill="black" transform="translate(5.0089850425720215,24.855451583862305)" text-anchor="middle"><tspan x="41.89069366455078" y="22.422573658447266">DATABASE</tspan></text><path class="ui-number-underline" id="v-6525" stroke="#000000" fill="none" transform="translate(5.0089850425720215,24.855451583862305)" d="M 0 0"/></g><g id="j_342" model-id="b0770c8f-1c6a-45ea-980d-4d1b285a6181" class="tp Link link"><path class="connection" stroke="black" id="v-6585" stroke-dasharray="none" d="M 315 386 315 79"/><path class="marker-source" fill="black" stroke="black" id="v-6586" d="M 8 0 L 0 4 L 8 8 z" transform="translate(311,394) scale(1,1) rotate(-90)"/><path class="marker-target" fill="black" stroke="black" id="v-6587" d="M 8 0 L 0 4 L 8 8 z" transform="translate(319,71) scale(1,1) rotate(-270)"/><g class="labels" id="v-6589"><g class="js-link-label" id="v-6597" label-idx="0" cursor="move" transform="translate(315, 232.5)"><rect fill="white" rx="3" ry="3" x="0" y="0" width="0" height="0"/><text class="ui-link-label" text-anchor="middle" font-size="14pt" font-family="OpenSansCondensedLight" id="v-6598" y="0.8em" display="none" xml:space="preserve" transform="translate(0,0)"/></g></g></g><g id="j_336" model-id="a0c9bbc0-b50a-4a38-86cd-c69bbff50ada" class="element tp Element" transform="translate(0,0)"><g class="rotatable" id="v-6475"><g class="scalable" id="v-6485">
<path class="ui-fill ui-stroke js-perimeter" d="M90.03882497325334,0C40.18900342153797,0,0,40.390252154255776,0,90.03883103312391s40.18900342153797,90.03883103312391,90.03882497325334,90.03883103312391s90.03882497325334,-40.390252154255776,90.03882497325334,-90.03883103312391S140.01745743337108,0,90.03882497325334,0L90.03882497325334,0z" id="v-6482" stroke="#000000" stroke-dasharray="none" fill="#FFFFFF"/>
<rect class="ui-interior-label" x="17.71149990532523" y="45.75708820016271" width="145.0196143763296" height="88.45657658134259" id="v-6483" fill="none"/>
<circle class="js-number-connector-1 js-link-connector" fill="none" cx="90.29644679005808" cy="0" r="0.1" id="v-6486"/>
<circle class="js-number-connector-2 js-link-connector" fill="none" cx="133.12607383384454" cy="11.0116357117214" r="0.1" id="v-6487"/>
<circle class="js-number-connector-3 js-link-connector" fill="none" cx="168.59201061396243" cy="45.97090636932235" r="0.1" id="v-6488"/>
<circle class="js-number-connector-4 js-link-connector" fill="none" cx="180.07764994650668" cy="90.03883103312391" r="0.1" id="v-6489"/>
<circle class="js-number-connector-5 js-link-connector" fill="none" cx="168.50613667502753" cy="134.21366478150532" r="0.1" id="v-6484"/>
<circle class="js-number-connector-6 js-link-connector" fill="none" cx="134.2639035247321" cy="168.42457184704753" r="0.1" id="v-6490"/>
<circle class="js-number-connector-7 js-link-connector" fill="none" cx="90.03882497325334" cy="180.07766206624783" r="0.1" id="v-6491"/>
<circle class="js-number-connector-8 js-link-connector" fill="none" cx="45.64199854390477" cy="168.42457184704753" r="0.1" id="v-6492"/>
<circle class="js-number-connector-9 js-link-connector" fill="none" cx="11.57151327147915" cy="134.21366478150532" r="0.1" id="v-6493"/>
<circle class="js-number-connector-10 js-link-connector" fill="none" cx="0" cy="89.16217653956939" r="0.1" id="v-6494"/>
<circle class="js-number-connector-11 js-link-connector" fill="none" cx="11.507107817277967" cy="45.97090636932235" r="0.1" id="v-6495"/>
<circle class="js-number-connector-12 js-link-connector" fill="none" cx="46.77982823479233" cy="11.0116357117214" r="0.1" id="v-6496"/>
</g></g><rect class="ui-number-box" id="v-6476" stroke="none" stroke-width="1" fill="#FFFFFF" x="0" y="0" width="40" height="20" transform="translate(200.36765215675382,154.11364746093753)"/><path class="ui-number-leadline" id="v-6477" stroke="#000000" fill="none" d="M168.5061264038086,134.2136459350586 C174.7073986210951,157.30062938183107 196.82139450182444,131.02666401416502 203.022666719111 154.1136474609375"/><text class="ui-number-label" id="v-6478" font-family="OpenSansCondensedLight" font-size="14pt" fill="black" transform="translate(200.36766052246094,154.1136474609375)" text-anchor="middle"><tspan x="20" y="16.30001125">316</tspan></text><rect class="ui-label-box" id="v-6479" stroke-width="0" fill="none" width="145.019624710083" height="88.45658111572266" transform="translate(17.71150016784668,45.75708770751953)"/><text class="ui-label" id="v-6480" font-family="OpenSansCondensedLight" font-size="14pt" fill="black" transform="translate(17.71150016784668,45.75708770751953)" text-anchor="middle"><tspan x="72.50981140136719" y="8.528226807861337">NON-</tspan><tspan x="72.50981140136719" y="29.528264307861335">TRANSITORY</tspan><tspan x="72.50981140136719" y="50.52830180786133">COMPUTER-</tspan><tspan x="72.50981140136719" y="71.52833930786133">READABLE </tspan><tspan x="72.50981140136719" y="92.52837680786132">MEDIUM</tspan></text><path class="ui-number-underline" id="v-6481" stroke="#000000" fill="none" transform="translate(17.71150016784668,45.75708770751953)" d="M 0 0"/></g><g id="j_340" model-id="b583c628-6bef-454f-af4c-6f6412e891f5" class="tp Link link"><path class="connection" stroke="black" id="v-6557" stroke-dasharray="none" d="M 188 90 307 97"/><path class="marker-source" fill="black" stroke="black" id="v-6558" d="M 8 0 L 0 4 L 8 8 z" transform="translate(180.20712425824715,86.0053678803708) scale(1,1) rotate(2.9682312011719176)"/><path class="marker-target" fill="black" stroke="black" id="v-6559" d="M 8 0 L 0 4 L 8 8 z" transform="translate(314.7928757417528,100.9946321196292) scale(1,1) rotate(-177.03176879882812)"/><g class="labels" id="v-6561"><g class="js-link-label" id="v-6569" label-idx="0" cursor="move" transform="translate(247.5, 93.5)"><rect fill="white" rx="3" ry="3" x="0" y="0" width="0" height="0"/><text class="ui-link-label" text-anchor="middle" font-size="14pt" font-family="OpenSansCondensedLight" id="v-6570" y="0.8em" display="none" xml:space="preserve" transform="translate(0,0)"/></g></g></g></g><defs id="v-6328"/></svg>