<svg xmlns="http://www.w3.org/2000/svg" xmlns:xlink="http://www.w3.org/1999/xlink" version="1.1" id="v-1172" width="664" height="867"><g id="v-1173" class="viewport"><g id="j_59" model-id="119e321b-0233-4ce2-975c-e8fdaee79174" class="element tp Element" transform="translate(321,179)"><g class="rotatable" id="v-1175"><g class="scalable" id="v-1185">
<path class="ui-fill ui-stroke js-perimeter" d="M27.999391145814734,0H0v28.999369401022403h27.999391145814734V0L27.999391145814734,0z" id="v-1182" stroke="none" stroke-dasharray="none" fill="#FFFFFF"/>
<rect class="ui-interior-label" x="1.224897376439789" y="1.32215969913476" width="25.552635840519375" height="26.355050002752883" id="v-1183" fill="none"/>
<circle class="js-number-connector-1 js-link-connector" fill="none" cx="13.999695572907367" cy="0" r="0.1" id="v-1186"/>
<circle class="js-number-connector-2 js-link-connector" fill="none" cx="20.938754407676694" cy="0" r="0.1" id="v-1187"/>
<circle class="js-number-connector-3 js-link-connector" fill="none" cx="27.999391145814734" cy="7.3128023359286844" r="0.1" id="v-1188"/>
<circle class="js-number-connector-4 js-link-connector" fill="none" cx="27.999391145814734" cy="14.499684700511201" r="0.1" id="v-1184"/>
<circle class="js-number-connector-5 js-link-connector" fill="none" cx="27.999391145814734" cy="21.686567065093715" r="0.1" id="v-1189"/>
<circle class="js-number-connector-6 js-link-connector" fill="none" cx="20.938754407676694" cy="28.999369401022403" r="0.1" id="v-1190"/>
<circle class="js-number-connector-7 js-link-connector" fill="none" cx="13.999695572907367" cy="28.999369401022403" r="0.1" id="v-1191"/>
<circle class="js-number-connector-8 js-link-connector" fill="none" cx="7.063676185722258" cy="28.999369401022403" r="0.1" id="v-1192"/>
<circle class="js-number-connector-9 js-link-connector" fill="none" cx="0" cy="21.686567065093715" r="0.1" id="v-1193"/>
<circle class="js-number-connector-10 js-link-connector" fill="none" cx="0" cy="14.499684700511201" r="0.1" id="v-1194"/>
<circle class="js-number-connector-11 js-link-connector" fill="none" cx="0" cy="7.3128023359286844" r="0.1" id="v-1195"/>
<circle class="js-number-connector-12 js-link-connector" fill="none" cx="7.063676185722258" cy="0" r="0.1" id="v-1196"/>
</g></g><rect class="ui-number-box" id="v-1176" stroke="none" stroke-width="0" fill="#FFFFFF" x="0" y="0" width="0" height="0" transform="translate(27.899389266967773,14.399683952331543)"/><path class="ui-number-leadline" id="v-1177" stroke="#000000" fill="none" d=""/><text class="ui-number-label" id="v-1178" font-family="OpenSansCondensedLight" font-size="14pt" fill="black" transform="translate(27.899389266967773,14.399683952331543)"/><rect class="ui-label-box" id="v-1179" stroke-width="0" fill="none" width="25.552635192871094" height="26.355050206184387" transform="translate(1.2248973846435547,1.3221596479415894)"/><text class="ui-label" id="v-1180" font-family="OpenSansCondensedLight" font-size="14pt" fill="black" transform="translate(1.2248973846435547,1.3221596479415894)" text-anchor="middle"><tspan x="12.776317596435547" y="19.477536770324708"> </tspan></text><path class="ui-number-underline" id="v-1181" stroke="#000000" fill="none" transform="translate(1.2248973846435547,1.3221596479415894)" d="M 0 0"/></g><g id="j_67" model-id="f4546544-a30b-b974-8201-47652c5423ec" class="element tp Element" transform="translate(322,464)"><g class="rotatable" id="v-1343"><g class="scalable" id="v-1353">
<path class="ui-fill ui-stroke js-perimeter" d="M27.999391145814734,0H0v28.999369401022403h27.999391145814734V0L27.999391145814734,0z" id="v-1350" stroke="none" stroke-dasharray="none" fill="#FFFFFF"/>
<rect class="ui-interior-label" x="1.224897376439789" y="1.32215969913476" width="25.552635840519375" height="26.355050002752883" id="v-1351" fill="none"/>
<circle class="js-number-connector-1 js-link-connector" fill="none" cx="13.999695572907367" cy="0" r="0.1" id="v-1354"/>
<circle class="js-number-connector-2 js-link-connector" fill="none" cx="20.938754407676694" cy="0" r="0.1" id="v-1355"/>
<circle class="js-number-connector-3 js-link-connector" fill="none" cx="27.999391145814734" cy="7.3128023359286844" r="0.1" id="v-1356"/>
<circle class="js-number-connector-4 js-link-connector" fill="none" cx="27.999391145814734" cy="14.499684700511201" r="0.1" id="v-1352"/>
<circle class="js-number-connector-5 js-link-connector" fill="none" cx="27.999391145814734" cy="21.686567065093715" r="0.1" id="v-1357"/>
<circle class="js-number-connector-6 js-link-connector" fill="none" cx="20.938754407676694" cy="28.999369401022403" r="0.1" id="v-1358"/>
<circle class="js-number-connector-7 js-link-connector" fill="none" cx="13.999695572907367" cy="28.999369401022403" r="0.1" id="v-1359"/>
<circle class="js-number-connector-8 js-link-connector" fill="none" cx="7.063676185722258" cy="28.999369401022403" r="0.1" id="v-1360"/>
<circle class="js-number-connector-9 js-link-connector" fill="none" cx="0" cy="21.686567065093715" r="0.1" id="v-1361"/>
<circle class="js-number-connector-10 js-link-connector" fill="none" cx="0" cy="14.499684700511201" r="0.1" id="v-1362"/>
<circle class="js-number-connector-11 js-link-connector" fill="none" cx="0" cy="7.3128023359286844" r="0.1" id="v-1363"/>
<circle class="js-number-connector-12 js-link-connector" fill="none" cx="7.063676185722258" cy="0" r="0.1" id="v-1364"/>
</g></g><rect class="ui-number-box" id="v-1344" stroke="none" stroke-width="0" fill="#FFFFFF" x="0" y="0" width="0" height="0" transform="translate(27.899389266967773,14.399683952331543)"/><path class="ui-number-leadline" id="v-1345" stroke="#000000" fill="none" d=""/><text class="ui-number-label" id="v-1346" font-family="OpenSansCondensedLight" font-size="14pt" fill="black" transform="translate(27.899389266967773,14.399683952331543)"/><rect class="ui-label-box" id="v-1347" stroke-width="0" fill="none" width="25.552635192871094" height="26.355050206184387" transform="translate(1.2248973846435547,1.3221596479415894)"/><text class="ui-label" id="v-1348" font-family="OpenSansCondensedLight" font-size="14pt" fill="black" transform="translate(1.2248973846435547,1.3221596479415894)" text-anchor="middle"><tspan x="12.776317596435547" y="19.477536770324708"> </tspan></text><path class="ui-number-underline" id="v-1349" stroke="#000000" fill="none" transform="translate(1.2248973846435547,1.3221596479415894)" d="M 0 0"/></g><g id="j_60" model-id="50dc0072-733b-a579-4fb1-d1949b842460" class="element tp Element" transform="translate(595.9972915649414,14.3125)"><polygon class="ui-arrowhead" fill="#000000" points="0,0 4.2,11.2 11.8,2" id="v-1197" transform="translate(-5.900000095367432,27.34645652770996)"/>
<rect class="ui-label-anchor" fill="none" width="1" height="1" id="v-1199" transform="translate(33.346458435058594,-0.5)"/>
<g class="rotatable" id="v-1201"><g class="scalable" id="v-1209">
<rect x="0" y="0" width="28.346457481384277" height="28.346456915242126" opacity="0" id="v-1210"/>
<path class="ui-stem" fill="none" stroke="#000000" stroke-width="1" d="M28.346457481384277,0C16.68079997942998,2.22616153784624,6.9775895338792076,13.35696922707744,0,28.346456915242126" id="v-1208"/>
</g></g><rect class="ui-number-box" id="v-1202" stroke="none" stroke-width="0" fill="#FFFFFF" x="0" y="0" width="0" height="0"/><path class="ui-number-leadline" id="v-1203" stroke="#000000" fill="none"/><text class="ui-number-label" id="v-1204" font-family="OpenSansCondensedLight" font-size="14pt" fill="black" transform="translate(0,0)"/><rect class="ui-label-box" id="v-1205" stroke-width="0" fill="none" width="1" height="1" transform="translate(33.34646224975586,-0.5)"/><text class="ui-label" id="v-1206" font-family="OpenSansCondensedLight" font-size="14pt" fill="black" text-decoration="none" transform="translate(33.34646224975586,-0.5)"><tspan x="0" y="6.800011250000001">400</tspan></text><path class="ui-number-underline" id="v-1207" stroke="#000000" fill="none" transform="translate(33.34646224975586,-0.5)"/></g><g id="j_61" model-id="a89d78ee-38a7-2307-0698-6ef3203ad372" class="element tp Element" transform="translate(320,25)"><g class="rotatable" id="v-1211"><g class="scalable" id="v-1221">
<path class="ui-fill ui-stroke js-perimeter" d="M94.48613697851009,0H0v94.48613697851009h94.48613697851009V0L94.48613697851009,0z" id="v-1218" stroke="#000000" stroke-dasharray="none" fill="#FFFFFF"/>
<rect class="ui-interior-label" x="4.133512071465432" y="4.307878585646357" width="86.22936968935457" height="85.87037980721738" id="v-1219" fill="none"/>
<circle class="js-number-connector-1 js-link-connector" fill="none" cx="47.243068489255045" cy="0" r="0.1" id="v-1222"/>
<circle class="js-number-connector-2 js-link-connector" fill="none" cx="70.6594656583756" cy="0" r="0.1" id="v-1223"/>
<circle class="js-number-connector-3 js-link-connector" fill="none" cx="94.48613697851009" cy="23.82667132013449" r="0.1" id="v-1224"/>
<circle class="js-number-connector-4 js-link-connector" fill="none" cx="94.48613697851009" cy="47.243068489255045" r="0.1" id="v-1225"/>
<circle class="js-number-connector-5 js-link-connector" fill="none" cx="94.48613697851009" cy="70.6594656583756" r="0.1" id="v-1226"/>
<circle class="js-number-connector-6 js-link-connector" fill="none" cx="70.6594656583756" cy="94.48613697851009" r="0.1" id="v-1227"/>
<circle class="js-number-connector-7 js-link-connector" fill="none" cx="47.243068489255045" cy="94.48613697851009" r="0.1" id="v-1228"/>
<circle class="js-number-connector-8 js-link-connector" fill="none" cx="23.83692817390984" cy="94.48613697851009" r="0.1" id="v-1229"/>
<circle class="js-number-connector-9 js-link-connector" fill="none" cx="0" cy="70.6594656583756" r="0.1" id="v-1230"/>
<circle class="js-number-connector-10 js-link-connector" fill="none" cx="0" cy="47.243068489255045" r="0.1" id="v-1231"/>
<circle class="js-number-connector-11 js-link-connector" fill="none" cx="0" cy="23.82667132013449" r="0.1" id="v-1220"/>
<circle class="js-number-connector-12 js-link-connector" fill="none" cx="23.83692817390984" cy="0" r="0.1" id="v-1232"/>
</g></g><rect class="ui-number-box" id="v-1212" stroke="none" stroke-width="1" fill="#FFFFFF" x="0" y="0" width="40" height="20" transform="translate(-72.06152422855644,-16.27332878112793)"/><path class="ui-number-leadline" id="v-1213" stroke="#000000" fill="none" d="M0,23.826671600341797 C-6.221975172556036,0.5492803395735777 -28.543361570294632,27.00406224122171 -34.765336742850664 3.726670980453491"/><text class="ui-number-label" id="v-1214" font-family="OpenSansCondensedLight" font-size="14pt" fill="black" transform="translate(-72.0615234375,-16.27332878112793)" text-anchor="middle"><tspan x="20" y="16.30001113079071">402</tspan></text><rect class="ui-label-box" id="v-1215" stroke-width="0" fill="none" width="86.22937250137329" height="85.87037467956543" transform="translate(4.133512020111084,4.307878494262695)"/><text class="ui-label" id="v-1216" font-family="OpenSansCondensedLight" font-size="14pt" fill="black" transform="translate(4.133512020111084,4.307878494262695)" text-anchor="middle"><tspan x="43.11468505859375" y="49.235199543457036">CPU</tspan></text><path class="ui-number-underline" id="v-1217" stroke="#000000" fill="none" transform="translate(4.133512020111084,4.307878494262695)" d="M 0 0"/></g><g id="j_62" model-id="362aeb50-0b46-3cd1-4ae8-b06b2495a68f" class="element tp Element" transform="translate(64,200)"><g class="rotatable" id="v-1233"><g class="scalable" id="v-1243">
<path class="ui-fill ui-stroke js-perimeter" d="M94.48613697851009,0H0v94.48613697851009h94.48613697851009V0L94.48613697851009,0z" id="v-1240" stroke="#000000" stroke-dasharray="none" fill="#FFFFFF"/>
<rect class="ui-interior-label" x="4.133512071465432" y="4.307878585646357" width="86.22936968935457" height="85.87037980721738" id="v-1241" fill="none"/>
<circle class="js-number-connector-1 js-link-connector" fill="none" cx="47.243068489255045" cy="0" r="0.1" id="v-1242"/>
<circle class="js-number-connector-2 js-link-connector" fill="none" cx="70.6594656583756" cy="0" r="0.1" id="v-1244"/>
<circle class="js-number-connector-3 js-link-connector" fill="none" cx="94.48613697851009" cy="23.82667132013449" r="0.1" id="v-1245"/>
<circle class="js-number-connector-4 js-link-connector" fill="none" cx="94.48613697851009" cy="47.243068489255045" r="0.1" id="v-1246"/>
<circle class="js-number-connector-5 js-link-connector" fill="none" cx="94.48613697851009" cy="70.6594656583756" r="0.1" id="v-1247"/>
<circle class="js-number-connector-6 js-link-connector" fill="none" cx="70.6594656583756" cy="94.48613697851009" r="0.1" id="v-1248"/>
<circle class="js-number-connector-7 js-link-connector" fill="none" cx="47.243068489255045" cy="94.48613697851009" r="0.1" id="v-1249"/>
<circle class="js-number-connector-8 js-link-connector" fill="none" cx="23.83692817390984" cy="94.48613697851009" r="0.1" id="v-1250"/>
<circle class="js-number-connector-9 js-link-connector" fill="none" cx="0" cy="70.6594656583756" r="0.1" id="v-1251"/>
<circle class="js-number-connector-10 js-link-connector" fill="none" cx="0" cy="47.243068489255045" r="0.1" id="v-1252"/>
<circle class="js-number-connector-11 js-link-connector" fill="none" cx="0" cy="23.82667132013449" r="0.1" id="v-1253"/>
<circle class="js-number-connector-12 js-link-connector" fill="none" cx="23.83692817390984" cy="0" r="0.1" id="v-1254"/>
</g></g><rect class="ui-number-box" id="v-1234" stroke="none" stroke-width="1" fill="#FFFFFF" x="0" y="0" width="40" height="20" transform="translate(27.14307022094727,-70.10000000149012)"/><path class="ui-number-leadline" id="v-1235" stroke="#000000" fill="none" d="M47.24307060241699,0 C68.4633348496528,-21.290997379826223 25.939446558999055,-28.809004908992158 47.15971080623487 -50.10000228881836"/><text class="ui-number-label" id="v-1236" font-family="OpenSansCondensedLight" font-size="14pt" fill="black" transform="translate(27.143070220947266,-70.0999984741211)" text-anchor="middle"><tspan x="20.000001907348633" y="16.300009342651368">404</tspan></text><rect class="ui-label-box" id="v-1237" stroke-width="0" fill="none" width="86.22937250137329" height="85.87037467956543" transform="translate(4.133512020111084,4.307878494262695)"/><text class="ui-label" id="v-1238" font-family="OpenSansCondensedLight" font-size="14pt" fill="black" transform="translate(4.133512020111084,4.307878494262695)" text-anchor="middle"><tspan x="43.11468505859375" y="38.73518079345703">INPUT</tspan><tspan x="43.11468505859375" y="59.73521829345703">DEVICES</tspan></text><path class="ui-number-underline" id="v-1239" stroke="#000000" fill="none" transform="translate(4.133512020111084,4.307878494262695)" d="M 0 0"/></g><g id="j_63" model-id="0b10358b-06c5-d561-378a-d400274784d5" class="element tp Element" transform="translate(320,200)"><g class="rotatable" id="v-1255"><g class="scalable" id="v-1265">
<path class="ui-fill ui-stroke js-perimeter" d="M94.48613697851009,0H0v94.48613697851009h94.48613697851009V0L94.48613697851009,0z" id="v-1262" stroke="#000000" stroke-dasharray="none" fill="#FFFFFF"/>
<rect class="ui-interior-label" x="4.133512071465432" y="4.307878585646357" width="86.22936968935457" height="85.87037980721738" id="v-1263" fill="none"/>
<circle class="js-number-connector-1 js-link-connector" fill="none" cx="47.243068489255045" cy="0" r="0.1" id="v-1266"/>
<circle class="js-number-connector-2 js-link-connector" fill="none" cx="70.6594656583756" cy="0" r="0.1" id="v-1264"/>
<circle class="js-number-connector-3 js-link-connector" fill="none" cx="94.48613697851009" cy="23.82667132013449" r="0.1" id="v-1267"/>
<circle class="js-number-connector-4 js-link-connector" fill="none" cx="94.48613697851009" cy="47.243068489255045" r="0.1" id="v-1268"/>
<circle class="js-number-connector-5 js-link-connector" fill="none" cx="94.48613697851009" cy="70.6594656583756" r="0.1" id="v-1269"/>
<circle class="js-number-connector-6 js-link-connector" fill="none" cx="70.6594656583756" cy="94.48613697851009" r="0.1" id="v-1270"/>
<circle class="js-number-connector-7 js-link-connector" fill="none" cx="47.243068489255045" cy="94.48613697851009" r="0.1" id="v-1271"/>
<circle class="js-number-connector-8 js-link-connector" fill="none" cx="23.83692817390984" cy="94.48613697851009" r="0.1" id="v-1272"/>
<circle class="js-number-connector-9 js-link-connector" fill="none" cx="0" cy="70.6594656583756" r="0.1" id="v-1273"/>
<circle class="js-number-connector-10 js-link-connector" fill="none" cx="0" cy="47.243068489255045" r="0.1" id="v-1274"/>
<circle class="js-number-connector-11 js-link-connector" fill="none" cx="0" cy="23.82667132013449" r="0.1" id="v-1275"/>
<circle class="js-number-connector-12 js-link-connector" fill="none" cx="23.83692817390984" cy="0" r="0.1" id="v-1276"/>
</g></g><rect class="ui-number-box" id="v-1256" stroke="none" stroke-width="1" fill="#FFFFFF" x="0" y="0" width="40" height="20" transform="translate(80.5594711303711,-62.06152422855643)"/><path class="ui-number-leadline" id="v-1257" stroke="#000000" fill="none" d="M70.65946960449219,0 C98.75352334504224,-7.596332399081713 66.72221212964959,-34.46519103841829 94.81626587019964 -42.0615234375"/><text class="ui-number-label" id="v-1258" font-family="OpenSansCondensedLight" font-size="14pt" fill="black" transform="translate(80.5594711303711,-62.0615234375)" text-anchor="middle"><tspan x="20" y="16.30001125">406</tspan></text><rect class="ui-label-box" id="v-1259" stroke-width="0" fill="none" width="86.22937250137329" height="85.87037467956543" transform="translate(4.133512020111084,4.307878494262695)"/><text class="ui-label" id="v-1260" font-family="OpenSansCondensedLight" font-size="14pt" fill="black" transform="translate(4.133512020111084,4.307878494262695)" text-anchor="middle"><tspan x="43.11468505859375" y="49.235199543457036">MEMORY</tspan></text><path class="ui-number-underline" id="v-1261" stroke="#000000" fill="none" transform="translate(4.133512020111084,4.307878494262695)" d="M 0 0"/></g><g id="j_64" model-id="3b838080-475f-c82c-1e8a-125ea0cb9e47" class="element tp Element" transform="translate(551.5118083953857,200)"><g class="rotatable" id="v-1277"><g class="scalable" id="v-1287">
<path class="ui-fill ui-stroke js-perimeter" d="M94.48613697851009,0H0v94.48613697851009h94.48613697851009V0L94.48613697851009,0z" id="v-1284" stroke="#000000" stroke-dasharray="none" fill="#FFFFFF"/>
<rect class="ui-interior-label" x="4.133512071465432" y="4.307878585646357" width="86.22936968935457" height="85.87037980721738" id="v-1285" fill="none"/>
<circle class="js-number-connector-1 js-link-connector" fill="none" cx="47.243068489255045" cy="0" r="0.1" id="v-1288"/>
<circle class="js-number-connector-2 js-link-connector" fill="none" cx="70.6594656583756" cy="0" r="0.1" id="v-1289"/>
<circle class="js-number-connector-3 js-link-connector" fill="none" cx="94.48613697851009" cy="23.82667132013449" r="0.1" id="v-1290"/>
<circle class="js-number-connector-4 js-link-connector" fill="none" cx="94.48613697851009" cy="47.243068489255045" r="0.1" id="v-1291"/>
<circle class="js-number-connector-5 js-link-connector" fill="none" cx="94.48613697851009" cy="70.6594656583756" r="0.1" id="v-1292"/>
<circle class="js-number-connector-6 js-link-connector" fill="none" cx="70.6594656583756" cy="94.48613697851009" r="0.1" id="v-1293"/>
<circle class="js-number-connector-7 js-link-connector" fill="none" cx="47.243068489255045" cy="94.48613697851009" r="0.1" id="v-1294"/>
<circle class="js-number-connector-8 js-link-connector" fill="none" cx="23.83692817390984" cy="94.48613697851009" r="0.1" id="v-1295"/>
<circle class="js-number-connector-9 js-link-connector" fill="none" cx="0" cy="70.6594656583756" r="0.1" id="v-1296"/>
<circle class="js-number-connector-10 js-link-connector" fill="none" cx="0" cy="47.243068489255045" r="0.1" id="v-1297"/>
<circle class="js-number-connector-11 js-link-connector" fill="none" cx="0" cy="23.82667132013449" r="0.1" id="v-1298"/>
<circle class="js-number-connector-12 js-link-connector" fill="none" cx="23.83692817390984" cy="0" r="0.1" id="v-1286"/>
</g></g><rect class="ui-number-box" id="v-1278" stroke="none" stroke-width="1" fill="#FFFFFF" x="0" y="0" width="40" height="20" transform="translate(-26.263072967529283,-62.061524228556436)"/><path class="ui-number-leadline" id="v-1279" stroke="#000000" fill="none" d="M23.83692741394043,0 C31.36470546647486,-28.162608087097347 -8.009231048712785,-13.898915350402657 -0.48145299617835136 -42.0615234375"/><text class="ui-number-label" id="v-1280" font-family="OpenSansCondensedLight" font-size="14pt" fill="black" transform="translate(-26.26307487487793,-62.0615234375)" text-anchor="middle"><tspan x="20.000000476837158" y="16.30001125">408</tspan></text><rect class="ui-label-box" id="v-1281" stroke-width="0" fill="none" width="86.22937250137329" height="85.87037467956543" transform="translate(4.133512020111084,4.307878494262695)"/><text class="ui-label" id="v-1282" font-family="OpenSansCondensedLight" font-size="14pt" fill="black" transform="translate(4.133512020111084,4.307878494262695)" text-anchor="middle"><tspan x="43.11468505859375" y="38.73518079345703">OUTPUT</tspan><tspan x="43.11468505859375" y="59.73521829345703">DEVICES</tspan></text><path class="ui-number-underline" id="v-1283" stroke="#000000" fill="none" transform="translate(4.133512020111084,4.307878494262695)" d="M 0 0"/></g><g id="j_65" model-id="82175138-59da-4e04-b670-199634a5c3f0" class="element tp Element" transform="translate(320,377)"><g class="rotatable" id="v-1299"><g class="scalable" id="v-1309">
<path class="ui-fill ui-stroke js-perimeter" d="M94.48613697851009,0H0v94.48613697851009h94.48613697851009V0L94.48613697851009,0z" id="v-1306" stroke="#000000" stroke-dasharray="none" fill="#FFFFFF"/>
<rect class="ui-interior-label" x="4.133512071465432" y="4.307878585646357" width="86.22936968935457" height="85.87037980721738" id="v-1307" fill="none"/>
<circle class="js-number-connector-1 js-link-connector" fill="none" cx="47.243068489255045" cy="0" r="0.1" id="v-1310"/>
<circle class="js-number-connector-2 js-link-connector" fill="none" cx="70.6594656583756" cy="0" r="0.1" id="v-1311"/>
<circle class="js-number-connector-3 js-link-connector" fill="none" cx="94.48613697851009" cy="23.82667132013449" r="0.1" id="v-1312"/>
<circle class="js-number-connector-4 js-link-connector" fill="none" cx="94.48613697851009" cy="47.243068489255045" r="0.1" id="v-1313"/>
<circle class="js-number-connector-5 js-link-connector" fill="none" cx="94.48613697851009" cy="70.6594656583756" r="0.1" id="v-1314"/>
<circle class="js-number-connector-6 js-link-connector" fill="none" cx="70.6594656583756" cy="94.48613697851009" r="0.1" id="v-1315"/>
<circle class="js-number-connector-7 js-link-connector" fill="none" cx="47.243068489255045" cy="94.48613697851009" r="0.1" id="v-1308"/>
<circle class="js-number-connector-8 js-link-connector" fill="none" cx="23.83692817390984" cy="94.48613697851009" r="0.1" id="v-1316"/>
<circle class="js-number-connector-9 js-link-connector" fill="none" cx="0" cy="70.6594656583756" r="0.1" id="v-1317"/>
<circle class="js-number-connector-10 js-link-connector" fill="none" cx="0" cy="47.243068489255045" r="0.1" id="v-1318"/>
<circle class="js-number-connector-11 js-link-connector" fill="none" cx="0" cy="23.82667132013449" r="0.1" id="v-1319"/>
<circle class="js-number-connector-12 js-link-connector" fill="none" cx="23.83692817390984" cy="0" r="0.1" id="v-1320"/>
</g></g><rect class="ui-number-box" id="v-1300" stroke="none" stroke-width="1" fill="#FFFFFF" x="0" y="0" width="40" height="20" transform="translate(27.143070220947255,144.38613891601562)"/><path class="ui-number-leadline" id="v-1301" stroke="#000000" fill="none" d="M47.24307060241699,94.48613739013672 C26.036949931163573,115.62157207108496 68.36588703520432,123.25070423506733 47.15976636395095 144.38613891601562"/><text class="ui-number-label" id="v-1302" font-family="OpenSansCondensedLight" font-size="14pt" fill="black" transform="translate(27.143070220947266,144.38613891601562)" text-anchor="middle"><tspan x="20.000001907348633" y="16.30001125">410</tspan></text><rect class="ui-label-box" id="v-1303" stroke-width="0" fill="none" width="86.22937250137329" height="85.87037467956543" transform="translate(4.133512020111084,4.307878494262695)"/><text class="ui-label" id="v-1304" font-family="OpenSansCondensedLight" font-size="14pt" fill="black" transform="translate(4.133512020111084,4.307878494262695)" text-anchor="middle"><tspan x="43.11468505859375" y="38.73518079345703">STORAGE</tspan><tspan x="43.11468505859375" y="59.73521829345703">DEVICES</tspan></text><path class="ui-number-underline" id="v-1305" stroke="#000000" fill="none" transform="translate(4.133512020111084,4.307878494262695)" d="M 0 0"/></g><g id="j_66" model-id="1b16b806-be07-c3a2-8fe3-1b5c111e966b" class="element tp Element" transform="translate(551.5118083953857,377)"><g class="rotatable" id="v-1321"><g class="scalable" id="v-1331">
<path class="ui-fill ui-stroke js-perimeter" d="M94.48613697851009,0H0v94.48613697851009h94.48613697851009V0L94.48613697851009,0z" id="v-1328" stroke="#000000" stroke-dasharray="none" fill="#FFFFFF"/>
<rect class="ui-interior-label" x="4.133512071465432" y="4.307878585646357" width="86.22936968935457" height="85.87037980721738" id="v-1329" fill="none"/>
<circle class="js-number-connector-1 js-link-connector" fill="none" cx="47.243068489255045" cy="0" r="0.1" id="v-1332"/>
<circle class="js-number-connector-2 js-link-connector" fill="none" cx="70.6594656583756" cy="0" r="0.1" id="v-1333"/>
<circle class="js-number-connector-3 js-link-connector" fill="none" cx="94.48613697851009" cy="23.82667132013449" r="0.1" id="v-1334"/>
<circle class="js-number-connector-4 js-link-connector" fill="none" cx="94.48613697851009" cy="47.243068489255045" r="0.1" id="v-1335"/>
<circle class="js-number-connector-5 js-link-connector" fill="none" cx="94.48613697851009" cy="70.6594656583756" r="0.1" id="v-1336"/>
<circle class="js-number-connector-6 js-link-connector" fill="none" cx="70.6594656583756" cy="94.48613697851009" r="0.1" id="v-1337"/>
<circle class="js-number-connector-7 js-link-connector" fill="none" cx="47.243068489255045" cy="94.48613697851009" r="0.1" id="v-1330"/>
<circle class="js-number-connector-8 js-link-connector" fill="none" cx="23.83692817390984" cy="94.48613697851009" r="0.1" id="v-1338"/>
<circle class="js-number-connector-9 js-link-connector" fill="none" cx="0" cy="70.6594656583756" r="0.1" id="v-1339"/>
<circle class="js-number-connector-10 js-link-connector" fill="none" cx="0" cy="47.243068489255045" r="0.1" id="v-1340"/>
<circle class="js-number-connector-11 js-link-connector" fill="none" cx="0" cy="23.82667132013449" r="0.1" id="v-1341"/>
<circle class="js-number-connector-12 js-link-connector" fill="none" cx="23.83692817390984" cy="0" r="0.1" id="v-1342"/>
</g></g><rect class="ui-number-box" id="v-1322" stroke="none" stroke-width="1" fill="#FFFFFF" x="0" y="0" width="40" height="20" transform="translate(27.143070220947255,144.38613891601562)"/><path class="ui-number-leadline" id="v-1323" stroke="#000000" fill="none" d="M47.24307060241699,94.48613739013672 C26.036949931163573,115.62157207108496 68.36588703520432,123.25070423506733 47.15976636395095 144.38613891601562"/><text class="ui-number-label" id="v-1324" font-family="OpenSansCondensedLight" font-size="14pt" fill="black" transform="translate(27.143070220947266,144.38613891601562)" text-anchor="middle"><tspan x="20.000001907348633" y="16.30001125">412</tspan></text><rect class="ui-label-box" id="v-1325" stroke-width="0" fill="none" width="86.22937250137329" height="85.87037467956543" transform="translate(4.133512020111084,4.307878494262695)"/><text class="ui-label" id="v-1326" font-family="OpenSansCondensedLight" font-size="14pt" fill="black" transform="translate(4.133512020111084,4.307878494262695)" text-anchor="middle"><tspan x="43.11468505859375" y="38.73518079345703">NETWORK</tspan><tspan x="43.11468505859375" y="59.73521829345703">INTERFACE</tspan></text><path class="ui-number-underline" id="v-1327" stroke="#000000" fill="none" transform="translate(4.133512020111084,4.307878494262695)" d="M 0 0"/></g><g id="j_78" model-id="0d95bf5d-abb2-a721-056a-7d87db7f2d1a" class="tp Link link"><path class="connection" stroke="black" id="v-1513" stroke-dasharray="none" d="M 158 247 L 270.5644171779141 247 C 273.5644171779141 253.75 277.5644171779141 253.75 280.5644171779141 247 L 312 247"/><path class="marker-source" fill="black" stroke="black" id="v-1514" d="" transform="translate(158,247) scale(1,1) rotate(0)"/><path class="marker-target" fill="black" stroke="black" id="v-1515" d="M 8 0 L 0 4 L 8 8 z" transform="translate(320,251) scale(1,1) rotate(-180)"/><g class="labels" id="v-1517"><g class="js-link-label" id="v-1525" label-idx="0" cursor="move" transform="translate(237.48231506347656, 247)"><rect fill="white" rx="3" ry="3" x="0" y="0" width="0" height="0"/><text class="ui-link-label" text-anchor="middle" font-size="14pt" font-family="OpenSansCondensedLight" id="v-1526" y="0.8em" display="none" xml:space="preserve" transform="translate(0,0)"/></g></g></g><g id="j_69" model-id="ea094619-3521-ed77-a1bf-fb6616538ed4" class="tp Link link"><path class="connection" stroke="black" id="v-1387" stroke-dasharray="none" d="M 414 247 544 247"/><path class="marker-source" fill="black" stroke="black" id="v-1388" d="" transform="translate(414,247) scale(1,1) rotate(0)"/><path class="marker-target" fill="black" stroke="black" id="v-1389" d="M 8 0 L 0 4 L 8 8 z" transform="translate(552,251) scale(1,1) rotate(-180)"/><g class="labels" id="v-1391"><g class="js-link-label" id="v-1399" label-idx="0" cursor="move" transform="translate(479, 247)"><rect fill="white" rx="3" ry="3" x="0" y="0" width="0" height="0"/><text class="ui-link-label" text-anchor="middle" font-size="14pt" font-family="OpenSansCondensedLight" id="v-1400" y="0.8em" display="none" xml:space="preserve" transform="translate(0,0)"/></g></g></g><g id="j_77" model-id="146c7e4c-1246-20d3-d1b1-8915deb69bea" class="tp Link link"><path class="connection" stroke="black" id="v-1499" stroke-dasharray="none" d="M 367 119 367 192"/><path class="marker-source" fill="black" stroke="black" id="v-1500" d="" transform="translate(367,119) scale(1,1) rotate(-270)"/><path class="marker-target" fill="black" stroke="black" id="v-1501" d="M 8 0 L 0 4 L 8 8 z" transform="translate(363,200) scale(1,1) rotate(-90)"/><g class="labels" id="v-1503"><g class="js-link-label" id="v-1511" label-idx="0" cursor="move" transform="translate(367, 155.5)"><rect fill="white" rx="3" ry="3" x="0" y="0" width="0" height="0"/><text class="ui-link-label" text-anchor="middle" font-size="14pt" font-family="OpenSansCondensedLight" id="v-1512" y="0.8em" display="none" xml:space="preserve" transform="translate(0,0)"/></g></g></g><g id="j_76" model-id="1c9c2868-d48f-7a8f-fdec-c51f732d0191" class="tp Link link"><path class="connection" stroke="black" id="v-1485" stroke-dasharray="none" d="M 367 294 367 369"/><path class="marker-source" fill="black" stroke="black" id="v-1486" d="" transform="translate(367,294) scale(1,1) rotate(-270)"/><path class="marker-target" fill="black" stroke="black" id="v-1487" d="M 8 0 L 0 4 L 8 8 z" transform="translate(363,377) scale(1,1) rotate(-90)"/><g class="labels" id="v-1489"><g class="js-link-label" id="v-1497" label-idx="0" cursor="move" transform="translate(367, 331.5)"><rect fill="white" rx="3" ry="3" x="0" y="0" width="0" height="0"/><text class="ui-link-label" text-anchor="middle" font-size="14pt" font-family="OpenSansCondensedLight" id="v-1498" y="0.8em" display="none" xml:space="preserve" transform="translate(0,0)"/></g></g></g><g id="j_75" model-id="2e99fda0-c791-ac14-9f7f-71e9d3fff0e8" class="tp Link link"><path class="connection" stroke="black" id="v-1471" stroke-dasharray="none" d="M 367 377 367 303"/><path class="marker-source" fill="black" stroke="black" id="v-1472" d="" transform="translate(367,377) scale(1,1) rotate(-90)"/><path class="marker-target" fill="black" stroke="black" id="v-1473" d="M 8 0 L 0 4 L 8 8 z" transform="translate(371,295) scale(1,1) rotate(-270)"/><g class="labels" id="v-1475"><g class="js-link-label" id="v-1483" label-idx="0" cursor="move" transform="translate(367, 340)"><rect fill="white" rx="3" ry="3" x="0" y="0" width="0" height="0"/><text class="ui-link-label" text-anchor="middle" font-size="14pt" font-family="OpenSansCondensedLight" id="v-1484" y="0.8em" display="none" xml:space="preserve" transform="translate(0,0)"/></g></g></g><g id="j_74" model-id="5bbfa980-ee3d-3ad7-53ed-ee0601aa7488" class="tp Link link"><path class="connection" stroke="black" id="v-1457" stroke-dasharray="none" d="M 367 200 367 123"/><path class="marker-source" fill="black" stroke="black" id="v-1458" d="" transform="translate(367,200) scale(1,1) rotate(-90)"/><path class="marker-target" fill="black" stroke="black" id="v-1459" d="M 8 0 L 0 4 L 8 8 z" transform="translate(371,115) scale(1,1) rotate(-270)"/><g class="labels" id="v-1461"><g class="js-link-label" id="v-1469" label-idx="0" cursor="move" transform="translate(367, 161.5)"><rect fill="white" rx="3" ry="3" x="0" y="0" width="0" height="0"/><text class="ui-link-label" text-anchor="middle" font-size="14pt" font-family="OpenSansCondensedLight" id="v-1470" y="0.8em" display="none" xml:space="preserve" transform="translate(0,0)"/></g></g></g><g id="j_73" model-id="75acd700-825f-39f8-dc6e-db3631d8b71f" class="tp Link link"><path class="connection" stroke="black" id="v-1443" stroke-dasharray="none" d="M 414 271 546 396"/><path class="marker-source" fill="black" stroke="black" id="v-1444" d="" transform="translate(414,271) scale(1,1) rotate(43.29019165039065)"/><path class="marker-target" fill="black" stroke="black" id="v-1445" d="M 8 0 L 0 4 L 8 8 z" transform="translate(549.2572255171731,403.91156829714095) scale(1,1) rotate(-136.70980834960938)"/><g class="labels" id="v-1447"><g class="js-link-label" id="v-1455" label-idx="0" cursor="move" transform="translate(480, 333.5)"><rect fill="white" rx="3" ry="3" x="0" y="0" width="0" height="0"/><text class="ui-link-label" text-anchor="middle" font-size="14pt" font-family="OpenSansCondensedLight" id="v-1456" y="0.8em" display="none" xml:space="preserve" transform="translate(0,0)"/></g></g></g><g id="j_72" model-id="7fdc5a52-5e69-5ff7-e01b-c8002da77ec8" class="tp Link link"><path class="connection" stroke="black" id="v-1429" stroke-dasharray="none" d="M 552 401 420 276"/><path class="marker-source" fill="black" stroke="black" id="v-1430" d="" transform="translate(552,401) scale(1,1) rotate(-136.70980834960938)"/><path class="marker-target" fill="black" stroke="black" id="v-1431" d="M 8 0 L 0 4 L 8 8 z" transform="translate(416.742774482827,268.08843170285905) scale(1,1) rotate(43.29019165039065)"/><g class="labels" id="v-1433"><g class="js-link-label" id="v-1441" label-idx="0" cursor="move" transform="translate(486, 338.5)"><rect fill="white" rx="3" ry="3" x="0" y="0" width="0" height="0"/><text class="ui-link-label" text-anchor="middle" font-size="14pt" font-family="OpenSansCondensedLight" id="v-1442" y="0.8em" display="none" xml:space="preserve" transform="translate(0,0)"/></g></g></g><g id="j_71" model-id="809c3e72-a74d-4091-b662-3f0f88588552" class="tp Link link"><path class="connection" stroke="black" id="v-1415" stroke-dasharray="5,5" d="M 321 201 160 364"/><path class="marker-source" fill="black" stroke="black" id="v-1416" d="" transform="translate(321,201) scale(1,1) rotate(-225.35366821289062)"/><path class="marker-target" fill="black" stroke="black" id="v-1417" d="" transform="translate(160,364) scale(1,1) rotate(-45.3536720275879)"/><g class="labels" id="v-1419"><g class="js-link-label" id="v-1427" label-idx="0" cursor="move" transform="translate(240.5, 282.5)"><rect fill="white" rx="3" ry="3" x="0" y="0" width="0" height="0"/><text class="ui-link-label" text-anchor="middle" font-size="14pt" font-family="OpenSansCondensedLight" id="v-1428" y="0.8em" display="none" xml:space="preserve" transform="translate(0,0)"/></g></g></g><g id="j_70" model-id="c6508b78-3bb6-4cc6-8340-dc07be9d1339" class="tp Link link"><path class="connection" stroke="black" id="v-1401" stroke-dasharray="5,5" d="M 322 471 158 437"/><path class="marker-source" fill="black" stroke="black" id="v-1402" d="" transform="translate(322,471) scale(1,1) rotate(-168.2875213623047)"/><path class="marker-target" fill="black" stroke="black" id="v-1403" d="" transform="translate(158,437) scale(1,1) rotate(11.71246337890625)"/><g class="labels" id="v-1405"><g class="js-link-label" id="v-1413" label-idx="0" cursor="move" transform="translate(240, 454)"><rect fill="white" rx="3" ry="3" x="0" y="0" width="0" height="0"/><text class="ui-link-label" text-anchor="middle" font-size="14pt" font-family="OpenSansCondensedLight" id="v-1414" y="0.8em" display="none" xml:space="preserve" transform="translate(0,0)"/></g></g></g><g id="j_68" model-id="0aeeb9be-4139-4f39-9af8-842809839b17" class="element tp Element" transform="translate(76.48819160461426,364.0312500000001)"><g class="rotatable" id="v-1365"><g class="scalable" id="v-1375">
<path class="ui-fill ui-stroke js-perimeter" d="M82.99819518223653,0H0v71.99843437495217h82.99819518223653V0L82.99819518223653,0z" id="v-1372" stroke="#000000" stroke-dasharray="none" fill="#FFFFFF"/>
<rect class="ui-interior-label" x="3.6309457944465175" y="3.282603390955266" width="75.74531338439671" height="65.43322759304164" id="v-1373" fill="none"/>
<circle class="js-number-connector-1 js-link-connector" fill="none" cx="41.499097591118264" cy="0" r="0.1" id="v-1376"/>
<circle class="js-number-connector-2 js-link-connector" fill="none" cx="62.068450565613055" cy="0" r="0.1" id="v-1377"/>
<circle class="js-number-connector-3 js-link-connector" fill="none" cx="82.99819518223653" cy="18.15592304092639" r="0.1" id="v-1378"/>
<circle class="js-number-connector-4 js-link-connector" fill="none" cx="82.99819518223653" cy="35.999217187476084" r="0.1" id="v-1374"/>
<circle class="js-number-connector-5 js-link-connector" fill="none" cx="82.99819518223653" cy="53.84251133402578" r="0.1" id="v-1379"/>
<circle class="js-number-connector-6 js-link-connector" fill="none" cx="62.068450565613055" cy="71.99843437495217" r="0.1" id="v-1380"/>
<circle class="js-number-connector-7 js-link-connector" fill="none" cx="41.499097591118264" cy="71.99843437495217" r="0.1" id="v-1381"/>
<circle class="js-number-connector-8 js-link-connector" fill="none" cx="20.938754407676694" cy="71.99843437495217" r="0.1" id="v-1382"/>
<circle class="js-number-connector-9 js-link-connector" fill="none" cx="0" cy="53.84251133402578" r="0.1" id="v-1383"/>
<circle class="js-number-connector-10 js-link-connector" fill="none" cx="0" cy="35.999217187476084" r="0.1" id="v-1384"/>
<circle class="js-number-connector-11 js-link-connector" fill="none" cx="0" cy="18.15592304092639" r="0.1" id="v-1385"/>
<circle class="js-number-connector-12 js-link-connector" fill="none" cx="20.938754407676694" cy="0" r="0.1" id="v-1386"/>
</g></g><rect class="ui-number-box" id="v-1366" stroke="none" stroke-width="0" fill="#FFFFFF" x="0" y="0" width="0" height="0" transform="translate(82.898193359375,35.89921569824219)"/><path class="ui-number-leadline" id="v-1367" stroke="#000000" fill="none" d=""/><text class="ui-number-label" id="v-1368" font-family="OpenSansCondensedLight" font-size="14pt" fill="black" transform="translate(82.898193359375,35.89921569824219)"/><rect class="ui-label-box" id="v-1369" stroke-width="0" fill="none" width="75.74531292915344" height="65.43322443962097" transform="translate(3.630945920944214,3.2826035022735596)"/><text class="ui-label" id="v-1370" font-family="OpenSansCondensedLight" font-size="14pt" fill="black" transform="translate(3.630945920944214,3.2826035022735596)" text-anchor="middle"><tspan x="37.872657775878906" y="39.01662120483398"> 414</tspan></text><path class="ui-number-underline" id="v-1371" stroke="#000000" fill="none" transform="translate(3.630945920944214,3.2826035022735596)" d="M 23.874666213989258 41 51.870649337768555 41"/></g></g><defs id="v-1174"/></svg>