<svg xmlns="http://www.w3.org/2000/svg" xmlns:xlink="http://www.w3.org/1999/xlink" version="1.1" id="v-6599" width="664" height="867"><g id="v-6600" class="viewport"><g id="j_343" model-id="119e321b-0233-4ce2-975c-e8fdaee79174" class="element tp Element" transform="translate(321,179)"><g class="rotatable" id="v-6602"><g class="scalable" id="v-6612">
<path class="ui-fill ui-stroke js-perimeter" d="M27.999391145814734,0H0v28.999369401022403h27.999391145814734V0L27.999391145814734,0z" id="v-6609" stroke="none" stroke-dasharray="none" fill="#FFFFFF"/>
<rect class="ui-interior-label" x="1.224897376439789" y="1.32215969913476" width="25.552635840519375" height="26.355050002752883" id="v-6610" fill="none"/>
<circle class="js-number-connector-1 js-link-connector" fill="none" cx="13.999695572907367" cy="0" r="0.1" id="v-6613"/>
<circle class="js-number-connector-2 js-link-connector" fill="none" cx="20.938754407676694" cy="0" r="0.1" id="v-6614"/>
<circle class="js-number-connector-3 js-link-connector" fill="none" cx="27.999391145814734" cy="7.3128023359286844" r="0.1" id="v-6615"/>
<circle class="js-number-connector-4 js-link-connector" fill="none" cx="27.999391145814734" cy="14.499684700511201" r="0.1" id="v-6611"/>
<circle class="js-number-connector-5 js-link-connector" fill="none" cx="27.999391145814734" cy="21.686567065093715" r="0.1" id="v-6616"/>
<circle class="js-number-connector-6 js-link-connector" fill="none" cx="20.938754407676694" cy="28.999369401022403" r="0.1" id="v-6617"/>
<circle class="js-number-connector-7 js-link-connector" fill="none" cx="13.999695572907367" cy="28.999369401022403" r="0.1" id="v-6618"/>
<circle class="js-number-connector-8 js-link-connector" fill="none" cx="7.063676185722258" cy="28.999369401022403" r="0.1" id="v-6619"/>
<circle class="js-number-connector-9 js-link-connector" fill="none" cx="0" cy="21.686567065093715" r="0.1" id="v-6620"/>
<circle class="js-number-connector-10 js-link-connector" fill="none" cx="0" cy="14.499684700511201" r="0.1" id="v-6621"/>
<circle class="js-number-connector-11 js-link-connector" fill="none" cx="0" cy="7.3128023359286844" r="0.1" id="v-6622"/>
<circle class="js-number-connector-12 js-link-connector" fill="none" cx="7.063676185722258" cy="0" r="0.1" id="v-6623"/>
</g></g><rect class="ui-number-box" id="v-6603" stroke="none" stroke-width="0" fill="#FFFFFF" x="0" y="0" width="0" height="0" transform="translate(27.899389266967773,14.399683952331543)"/><path class="ui-number-leadline" id="v-6604" stroke="#000000" fill="none" d=""/><text class="ui-number-label" id="v-6605" font-family="OpenSansCondensedLight" font-size="14pt" fill="black" transform="translate(27.899389266967773,14.399683952331543)"/><rect class="ui-label-box" id="v-6606" stroke-width="0" fill="none" width="25.552635192871094" height="26.355050206184387" transform="translate(1.2248973846435547,1.3221596479415894)"/><text class="ui-label" id="v-6607" font-family="OpenSansCondensedLight" font-size="14pt" fill="black" transform="translate(1.2248973846435547,1.3221596479415894)" text-anchor="middle"><tspan x="12.776317596435547" y="19.477536770324708"> </tspan></text><path class="ui-number-underline" id="v-6608" stroke="#000000" fill="none" transform="translate(1.2248973846435547,1.3221596479415894)" d="M 0 0"/></g><g id="j_351" model-id="f4546544-a30b-b974-8201-47652c5423ec" class="element tp Element" transform="translate(322,464)"><g class="rotatable" id="v-6770"><g class="scalable" id="v-6780">
<path class="ui-fill ui-stroke js-perimeter" d="M27.999391145814734,0H0v28.999369401022403h27.999391145814734V0L27.999391145814734,0z" id="v-6777" stroke="none" stroke-dasharray="none" fill="#FFFFFF"/>
<rect class="ui-interior-label" x="1.224897376439789" y="1.32215969913476" width="25.552635840519375" height="26.355050002752883" id="v-6778" fill="none"/>
<circle class="js-number-connector-1 js-link-connector" fill="none" cx="13.999695572907367" cy="0" r="0.1" id="v-6781"/>
<circle class="js-number-connector-2 js-link-connector" fill="none" cx="20.938754407676694" cy="0" r="0.1" id="v-6782"/>
<circle class="js-number-connector-3 js-link-connector" fill="none" cx="27.999391145814734" cy="7.3128023359286844" r="0.1" id="v-6783"/>
<circle class="js-number-connector-4 js-link-connector" fill="none" cx="27.999391145814734" cy="14.499684700511201" r="0.1" id="v-6779"/>
<circle class="js-number-connector-5 js-link-connector" fill="none" cx="27.999391145814734" cy="21.686567065093715" r="0.1" id="v-6784"/>
<circle class="js-number-connector-6 js-link-connector" fill="none" cx="20.938754407676694" cy="28.999369401022403" r="0.1" id="v-6785"/>
<circle class="js-number-connector-7 js-link-connector" fill="none" cx="13.999695572907367" cy="28.999369401022403" r="0.1" id="v-6786"/>
<circle class="js-number-connector-8 js-link-connector" fill="none" cx="7.063676185722258" cy="28.999369401022403" r="0.1" id="v-6787"/>
<circle class="js-number-connector-9 js-link-connector" fill="none" cx="0" cy="21.686567065093715" r="0.1" id="v-6788"/>
<circle class="js-number-connector-10 js-link-connector" fill="none" cx="0" cy="14.499684700511201" r="0.1" id="v-6789"/>
<circle class="js-number-connector-11 js-link-connector" fill="none" cx="0" cy="7.3128023359286844" r="0.1" id="v-6790"/>
<circle class="js-number-connector-12 js-link-connector" fill="none" cx="7.063676185722258" cy="0" r="0.1" id="v-6791"/>
</g></g><rect class="ui-number-box" id="v-6771" stroke="none" stroke-width="0" fill="#FFFFFF" x="0" y="0" width="0" height="0" transform="translate(27.899389266967773,14.399683952331543)"/><path class="ui-number-leadline" id="v-6772" stroke="#000000" fill="none" d=""/><text class="ui-number-label" id="v-6773" font-family="OpenSansCondensedLight" font-size="14pt" fill="black" transform="translate(27.899389266967773,14.399683952331543)"/><rect class="ui-label-box" id="v-6774" stroke-width="0" fill="none" width="25.552635192871094" height="26.355050206184387" transform="translate(1.2248973846435547,1.3221596479415894)"/><text class="ui-label" id="v-6775" font-family="OpenSansCondensedLight" font-size="14pt" fill="black" transform="translate(1.2248973846435547,1.3221596479415894)" text-anchor="middle"><tspan x="12.776317596435547" y="19.477536770324708"> </tspan></text><path class="ui-number-underline" id="v-6776" stroke="#000000" fill="none" transform="translate(1.2248973846435547,1.3221596479415894)" d="M 0 0"/></g><g id="j_344" model-id="50dc0072-733b-a579-4fb1-d1949b842460" class="element tp Element" transform="translate(595.9972915649414,14.3125)"><polygon class="ui-arrowhead" fill="#000000" points="0,0 4.2,11.2 11.8,2" id="v-6624" transform="translate(-5.900000095367432,27.34645652770996)"/>
<rect class="ui-label-anchor" fill="none" width="1" height="1" id="v-6626" transform="translate(33.346458435058594,-0.5)"/>
<g class="rotatable" id="v-6628"><g class="scalable" id="v-6636">
<rect x="0" y="0" width="28.346457481384277" height="28.346456915242126" opacity="0" id="v-6637"/>
<path class="ui-stem" fill="none" stroke="#000000" stroke-width="1" d="M28.346457481384277,0C16.68079997942998,2.22616153784624,6.9775895338792076,13.35696922707744,0,28.346456915242126" id="v-6635"/>
</g></g><rect class="ui-number-box" id="v-6629" stroke="none" stroke-width="0" fill="#FFFFFF" x="0" y="0" width="0" height="0"/><path class="ui-number-leadline" id="v-6630" stroke="#000000" fill="none"/><text class="ui-number-label" id="v-6631" font-family="OpenSansCondensedLight" font-size="14pt" fill="black" transform="translate(0,0)"/><rect class="ui-label-box" id="v-6632" stroke-width="0" fill="none" width="1" height="1" transform="translate(33.34646224975586,-0.5)"/><text class="ui-label" id="v-6633" font-family="OpenSansCondensedLight" font-size="14pt" fill="black" text-decoration="none" transform="translate(33.34646224975586,-0.5)"><tspan x="0" y="6.800011250000001">400</tspan></text><path class="ui-number-underline" id="v-6634" stroke="#000000" fill="none" transform="translate(33.34646224975586,-0.5)"/></g><g id="j_345" model-id="a89d78ee-38a7-2307-0698-6ef3203ad372" class="element tp Element" transform="translate(320,25)"><g class="rotatable" id="v-6638"><g class="scalable" id="v-6648">
<path class="ui-fill ui-stroke js-perimeter" d="M94.48613697851009,0H0v94.48613697851009h94.48613697851009V0L94.48613697851009,0z" id="v-6645" stroke="#000000" stroke-dasharray="none" fill="#FFFFFF"/>
<rect class="ui-interior-label" x="4.133512071465432" y="4.307878585646357" width="86.22936968935457" height="85.87037980721738" id="v-6646" fill="none"/>
<circle class="js-number-connector-1 js-link-connector" fill="none" cx="47.243068489255045" cy="0" r="0.1" id="v-6649"/>
<circle class="js-number-connector-2 js-link-connector" fill="none" cx="70.6594656583756" cy="0" r="0.1" id="v-6650"/>
<circle class="js-number-connector-3 js-link-connector" fill="none" cx="94.48613697851009" cy="23.82667132013449" r="0.1" id="v-6651"/>
<circle class="js-number-connector-4 js-link-connector" fill="none" cx="94.48613697851009" cy="47.243068489255045" r="0.1" id="v-6652"/>
<circle class="js-number-connector-5 js-link-connector" fill="none" cx="94.48613697851009" cy="70.6594656583756" r="0.1" id="v-6653"/>
<circle class="js-number-connector-6 js-link-connector" fill="none" cx="70.6594656583756" cy="94.48613697851009" r="0.1" id="v-6654"/>
<circle class="js-number-connector-7 js-link-connector" fill="none" cx="47.243068489255045" cy="94.48613697851009" r="0.1" id="v-6655"/>
<circle class="js-number-connector-8 js-link-connector" fill="none" cx="23.83692817390984" cy="94.48613697851009" r="0.1" id="v-6656"/>
<circle class="js-number-connector-9 js-link-connector" fill="none" cx="0" cy="70.6594656583756" r="0.1" id="v-6657"/>
<circle class="js-number-connector-10 js-link-connector" fill="none" cx="0" cy="47.243068489255045" r="0.1" id="v-6658"/>
<circle class="js-number-connector-11 js-link-connector" fill="none" cx="0" cy="23.82667132013449" r="0.1" id="v-6647"/>
<circle class="js-number-connector-12 js-link-connector" fill="none" cx="23.83692817390984" cy="0" r="0.1" id="v-6659"/>
</g></g><rect class="ui-number-box" id="v-6639" stroke="none" stroke-width="1" fill="#FFFFFF" x="0" y="0" width="40" height="20" transform="translate(-72.06152422855644,-16.27332878112793)"/><path class="ui-number-leadline" id="v-6640" stroke="#000000" fill="none" d="M0,23.826671600341797 C-6.221975172556036,0.5492803395735777 -28.543361570294632,27.00406224122171 -34.765336742850664 3.726670980453491"/><text class="ui-number-label" id="v-6641" font-family="OpenSansCondensedLight" font-size="14pt" fill="black" transform="translate(-72.0615234375,-16.27332878112793)" text-anchor="middle"><tspan x="20" y="16.30001113079071">402</tspan></text><rect class="ui-label-box" id="v-6642" stroke-width="0" fill="none" width="86.22937250137329" height="85.87037467956543" transform="translate(4.133512020111084,4.307878494262695)"/><text class="ui-label" id="v-6643" font-family="OpenSansCondensedLight" font-size="14pt" fill="black" transform="translate(4.133512020111084,4.307878494262695)" text-anchor="middle"><tspan x="43.11468505859375" y="49.235199543457036">CPU</tspan></text><path class="ui-number-underline" id="v-6644" stroke="#000000" fill="none" transform="translate(4.133512020111084,4.307878494262695)" d="M 0 0"/></g><g id="j_346" model-id="362aeb50-0b46-3cd1-4ae8-b06b2495a68f" class="element tp Element" transform="translate(64,200)"><g class="rotatable" id="v-6660"><g class="scalable" id="v-6670">
<path class="ui-fill ui-stroke js-perimeter" d="M94.48613697851009,0H0v94.48613697851009h94.48613697851009V0L94.48613697851009,0z" id="v-6667" stroke="#000000" stroke-dasharray="none" fill="#FFFFFF"/>
<rect class="ui-interior-label" x="4.133512071465432" y="4.307878585646357" width="86.22936968935457" height="85.87037980721738" id="v-6668" fill="none"/>
<circle class="js-number-connector-1 js-link-connector" fill="none" cx="47.243068489255045" cy="0" r="0.1" id="v-6669"/>
<circle class="js-number-connector-2 js-link-connector" fill="none" cx="70.6594656583756" cy="0" r="0.1" id="v-6671"/>
<circle class="js-number-connector-3 js-link-connector" fill="none" cx="94.48613697851009" cy="23.82667132013449" r="0.1" id="v-6672"/>
<circle class="js-number-connector-4 js-link-connector" fill="none" cx="94.48613697851009" cy="47.243068489255045" r="0.1" id="v-6673"/>
<circle class="js-number-connector-5 js-link-connector" fill="none" cx="94.48613697851009" cy="70.6594656583756" r="0.1" id="v-6674"/>
<circle class="js-number-connector-6 js-link-connector" fill="none" cx="70.6594656583756" cy="94.48613697851009" r="0.1" id="v-6675"/>
<circle class="js-number-connector-7 js-link-connector" fill="none" cx="47.243068489255045" cy="94.48613697851009" r="0.1" id="v-6676"/>
<circle class="js-number-connector-8 js-link-connector" fill="none" cx="23.83692817390984" cy="94.48613697851009" r="0.1" id="v-6677"/>
<circle class="js-number-connector-9 js-link-connector" fill="none" cx="0" cy="70.6594656583756" r="0.1" id="v-6678"/>
<circle class="js-number-connector-10 js-link-connector" fill="none" cx="0" cy="47.243068489255045" r="0.1" id="v-6679"/>
<circle class="js-number-connector-11 js-link-connector" fill="none" cx="0" cy="23.82667132013449" r="0.1" id="v-6680"/>
<circle class="js-number-connector-12 js-link-connector" fill="none" cx="23.83692817390984" cy="0" r="0.1" id="v-6681"/>
</g></g><rect class="ui-number-box" id="v-6661" stroke="none" stroke-width="1" fill="#FFFFFF" x="0" y="0" width="40" height="20" transform="translate(27.14307022094727,-70.10000000149012)"/><path class="ui-number-leadline" id="v-6662" stroke="#000000" fill="none" d="M47.24307060241699,0 C68.4633348496528,-21.290997379826223 25.939446558999055,-28.809004908992158 47.15971080623487 -50.10000228881836"/><text class="ui-number-label" id="v-6663" font-family="OpenSansCondensedLight" font-size="14pt" fill="black" transform="translate(27.143070220947266,-70.0999984741211)" text-anchor="middle"><tspan x="20.000001907348633" y="16.300009342651368">404</tspan></text><rect class="ui-label-box" id="v-6664" stroke-width="0" fill="none" width="86.22937250137329" height="85.87037467956543" transform="translate(4.133512020111084,4.307878494262695)"/><text class="ui-label" id="v-6665" font-family="OpenSansCondensedLight" font-size="14pt" fill="black" transform="translate(4.133512020111084,4.307878494262695)" text-anchor="middle"><tspan x="43.11468505859375" y="38.73518079345703">INPUT</tspan><tspan x="43.11468505859375" y="59.73521829345703">DEVICES</tspan></text><path class="ui-number-underline" id="v-6666" stroke="#000000" fill="none" transform="translate(4.133512020111084,4.307878494262695)" d="M 0 0"/></g><g id="j_347" model-id="0b10358b-06c5-d561-378a-d400274784d5" class="element tp Element" transform="translate(320,200)"><g class="rotatable" id="v-6682"><g class="scalable" id="v-6692">
<path class="ui-fill ui-stroke js-perimeter" d="M94.48613697851009,0H0v94.48613697851009h94.48613697851009V0L94.48613697851009,0z" id="v-6689" stroke="#000000" stroke-dasharray="none" fill="#FFFFFF"/>
<rect class="ui-interior-label" x="4.133512071465432" y="4.307878585646357" width="86.22936968935457" height="85.87037980721738" id="v-6690" fill="none"/>
<circle class="js-number-connector-1 js-link-connector" fill="none" cx="47.243068489255045" cy="0" r="0.1" id="v-6693"/>
<circle class="js-number-connector-2 js-link-connector" fill="none" cx="70.6594656583756" cy="0" r="0.1" id="v-6691"/>
<circle class="js-number-connector-3 js-link-connector" fill="none" cx="94.48613697851009" cy="23.82667132013449" r="0.1" id="v-6694"/>
<circle class="js-number-connector-4 js-link-connector" fill="none" cx="94.48613697851009" cy="47.243068489255045" r="0.1" id="v-6695"/>
<circle class="js-number-connector-5 js-link-connector" fill="none" cx="94.48613697851009" cy="70.6594656583756" r="0.1" id="v-6696"/>
<circle class="js-number-connector-6 js-link-connector" fill="none" cx="70.6594656583756" cy="94.48613697851009" r="0.1" id="v-6697"/>
<circle class="js-number-connector-7 js-link-connector" fill="none" cx="47.243068489255045" cy="94.48613697851009" r="0.1" id="v-6698"/>
<circle class="js-number-connector-8 js-link-connector" fill="none" cx="23.83692817390984" cy="94.48613697851009" r="0.1" id="v-6699"/>
<circle class="js-number-connector-9 js-link-connector" fill="none" cx="0" cy="70.6594656583756" r="0.1" id="v-6700"/>
<circle class="js-number-connector-10 js-link-connector" fill="none" cx="0" cy="47.243068489255045" r="0.1" id="v-6701"/>
<circle class="js-number-connector-11 js-link-connector" fill="none" cx="0" cy="23.82667132013449" r="0.1" id="v-6702"/>
<circle class="js-number-connector-12 js-link-connector" fill="none" cx="23.83692817390984" cy="0" r="0.1" id="v-6703"/>
</g></g><rect class="ui-number-box" id="v-6683" stroke="none" stroke-width="1" fill="#FFFFFF" x="0" y="0" width="40" height="20" transform="translate(80.5594711303711,-62.06152422855643)"/><path class="ui-number-leadline" id="v-6684" stroke="#000000" fill="none" d="M70.65946960449219,0 C98.75352334504224,-7.596332399081713 66.72221212964959,-34.46519103841829 94.81626587019964 -42.0615234375"/><text class="ui-number-label" id="v-6685" font-family="OpenSansCondensedLight" font-size="14pt" fill="black" transform="translate(80.5594711303711,-62.0615234375)" text-anchor="middle"><tspan x="20" y="16.30001125">406</tspan></text><rect class="ui-label-box" id="v-6686" stroke-width="0" fill="none" width="86.22937250137329" height="85.87037467956543" transform="translate(4.133512020111084,4.307878494262695)"/><text class="ui-label" id="v-6687" font-family="OpenSansCondensedLight" font-size="14pt" fill="black" transform="translate(4.133512020111084,4.307878494262695)" text-anchor="middle"><tspan x="43.11468505859375" y="49.235199543457036">MEMORY</tspan></text><path class="ui-number-underline" id="v-6688" stroke="#000000" fill="none" transform="translate(4.133512020111084,4.307878494262695)" d="M 0 0"/></g><g id="j_348" model-id="3b838080-475f-c82c-1e8a-125ea0cb9e47" class="element tp Element" transform="translate(551.5118083953857,200)"><g class="rotatable" id="v-6704"><g class="scalable" id="v-6714">
<path class="ui-fill ui-stroke js-perimeter" d="M94.48613697851009,0H0v94.48613697851009h94.48613697851009V0L94.48613697851009,0z" id="v-6711" stroke="#000000" stroke-dasharray="none" fill="#FFFFFF"/>
<rect class="ui-interior-label" x="4.133512071465432" y="4.307878585646357" width="86.22936968935457" height="85.87037980721738" id="v-6712" fill="none"/>
<circle class="js-number-connector-1 js-link-connector" fill="none" cx="47.243068489255045" cy="0" r="0.1" id="v-6715"/>
<circle class="js-number-connector-2 js-link-connector" fill="none" cx="70.6594656583756" cy="0" r="0.1" id="v-6716"/>
<circle class="js-number-connector-3 js-link-connector" fill="none" cx="94.48613697851009" cy="23.82667132013449" r="0.1" id="v-6717"/>
<circle class="js-number-connector-4 js-link-connector" fill="none" cx="94.48613697851009" cy="47.243068489255045" r="0.1" id="v-6718"/>
<circle class="js-number-connector-5 js-link-connector" fill="none" cx="94.48613697851009" cy="70.6594656583756" r="0.1" id="v-6719"/>
<circle class="js-number-connector-6 js-link-connector" fill="none" cx="70.6594656583756" cy="94.48613697851009" r="0.1" id="v-6720"/>
<circle class="js-number-connector-7 js-link-connector" fill="none" cx="47.243068489255045" cy="94.48613697851009" r="0.1" id="v-6721"/>
<circle class="js-number-connector-8 js-link-connector" fill="none" cx="23.83692817390984" cy="94.48613697851009" r="0.1" id="v-6722"/>
<circle class="js-number-connector-9 js-link-connector" fill="none" cx="0" cy="70.6594656583756" r="0.1" id="v-6723"/>
<circle class="js-number-connector-10 js-link-connector" fill="none" cx="0" cy="47.243068489255045" r="0.1" id="v-6724"/>
<circle class="js-number-connector-11 js-link-connector" fill="none" cx="0" cy="23.82667132013449" r="0.1" id="v-6725"/>
<circle class="js-number-connector-12 js-link-connector" fill="none" cx="23.83692817390984" cy="0" r="0.1" id="v-6713"/>
</g></g><rect class="ui-number-box" id="v-6705" stroke="none" stroke-width="1" fill="#FFFFFF" x="0" y="0" width="40" height="20" transform="translate(-26.263072967529283,-62.061524228556436)"/><path class="ui-number-leadline" id="v-6706" stroke="#000000" fill="none" d="M23.83692741394043,0 C31.36470546647486,-28.162608087097347 -8.009231048712785,-13.898915350402657 -0.48145299617835136 -42.0615234375"/><text class="ui-number-label" id="v-6707" font-family="OpenSansCondensedLight" font-size="14pt" fill="black" transform="translate(-26.26307487487793,-62.0615234375)" text-anchor="middle"><tspan x="20.000000476837158" y="16.30001125">408</tspan></text><rect class="ui-label-box" id="v-6708" stroke-width="0" fill="none" width="86.22937250137329" height="85.87037467956543" transform="translate(4.133512020111084,4.307878494262695)"/><text class="ui-label" id="v-6709" font-family="OpenSansCondensedLight" font-size="14pt" fill="black" transform="translate(4.133512020111084,4.307878494262695)" text-anchor="middle"><tspan x="43.11468505859375" y="38.73518079345703">OUTPUT</tspan><tspan x="43.11468505859375" y="59.73521829345703">DEVICES</tspan></text><path class="ui-number-underline" id="v-6710" stroke="#000000" fill="none" transform="translate(4.133512020111084,4.307878494262695)" d="M 0 0"/></g><g id="j_349" model-id="82175138-59da-4e04-b670-199634a5c3f0" class="element tp Element" transform="translate(320,377)"><g class="rotatable" id="v-6726"><g class="scalable" id="v-6736">
<path class="ui-fill ui-stroke js-perimeter" d="M94.48613697851009,0H0v94.48613697851009h94.48613697851009V0L94.48613697851009,0z" id="v-6733" stroke="#000000" stroke-dasharray="none" fill="#FFFFFF"/>
<rect class="ui-interior-label" x="4.133512071465432" y="4.307878585646357" width="86.22936968935457" height="85.87037980721738" id="v-6734" fill="none"/>
<circle class="js-number-connector-1 js-link-connector" fill="none" cx="47.243068489255045" cy="0" r="0.1" id="v-6737"/>
<circle class="js-number-connector-2 js-link-connector" fill="none" cx="70.6594656583756" cy="0" r="0.1" id="v-6738"/>
<circle class="js-number-connector-3 js-link-connector" fill="none" cx="94.48613697851009" cy="23.82667132013449" r="0.1" id="v-6739"/>
<circle class="js-number-connector-4 js-link-connector" fill="none" cx="94.48613697851009" cy="47.243068489255045" r="0.1" id="v-6740"/>
<circle class="js-number-connector-5 js-link-connector" fill="none" cx="94.48613697851009" cy="70.6594656583756" r="0.1" id="v-6741"/>
<circle class="js-number-connector-6 js-link-connector" fill="none" cx="70.6594656583756" cy="94.48613697851009" r="0.1" id="v-6742"/>
<circle class="js-number-connector-7 js-link-connector" fill="none" cx="47.243068489255045" cy="94.48613697851009" r="0.1" id="v-6735"/>
<circle class="js-number-connector-8 js-link-connector" fill="none" cx="23.83692817390984" cy="94.48613697851009" r="0.1" id="v-6743"/>
<circle class="js-number-connector-9 js-link-connector" fill="none" cx="0" cy="70.6594656583756" r="0.1" id="v-6744"/>
<circle class="js-number-connector-10 js-link-connector" fill="none" cx="0" cy="47.243068489255045" r="0.1" id="v-6745"/>
<circle class="js-number-connector-11 js-link-connector" fill="none" cx="0" cy="23.82667132013449" r="0.1" id="v-6746"/>
<circle class="js-number-connector-12 js-link-connector" fill="none" cx="23.83692817390984" cy="0" r="0.1" id="v-6747"/>
</g></g><rect class="ui-number-box" id="v-6727" stroke="none" stroke-width="1" fill="#FFFFFF" x="0" y="0" width="40" height="20" transform="translate(27.143070220947255,144.38613891601562)"/><path class="ui-number-leadline" id="v-6728" stroke="#000000" fill="none" d="M47.24307060241699,94.48613739013672 C26.036949931163573,115.62157207108496 68.36588703520432,123.25070423506733 47.15976636395095 144.38613891601562"/><text class="ui-number-label" id="v-6729" font-family="OpenSansCondensedLight" font-size="14pt" fill="black" transform="translate(27.143070220947266,144.38613891601562)" text-anchor="middle"><tspan x="20.000001907348633" y="16.30001125">410</tspan></text><rect class="ui-label-box" id="v-6730" stroke-width="0" fill="none" width="86.22937250137329" height="85.87037467956543" transform="translate(4.133512020111084,4.307878494262695)"/><text class="ui-label" id="v-6731" font-family="OpenSansCondensedLight" font-size="14pt" fill="black" transform="translate(4.133512020111084,4.307878494262695)" text-anchor="middle"><tspan x="43.11468505859375" y="38.73518079345703">STORAGE</tspan><tspan x="43.11468505859375" y="59.73521829345703">DEVICES</tspan></text><path class="ui-number-underline" id="v-6732" stroke="#000000" fill="none" transform="translate(4.133512020111084,4.307878494262695)" d="M 0 0"/></g><g id="j_350" model-id="1b16b806-be07-c3a2-8fe3-1b5c111e966b" class="element tp Element" transform="translate(551.5118083953857,377)"><g class="rotatable" id="v-6748"><g class="scalable" id="v-6758">
<path class="ui-fill ui-stroke js-perimeter" d="M94.48613697851009,0H0v94.48613697851009h94.48613697851009V0L94.48613697851009,0z" id="v-6755" stroke="#000000" stroke-dasharray="none" fill="#FFFFFF"/>
<rect class="ui-interior-label" x="4.133512071465432" y="4.307878585646357" width="86.22936968935457" height="85.87037980721738" id="v-6756" fill="none"/>
<circle class="js-number-connector-1 js-link-connector" fill="none" cx="47.243068489255045" cy="0" r="0.1" id="v-6759"/>
<circle class="js-number-connector-2 js-link-connector" fill="none" cx="70.6594656583756" cy="0" r="0.1" id="v-6760"/>
<circle class="js-number-connector-3 js-link-connector" fill="none" cx="94.48613697851009" cy="23.82667132013449" r="0.1" id="v-6761"/>
<circle class="js-number-connector-4 js-link-connector" fill="none" cx="94.48613697851009" cy="47.243068489255045" r="0.1" id="v-6762"/>
<circle class="js-number-connector-5 js-link-connector" fill="none" cx="94.48613697851009" cy="70.6594656583756" r="0.1" id="v-6763"/>
<circle class="js-number-connector-6 js-link-connector" fill="none" cx="70.6594656583756" cy="94.48613697851009" r="0.1" id="v-6764"/>
<circle class="js-number-connector-7 js-link-connector" fill="none" cx="47.243068489255045" cy="94.48613697851009" r="0.1" id="v-6757"/>
<circle class="js-number-connector-8 js-link-connector" fill="none" cx="23.83692817390984" cy="94.48613697851009" r="0.1" id="v-6765"/>
<circle class="js-number-connector-9 js-link-connector" fill="none" cx="0" cy="70.6594656583756" r="0.1" id="v-6766"/>
<circle class="js-number-connector-10 js-link-connector" fill="none" cx="0" cy="47.243068489255045" r="0.1" id="v-6767"/>
<circle class="js-number-connector-11 js-link-connector" fill="none" cx="0" cy="23.82667132013449" r="0.1" id="v-6768"/>
<circle class="js-number-connector-12 js-link-connector" fill="none" cx="23.83692817390984" cy="0" r="0.1" id="v-6769"/>
</g></g><rect class="ui-number-box" id="v-6749" stroke="none" stroke-width="1" fill="#FFFFFF" x="0" y="0" width="40" height="20" transform="translate(27.143070220947255,144.38613891601562)"/><path class="ui-number-leadline" id="v-6750" stroke="#000000" fill="none" d="M47.24307060241699,94.48613739013672 C26.036949931163573,115.62157207108496 68.36588703520432,123.25070423506733 47.15976636395095 144.38613891601562"/><text class="ui-number-label" id="v-6751" font-family="OpenSansCondensedLight" font-size="14pt" fill="black" transform="translate(27.143070220947266,144.38613891601562)" text-anchor="middle"><tspan x="20.000001907348633" y="16.30001125">412</tspan></text><rect class="ui-label-box" id="v-6752" stroke-width="0" fill="none" width="86.22937250137329" height="85.87037467956543" transform="translate(4.133512020111084,4.307878494262695)"/><text class="ui-label" id="v-6753" font-family="OpenSansCondensedLight" font-size="14pt" fill="black" transform="translate(4.133512020111084,4.307878494262695)" text-anchor="middle"><tspan x="43.11468505859375" y="38.73518079345703">NETWORK</tspan><tspan x="43.11468505859375" y="59.73521829345703">INTERFACE</tspan></text><path class="ui-number-underline" id="v-6754" stroke="#000000" fill="none" transform="translate(4.133512020111084,4.307878494262695)" d="M 0 0"/></g><g id="j_362" model-id="0d95bf5d-abb2-a721-056a-7d87db7f2d1a" class="tp Link link"><path class="connection" stroke="black" id="v-6940" stroke-dasharray="none" d="M 158 247 L 270.5644171779141 247 C 273.5644171779141 253.75 277.5644171779141 253.75 280.5644171779141 247 L 312 247"/><path class="marker-source" fill="black" stroke="black" id="v-6941" d="" transform="translate(158,247) scale(1,1) rotate(0)"/><path class="marker-target" fill="black" stroke="black" id="v-6942" d="M 8 0 L 0 4 L 8 8 z" transform="translate(320,251) scale(1,1) rotate(-180)"/><g class="labels" id="v-6944"><g class="js-link-label" id="v-6952" label-idx="0" cursor="move" transform="translate(237.48231506347656, 247)"><rect fill="white" rx="3" ry="3" x="0" y="0" width="0" height="0"/><text class="ui-link-label" text-anchor="middle" font-size="14pt" font-family="OpenSansCondensedLight" id="v-6953" y="0.8em" display="none" xml:space="preserve" transform="translate(0,0)"/></g></g></g><g id="j_353" model-id="ea094619-3521-ed77-a1bf-fb6616538ed4" class="tp Link link"><path class="connection" stroke="black" id="v-6814" stroke-dasharray="none" d="M 414 247 544 247"/><path class="marker-source" fill="black" stroke="black" id="v-6815" d="" transform="translate(414,247) scale(1,1) rotate(0)"/><path class="marker-target" fill="black" stroke="black" id="v-6816" d="M 8 0 L 0 4 L 8 8 z" transform="translate(552,251) scale(1,1) rotate(-180)"/><g class="labels" id="v-6818"><g class="js-link-label" id="v-6826" label-idx="0" cursor="move" transform="translate(479, 247)"><rect fill="white" rx="3" ry="3" x="0" y="0" width="0" height="0"/><text class="ui-link-label" text-anchor="middle" font-size="14pt" font-family="OpenSansCondensedLight" id="v-6827" y="0.8em" display="none" xml:space="preserve" transform="translate(0,0)"/></g></g></g><g id="j_361" model-id="146c7e4c-1246-20d3-d1b1-8915deb69bea" class="tp Link link"><path class="connection" stroke="black" id="v-6926" stroke-dasharray="none" d="M 367 119 367 192"/><path class="marker-source" fill="black" stroke="black" id="v-6927" d="" transform="translate(367,119) scale(1,1) rotate(-270)"/><path class="marker-target" fill="black" stroke="black" id="v-6928" d="M 8 0 L 0 4 L 8 8 z" transform="translate(363,200) scale(1,1) rotate(-90)"/><g class="labels" id="v-6930"><g class="js-link-label" id="v-6938" label-idx="0" cursor="move" transform="translate(367, 155.5)"><rect fill="white" rx="3" ry="3" x="0" y="0" width="0" height="0"/><text class="ui-link-label" text-anchor="middle" font-size="14pt" font-family="OpenSansCondensedLight" id="v-6939" y="0.8em" display="none" xml:space="preserve" transform="translate(0,0)"/></g></g></g><g id="j_360" model-id="1c9c2868-d48f-7a8f-fdec-c51f732d0191" class="tp Link link"><path class="connection" stroke="black" id="v-6912" stroke-dasharray="none" d="M 367 294 367 369"/><path class="marker-source" fill="black" stroke="black" id="v-6913" d="" transform="translate(367,294) scale(1,1) rotate(-270)"/><path class="marker-target" fill="black" stroke="black" id="v-6914" d="M 8 0 L 0 4 L 8 8 z" transform="translate(363,377) scale(1,1) rotate(-90)"/><g class="labels" id="v-6916"><g class="js-link-label" id="v-6924" label-idx="0" cursor="move" transform="translate(367, 331.5)"><rect fill="white" rx="3" ry="3" x="0" y="0" width="0" height="0"/><text class="ui-link-label" text-anchor="middle" font-size="14pt" font-family="OpenSansCondensedLight" id="v-6925" y="0.8em" display="none" xml:space="preserve" transform="translate(0,0)"/></g></g></g><g id="j_359" model-id="2e99fda0-c791-ac14-9f7f-71e9d3fff0e8" class="tp Link link"><path class="connection" stroke="black" id="v-6898" stroke-dasharray="none" d="M 367 377 367 303"/><path class="marker-source" fill="black" stroke="black" id="v-6899" d="" transform="translate(367,377) scale(1,1) rotate(-90)"/><path class="marker-target" fill="black" stroke="black" id="v-6900" d="M 8 0 L 0 4 L 8 8 z" transform="translate(371,295) scale(1,1) rotate(-270)"/><g class="labels" id="v-6902"><g class="js-link-label" id="v-6910" label-idx="0" cursor="move" transform="translate(367, 340)"><rect fill="white" rx="3" ry="3" x="0" y="0" width="0" height="0"/><text class="ui-link-label" text-anchor="middle" font-size="14pt" font-family="OpenSansCondensedLight" id="v-6911" y="0.8em" display="none" xml:space="preserve" transform="translate(0,0)"/></g></g></g><g id="j_358" model-id="5bbfa980-ee3d-3ad7-53ed-ee0601aa7488" class="tp Link link"><path class="connection" stroke="black" id="v-6884" stroke-dasharray="none" d="M 367 200 367 123"/><path class="marker-source" fill="black" stroke="black" id="v-6885" d="" transform="translate(367,200) scale(1,1) rotate(-90)"/><path class="marker-target" fill="black" stroke="black" id="v-6886" d="M 8 0 L 0 4 L 8 8 z" transform="translate(371,115) scale(1,1) rotate(-270)"/><g class="labels" id="v-6888"><g class="js-link-label" id="v-6896" label-idx="0" cursor="move" transform="translate(367, 161.5)"><rect fill="white" rx="3" ry="3" x="0" y="0" width="0" height="0"/><text class="ui-link-label" text-anchor="middle" font-size="14pt" font-family="OpenSansCondensedLight" id="v-6897" y="0.8em" display="none" xml:space="preserve" transform="translate(0,0)"/></g></g></g><g id="j_357" model-id="75acd700-825f-39f8-dc6e-db3631d8b71f" class="tp Link link"><path class="connection" stroke="black" id="v-6870" stroke-dasharray="none" d="M 414 271 546 396"/><path class="marker-source" fill="black" stroke="black" id="v-6871" d="" transform="translate(414,271) scale(1,1) rotate(43.29019165039065)"/><path class="marker-target" fill="black" stroke="black" id="v-6872" d="M 8 0 L 0 4 L 8 8 z" transform="translate(549.2572255171731,403.91156829714095) scale(1,1) rotate(-136.70980834960938)"/><g class="labels" id="v-6874"><g class="js-link-label" id="v-6882" label-idx="0" cursor="move" transform="translate(480, 333.5)"><rect fill="white" rx="3" ry="3" x="0" y="0" width="0" height="0"/><text class="ui-link-label" text-anchor="middle" font-size="14pt" font-family="OpenSansCondensedLight" id="v-6883" y="0.8em" display="none" xml:space="preserve" transform="translate(0,0)"/></g></g></g><g id="j_356" model-id="7fdc5a52-5e69-5ff7-e01b-c8002da77ec8" class="tp Link link"><path class="connection" stroke="black" id="v-6856" stroke-dasharray="none" d="M 552 401 420 276"/><path class="marker-source" fill="black" stroke="black" id="v-6857" d="" transform="translate(552,401) scale(1,1) rotate(-136.70980834960938)"/><path class="marker-target" fill="black" stroke="black" id="v-6858" d="M 8 0 L 0 4 L 8 8 z" transform="translate(416.742774482827,268.08843170285905) scale(1,1) rotate(43.29019165039065)"/><g class="labels" id="v-6860"><g class="js-link-label" id="v-6868" label-idx="0" cursor="move" transform="translate(486, 338.5)"><rect fill="white" rx="3" ry="3" x="0" y="0" width="0" height="0"/><text class="ui-link-label" text-anchor="middle" font-size="14pt" font-family="OpenSansCondensedLight" id="v-6869" y="0.8em" display="none" xml:space="preserve" transform="translate(0,0)"/></g></g></g><g id="j_355" model-id="809c3e72-a74d-4091-b662-3f0f88588552" class="tp Link link"><path class="connection" stroke="black" id="v-6842" stroke-dasharray="5,5" d="M 321 201 160 364"/><path class="marker-source" fill="black" stroke="black" id="v-6843" d="" transform="translate(321,201) scale(1,1) rotate(-225.35366821289062)"/><path class="marker-target" fill="black" stroke="black" id="v-6844" d="" transform="translate(160,364) scale(1,1) rotate(-45.3536720275879)"/><g class="labels" id="v-6846"><g class="js-link-label" id="v-6854" label-idx="0" cursor="move" transform="translate(240.5, 282.5)"><rect fill="white" rx="3" ry="3" x="0" y="0" width="0" height="0"/><text class="ui-link-label" text-anchor="middle" font-size="14pt" font-family="OpenSansCondensedLight" id="v-6855" y="0.8em" display="none" xml:space="preserve" transform="translate(0,0)"/></g></g></g><g id="j_354" model-id="c6508b78-3bb6-4cc6-8340-dc07be9d1339" class="tp Link link"><path class="connection" stroke="black" id="v-6828" stroke-dasharray="5,5" d="M 322 471 158 437"/><path class="marker-source" fill="black" stroke="black" id="v-6829" d="" transform="translate(322,471) scale(1,1) rotate(-168.2875213623047)"/><path class="marker-target" fill="black" stroke="black" id="v-6830" d="" transform="translate(158,437) scale(1,1) rotate(11.71246337890625)"/><g class="labels" id="v-6832"><g class="js-link-label" id="v-6840" label-idx="0" cursor="move" transform="translate(240, 454)"><rect fill="white" rx="3" ry="3" x="0" y="0" width="0" height="0"/><text class="ui-link-label" text-anchor="middle" font-size="14pt" font-family="OpenSansCondensedLight" id="v-6841" y="0.8em" display="none" xml:space="preserve" transform="translate(0,0)"/></g></g></g><g id="j_352" model-id="0aeeb9be-4139-4f39-9af8-842809839b17" class="element tp Element" transform="translate(76.48819160461426,364.0312500000001)"><g class="rotatable" id="v-6792"><g class="scalable" id="v-6802">
<path class="ui-fill ui-stroke js-perimeter" d="M82.99819518223653,0H0v71.99843437495217h82.99819518223653V0L82.99819518223653,0z" id="v-6799" stroke="#000000" stroke-dasharray="none" fill="#FFFFFF"/>
<rect class="ui-interior-label" x="3.6309457944465175" y="3.282603390955266" width="75.74531338439671" height="65.43322759304164" id="v-6800" fill="none"/>
<circle class="js-number-connector-1 js-link-connector" fill="none" cx="41.499097591118264" cy="0" r="0.1" id="v-6803"/>
<circle class="js-number-connector-2 js-link-connector" fill="none" cx="62.068450565613055" cy="0" r="0.1" id="v-6804"/>
<circle class="js-number-connector-3 js-link-connector" fill="none" cx="82.99819518223653" cy="18.15592304092639" r="0.1" id="v-6805"/>
<circle class="js-number-connector-4 js-link-connector" fill="none" cx="82.99819518223653" cy="35.999217187476084" r="0.1" id="v-6801"/>
<circle class="js-number-connector-5 js-link-connector" fill="none" cx="82.99819518223653" cy="53.84251133402578" r="0.1" id="v-6806"/>
<circle class="js-number-connector-6 js-link-connector" fill="none" cx="62.068450565613055" cy="71.99843437495217" r="0.1" id="v-6807"/>
<circle class="js-number-connector-7 js-link-connector" fill="none" cx="41.499097591118264" cy="71.99843437495217" r="0.1" id="v-6808"/>
<circle class="js-number-connector-8 js-link-connector" fill="none" cx="20.938754407676694" cy="71.99843437495217" r="0.1" id="v-6809"/>
<circle class="js-number-connector-9 js-link-connector" fill="none" cx="0" cy="53.84251133402578" r="0.1" id="v-6810"/>
<circle class="js-number-connector-10 js-link-connector" fill="none" cx="0" cy="35.999217187476084" r="0.1" id="v-6811"/>
<circle class="js-number-connector-11 js-link-connector" fill="none" cx="0" cy="18.15592304092639" r="0.1" id="v-6812"/>
<circle class="js-number-connector-12 js-link-connector" fill="none" cx="20.938754407676694" cy="0" r="0.1" id="v-6813"/>
</g></g><rect class="ui-number-box" id="v-6793" stroke="none" stroke-width="0" fill="#FFFFFF" x="0" y="0" width="0" height="0" transform="translate(82.898193359375,35.89921569824219)"/><path class="ui-number-leadline" id="v-6794" stroke="#000000" fill="none" d=""/><text class="ui-number-label" id="v-6795" font-family="OpenSansCondensedLight" font-size="14pt" fill="black" transform="translate(82.898193359375,35.89921569824219)"/><rect class="ui-label-box" id="v-6796" stroke-width="0" fill="none" width="75.74531292915344" height="65.43322443962097" transform="translate(3.630945920944214,3.2826035022735596)"/><text class="ui-label" id="v-6797" font-family="OpenSansCondensedLight" font-size="14pt" fill="black" transform="translate(3.630945920944214,3.2826035022735596)" text-anchor="middle"><tspan x="37.872657775878906" y="39.01662120483398"> 414</tspan></text><path class="ui-number-underline" id="v-6798" stroke="#000000" fill="none" transform="translate(3.630945920944214,3.2826035022735596)" d="M 23.874666213989258 41 51.870649337768555 41"/></g></g><defs id="v-6601"/></svg>