<svg xmlns="http://www.w3.org/2000/svg" xmlns:xlink="http://www.w3.org/1999/xlink" version="1.1" id="v-1527" width="664" height="867"><g id="v-1528" class="viewport"><g id="j_79" model-id="fd7e7dbc-ac64-4d3c-a4bc-95b0731ac2f3" class="element tp Element" transform="translate(-19,51.00000000000102)"><g class="rotatable" id="v-1530"><g class="scalable" id="v-1540">
<path class="ui-fill ui-stroke js-perimeter" d="M682.985148306838,0H0v473.9896929684351h682.985148306838V0L682.985148306838,0z" id="v-1537" stroke="#000000" stroke-dasharray="none" fill="#FFFFFF"/>
<rect class="ui-interior-label" x="29.878746718156282" y="21.610472323788834" width="623.3017956812405" height="430.76874832085747" id="v-1538" fill="none"/>
<circle class="js-number-connector-1 js-link-connector" fill="none" cx="341.492574153419" cy="0" r="0.1" id="v-1541"/>
<circle class="js-number-connector-2 js-link-connector" fill="none" cx="510.7560450158279" cy="0" r="0.1" id="v-1539"/>
<circle class="js-number-connector-3 js-link-connector" fill="none" cx="682.985148306838" cy="119.52649335276539" r="0.1" id="v-1542"/>
<circle class="js-number-connector-4 js-link-connector" fill="none" cx="682.985148306838" cy="236.99484648421756" r="0.1" id="v-1543"/>
<circle class="js-number-connector-5 js-link-connector" fill="none" cx="682.985148306838" cy="354.4631996156697" r="0.1" id="v-1544"/>
<circle class="js-number-connector-6 js-link-connector" fill="none" cx="510.7560450158279" cy="473.9896929684351" r="0.1" id="v-1545"/>
<circle class="js-number-connector-7 js-link-connector" fill="none" cx="341.492574153419" cy="473.9896929684351" r="0.1" id="v-1546"/>
<circle class="js-number-connector-8 js-link-connector" fill="none" cx="172.30324410172508" cy="473.9896929684351" r="0.1" id="v-1547"/>
<circle class="js-number-connector-9 js-link-connector" fill="none" cx="0" cy="354.4631996156697" r="0.1" id="v-1548"/>
<circle class="js-number-connector-10 js-link-connector" fill="none" cx="0" cy="236.99484648421756" r="0.1" id="v-1549"/>
<circle class="js-number-connector-11 js-link-connector" fill="none" cx="0" cy="119.52649335276539" r="0.1" id="v-1550"/>
<circle class="js-number-connector-12 js-link-connector" fill="none" cx="172.30324410172508" cy="0" r="0.1" id="v-1551"/>
</g></g><rect class="ui-number-box" id="v-1531" stroke="none" stroke-width="0" fill="#FFFFFF" x="0" y="0" width="0" height="0" transform="translate(510.6560363769531,-0.10000000149011612)"/><path class="ui-number-leadline" id="v-1532" stroke="#000000" fill="none" d=""/><text class="ui-number-label" id="v-1533" font-family="OpenSansCondensedLight" font-size="14pt" fill="black" transform="translate(510.65606689453125,-0.10000000149011612)"/><rect class="ui-label-box" id="v-1534" stroke-width="0" fill="none" width="623.301794052124" height="430.7687397003174" transform="translate(29.878747940063477,21.610471725463867)"/><text class="ui-label" id="v-1535" font-family="OpenSansCondensedLight" font-size="14pt" fill="black" transform="translate(29.878747940063477,21.610471725463867)" text-anchor="middle"><tspan x="311.6509094238281" y="221.68438014648436"> </tspan></text><path class="ui-number-underline" id="v-1536" stroke="#000000" fill="none" transform="translate(29.878747940063477,21.610471725463867)" d="M 0 0"/></g><g id="j_85" model-id="a877bef7-b2ee-4fa7-af7e-8edb13fdbeda" class="element tp Element" transform="translate(572.6508340835571,13.326771259307897)"><polygon class="ui-arrowhead" fill="#000000" points="0,0 4.2,11.2 11.8,2" id="v-1682" transform="translate(-5.900000095367432,19)"/>
<rect class="ui-label-anchor" fill="none" width="1" height="1" id="v-1684" transform="translate(33,-0.5)"/>
<g class="rotatable" id="v-1686"><g class="scalable" id="v-1694">
<rect x="0" y="0" width="28" height="19.999999600555267" opacity="0" id="v-1695"/>
<path class="ui-stem" fill="none" stroke="#000000" stroke-width="1" d="M28,0C16.476923076923075,1.5706805969022462,6.892307692307693,9.424083581413477,0,19.999999600555267" id="v-1693"/>
</g></g><rect class="ui-number-box" id="v-1687" stroke="none" stroke-width="0" fill="#FFFFFF" x="0" y="0" width="0" height="0"/><path class="ui-number-leadline" id="v-1688" stroke="#000000" fill="none"/><text class="ui-number-label" id="v-1689" font-family="OpenSansCondensedLight" font-size="14pt" fill="black" transform="translate(0,0)"/><rect class="ui-label-box" id="v-1690" stroke-width="0" fill="none" width="1" height="1" transform="translate(33,-0.5)"/><text class="ui-label" id="v-1691" font-family="OpenSansCondensedLight" font-size="14pt" fill="black" text-decoration="none" transform="translate(33,-0.5)"><tspan x="0" y="6.800011250000001">500</tspan></text><path class="ui-number-underline" id="v-1692" stroke="#000000" fill="none" transform="translate(33,-0.5)"/></g><g id="j_80" model-id="a2a80621-ebb3-47a6-a520-9c24d87f9c9a" class="element tp Element" transform="translate(66.99999999999987,4.000000000000014)"><g class="rotatable" id="v-1552"><g class="scalable" id="v-1562">
<g class="ui-fill ui-stroke" id="v-1559" stroke="#000000" stroke-dasharray="none" fill="#FFFFFF">
    <ellipse id="v-1564" cx="9.467051163726078" cy="5.483107410419696" rx="1.2414840245781247" ry="1.1914888399573182"/>
    <polygon class="js-perimeter" points="18.99882424342542,43.0065355692651 9.467051163726078,46.998870213103125 0,43.0065355692651 9.467051163726078,6.674596250377014" id="v-1566"/>
</g>
<g class="ui-stroke" fill="none" id="v-1560" stroke="#000000" stroke-dasharray="none">
    <line x1="9.467051163726078" y1="6.674596250377014" x2="9.467051163726078" y2="46.998870213103125" id="v-1567"/>
    <ellipse id="v-1568" cx="9.467051163726078" cy="5.483107410419696" rx="1.2414840245781247" ry="1.1914888399573182"/>
    <line x1="9.467051163726078" y1="6.674596250377014" x2="0" y2="43.0065355692651" id="v-1570"/>
    <line x1="9.467051163726078" y1="6.674596250377014" x2="18.99882424342542" y2="43.0065355692651" id="v-1571"/>
    <polygon points="9.467051163726078,13.473423564635835 7.8784223171095205,12.75062464750533 9.467051163726078,12.02217886383474 11.049796199799612,12.784505846745821" id="v-1572"/>
    <polygon points="9.467051163726078,15.455473720204644 7.401833663124553,14.563268806871674 9.467051163726078,13.608948361597804 11.52638485378458,14.597150006112168" id="v-1573"/>
    <polygon points="9.467051163726078,18.069972928262644 6.813452608822124,16.878484088305324 9.467051163726078,15.68699524834801 12.150068771345152,16.91236528754582" id="v-1574"/>
    <polygon points="9.467051163726078,21.339508654970167 6.0250219960568705,19.916498286869484 9.467051163726078,18.329728789106422 12.938499384110408,19.950379486109977" id="v-1575"/>
    <polygon points="9.467051163726078,25.66500842467304 5.024774203742742,23.750720667585217 9.467051163726078,21.734789312775913 13.938747176424537,23.778955000285627" id="v-1576"/>
    <polygon points="9.467051163726078,31.080353436611748 3.753871126449495,28.669141423996702 9.467051163726078,26.060289082478782 15.209650253717783,28.60137902551572" id="v-1577"/>
    <polygon points="9.467051163726078,38.08246794631352 2.100520363859671,34.97669134926838 9.467051163726078,31.645040090619958 16.863001016307607,34.88069461808699" id="v-1578"/>
    <polygon points="9.467051163726078,46.998870213103125 0,43.0065355692651 9.467051163726078,38.81091372998411 18.99882424342542,43.0065355692651" id="v-1579"/>
    <path class="js-perimeter" d="M12.114765908087007,10.373293834130774c1.823981268337529,-0.959967311813953,3.0654652929156536,-2.7726114711802996,3.0654652929156536,-4.856305224470586C15.18023120100266,2.4789744110960314,12.632541235873143,0,9.467051163726078,0S3.7185682631913495,2.4789744110960314,3.7185682631913495,5.5169886096601894c0,2.145809285231189,1.2414840245781247,3.9979815103781102,3.0654652929156536,4.856305224470586" id="v-1580"/>
    <path d="M11.702899170075307,8.684880738646235c1.0649697082873961,-0.7284457836705879,1.7533755418212376,-1.8182910259064289,1.7533755418212376,-3.173538995526127c0,-2.0836937532902864,-1.7533755418212376,-3.8342223807157305,-3.9951073587134913,-3.8342223807157305S5.471943805012587,3.4332948563699026,5.471943805012587,5.5169886096601894c0,1.3552479696196984,0.759011560050133,2.4789744110960314,1.823981268337529,3.173538995526127" id="v-1581"/>
    <path d="M11.291032432063608,7.1037581074232525c0.4118667380117001,-0.3952806578057454,0.6531029702756959,-0.959967311813953,0.6531029702756959,-1.5867694977630635c0,-1.2874855711387134,-1.0649697082873961,-2.3095684148935693,-2.406478512096933,-2.3095684148935693S7.060572651629144,4.229503038521476,7.060572651629144,5.5169886096601894c0,0.6268021859491105,0.24123623226399574,1.1914888399573182,0.6531029702756959,1.682766228944459" id="v-1582"/>
</g>
<rect class="ui-interior-label" x="1.170878298061833" y="17.222942947250335" width="17.1042372485716" height="15.96369170881203" id="v-1561" fill="none"/>
<circle class="js-number-connector-1 js-link-connector" fill="none" cx="9.431748300467932" cy="0" r="0.1" id="v-1583"/>
<circle class="js-number-connector-2 js-link-connector" fill="none" cx="15.18023120100266" cy="5.5169886096601894" r="0.1" id="v-1584"/>
<circle class="js-number-connector-3 js-link-connector" fill="none" cx="11.532268664327603" cy="14.597150006112168" r="0.1" id="v-1563"/>
<circle class="js-number-connector-4 js-link-connector" fill="none" cx="13.938747176424537" cy="23.778955000285627" r="0.1" id="v-1585"/>
<circle class="js-number-connector-5 js-link-connector" fill="none" cx="16.863001016307607" cy="34.88069461808699" r="0.1" id="v-1586"/>
<circle class="js-number-connector-6 js-link-connector" fill="none" cx="18.99882424342542" cy="43.0065355692651" r="0.1" id="v-1587"/>
<circle class="js-number-connector-7 js-link-connector" fill="none" cx="9.467051163726078" cy="46.998870213103125" r="0.1" id="v-1588"/>
<circle class="js-number-connector-8 js-link-connector" fill="none" cx="0" cy="43.0065355692651" r="0.1" id="v-1589"/>
<circle class="js-number-connector-9 js-link-connector" fill="none" cx="2.100520363859671" cy="34.97669134926838" r="0.1" id="v-1590"/>
<circle class="js-number-connector-10 js-link-connector" fill="none" cx="5.024774203742742" cy="23.716839468344723" r="0.1" id="v-1591"/>
<circle class="js-number-connector-11 js-link-connector" fill="none" cx="7.401833663124553" cy="14.568915673411757" r="0.1" id="v-1592"/>
<circle class="js-number-connector-12 js-link-connector" fill="none" cx="3.7185682631913495" cy="5.5169886096601894" r="0.1" id="v-1593"/>
</g></g><rect class="ui-number-box" id="v-1553" stroke="none" stroke-width="1" fill="#FFFFFF" x="0" y="0" width="40" height="20" transform="translate(51.432268142700195,4.497149467468262)"/><path class="ui-number-leadline" id="v-1554" stroke="#000000" fill="none" d="M11.532268047332764,14.59714937210083 C28.488662432095353,31.497022896155137 34.47586803589172,-2.369334625095707 51.4322624206543 14.530538898958618"/><text class="ui-number-label" id="v-1555" font-family="OpenSansCondensedLight" font-size="14pt" fill="black" transform="translate(51.4322624206543,4.49714994430542)" text-anchor="middle"><tspan x="20.000001907348633" y="16.30001148841858">502</tspan></text><rect class="ui-label-box" id="v-1556" stroke-width="0" fill="none" width="57.59647064656019" transform="translate(-19.298825073987246,57.098873138427734)"/><text class="ui-label" id="v-1557" font-family="OpenSansCondensedLight" font-size="14pt" fill="black" transform="translate(-19.298826217651367,57.098873138427734)" text-anchor="middle"><tspan x="28.798236846923828" y="16.80003"> </tspan></text><path class="ui-number-underline" id="v-1558" stroke="#000000" fill="none" transform="translate(-19.298826217651367,57.098873138427734)" d="M 0 0"/></g><g id="j_81" model-id="9b551e9d-e83e-4bf3-ad34-521334c89553" class="element tp Element" transform="translate(217.9999999999995,150.0000000000002)"><g class="rotatable" id="v-1594"><g class="scalable" id="v-1604">
<path class="ui-fill ui-stroke js-perimeter" d="M93.9979559895209,0H0v215.99530312485652h93.9979559895209V0L93.9979559895209,0z" id="v-1601" stroke="#000000" stroke-dasharray="none" fill="#FFFFFF"/>
<rect class="ui-interior-label" x="4.112155478047863" y="9.847810172865799" width="85.78384889317219" height="196.29968277912494" id="v-1602" fill="none"/>
<circle class="js-number-connector-1 js-link-connector" fill="none" cx="46.99897799476045" cy="0" r="0.1" id="v-1605"/>
<circle class="js-number-connector-2 js-link-connector" fill="none" cx="70.29438979720032" cy="0" r="0.1" id="v-1603"/>
<circle class="js-number-connector-3 js-link-connector" fill="none" cx="93.9979559895209" cy="54.46776912277917" r="0.1" id="v-1606"/>
<circle class="js-number-connector-4 js-link-connector" fill="none" cx="93.9979559895209" cy="107.99765156242826" r="0.1" id="v-1607"/>
<circle class="js-number-connector-5 js-link-connector" fill="none" cx="93.9979559895209" cy="161.52753400207735" r="0.1" id="v-1608"/>
<circle class="js-number-connector-6 js-link-connector" fill="none" cx="70.29438979720032" cy="215.99530312485652" r="0.1" id="v-1609"/>
<circle class="js-number-connector-7 js-link-connector" fill="none" cx="46.99897799476045" cy="215.99530312485652" r="0.1" id="v-1610"/>
<circle class="js-number-connector-8 js-link-connector" fill="none" cx="23.71377005206758" cy="215.99530312485652" r="0.1" id="v-1611"/>
<circle class="js-number-connector-9 js-link-connector" fill="none" cx="0" cy="161.52753400207735" r="0.1" id="v-1612"/>
<circle class="js-number-connector-10 js-link-connector" fill="none" cx="0" cy="107.99765156242826" r="0.1" id="v-1613"/>
<circle class="js-number-connector-11 js-link-connector" fill="none" cx="0" cy="54.46776912277917" r="0.1" id="v-1614"/>
<circle class="js-number-connector-12 js-link-connector" fill="none" cx="23.71377005206758" cy="0" r="0.1" id="v-1615"/>
</g></g><rect class="ui-number-box" id="v-1595" stroke="none" stroke-width="1" fill="#FFFFFF" x="0" y="0" width="40" height="20" transform="translate(80.19438934326172,-62.06152422855643)"/><path class="ui-number-leadline" id="v-1596" stroke="#000000" fill="none" d="M70.29438781738281,0 C98.38844155793286,-7.596332399081713 66.35713034254019,-34.46519103841834 94.45118408309027 -42.0615234375"/><text class="ui-number-label" id="v-1597" font-family="OpenSansCondensedLight" font-size="14pt" fill="black" transform="translate(80.19438934326172,-62.0615234375)" text-anchor="middle"><tspan x="20" y="16.30001125">504</tspan></text><rect class="ui-label-box" id="v-1598" stroke-width="0" fill="none" width="85.78384828567505" height="196.29968070983887" transform="translate(4.112155437469482,9.847810745239258)"/><text class="ui-label" id="v-1599" font-family="OpenSansCondensedLight" font-size="14pt" fill="black" transform="translate(4.112155437469482,9.847810745239258)" text-anchor="middle"><tspan x="42.89192581176758" y="93.94983380859375">CONTROL</tspan><tspan x="42.89192581176758" y="114.94987130859374">LOGIC</tspan></text><path class="ui-number-underline" id="v-1600" stroke="#000000" fill="none" transform="translate(4.112155437469482,9.847810745239258)" d="M 0 0"/></g><g id="j_82" model-id="6b9dd079-cb3d-441c-a6d2-a187758514b7" class="element tp Element" transform="translate(16.25590419769256,155.00000000000037)"><g class="rotatable" id="v-1616"><g class="scalable" id="v-1626">
<path class="ui-fill ui-stroke js-perimeter" d="M120.99736888012796,0H0v103.99773854159758h120.99736888012796V0L120.99736888012796,0z" id="v-1623" stroke="#000000" stroke-dasharray="none" fill="#FFFFFF"/>
<rect class="ui-interior-label" x="5.293306519614803" y="4.741538231379829" width="110.42389059653016" height="94.51466207883793" id="v-1624" fill="none"/>
<circle class="js-number-connector-1 js-link-connector" fill="none" cx="60.49868444006398" cy="0" r="0.1" id="v-1627"/>
<circle class="js-number-connector-2 js-link-connector" fill="none" cx="90.48533154746" cy="0" r="0.1" id="v-1628"/>
<circle class="js-number-connector-3 js-link-connector" fill="none" cx="120.99736888012796" cy="26.22522217022701" r="0.1" id="v-1625"/>
<circle class="js-number-connector-4 js-link-connector" fill="none" cx="120.99736888012796" cy="51.99886927079879" r="0.1" id="v-1629"/>
<circle class="js-number-connector-5 js-link-connector" fill="none" cx="120.99736888012796" cy="77.77251637137057" r="0.1" id="v-1630"/>
<circle class="js-number-connector-6 js-link-connector" fill="none" cx="90.48533154746" cy="103.99773854159758" r="0.1" id="v-1631"/>
<circle class="js-number-connector-7 js-link-connector" fill="none" cx="60.49868444006398" cy="103.99773854159758" r="0.1" id="v-1632"/>
<circle class="js-number-connector-8 js-link-connector" fill="none" cx="30.52517208829976" cy="103.99773854159758" r="0.1" id="v-1633"/>
<circle class="js-number-connector-9 js-link-connector" fill="none" cx="0" cy="77.77251637137057" r="0.1" id="v-1634"/>
<circle class="js-number-connector-10 js-link-connector" fill="none" cx="0" cy="51.99886927079879" r="0.1" id="v-1635"/>
<circle class="js-number-connector-11 js-link-connector" fill="none" cx="0" cy="26.22522217022701" r="0.1" id="v-1636"/>
<circle class="js-number-connector-12 js-link-connector" fill="none" cx="30.52517208829976" cy="0" r="0.1" id="v-1637"/>
</g></g><rect class="ui-number-box" id="v-1617" stroke="none" stroke-width="1" fill="#FFFFFF" x="0" y="0" width="40" height="20" transform="translate(152.8588859824374,-13.874776840209961)"/><path class="ui-number-leadline" id="v-1618" stroke="#000000" fill="none" d="M120.99736022949219,26.225223541259766 C144.21808982836447,32.39053684961499 132.40841431718562,-0.040090625402383395 155.6291439160579 6.125222682952881"/><text class="ui-number-label" id="v-1619" font-family="OpenSansCondensedLight" font-size="14pt" fill="black" transform="translate(152.85888671875,-13.874777793884277)" text-anchor="middle"><tspan x="20" y="16.30001148841858">506</tspan></text><rect class="ui-label-box" id="v-1620" stroke-width="0" fill="none" width="110.42388725280762" height="94.51466464996338" transform="translate(5.293306350708008,4.741538047790527)"/><text class="ui-label" id="v-1621" font-family="OpenSansCondensedLight" font-size="14pt" fill="black" transform="translate(5.293306350708008,4.7415385246276855)" text-anchor="middle"><tspan x="55.211944580078125" y="32.55730559814454">WIRELESS</tspan><tspan x="55.211944580078125" y="53.557343098144536">COMMUNICATION</tspan><tspan x="55.211944580078125" y="74.55738059814453">LOGIC</tspan></text><path class="ui-number-underline" id="v-1622" stroke="#000000" fill="none" transform="translate(5.293306350708008,4.7415385246276855)" d="M 0 0"/></g><g id="j_90" model-id="2bfe3d1d-58d6-45b8-9aa0-bdbe28b10f08" class="tp Link link"><path class="connection" stroke="black" id="v-1769" stroke-dasharray="none" d="M 77 51 77 147"/><path class="marker-source" fill="black" stroke="black" id="v-1770" d="" transform="translate(77,51) scale(1,1) rotate(-270)"/><path class="marker-target" fill="black" stroke="black" id="v-1771" d="M 8 0 L 0 4 L 8 8 z" transform="translate(73,155) scale(1,1) rotate(-90)"/><g class="labels" id="v-1773"><g class="js-link-label" id="v-1781" label-idx="0" cursor="move" transform="translate(77, 99)"><rect fill="white" rx="3" ry="3" x="0" y="0" width="0" height="0"/><text class="ui-link-label" text-anchor="middle" font-size="14pt" font-family="OpenSansCondensedLight" id="v-1782" y="0.8em" display="none" xml:space="preserve" transform="translate(0,0)"/></g></g></g><g id="j_95" model-id="ec7427c1-1487-49a8-b816-f94a046b8542" class="tp Link link"><path class="connection" stroke="black" id="v-1842" stroke-dasharray="none" d="M 76 155 76 59"/><path class="marker-source" fill="black" stroke="black" id="v-1843" d="" transform="translate(76,155) scale(1,1) rotate(-90)"/><path class="marker-target" fill="black" stroke="black" id="v-1844" d="M 8 0 L 0 4 L 8 8 z" transform="translate(80,51) scale(1,1) rotate(-270)"/><g class="labels" id="v-1846"><g class="js-link-label" id="v-1854" label-idx="0" cursor="move" transform="translate(76, 107)"><rect fill="white" rx="3" ry="3" x="0" y="0" width="0" height="0"/><text class="ui-link-label" text-anchor="middle" font-size="14pt" font-family="OpenSansCondensedLight" id="v-1855" y="0.8em" display="none" xml:space="preserve" transform="translate(0,0)"/></g></g></g><g id="j_96" model-id="de412374-4bf2-4e3f-b754-c2dbd4cd8f33" class="tp Link link"><path class="connection" stroke="black" id="v-1856" stroke-dasharray="none" d="M 218 207 145 207"/><path class="marker-source" fill="black" stroke="black" id="v-1857" d="" transform="translate(218,207) scale(1,1) rotate(-180)"/><path class="marker-target" fill="black" stroke="black" id="v-1858" d="M 8 0 L 0 4 L 8 8 z" transform="translate(137,203) scale(1,1) rotate(0)"/><g class="labels" id="v-1860"><g class="js-link-label" id="v-1868" label-idx="0" cursor="move" transform="translate(181.5, 207)"><rect fill="white" rx="3" ry="3" x="0" y="0" width="0" height="0"/><text class="ui-link-label" text-anchor="middle" font-size="14pt" font-family="OpenSansCondensedLight" id="v-1869" y="0.8em" display="none" xml:space="preserve" transform="translate(0,0)"/></g></g></g><g id="j_86" model-id="d26981e1-d59e-4088-946b-a7314cc1a5a8" class="element tp Element" transform="translate(402.9999999999998,112.00000000000057)"><g class="rotatable" id="v-1696"><g class="scalable" id="v-1706">
<path class="ui-fill ui-stroke js-perimeter" d="M153.99665130198105,0H0v123.99730364575096h153.99665130198105V0L153.99665130198105,0z" id="v-1703" stroke="#000000" stroke-dasharray="none" fill="#FFFFFF"/>
<rect class="ui-interior-label" x="6.736935570418839" y="5.65337250664518" width="140.53949712285655" height="112.6905586324606" id="v-1704" fill="none"/>
<circle class="js-number-connector-1 js-link-connector" fill="none" cx="76.99832565099052" cy="0" r="0.1" id="v-1707"/>
<circle class="js-number-connector-2 js-link-connector" fill="none" cx="115.1631492422218" cy="0" r="0.1" id="v-1708"/>
<circle class="js-number-connector-3 js-link-connector" fill="none" cx="153.99665130198105" cy="31.268534126039892" r="0.1" id="v-1705"/>
<circle class="js-number-connector-4 js-link-connector" fill="none" cx="153.99665130198105" cy="61.99865182287548" r="0.1" id="v-1709"/>
<circle class="js-number-connector-5 js-link-connector" fill="none" cx="153.99665130198105" cy="92.72876951971107" r="0.1" id="v-1710"/>
<circle class="js-number-connector-6 js-link-connector" fill="none" cx="115.1631492422218" cy="123.99730364575096" r="0.1" id="v-1711"/>
<circle class="js-number-connector-7 js-link-connector" fill="none" cx="76.99832565099052" cy="123.99730364575096" r="0.1" id="v-1712"/>
<circle class="js-number-connector-8 js-link-connector" fill="none" cx="38.85021902147242" cy="123.99730364575096" r="0.1" id="v-1713"/>
<circle class="js-number-connector-9 js-link-connector" fill="none" cx="0" cy="92.72876951971107" r="0.1" id="v-1714"/>
<circle class="js-number-connector-10 js-link-connector" fill="none" cx="0" cy="61.99865182287548" r="0.1" id="v-1715"/>
<circle class="js-number-connector-11 js-link-connector" fill="none" cx="0" cy="31.268534126039892" r="0.1" id="v-1716"/>
<circle class="js-number-connector-12 js-link-connector" fill="none" cx="38.85021902147242" cy="0" r="0.1" id="v-1717"/>
</g></g><rect class="ui-number-box" id="v-1697" stroke="none" stroke-width="1" fill="#FFFFFF" x="0" y="0" width="40" height="20" transform="translate(185.858176448746,-8.831466674804688)"/><path class="ui-number-leadline" id="v-1698" stroke="#000000" fill="none" d="M153.99665069580078,31.26853370666504 C177.217377931444,37.43384505640093 165.40770205337606,5.003221975459413 188.62842928901927 11.168533325195312"/><text class="ui-number-label" id="v-1699" font-family="OpenSansCondensedLight" font-size="14pt" fill="black" transform="translate(185.85816955566406,-8.831466674804688)" text-anchor="middle"><tspan x="20" y="16.30001125">508</tspan></text><rect class="ui-label-box" id="v-1700" stroke-width="0" fill="none" width="140.53950786590576" height="112.69056797027588" transform="translate(6.736935615539551,5.653372764587402)"/><text class="ui-label" id="v-1701" font-family="OpenSansCondensedLight" font-size="14pt" fill="black" transform="translate(6.736935615539551,5.6533732414245605)" text-anchor="middle"><tspan x="70.2697525024414" y="62.645294758300786">MEMORY</tspan></text><path class="ui-number-underline" id="v-1702" stroke="#000000" fill="none" transform="translate(6.736935615539551,5.6533732414245605)" d="M 0 0"/></g><g id="j_88" model-id="f4284669-3684-4ef0-a420-bc081a8a32a9" class="element tp Element" transform="translate(402.5,314.99999999999983)"><g class="rotatable" id="v-1732"><g class="scalable" id="v-1742">
<path class="ui-fill ui-stroke js-perimeter" d="M154.9966295571887,0H0v64.9985865884985h154.9966295571887V0L154.9966295571887,0z" id="v-1739" stroke="#000000" stroke-dasharray="none" fill="#FFFFFF"/>
<rect class="ui-interior-label" x="6.780681905291689" y="2.963461394612393" width="141.45209126001797" height="59.07166379927371" id="v-1740" fill="none"/>
<circle class="js-number-connector-1 js-link-connector" fill="none" cx="77.49831477859435" cy="0" r="0.1" id="v-1743"/>
<circle class="js-number-connector-2 js-link-connector" fill="none" cx="115.91096189963883" cy="0" r="0.1" id="v-1744"/>
<circle class="js-number-connector-3 js-link-connector" fill="none" cx="154.9966295571887" cy="16.39076385639188" r="0.1" id="v-1741"/>
<circle class="js-number-connector-4 js-link-connector" fill="none" cx="154.9966295571887" cy="32.49929329424925" r="0.1" id="v-1745"/>
<circle class="js-number-connector-5 js-link-connector" fill="none" cx="154.9966295571887" cy="48.60782273210661" r="0.1" id="v-1746"/>
<circle class="js-number-connector-6 js-link-connector" fill="none" cx="115.91096189963883" cy="64.9985865884985" r="0.1" id="v-1747"/>
<circle class="js-number-connector-7 js-link-connector" fill="none" cx="77.49831477859435" cy="64.9985865884985" r="0.1" id="v-1748"/>
<circle class="js-number-connector-8 js-link-connector" fill="none" cx="39.1024931709625" cy="64.9985865884985" r="0.1" id="v-1749"/>
<circle class="js-number-connector-9 js-link-connector" fill="none" cx="0" cy="48.60782273210661" r="0.1" id="v-1750"/>
<circle class="js-number-connector-10 js-link-connector" fill="none" cx="0" cy="32.49929329424925" r="0.1" id="v-1751"/>
<circle class="js-number-connector-11 js-link-connector" fill="none" cx="0" cy="16.39076385639188" r="0.1" id="v-1752"/>
<circle class="js-number-connector-12 js-link-connector" fill="none" cx="39.1024931709625" cy="0" r="0.1" id="v-1753"/>
</g></g><rect class="ui-number-box" id="v-1733" stroke="none" stroke-width="1" fill="#FFFFFF" x="0" y="0" width="40" height="20" transform="translate(186.85814593116788,-23.70923614501953)"/><path class="ui-number-leadline" id="v-1734" stroke="#000000" fill="none" d="M154.99662017822266,16.390764236450195 C178.21734741386587,22.55607558618609 166.40767153579793,-9.874547494755433 189.62839877144114 -3.7092361450195312"/><text class="ui-number-label" id="v-1735" font-family="OpenSansCondensedLight" font-size="14pt" fill="black" transform="translate(186.85813903808594,-23.70923614501953)" text-anchor="middle"><tspan x="20" y="16.30001125">510</tspan></text><rect class="ui-label-box" id="v-1736" stroke-width="0" fill="none" width="141.45209121704102" height="59.071664333343506" transform="translate(6.780681610107422,2.963461399078369)"/><text class="ui-label" id="v-1737" font-family="OpenSansCondensedLight" font-size="14pt" fill="black" transform="translate(6.780681610107422,2.963461399078369)" text-anchor="middle"><tspan x="70.72604370117188" y="25.335823951416018">POWER</tspan><tspan x="70.72604370117188" y="46.335861451416015">MANAGER</tspan></text><path class="ui-number-underline" id="v-1738" stroke="#000000" fill="none" transform="translate(6.780681610107422,2.963461399078369)" d="M 0 0"/></g><g id="j_84" model-id="3079b42a-742a-4e33-ab48-361120ade879" class="element tp Element" transform="translate(506.9972915649414,414.0000000000002)"><g class="rotatable" id="v-1660"><g class="scalable" id="v-1670">
<path class="ui-fill ui-stroke js-perimeter" d="M93.9979559895209,0H0v56.99876054683714h93.9979559895209V0L93.9979559895209,0z" id="v-1667" stroke="#000000" stroke-dasharray="none" fill="#FFFFFF"/>
<rect class="ui-interior-label" x="4.112155478047863" y="2.5987276845062524" width="85.78384889317219" height="51.80130517782464" id="v-1668" fill="none"/>
<circle class="js-number-connector-1 js-link-connector" fill="none" cx="46.99897799476045" cy="0" r="0.1" id="v-1671"/>
<circle class="js-number-connector-2 js-link-connector" fill="none" cx="70.29438979720032" cy="0" r="0.1" id="v-1672"/>
<circle class="js-number-connector-3 js-link-connector" fill="none" cx="93.9979559895209" cy="14.373439074066725" r="0.1" id="v-1673"/>
<circle class="js-number-connector-4 js-link-connector" fill="none" cx="93.9979559895209" cy="28.49938027341857" r="0.1" id="v-1674"/>
<circle class="js-number-connector-5 js-link-connector" fill="none" cx="93.9979559895209" cy="42.62532147277041" r="0.1" id="v-1675"/>
<circle class="js-number-connector-6 js-link-connector" fill="none" cx="70.29438979720032" cy="56.99876054683714" r="0.1" id="v-1676"/>
<circle class="js-number-connector-7 js-link-connector" fill="none" cx="46.99897799476045" cy="56.99876054683714" r="0.1" id="v-1677"/>
<circle class="js-number-connector-8 js-link-connector" fill="none" cx="23.71377005206758" cy="56.99876054683714" r="0.1" id="v-1678"/>
<circle class="js-number-connector-9 js-link-connector" fill="none" cx="0" cy="42.62532147277041" r="0.1" id="v-1669"/>
<circle class="js-number-connector-10 js-link-connector" fill="none" cx="0" cy="28.49938027341857" r="0.1" id="v-1679"/>
<circle class="js-number-connector-11 js-link-connector" fill="none" cx="0" cy="14.373439074066725" r="0.1" id="v-1680"/>
<circle class="js-number-connector-12 js-link-connector" fill="none" cx="23.71377005206758" cy="0" r="0.1" id="v-1681"/>
</g></g><rect class="ui-number-box" id="v-1661" stroke="none" stroke-width="1" fill="#FFFFFF" x="0" y="0" width="40" height="20" transform="translate(-72.06152422855644,62.525321960449226)"/><path class="ui-number-leadline" id="v-1662" stroke="#000000" fill="none" d="M0,42.625322341918945 C-23.143456596679297,36.367578593164566 -11.5061903021214,68.78306952390086 -34.64964689880069 62.525325775146484"/><text class="ui-number-label" id="v-1663" font-family="OpenSansCondensedLight" font-size="14pt" fill="black" transform="translate(-72.0615234375,62.525325775146484)" text-anchor="middle"><tspan x="20" y="16.300009342651368">512</tspan></text><rect class="ui-label-box" id="v-1664" stroke-width="0" fill="none" width="85.78384828567505" height="51.801308155059814" transform="translate(4.112155437469482,2.5987277030944824)"/><text class="ui-label" id="v-1665" font-family="OpenSansCondensedLight" font-size="14pt" fill="black" transform="translate(4.112155437469482,2.5987279415130615)" text-anchor="middle"><tspan x="42.89192581176758" y="32.200665089111325">BATTERY</tspan></text><path class="ui-number-underline" id="v-1666" stroke="#000000" fill="none" transform="translate(4.112155437469482,2.5987279415130615)" d="M 0 0"/></g><g id="j_94" model-id="0f91dbdc-007f-44e5-8cfa-e644cd8e0e05" class="tp Link link"><path class="connection" stroke="black" id="v-1826" stroke-dasharray="none" d="M 507 440 501 440 443 440 443 388"/><path class="marker-source" fill="black" stroke="black" id="v-1827" d="" transform="translate(507,440) scale(1,1) rotate(-180)"/><path class="marker-target" fill="black" stroke="black" id="v-1828" d="M 8 0 L 0 4 L 8 8 z" transform="translate(447,380) scale(1,1) rotate(-270)"/><g class="labels" id="v-1830"><g class="js-link-label" id="v-1840" label-idx="0" cursor="move" transform="translate(449, 440)"><rect fill="white" rx="3" ry="3" x="0" y="0" width="0" height="0"/><text class="ui-link-label" text-anchor="middle" font-size="14pt" font-family="OpenSansCondensedLight" id="v-1841" y="0.8em" display="none" xml:space="preserve" transform="translate(0,0)"/></g></g></g><g id="j_93" model-id="3a2cab9c-0694-4e02-af5f-0ba4c170b044" class="tp Link link"><path class="connection" stroke="black" id="v-1811" stroke-dasharray="none" d="M 444 380 444 440 499 440"/><path class="marker-source" fill="black" stroke="black" id="v-1812" d="" transform="translate(444,380) scale(1,1) rotate(-270)"/><path class="marker-target" fill="black" stroke="black" id="v-1813" d="M 8 0 L 0 4 L 8 8 z" transform="translate(507,444) scale(1,1) rotate(-180)"/><g class="labels" id="v-1815"><g class="js-link-label" id="v-1824" label-idx="0" cursor="move" transform="translate(444, 437.5)"><rect fill="white" rx="3" ry="3" x="0" y="0" width="0" height="0"/><text class="ui-link-label" text-anchor="middle" font-size="14pt" font-family="OpenSansCondensedLight" id="v-1825" y="0.8em" display="none" xml:space="preserve" transform="translate(0,0)"/></g></g></g><g id="j_92" model-id="46247e97-0411-4273-b8c3-c62f2b1c1dcb" class="tp Link link"><path class="connection" stroke="black" id="v-1797" stroke-dasharray="none" d="M 403 204 320 204"/><path class="marker-source" fill="black" stroke="black" id="v-1798" d="" transform="translate(403,204) scale(1,1) rotate(-180)"/><path class="marker-target" fill="black" stroke="black" id="v-1799" d="M 8 0 L 0 4 L 8 8 z" transform="translate(312,200) scale(1,1) rotate(0)"/><g class="labels" id="v-1801"><g class="js-link-label" id="v-1809" label-idx="0" cursor="move" transform="translate(361.5, 204)"><rect fill="white" rx="3" ry="3" x="0" y="0" width="0" height="0"/><text class="ui-link-label" text-anchor="middle" font-size="14pt" font-family="OpenSansCondensedLight" id="v-1810" y="0.8em" display="none" xml:space="preserve" transform="translate(0,0)"/></g></g></g><g id="j_91" model-id="665c0e49-4e0b-4939-a69f-101cdc1591b6" class="tp Link link"><path class="connection" stroke="black" id="v-1783" stroke-dasharray="none" d="M 312 205 395 205"/><path class="marker-source" fill="black" stroke="black" id="v-1784" d="" transform="translate(312,205) scale(1,1) rotate(0)"/><path class="marker-target" fill="black" stroke="black" id="v-1785" d="M 8 0 L 0 4 L 8 8 z" transform="translate(403,209) scale(1,1) rotate(-180)"/><g class="labels" id="v-1787"><g class="js-link-label" id="v-1795" label-idx="0" cursor="move" transform="translate(353.5, 205)"><rect fill="white" rx="3" ry="3" x="0" y="0" width="0" height="0"/><text class="ui-link-label" text-anchor="middle" font-size="14pt" font-family="OpenSansCondensedLight" id="v-1796" y="0.8em" display="none" xml:space="preserve" transform="translate(0,0)"/></g></g></g><g id="j_83" model-id="d003bcc4-6cce-4bcd-847e-3fbdc6f8d0b8" class="element tp Element" transform="translate(31,288)"><g class="rotatable" id="v-1638"><g class="scalable" id="v-1648">
<path class="ui-fill ui-stroke js-perimeter" d="M94.48613697851009,0H0v94.48613697851009h94.48613697851009V0L94.48613697851009,0z" id="v-1645" stroke="#000000" stroke-dasharray="none" fill="#FFFFFF"/>
<rect class="ui-interior-label" x="4.133512071465432" y="4.307878585646357" width="86.22936968935457" height="85.87037980721738" id="v-1646" fill="none"/>
<circle class="js-number-connector-1 js-link-connector" fill="none" cx="47.243068489255045" cy="0" r="0.1" id="v-1649"/>
<circle class="js-number-connector-2 js-link-connector" fill="none" cx="70.6594656583756" cy="0" r="0.1" id="v-1650"/>
<circle class="js-number-connector-3 js-link-connector" fill="none" cx="94.48613697851009" cy="23.82667132013449" r="0.1" id="v-1651"/>
<circle class="js-number-connector-4 js-link-connector" fill="none" cx="94.48613697851009" cy="47.243068489255045" r="0.1" id="v-1652"/>
<circle class="js-number-connector-5 js-link-connector" fill="none" cx="94.48613697851009" cy="70.6594656583756" r="0.1" id="v-1647"/>
<circle class="js-number-connector-6 js-link-connector" fill="none" cx="70.6594656583756" cy="94.48613697851009" r="0.1" id="v-1653"/>
<circle class="js-number-connector-7 js-link-connector" fill="none" cx="47.243068489255045" cy="94.48613697851009" r="0.1" id="v-1654"/>
<circle class="js-number-connector-8 js-link-connector" fill="none" cx="23.83692817390984" cy="94.48613697851009" r="0.1" id="v-1655"/>
<circle class="js-number-connector-9 js-link-connector" fill="none" cx="0" cy="70.6594656583756" r="0.1" id="v-1656"/>
<circle class="js-number-connector-10 js-link-connector" fill="none" cx="0" cy="47.243068489255045" r="0.1" id="v-1657"/>
<circle class="js-number-connector-11 js-link-connector" fill="none" cx="0" cy="23.82667132013449" r="0.1" id="v-1658"/>
<circle class="js-number-connector-12 js-link-connector" fill="none" cx="23.83692817390984" cy="0" r="0.1" id="v-1659"/>
</g></g><rect class="ui-number-box" id="v-1639" stroke="none" stroke-width="1" fill="#FFFFFF" x="0" y="0" width="40" height="20" transform="translate(126.34766314308193,90.55947113037112)"/><path class="ui-number-leadline" id="v-1640" stroke="#000000" fill="none" d="M94.48613739013672,70.65946960449219 C100.68740960742325,93.74645305126467 122.80140548815258,67.47248768359862 129.0026777054391 90.5594711303711"/><text class="ui-number-label" id="v-1641" font-family="OpenSansCondensedLight" font-size="14pt" fill="black" transform="translate(126.34767150878906,90.5594711303711)" text-anchor="middle"><tspan x="20" y="16.30001125">514</tspan></text><rect class="ui-label-box" id="v-1642" stroke-width="0" fill="none" width="86.22937250137329" height="85.87037467956543" transform="translate(4.133512020111084,4.307878494262695)"/><text class="ui-label" id="v-1643" font-family="OpenSansCondensedLight" font-size="14pt" fill="black" transform="translate(4.133512020111084,4.307878494262695)" text-anchor="middle"><tspan x="43.11468505859375" y="28.235162043457034">USER</tspan><tspan x="43.11468505859375" y="49.235199543457036">INTERFACE</tspan><tspan x="43.11468505859375" y="70.23523704345703">LOGIC</tspan></text><path class="ui-number-underline" id="v-1644" stroke="#000000" fill="none" transform="translate(4.133512020111084,4.307878494262695)" d="M 0 0"/></g><g id="j_89" model-id="32927e96-f26f-4bd7-877e-2ae487fdebe5" class="tp Link link"><path class="connection" stroke="black" id="v-1754" stroke-dasharray="none" d="M 210 310 158 310 133 310"/><path class="marker-source" fill="black" stroke="black" id="v-1755" d="M 8 0 L 0 4 L 8 8 z" transform="translate(218,314) scale(1,1) rotate(-180)"/><path class="marker-target" fill="black" stroke="black" id="v-1756" d="M 8 0 L 0 4 L 8 8 z" transform="translate(125,306) scale(1,1) rotate(0)"/><g class="labels" id="v-1758"><g class="js-link-label" id="v-1767" label-idx="0" cursor="move" transform="translate(171.5, 310)"><rect fill="white" rx="3" ry="3" x="0" y="0" width="0" height="0"/><text class="ui-link-label" text-anchor="middle" font-size="14pt" font-family="OpenSansCondensedLight" id="v-1768" y="0.8em" display="none" xml:space="preserve" transform="translate(0,0)"/></g></g></g><g id="j_87" model-id="468f6156-708f-41e3-ba2b-56b31b3cd2db" class="element tp Element" transform="translate(397.6358299255371,240)"><g class="rotatable" id="v-1718"><g class="scalable" id="v-1728">
<g class="ui-fill" id="v-1726" fill="#FFFFFF">
    <path class="js-perimeter" d="M83.40590439233777,14.999211937772415c-0.24245902439633077,-3.088073046011968,-8.486065853871576,-5.734992799736511,-22.306230244462427,-5.734992799736511H21.578853171273437C7.758688780682585,9.264219138035902,0,6.995430777700579,0,4.033401529485019V0h168.99394000424255v4.033401529485019c0,2.962029248215561,-7.758688780682585,5.230817608550884,-21.82131219566977,5.230817608550884H105.71213463680022C92.1344292706057,9.264219138035902,83.64836341673411,11.848116992862243,83.40590439233777,14.999211937772415" id="v-1729"/>
</g>
<g class="ui-stroke" id="v-1725" stroke="#000000" stroke-dasharray="none">
    <path class="js-perimeter" fill="none" stroke-linejoin="round" d="M168.99394000424255,0v4.033401529485019c0,2.962029248215561,-7.758688780682585,5.230817608550884,-21.82131219566977,5.230817608550884H105.71213463680022c-13.577705366194522,0,-22.063771220066098,2.58389785482634,-22.306230244462427,5.734992799736511" id="v-1730"/>
    <path class="js-perimeter" fill="none" stroke-linejoin="round" d="M83.40590439233777,14.999211937772415c-0.24245902439633077,-3.088073046011968,-8.486065853871576,-5.734992799736511,-22.306230244462427,-5.734992799736511H21.578853171273437C7.758688780682585,9.264219138035902,0,6.995430777700579,0,4.033401529485019V0" id="v-1731"/>
</g>
<rect x="3.6368853659449614" y="1.0083503823712547" fill="none" width="161.72016927235262" height="12.919489274131701" class="ui-interior-label" id="v-1727"/>
<circle fill="none" cx="85.92141677044971" cy="12.328658971961044" r="0.1" id="v-822" class="js-number-connector-1 js-link-connector"/>
<circle fill="none" cx="102.07524927085525" cy="9.327241036934106" r="0.1" id="v-823" class="js-number-connector-2 js-link-connector"/>
<circle fill="none" cx="133.8373814667746" cy="9.264219138035902" r="0.1" id="v-824" class="js-number-connector-3 js-link-connector"/>
<circle fill="none" cx="162.2960094552939" cy="8.003781160071833" r="0.1" id="v-825" class="js-number-connector-4 js-link-connector"/>
<circle fill="none" cx="168.99394000424255" cy="3.726169772356277" r="0.1" id="v-826" class="js-number-connector-5 js-link-connector"/>
<circle fill="none" cx="168.99394000424255" cy="0" r="0.1" id="v-827" class="js-number-connector-6 js-link-connector"/>
<circle fill="none" cx="0" cy="0" r="0.1" id="v-828" class="js-number-connector-7 js-link-connector"/>
<circle fill="none" cx="0" cy="3.726169772356277" r="0.1" id="v-829" class="js-number-connector-8 js-link-connector"/>
<circle fill="none" cx="7.273770731889923" cy="8.12982495786824" r="0.1" id="v-830" class="js-number-connector-9 js-link-connector"/>
<circle fill="none" cx="25.094509025020233" cy="9.28785235012273" r="0.1" id="v-831" class="js-number-connector-10 js-link-connector"/>
<circle fill="none" cx="61.91797335521297" cy="9.248463663311352" r="0.1" id="v-832" class="js-number-connector-11 js-link-connector"/>
<circle fill="none" cx="80.98131414837447" cy="12.368047658772422" r="0.1" id="v-833" class="js-number-connector-12 js-link-connector"/>
</g></g><rect class="ui-number-box" id="v-1719" stroke="none" stroke-width="1" fill="#FFFFFF" x="0" y="0" width="40" height="20" transform="translate(197.62877109618503,20.864787355937356)"/><path class="ui-number-leadline" id="v-1720" stroke="#000000" fill="none" d="M162.2959976196289,8.00378155708313 C171.09305475694725,29.187575042054128 188.83171178358012,1.4178968524372877 197.62876892089844 22.6016903374083"/><text class="ui-number-label" id="v-1721" font-family="OpenSansCondensedLight" font-size="14pt" fill="black" transform="translate(197.62876892089844,20.864789962768555)" text-anchor="middle"><tspan x="20" y="16.300010296325684">516</tspan></text><rect class="ui-label-box" id="v-1722" stroke-width="0" fill="none" width="507.5817993208766" transform="translate(-169.29392700269818,24.99921226501465)"/><text class="ui-label" id="v-1723" font-family="OpenSansCondensedLight" font-size="14pt" fill="black" transform="translate(-169.29393005371094,24.99921226501465)" text-anchor="middle"><tspan x="253.7908935546875" y="16.80003"> </tspan></text><path class="ui-number-underline" id="v-1724" stroke="#000000" fill="none" transform="translate(-169.29393005371094,24.99921226501465)" d="M 0 0"/></g></g><defs id="v-1529"/></svg>