<svg xmlns="http://www.w3.org/2000/svg" xmlns:xlink="http://www.w3.org/1999/xlink" version="1.1" id="v-6954" width="664" height="867"><g id="v-6955" class="viewport"><g id="j_363" model-id="fd7e7dbc-ac64-4d3c-a4bc-95b0731ac2f3" class="element tp Element" transform="translate(-19,51.00000000000102)"><g class="rotatable" id="v-6957"><g class="scalable" id="v-6967">
<path class="ui-fill ui-stroke js-perimeter" d="M682.985148306838,0H0v473.9896929684351h682.985148306838V0L682.985148306838,0z" id="v-6964" stroke="#000000" stroke-dasharray="none" fill="#FFFFFF"/>
<rect class="ui-interior-label" x="29.878746718156282" y="21.610472323788834" width="623.3017956812405" height="430.76874832085747" id="v-6965" fill="none"/>
<circle class="js-number-connector-1 js-link-connector" fill="none" cx="341.492574153419" cy="0" r="0.1" id="v-6968"/>
<circle class="js-number-connector-2 js-link-connector" fill="none" cx="510.7560450158279" cy="0" r="0.1" id="v-6966"/>
<circle class="js-number-connector-3 js-link-connector" fill="none" cx="682.985148306838" cy="119.52649335276539" r="0.1" id="v-6969"/>
<circle class="js-number-connector-4 js-link-connector" fill="none" cx="682.985148306838" cy="236.99484648421756" r="0.1" id="v-6970"/>
<circle class="js-number-connector-5 js-link-connector" fill="none" cx="682.985148306838" cy="354.4631996156697" r="0.1" id="v-6971"/>
<circle class="js-number-connector-6 js-link-connector" fill="none" cx="510.7560450158279" cy="473.9896929684351" r="0.1" id="v-6972"/>
<circle class="js-number-connector-7 js-link-connector" fill="none" cx="341.492574153419" cy="473.9896929684351" r="0.1" id="v-6973"/>
<circle class="js-number-connector-8 js-link-connector" fill="none" cx="172.30324410172508" cy="473.9896929684351" r="0.1" id="v-6974"/>
<circle class="js-number-connector-9 js-link-connector" fill="none" cx="0" cy="354.4631996156697" r="0.1" id="v-6975"/>
<circle class="js-number-connector-10 js-link-connector" fill="none" cx="0" cy="236.99484648421756" r="0.1" id="v-6976"/>
<circle class="js-number-connector-11 js-link-connector" fill="none" cx="0" cy="119.52649335276539" r="0.1" id="v-6977"/>
<circle class="js-number-connector-12 js-link-connector" fill="none" cx="172.30324410172508" cy="0" r="0.1" id="v-6978"/>
</g></g><rect class="ui-number-box" id="v-6958" stroke="none" stroke-width="0" fill="#FFFFFF" x="0" y="0" width="0" height="0" transform="translate(510.6560363769531,-0.10000000149011612)"/><path class="ui-number-leadline" id="v-6959" stroke="#000000" fill="none" d=""/><text class="ui-number-label" id="v-6960" font-family="OpenSansCondensedLight" font-size="14pt" fill="black" transform="translate(510.65606689453125,-0.10000000149011612)"/><rect class="ui-label-box" id="v-6961" stroke-width="0" fill="none" width="623.301794052124" height="430.7687397003174" transform="translate(29.878747940063477,21.610471725463867)"/><text class="ui-label" id="v-6962" font-family="OpenSansCondensedLight" font-size="14pt" fill="black" transform="translate(29.878747940063477,21.610471725463867)" text-anchor="middle"><tspan x="311.6509094238281" y="221.68438014648436"> </tspan></text><path class="ui-number-underline" id="v-6963" stroke="#000000" fill="none" transform="translate(29.878747940063477,21.610471725463867)" d="M 0 0"/></g><g id="j_369" model-id="a877bef7-b2ee-4fa7-af7e-8edb13fdbeda" class="element tp Element" transform="translate(572.6508340835571,13.326771259307897)"><polygon class="ui-arrowhead" fill="#000000" points="0,0 4.2,11.2 11.8,2" id="v-7109" transform="translate(-5.900000095367432,19)"/>
<rect class="ui-label-anchor" fill="none" width="1" height="1" id="v-7111" transform="translate(33,-0.5)"/>
<g class="rotatable" id="v-7113"><g class="scalable" id="v-7121">
<rect x="0" y="0" width="28" height="19.999999600555267" opacity="0" id="v-7122"/>
<path class="ui-stem" fill="none" stroke="#000000" stroke-width="1" d="M28,0C16.476923076923075,1.5706805969022462,6.892307692307693,9.424083581413477,0,19.999999600555267" id="v-7120"/>
</g></g><rect class="ui-number-box" id="v-7114" stroke="none" stroke-width="0" fill="#FFFFFF" x="0" y="0" width="0" height="0"/><path class="ui-number-leadline" id="v-7115" stroke="#000000" fill="none"/><text class="ui-number-label" id="v-7116" font-family="OpenSansCondensedLight" font-size="14pt" fill="black" transform="translate(0,0)"/><rect class="ui-label-box" id="v-7117" stroke-width="0" fill="none" width="1" height="1" transform="translate(33,-0.5)"/><text class="ui-label" id="v-7118" font-family="OpenSansCondensedLight" font-size="14pt" fill="black" text-decoration="none" transform="translate(33,-0.5)"><tspan x="0" y="6.800011250000001">500</tspan></text><path class="ui-number-underline" id="v-7119" stroke="#000000" fill="none" transform="translate(33,-0.5)"/></g><g id="j_364" model-id="a2a80621-ebb3-47a6-a520-9c24d87f9c9a" class="element tp Element" transform="translate(66.99999999999987,4.000000000000014)"><g class="rotatable" id="v-6979"><g class="scalable" id="v-6989">
<g class="ui-fill ui-stroke" id="v-6986" stroke="#000000" stroke-dasharray="none" fill="#FFFFFF">
    <ellipse id="v-6991" cx="9.467051163726078" cy="5.483107410419696" rx="1.2414840245781247" ry="1.1914888399573182"/>
    <polygon class="js-perimeter" points="18.99882424342542,43.0065355692651 9.467051163726078,46.998870213103125 0,43.0065355692651 9.467051163726078,6.674596250377014" id="v-6993"/>
</g>
<g class="ui-stroke" fill="none" id="v-6987" stroke="#000000" stroke-dasharray="none">
    <line x1="9.467051163726078" y1="6.674596250377014" x2="9.467051163726078" y2="46.998870213103125" id="v-6994"/>
    <ellipse id="v-6995" cx="9.467051163726078" cy="5.483107410419696" rx="1.2414840245781247" ry="1.1914888399573182"/>
    <line x1="9.467051163726078" y1="6.674596250377014" x2="0" y2="43.0065355692651" id="v-6997"/>
    <line x1="9.467051163726078" y1="6.674596250377014" x2="18.99882424342542" y2="43.0065355692651" id="v-6998"/>
    <polygon points="9.467051163726078,13.473423564635835 7.8784223171095205,12.75062464750533 9.467051163726078,12.02217886383474 11.049796199799612,12.784505846745821" id="v-6999"/>
    <polygon points="9.467051163726078,15.455473720204644 7.401833663124553,14.563268806871674 9.467051163726078,13.608948361597804 11.52638485378458,14.597150006112168" id="v-7000"/>
    <polygon points="9.467051163726078,18.069972928262644 6.813452608822124,16.878484088305324 9.467051163726078,15.68699524834801 12.150068771345152,16.91236528754582" id="v-7001"/>
    <polygon points="9.467051163726078,21.339508654970167 6.0250219960568705,19.916498286869484 9.467051163726078,18.329728789106422 12.938499384110408,19.950379486109977" id="v-7002"/>
    <polygon points="9.467051163726078,25.66500842467304 5.024774203742742,23.750720667585217 9.467051163726078,21.734789312775913 13.938747176424537,23.778955000285627" id="v-7003"/>
    <polygon points="9.467051163726078,31.080353436611748 3.753871126449495,28.669141423996702 9.467051163726078,26.060289082478782 15.209650253717783,28.60137902551572" id="v-7004"/>
    <polygon points="9.467051163726078,38.08246794631352 2.100520363859671,34.97669134926838 9.467051163726078,31.645040090619958 16.863001016307607,34.88069461808699" id="v-7005"/>
    <polygon points="9.467051163726078,46.998870213103125 0,43.0065355692651 9.467051163726078,38.81091372998411 18.99882424342542,43.0065355692651" id="v-7006"/>
    <path class="js-perimeter" d="M12.114765908087007,10.373293834130774c1.823981268337529,-0.959967311813953,3.0654652929156536,-2.7726114711802996,3.0654652929156536,-4.856305224470586C15.18023120100266,2.4789744110960314,12.632541235873143,0,9.467051163726078,0S3.7185682631913495,2.4789744110960314,3.7185682631913495,5.5169886096601894c0,2.145809285231189,1.2414840245781247,3.9979815103781102,3.0654652929156536,4.856305224470586" id="v-7007"/>
    <path d="M11.702899170075307,8.684880738646235c1.0649697082873961,-0.7284457836705879,1.7533755418212376,-1.8182910259064289,1.7533755418212376,-3.173538995526127c0,-2.0836937532902864,-1.7533755418212376,-3.8342223807157305,-3.9951073587134913,-3.8342223807157305S5.471943805012587,3.4332948563699026,5.471943805012587,5.5169886096601894c0,1.3552479696196984,0.759011560050133,2.4789744110960314,1.823981268337529,3.173538995526127" id="v-7008"/>
    <path d="M11.291032432063608,7.1037581074232525c0.4118667380117001,-0.3952806578057454,0.6531029702756959,-0.959967311813953,0.6531029702756959,-1.5867694977630635c0,-1.2874855711387134,-1.0649697082873961,-2.3095684148935693,-2.406478512096933,-2.3095684148935693S7.060572651629144,4.229503038521476,7.060572651629144,5.5169886096601894c0,0.6268021859491105,0.24123623226399574,1.1914888399573182,0.6531029702756959,1.682766228944459" id="v-7009"/>
</g>
<rect class="ui-interior-label" x="1.170878298061833" y="17.222942947250335" width="17.1042372485716" height="15.96369170881203" id="v-6988" fill="none"/>
<circle class="js-number-connector-1 js-link-connector" fill="none" cx="9.431748300467932" cy="0" r="0.1" id="v-7010"/>
<circle class="js-number-connector-2 js-link-connector" fill="none" cx="15.18023120100266" cy="5.5169886096601894" r="0.1" id="v-7011"/>
<circle class="js-number-connector-3 js-link-connector" fill="none" cx="11.532268664327603" cy="14.597150006112168" r="0.1" id="v-6990"/>
<circle class="js-number-connector-4 js-link-connector" fill="none" cx="13.938747176424537" cy="23.778955000285627" r="0.1" id="v-7012"/>
<circle class="js-number-connector-5 js-link-connector" fill="none" cx="16.863001016307607" cy="34.88069461808699" r="0.1" id="v-7013"/>
<circle class="js-number-connector-6 js-link-connector" fill="none" cx="18.99882424342542" cy="43.0065355692651" r="0.1" id="v-7014"/>
<circle class="js-number-connector-7 js-link-connector" fill="none" cx="9.467051163726078" cy="46.998870213103125" r="0.1" id="v-7015"/>
<circle class="js-number-connector-8 js-link-connector" fill="none" cx="0" cy="43.0065355692651" r="0.1" id="v-7016"/>
<circle class="js-number-connector-9 js-link-connector" fill="none" cx="2.100520363859671" cy="34.97669134926838" r="0.1" id="v-7017"/>
<circle class="js-number-connector-10 js-link-connector" fill="none" cx="5.024774203742742" cy="23.716839468344723" r="0.1" id="v-7018"/>
<circle class="js-number-connector-11 js-link-connector" fill="none" cx="7.401833663124553" cy="14.568915673411757" r="0.1" id="v-7019"/>
<circle class="js-number-connector-12 js-link-connector" fill="none" cx="3.7185682631913495" cy="5.5169886096601894" r="0.1" id="v-7020"/>
</g></g><rect class="ui-number-box" id="v-6980" stroke="none" stroke-width="1" fill="#FFFFFF" x="0" y="0" width="40" height="20" transform="translate(51.432268142700195,4.497149467468262)"/><path class="ui-number-leadline" id="v-6981" stroke="#000000" fill="none" d="M11.532268047332764,14.59714937210083 C28.488662432095353,31.497022896155137 34.47586803589172,-2.369334625095707 51.4322624206543 14.530538898958618"/><text class="ui-number-label" id="v-6982" font-family="OpenSansCondensedLight" font-size="14pt" fill="black" transform="translate(51.4322624206543,4.49714994430542)" text-anchor="middle"><tspan x="20.000001907348633" y="16.30001148841858">502</tspan></text><rect class="ui-label-box" id="v-6983" stroke-width="0" fill="none" width="57.59647064656019" transform="translate(-19.298825073987246,57.098873138427734)"/><text class="ui-label" id="v-6984" font-family="OpenSansCondensedLight" font-size="14pt" fill="black" transform="translate(-19.298826217651367,57.098873138427734)" text-anchor="middle"><tspan x="28.798236846923828" y="16.80003"> </tspan></text><path class="ui-number-underline" id="v-6985" stroke="#000000" fill="none" transform="translate(-19.298826217651367,57.098873138427734)" d="M 0 0"/></g><g id="j_365" model-id="9b551e9d-e83e-4bf3-ad34-521334c89553" class="element tp Element" transform="translate(217.9999999999995,150.0000000000002)"><g class="rotatable" id="v-7021"><g class="scalable" id="v-7031">
<path class="ui-fill ui-stroke js-perimeter" d="M93.9979559895209,0H0v215.99530312485652h93.9979559895209V0L93.9979559895209,0z" id="v-7028" stroke="#000000" stroke-dasharray="none" fill="#FFFFFF"/>
<rect class="ui-interior-label" x="4.112155478047863" y="9.847810172865799" width="85.78384889317219" height="196.29968277912494" id="v-7029" fill="none"/>
<circle class="js-number-connector-1 js-link-connector" fill="none" cx="46.99897799476045" cy="0" r="0.1" id="v-7032"/>
<circle class="js-number-connector-2 js-link-connector" fill="none" cx="70.29438979720032" cy="0" r="0.1" id="v-7030"/>
<circle class="js-number-connector-3 js-link-connector" fill="none" cx="93.9979559895209" cy="54.46776912277917" r="0.1" id="v-7033"/>
<circle class="js-number-connector-4 js-link-connector" fill="none" cx="93.9979559895209" cy="107.99765156242826" r="0.1" id="v-7034"/>
<circle class="js-number-connector-5 js-link-connector" fill="none" cx="93.9979559895209" cy="161.52753400207735" r="0.1" id="v-7035"/>
<circle class="js-number-connector-6 js-link-connector" fill="none" cx="70.29438979720032" cy="215.99530312485652" r="0.1" id="v-7036"/>
<circle class="js-number-connector-7 js-link-connector" fill="none" cx="46.99897799476045" cy="215.99530312485652" r="0.1" id="v-7037"/>
<circle class="js-number-connector-8 js-link-connector" fill="none" cx="23.71377005206758" cy="215.99530312485652" r="0.1" id="v-7038"/>
<circle class="js-number-connector-9 js-link-connector" fill="none" cx="0" cy="161.52753400207735" r="0.1" id="v-7039"/>
<circle class="js-number-connector-10 js-link-connector" fill="none" cx="0" cy="107.99765156242826" r="0.1" id="v-7040"/>
<circle class="js-number-connector-11 js-link-connector" fill="none" cx="0" cy="54.46776912277917" r="0.1" id="v-7041"/>
<circle class="js-number-connector-12 js-link-connector" fill="none" cx="23.71377005206758" cy="0" r="0.1" id="v-7042"/>
</g></g><rect class="ui-number-box" id="v-7022" stroke="none" stroke-width="1" fill="#FFFFFF" x="0" y="0" width="40" height="20" transform="translate(80.19438934326172,-62.06152422855643)"/><path class="ui-number-leadline" id="v-7023" stroke="#000000" fill="none" d="M70.29438781738281,0 C98.38844155793286,-7.596332399081713 66.35713034254019,-34.46519103841834 94.45118408309027 -42.0615234375"/><text class="ui-number-label" id="v-7024" font-family="OpenSansCondensedLight" font-size="14pt" fill="black" transform="translate(80.19438934326172,-62.0615234375)" text-anchor="middle"><tspan x="20" y="16.30001125">504</tspan></text><rect class="ui-label-box" id="v-7025" stroke-width="0" fill="none" width="85.78384828567505" height="196.29968070983887" transform="translate(4.112155437469482,9.847810745239258)"/><text class="ui-label" id="v-7026" font-family="OpenSansCondensedLight" font-size="14pt" fill="black" transform="translate(4.112155437469482,9.847810745239258)" text-anchor="middle"><tspan x="42.89192581176758" y="93.94983380859375">CONTROL</tspan><tspan x="42.89192581176758" y="114.94987130859374">LOGIC</tspan></text><path class="ui-number-underline" id="v-7027" stroke="#000000" fill="none" transform="translate(4.112155437469482,9.847810745239258)" d="M 0 0"/></g><g id="j_366" model-id="6b9dd079-cb3d-441c-a6d2-a187758514b7" class="element tp Element" transform="translate(16.25590419769256,155.00000000000037)"><g class="rotatable" id="v-7043"><g class="scalable" id="v-7053">
<path class="ui-fill ui-stroke js-perimeter" d="M120.99736888012796,0H0v103.99773854159758h120.99736888012796V0L120.99736888012796,0z" id="v-7050" stroke="#000000" stroke-dasharray="none" fill="#FFFFFF"/>
<rect class="ui-interior-label" x="5.293306519614803" y="4.741538231379829" width="110.42389059653016" height="94.51466207883793" id="v-7051" fill="none"/>
<circle class="js-number-connector-1 js-link-connector" fill="none" cx="60.49868444006398" cy="0" r="0.1" id="v-7054"/>
<circle class="js-number-connector-2 js-link-connector" fill="none" cx="90.48533154746" cy="0" r="0.1" id="v-7055"/>
<circle class="js-number-connector-3 js-link-connector" fill="none" cx="120.99736888012796" cy="26.22522217022701" r="0.1" id="v-7052"/>
<circle class="js-number-connector-4 js-link-connector" fill="none" cx="120.99736888012796" cy="51.99886927079879" r="0.1" id="v-7056"/>
<circle class="js-number-connector-5 js-link-connector" fill="none" cx="120.99736888012796" cy="77.77251637137057" r="0.1" id="v-7057"/>
<circle class="js-number-connector-6 js-link-connector" fill="none" cx="90.48533154746" cy="103.99773854159758" r="0.1" id="v-7058"/>
<circle class="js-number-connector-7 js-link-connector" fill="none" cx="60.49868444006398" cy="103.99773854159758" r="0.1" id="v-7059"/>
<circle class="js-number-connector-8 js-link-connector" fill="none" cx="30.52517208829976" cy="103.99773854159758" r="0.1" id="v-7060"/>
<circle class="js-number-connector-9 js-link-connector" fill="none" cx="0" cy="77.77251637137057" r="0.1" id="v-7061"/>
<circle class="js-number-connector-10 js-link-connector" fill="none" cx="0" cy="51.99886927079879" r="0.1" id="v-7062"/>
<circle class="js-number-connector-11 js-link-connector" fill="none" cx="0" cy="26.22522217022701" r="0.1" id="v-7063"/>
<circle class="js-number-connector-12 js-link-connector" fill="none" cx="30.52517208829976" cy="0" r="0.1" id="v-7064"/>
</g></g><rect class="ui-number-box" id="v-7044" stroke="none" stroke-width="1" fill="#FFFFFF" x="0" y="0" width="40" height="20" transform="translate(152.8588859824374,-13.874776840209961)"/><path class="ui-number-leadline" id="v-7045" stroke="#000000" fill="none" d="M120.99736022949219,26.225223541259766 C144.21808982836447,32.39053684961499 132.40841431718562,-0.040090625402383395 155.6291439160579 6.125222682952881"/><text class="ui-number-label" id="v-7046" font-family="OpenSansCondensedLight" font-size="14pt" fill="black" transform="translate(152.85888671875,-13.874777793884277)" text-anchor="middle"><tspan x="20" y="16.30001148841858">506</tspan></text><rect class="ui-label-box" id="v-7047" stroke-width="0" fill="none" width="110.42388725280762" height="94.51466464996338" transform="translate(5.293306350708008,4.741538047790527)"/><text class="ui-label" id="v-7048" font-family="OpenSansCondensedLight" font-size="14pt" fill="black" transform="translate(5.293306350708008,4.7415385246276855)" text-anchor="middle"><tspan x="55.211944580078125" y="32.55730559814454">WIRELESS</tspan><tspan x="55.211944580078125" y="53.557343098144536">COMMUNICATION</tspan><tspan x="55.211944580078125" y="74.55738059814453">LOGIC</tspan></text><path class="ui-number-underline" id="v-7049" stroke="#000000" fill="none" transform="translate(5.293306350708008,4.7415385246276855)" d="M 0 0"/></g><g id="j_374" model-id="2bfe3d1d-58d6-45b8-9aa0-bdbe28b10f08" class="tp Link link"><path class="connection" stroke="black" id="v-7196" stroke-dasharray="none" d="M 77 51 77 147"/><path class="marker-source" fill="black" stroke="black" id="v-7197" d="" transform="translate(77,51) scale(1,1) rotate(-270)"/><path class="marker-target" fill="black" stroke="black" id="v-7198" d="M 8 0 L 0 4 L 8 8 z" transform="translate(73,155) scale(1,1) rotate(-90)"/><g class="labels" id="v-7200"><g class="js-link-label" id="v-7208" label-idx="0" cursor="move" transform="translate(77, 99)"><rect fill="white" rx="3" ry="3" x="0" y="0" width="0" height="0"/><text class="ui-link-label" text-anchor="middle" font-size="14pt" font-family="OpenSansCondensedLight" id="v-7209" y="0.8em" display="none" xml:space="preserve" transform="translate(0,0)"/></g></g></g><g id="j_379" model-id="ec7427c1-1487-49a8-b816-f94a046b8542" class="tp Link link"><path class="connection" stroke="black" id="v-7269" stroke-dasharray="none" d="M 76 155 76 59"/><path class="marker-source" fill="black" stroke="black" id="v-7270" d="" transform="translate(76,155) scale(1,1) rotate(-90)"/><path class="marker-target" fill="black" stroke="black" id="v-7271" d="M 8 0 L 0 4 L 8 8 z" transform="translate(80,51) scale(1,1) rotate(-270)"/><g class="labels" id="v-7273"><g class="js-link-label" id="v-7281" label-idx="0" cursor="move" transform="translate(76, 107)"><rect fill="white" rx="3" ry="3" x="0" y="0" width="0" height="0"/><text class="ui-link-label" text-anchor="middle" font-size="14pt" font-family="OpenSansCondensedLight" id="v-7282" y="0.8em" display="none" xml:space="preserve" transform="translate(0,0)"/></g></g></g><g id="j_380" model-id="de412374-4bf2-4e3f-b754-c2dbd4cd8f33" class="tp Link link"><path class="connection" stroke="black" id="v-7283" stroke-dasharray="none" d="M 218 207 145 207"/><path class="marker-source" fill="black" stroke="black" id="v-7284" d="" transform="translate(218,207) scale(1,1) rotate(-180)"/><path class="marker-target" fill="black" stroke="black" id="v-7285" d="M 8 0 L 0 4 L 8 8 z" transform="translate(137,203) scale(1,1) rotate(0)"/><g class="labels" id="v-7287"><g class="js-link-label" id="v-7295" label-idx="0" cursor="move" transform="translate(181.5, 207)"><rect fill="white" rx="3" ry="3" x="0" y="0" width="0" height="0"/><text class="ui-link-label" text-anchor="middle" font-size="14pt" font-family="OpenSansCondensedLight" id="v-7296" y="0.8em" display="none" xml:space="preserve" transform="translate(0,0)"/></g></g></g><g id="j_370" model-id="d26981e1-d59e-4088-946b-a7314cc1a5a8" class="element tp Element" transform="translate(402.9999999999998,112.00000000000057)"><g class="rotatable" id="v-7123"><g class="scalable" id="v-7133">
<path class="ui-fill ui-stroke js-perimeter" d="M153.99665130198105,0H0v123.99730364575096h153.99665130198105V0L153.99665130198105,0z" id="v-7130" stroke="#000000" stroke-dasharray="none" fill="#FFFFFF"/>
<rect class="ui-interior-label" x="6.736935570418839" y="5.65337250664518" width="140.53949712285655" height="112.6905586324606" id="v-7131" fill="none"/>
<circle class="js-number-connector-1 js-link-connector" fill="none" cx="76.99832565099052" cy="0" r="0.1" id="v-7134"/>
<circle class="js-number-connector-2 js-link-connector" fill="none" cx="115.1631492422218" cy="0" r="0.1" id="v-7135"/>
<circle class="js-number-connector-3 js-link-connector" fill="none" cx="153.99665130198105" cy="31.268534126039892" r="0.1" id="v-7132"/>
<circle class="js-number-connector-4 js-link-connector" fill="none" cx="153.99665130198105" cy="61.99865182287548" r="0.1" id="v-7136"/>
<circle class="js-number-connector-5 js-link-connector" fill="none" cx="153.99665130198105" cy="92.72876951971107" r="0.1" id="v-7137"/>
<circle class="js-number-connector-6 js-link-connector" fill="none" cx="115.1631492422218" cy="123.99730364575096" r="0.1" id="v-7138"/>
<circle class="js-number-connector-7 js-link-connector" fill="none" cx="76.99832565099052" cy="123.99730364575096" r="0.1" id="v-7139"/>
<circle class="js-number-connector-8 js-link-connector" fill="none" cx="38.85021902147242" cy="123.99730364575096" r="0.1" id="v-7140"/>
<circle class="js-number-connector-9 js-link-connector" fill="none" cx="0" cy="92.72876951971107" r="0.1" id="v-7141"/>
<circle class="js-number-connector-10 js-link-connector" fill="none" cx="0" cy="61.99865182287548" r="0.1" id="v-7142"/>
<circle class="js-number-connector-11 js-link-connector" fill="none" cx="0" cy="31.268534126039892" r="0.1" id="v-7143"/>
<circle class="js-number-connector-12 js-link-connector" fill="none" cx="38.85021902147242" cy="0" r="0.1" id="v-7144"/>
</g></g><rect class="ui-number-box" id="v-7124" stroke="none" stroke-width="1" fill="#FFFFFF" x="0" y="0" width="40" height="20" transform="translate(185.858176448746,-8.831466674804688)"/><path class="ui-number-leadline" id="v-7125" stroke="#000000" fill="none" d="M153.99665069580078,31.26853370666504 C177.217377931444,37.43384505640093 165.40770205337606,5.003221975459413 188.62842928901927 11.168533325195312"/><text class="ui-number-label" id="v-7126" font-family="OpenSansCondensedLight" font-size="14pt" fill="black" transform="translate(185.85816955566406,-8.831466674804688)" text-anchor="middle"><tspan x="20" y="16.30001125">508</tspan></text><rect class="ui-label-box" id="v-7127" stroke-width="0" fill="none" width="140.53950786590576" height="112.69056797027588" transform="translate(6.736935615539551,5.653372764587402)"/><text class="ui-label" id="v-7128" font-family="OpenSansCondensedLight" font-size="14pt" fill="black" transform="translate(6.736935615539551,5.6533732414245605)" text-anchor="middle"><tspan x="70.2697525024414" y="62.645294758300786">MEMORY</tspan></text><path class="ui-number-underline" id="v-7129" stroke="#000000" fill="none" transform="translate(6.736935615539551,5.6533732414245605)" d="M 0 0"/></g><g id="j_372" model-id="f4284669-3684-4ef0-a420-bc081a8a32a9" class="element tp Element" transform="translate(402.5,314.99999999999983)"><g class="rotatable" id="v-7159"><g class="scalable" id="v-7169">
<path class="ui-fill ui-stroke js-perimeter" d="M154.9966295571887,0H0v64.9985865884985h154.9966295571887V0L154.9966295571887,0z" id="v-7166" stroke="#000000" stroke-dasharray="none" fill="#FFFFFF"/>
<rect class="ui-interior-label" x="6.780681905291689" y="2.963461394612393" width="141.45209126001797" height="59.07166379927371" id="v-7167" fill="none"/>
<circle class="js-number-connector-1 js-link-connector" fill="none" cx="77.49831477859435" cy="0" r="0.1" id="v-7170"/>
<circle class="js-number-connector-2 js-link-connector" fill="none" cx="115.91096189963883" cy="0" r="0.1" id="v-7171"/>
<circle class="js-number-connector-3 js-link-connector" fill="none" cx="154.9966295571887" cy="16.39076385639188" r="0.1" id="v-7168"/>
<circle class="js-number-connector-4 js-link-connector" fill="none" cx="154.9966295571887" cy="32.49929329424925" r="0.1" id="v-7172"/>
<circle class="js-number-connector-5 js-link-connector" fill="none" cx="154.9966295571887" cy="48.60782273210661" r="0.1" id="v-7173"/>
<circle class="js-number-connector-6 js-link-connector" fill="none" cx="115.91096189963883" cy="64.9985865884985" r="0.1" id="v-7174"/>
<circle class="js-number-connector-7 js-link-connector" fill="none" cx="77.49831477859435" cy="64.9985865884985" r="0.1" id="v-7175"/>
<circle class="js-number-connector-8 js-link-connector" fill="none" cx="39.1024931709625" cy="64.9985865884985" r="0.1" id="v-7176"/>
<circle class="js-number-connector-9 js-link-connector" fill="none" cx="0" cy="48.60782273210661" r="0.1" id="v-7177"/>
<circle class="js-number-connector-10 js-link-connector" fill="none" cx="0" cy="32.49929329424925" r="0.1" id="v-7178"/>
<circle class="js-number-connector-11 js-link-connector" fill="none" cx="0" cy="16.39076385639188" r="0.1" id="v-7179"/>
<circle class="js-number-connector-12 js-link-connector" fill="none" cx="39.1024931709625" cy="0" r="0.1" id="v-7180"/>
</g></g><rect class="ui-number-box" id="v-7160" stroke="none" stroke-width="1" fill="#FFFFFF" x="0" y="0" width="40" height="20" transform="translate(186.85814593116788,-23.70923614501953)"/><path class="ui-number-leadline" id="v-7161" stroke="#000000" fill="none" d="M154.99662017822266,16.390764236450195 C178.21734741386587,22.55607558618609 166.40767153579793,-9.874547494755433 189.62839877144114 -3.7092361450195312"/><text class="ui-number-label" id="v-7162" font-family="OpenSansCondensedLight" font-size="14pt" fill="black" transform="translate(186.85813903808594,-23.70923614501953)" text-anchor="middle"><tspan x="20" y="16.30001125">510</tspan></text><rect class="ui-label-box" id="v-7163" stroke-width="0" fill="none" width="141.45209121704102" height="59.071664333343506" transform="translate(6.780681610107422,2.963461399078369)"/><text class="ui-label" id="v-7164" font-family="OpenSansCondensedLight" font-size="14pt" fill="black" transform="translate(6.780681610107422,2.963461399078369)" text-anchor="middle"><tspan x="70.72604370117188" y="25.335823951416018">POWER</tspan><tspan x="70.72604370117188" y="46.335861451416015">MANAGER</tspan></text><path class="ui-number-underline" id="v-7165" stroke="#000000" fill="none" transform="translate(6.780681610107422,2.963461399078369)" d="M 0 0"/></g><g id="j_368" model-id="3079b42a-742a-4e33-ab48-361120ade879" class="element tp Element" transform="translate(506.9972915649414,414.0000000000002)"><g class="rotatable" id="v-7087"><g class="scalable" id="v-7097">
<path class="ui-fill ui-stroke js-perimeter" d="M93.9979559895209,0H0v56.99876054683714h93.9979559895209V0L93.9979559895209,0z" id="v-7094" stroke="#000000" stroke-dasharray="none" fill="#FFFFFF"/>
<rect class="ui-interior-label" x="4.112155478047863" y="2.5987276845062524" width="85.78384889317219" height="51.80130517782464" id="v-7095" fill="none"/>
<circle class="js-number-connector-1 js-link-connector" fill="none" cx="46.99897799476045" cy="0" r="0.1" id="v-7098"/>
<circle class="js-number-connector-2 js-link-connector" fill="none" cx="70.29438979720032" cy="0" r="0.1" id="v-7099"/>
<circle class="js-number-connector-3 js-link-connector" fill="none" cx="93.9979559895209" cy="14.373439074066725" r="0.1" id="v-7100"/>
<circle class="js-number-connector-4 js-link-connector" fill="none" cx="93.9979559895209" cy="28.49938027341857" r="0.1" id="v-7101"/>
<circle class="js-number-connector-5 js-link-connector" fill="none" cx="93.9979559895209" cy="42.62532147277041" r="0.1" id="v-7102"/>
<circle class="js-number-connector-6 js-link-connector" fill="none" cx="70.29438979720032" cy="56.99876054683714" r="0.1" id="v-7103"/>
<circle class="js-number-connector-7 js-link-connector" fill="none" cx="46.99897799476045" cy="56.99876054683714" r="0.1" id="v-7104"/>
<circle class="js-number-connector-8 js-link-connector" fill="none" cx="23.71377005206758" cy="56.99876054683714" r="0.1" id="v-7105"/>
<circle class="js-number-connector-9 js-link-connector" fill="none" cx="0" cy="42.62532147277041" r="0.1" id="v-7096"/>
<circle class="js-number-connector-10 js-link-connector" fill="none" cx="0" cy="28.49938027341857" r="0.1" id="v-7106"/>
<circle class="js-number-connector-11 js-link-connector" fill="none" cx="0" cy="14.373439074066725" r="0.1" id="v-7107"/>
<circle class="js-number-connector-12 js-link-connector" fill="none" cx="23.71377005206758" cy="0" r="0.1" id="v-7108"/>
</g></g><rect class="ui-number-box" id="v-7088" stroke="none" stroke-width="1" fill="#FFFFFF" x="0" y="0" width="40" height="20" transform="translate(-72.06152422855644,62.525321960449226)"/><path class="ui-number-leadline" id="v-7089" stroke="#000000" fill="none" d="M0,42.625322341918945 C-23.143456596679297,36.367578593164566 -11.5061903021214,68.78306952390086 -34.64964689880069 62.525325775146484"/><text class="ui-number-label" id="v-7090" font-family="OpenSansCondensedLight" font-size="14pt" fill="black" transform="translate(-72.0615234375,62.525325775146484)" text-anchor="middle"><tspan x="20" y="16.300009342651368">512</tspan></text><rect class="ui-label-box" id="v-7091" stroke-width="0" fill="none" width="85.78384828567505" height="51.801308155059814" transform="translate(4.112155437469482,2.5987277030944824)"/><text class="ui-label" id="v-7092" font-family="OpenSansCondensedLight" font-size="14pt" fill="black" transform="translate(4.112155437469482,2.5987279415130615)" text-anchor="middle"><tspan x="42.89192581176758" y="32.200665089111325">BATTERY</tspan></text><path class="ui-number-underline" id="v-7093" stroke="#000000" fill="none" transform="translate(4.112155437469482,2.5987279415130615)" d="M 0 0"/></g><g id="j_378" model-id="0f91dbdc-007f-44e5-8cfa-e644cd8e0e05" class="tp Link link"><path class="connection" stroke="black" id="v-7253" stroke-dasharray="none" d="M 507 440 501 440 443 440 443 388"/><path class="marker-source" fill="black" stroke="black" id="v-7254" d="" transform="translate(507,440) scale(1,1) rotate(-180)"/><path class="marker-target" fill="black" stroke="black" id="v-7255" d="M 8 0 L 0 4 L 8 8 z" transform="translate(447,380) scale(1,1) rotate(-270)"/><g class="labels" id="v-7257"><g class="js-link-label" id="v-7267" label-idx="0" cursor="move" transform="translate(449, 440)"><rect fill="white" rx="3" ry="3" x="0" y="0" width="0" height="0"/><text class="ui-link-label" text-anchor="middle" font-size="14pt" font-family="OpenSansCondensedLight" id="v-7268" y="0.8em" display="none" xml:space="preserve" transform="translate(0,0)"/></g></g></g><g id="j_377" model-id="3a2cab9c-0694-4e02-af5f-0ba4c170b044" class="tp Link link"><path class="connection" stroke="black" id="v-7238" stroke-dasharray="none" d="M 444 380 444 440 499 440"/><path class="marker-source" fill="black" stroke="black" id="v-7239" d="" transform="translate(444,380) scale(1,1) rotate(-270)"/><path class="marker-target" fill="black" stroke="black" id="v-7240" d="M 8 0 L 0 4 L 8 8 z" transform="translate(507,444) scale(1,1) rotate(-180)"/><g class="labels" id="v-7242"><g class="js-link-label" id="v-7251" label-idx="0" cursor="move" transform="translate(444, 437.5)"><rect fill="white" rx="3" ry="3" x="0" y="0" width="0" height="0"/><text class="ui-link-label" text-anchor="middle" font-size="14pt" font-family="OpenSansCondensedLight" id="v-7252" y="0.8em" display="none" xml:space="preserve" transform="translate(0,0)"/></g></g></g><g id="j_376" model-id="46247e97-0411-4273-b8c3-c62f2b1c1dcb" class="tp Link link"><path class="connection" stroke="black" id="v-7224" stroke-dasharray="none" d="M 403 204 320 204"/><path class="marker-source" fill="black" stroke="black" id="v-7225" d="" transform="translate(403,204) scale(1,1) rotate(-180)"/><path class="marker-target" fill="black" stroke="black" id="v-7226" d="M 8 0 L 0 4 L 8 8 z" transform="translate(312,200) scale(1,1) rotate(0)"/><g class="labels" id="v-7228"><g class="js-link-label" id="v-7236" label-idx="0" cursor="move" transform="translate(361.5, 204)"><rect fill="white" rx="3" ry="3" x="0" y="0" width="0" height="0"/><text class="ui-link-label" text-anchor="middle" font-size="14pt" font-family="OpenSansCondensedLight" id="v-7237" y="0.8em" display="none" xml:space="preserve" transform="translate(0,0)"/></g></g></g><g id="j_375" model-id="665c0e49-4e0b-4939-a69f-101cdc1591b6" class="tp Link link"><path class="connection" stroke="black" id="v-7210" stroke-dasharray="none" d="M 312 205 395 205"/><path class="marker-source" fill="black" stroke="black" id="v-7211" d="" transform="translate(312,205) scale(1,1) rotate(0)"/><path class="marker-target" fill="black" stroke="black" id="v-7212" d="M 8 0 L 0 4 L 8 8 z" transform="translate(403,209) scale(1,1) rotate(-180)"/><g class="labels" id="v-7214"><g class="js-link-label" id="v-7222" label-idx="0" cursor="move" transform="translate(353.5, 205)"><rect fill="white" rx="3" ry="3" x="0" y="0" width="0" height="0"/><text class="ui-link-label" text-anchor="middle" font-size="14pt" font-family="OpenSansCondensedLight" id="v-7223" y="0.8em" display="none" xml:space="preserve" transform="translate(0,0)"/></g></g></g><g id="j_367" model-id="d003bcc4-6cce-4bcd-847e-3fbdc6f8d0b8" class="element tp Element" transform="translate(31,288)"><g class="rotatable" id="v-7065"><g class="scalable" id="v-7075">
<path class="ui-fill ui-stroke js-perimeter" d="M94.48613697851009,0H0v94.48613697851009h94.48613697851009V0L94.48613697851009,0z" id="v-7072" stroke="#000000" stroke-dasharray="none" fill="#FFFFFF"/>
<rect class="ui-interior-label" x="4.133512071465432" y="4.307878585646357" width="86.22936968935457" height="85.87037980721738" id="v-7073" fill="none"/>
<circle class="js-number-connector-1 js-link-connector" fill="none" cx="47.243068489255045" cy="0" r="0.1" id="v-7076"/>
<circle class="js-number-connector-2 js-link-connector" fill="none" cx="70.6594656583756" cy="0" r="0.1" id="v-7077"/>
<circle class="js-number-connector-3 js-link-connector" fill="none" cx="94.48613697851009" cy="23.82667132013449" r="0.1" id="v-7078"/>
<circle class="js-number-connector-4 js-link-connector" fill="none" cx="94.48613697851009" cy="47.243068489255045" r="0.1" id="v-7079"/>
<circle class="js-number-connector-5 js-link-connector" fill="none" cx="94.48613697851009" cy="70.6594656583756" r="0.1" id="v-7074"/>
<circle class="js-number-connector-6 js-link-connector" fill="none" cx="70.6594656583756" cy="94.48613697851009" r="0.1" id="v-7080"/>
<circle class="js-number-connector-7 js-link-connector" fill="none" cx="47.243068489255045" cy="94.48613697851009" r="0.1" id="v-7081"/>
<circle class="js-number-connector-8 js-link-connector" fill="none" cx="23.83692817390984" cy="94.48613697851009" r="0.1" id="v-7082"/>
<circle class="js-number-connector-9 js-link-connector" fill="none" cx="0" cy="70.6594656583756" r="0.1" id="v-7083"/>
<circle class="js-number-connector-10 js-link-connector" fill="none" cx="0" cy="47.243068489255045" r="0.1" id="v-7084"/>
<circle class="js-number-connector-11 js-link-connector" fill="none" cx="0" cy="23.82667132013449" r="0.1" id="v-7085"/>
<circle class="js-number-connector-12 js-link-connector" fill="none" cx="23.83692817390984" cy="0" r="0.1" id="v-7086"/>
</g></g><rect class="ui-number-box" id="v-7066" stroke="none" stroke-width="1" fill="#FFFFFF" x="0" y="0" width="40" height="20" transform="translate(126.34766314308193,90.55947113037112)"/><path class="ui-number-leadline" id="v-7067" stroke="#000000" fill="none" d="M94.48613739013672,70.65946960449219 C100.68740960742325,93.74645305126467 122.80140548815258,67.47248768359862 129.0026777054391 90.5594711303711"/><text class="ui-number-label" id="v-7068" font-family="OpenSansCondensedLight" font-size="14pt" fill="black" transform="translate(126.34767150878906,90.5594711303711)" text-anchor="middle"><tspan x="20" y="16.30001125">514</tspan></text><rect class="ui-label-box" id="v-7069" stroke-width="0" fill="none" width="86.22937250137329" height="85.87037467956543" transform="translate(4.133512020111084,4.307878494262695)"/><text class="ui-label" id="v-7070" font-family="OpenSansCondensedLight" font-size="14pt" fill="black" transform="translate(4.133512020111084,4.307878494262695)" text-anchor="middle"><tspan x="43.11468505859375" y="28.235162043457034">USER</tspan><tspan x="43.11468505859375" y="49.235199543457036">INTERFACE</tspan><tspan x="43.11468505859375" y="70.23523704345703">LOGIC</tspan></text><path class="ui-number-underline" id="v-7071" stroke="#000000" fill="none" transform="translate(4.133512020111084,4.307878494262695)" d="M 0 0"/></g><g id="j_373" model-id="32927e96-f26f-4bd7-877e-2ae487fdebe5" class="tp Link link"><path class="connection" stroke="black" id="v-7181" stroke-dasharray="none" d="M 210 310 158 310 133 310"/><path class="marker-source" fill="black" stroke="black" id="v-7182" d="M 8 0 L 0 4 L 8 8 z" transform="translate(218,314) scale(1,1) rotate(-180)"/><path class="marker-target" fill="black" stroke="black" id="v-7183" d="M 8 0 L 0 4 L 8 8 z" transform="translate(125,306) scale(1,1) rotate(0)"/><g class="labels" id="v-7185"><g class="js-link-label" id="v-7194" label-idx="0" cursor="move" transform="translate(171.5, 310)"><rect fill="white" rx="3" ry="3" x="0" y="0" width="0" height="0"/><text class="ui-link-label" text-anchor="middle" font-size="14pt" font-family="OpenSansCondensedLight" id="v-7195" y="0.8em" display="none" xml:space="preserve" transform="translate(0,0)"/></g></g></g><g id="j_371" model-id="468f6156-708f-41e3-ba2b-56b31b3cd2db" class="element tp Element" transform="translate(397.6358299255371,240)"><g class="rotatable" id="v-7145"><g class="scalable" id="v-7155">
<g class="ui-fill" id="v-7153" fill="#FFFFFF">
    <path class="js-perimeter" d="M83.40590439233777,14.999211937772415c-0.24245902439633077,-3.088073046011968,-8.486065853871576,-5.734992799736511,-22.306230244462427,-5.734992799736511H21.578853171273437C7.758688780682585,9.264219138035902,0,6.995430777700579,0,4.033401529485019V0h168.99394000424255v4.033401529485019c0,2.962029248215561,-7.758688780682585,5.230817608550884,-21.82131219566977,5.230817608550884H105.71213463680022C92.1344292706057,9.264219138035902,83.64836341673411,11.848116992862243,83.40590439233777,14.999211937772415" id="v-7156"/>
</g>
<g class="ui-stroke" id="v-7152" stroke="#000000" stroke-dasharray="none">
    <path class="js-perimeter" fill="none" stroke-linejoin="round" d="M168.99394000424255,0v4.033401529485019c0,2.962029248215561,-7.758688780682585,5.230817608550884,-21.82131219566977,5.230817608550884H105.71213463680022c-13.577705366194522,0,-22.063771220066098,2.58389785482634,-22.306230244462427,5.734992799736511" id="v-7157"/>
    <path class="js-perimeter" fill="none" stroke-linejoin="round" d="M83.40590439233777,14.999211937772415c-0.24245902439633077,-3.088073046011968,-8.486065853871576,-5.734992799736511,-22.306230244462427,-5.734992799736511H21.578853171273437C7.758688780682585,9.264219138035902,0,6.995430777700579,0,4.033401529485019V0" id="v-7158"/>
</g>
<rect x="3.6368853659449614" y="1.0083503823712547" fill="none" width="161.72016927235262" height="12.919489274131701" class="ui-interior-label" id="v-7154"/>
<circle fill="none" cx="85.92141677044971" cy="12.328658971961044" r="0.1" id="v-822" class="js-number-connector-1 js-link-connector"/>
<circle fill="none" cx="102.07524927085525" cy="9.327241036934106" r="0.1" id="v-823" class="js-number-connector-2 js-link-connector"/>
<circle fill="none" cx="133.8373814667746" cy="9.264219138035902" r="0.1" id="v-824" class="js-number-connector-3 js-link-connector"/>
<circle fill="none" cx="162.2960094552939" cy="8.003781160071833" r="0.1" id="v-825" class="js-number-connector-4 js-link-connector"/>
<circle fill="none" cx="168.99394000424255" cy="3.726169772356277" r="0.1" id="v-826" class="js-number-connector-5 js-link-connector"/>
<circle fill="none" cx="168.99394000424255" cy="0" r="0.1" id="v-827" class="js-number-connector-6 js-link-connector"/>
<circle fill="none" cx="0" cy="0" r="0.1" id="v-828" class="js-number-connector-7 js-link-connector"/>
<circle fill="none" cx="0" cy="3.726169772356277" r="0.1" id="v-829" class="js-number-connector-8 js-link-connector"/>
<circle fill="none" cx="7.273770731889923" cy="8.12982495786824" r="0.1" id="v-830" class="js-number-connector-9 js-link-connector"/>
<circle fill="none" cx="25.094509025020233" cy="9.28785235012273" r="0.1" id="v-831" class="js-number-connector-10 js-link-connector"/>
<circle fill="none" cx="61.91797335521297" cy="9.248463663311352" r="0.1" id="v-832" class="js-number-connector-11 js-link-connector"/>
<circle fill="none" cx="80.98131414837447" cy="12.368047658772422" r="0.1" id="v-833" class="js-number-connector-12 js-link-connector"/>
</g></g><rect class="ui-number-box" id="v-7146" stroke="none" stroke-width="1" fill="#FFFFFF" x="0" y="0" width="40" height="20" transform="translate(197.62877109618503,20.864787355937356)"/><path class="ui-number-leadline" id="v-7147" stroke="#000000" fill="none" d="M162.2959976196289,8.00378155708313 C171.09305475694725,29.187575042054128 188.83171178358012,1.4178968524372877 197.62876892089844 22.6016903374083"/><text class="ui-number-label" id="v-7148" font-family="OpenSansCondensedLight" font-size="14pt" fill="black" transform="translate(197.62876892089844,20.864789962768555)" text-anchor="middle"><tspan x="20" y="16.300010296325684">516</tspan></text><rect class="ui-label-box" id="v-7149" stroke-width="0" fill="none" width="507.5817993208766" transform="translate(-169.29392700269818,24.99921226501465)"/><text class="ui-label" id="v-7150" font-family="OpenSansCondensedLight" font-size="14pt" fill="black" transform="translate(-169.29393005371094,24.99921226501465)" text-anchor="middle"><tspan x="253.7908935546875" y="16.80003"> </tspan></text><path class="ui-number-underline" id="v-7151" stroke="#000000" fill="none" transform="translate(-169.29393005371094,24.99921226501465)" d="M 0 0"/></g></g><defs id="v-6956"/></svg>