<svg xmlns="http://www.w3.org/2000/svg" xmlns:xlink="http://www.w3.org/1999/xlink" version="1.1" width="664" height="867"><g><g transform="translate(-19,76.5)"><g><g>
<path d="M683,0H0v687h683V0L683,0z" stroke="#000000" stroke-dasharray="none" fill="#FFFFFF"/>
<rect x="29.9" y="31.3" width="623.3" height="624.3" fill="none"/>
<circle fill="none" cx="341.5" cy="0" r="0.1"/>
<circle fill="none" cx="510.8" cy="0" r="0.1"/>
<circle fill="none" cx="683" cy="173.2" r="0.1"/>
<circle fill="none" cx="683" cy="343.5" r="0.1"/>
<circle fill="none" cx="683" cy="513.7" r="0.1"/>
<circle fill="none" cx="510.8" cy="687" r="0.1"/>
<circle fill="none" cx="341.5" cy="687" r="0.1"/>
<circle fill="none" cx="172.3" cy="687" r="0.1"/>
<circle fill="none" cx="0" cy="513.7" r="0.1"/>
<circle fill="none" cx="0" cy="343.5" r="0.1"/>
<circle fill="none" cx="0" cy="173.2" r="0.1"/>
<circle fill="none" cx="172.3" cy="0" r="0.1"/>
</g></g><rect stroke="none" stroke-width="0" fill="#FFFFFF" x="0" y="0" width="0" height="0" transform="translate(510.7,-0.1)"/><path stroke="#000000" fill="none" d=""/><text font-family="OpenSansCondensedLight" font-size="14pt" fill="black" transform="translate(510.7,-0.1)"/><rect stroke-width="0" fill="none" width="623.3" height="624.3" transform="translate(29.9,31.3)"/><text font-family="OpenSansCondensedLight" font-size="14pt" fill="black" transform="translate(29.9,31.3)" text-anchor="middle"><tspan x="311.7" y="318.5"> </tspan></text><path stroke="#000000" fill="none" transform="translate(29.9,31.3)" d="M 0 0"/></g><g transform="translate(601,14.3)"><polygon fill="#000000" points="0,0 4.2,11.2 11.8,2" transform="translate(-5.9,27.3)"/>
<rect fill="none" width="1" height="1" transform="translate(33.3,-0.5)"/>
<g><g>
<rect x="0" y="0" width="28.3" height="28.3" opacity="0"/>
<path fill="none" stroke="#000000" stroke-width="1" d="M28.3,0C16.7,2.2,7,13.4,0,28.3"/>
</g></g><rect stroke="none" stroke-width="0" fill="#FFFFFF" x="0" y="0" width="0" height="0"/><path stroke="#000000" fill="none"/><text font-family="OpenSansCondensedLight" font-size="14pt" fill="black" transform="translate(0,0)"/><rect stroke-width="0" fill="none" width="1" height="1" transform="translate(33.3,-0.5)"/><text font-family="OpenSansCondensedLight" font-size="14pt" fill="black" text-decoration="none" transform="translate(33.3,-0.5)"><tspan x="0" y="6.8">800</tspan></text><path stroke="#000000" fill="none" transform="translate(33.3,-0.5)"/></g><g transform="translate(67,4)"><g><g>
<g stroke="#000000" stroke-dasharray="none" fill="#FFFFFF">
    <ellipse cx="9.5" cy="5.5" rx="1.2" ry="1.2"/>
    <polygon points="19,43 9.5,47 0,43 9.5,6.7"/>
</g>
<g fill="none" stroke="#000000" stroke-dasharray="none">
    <line x1="9.5" y1="6.7" x2="9.5" y2="47"/>
    <ellipse cx="9.5" cy="5.5" rx="1.2" ry="1.2"/>
    <line x1="9.5" y1="6.7" x2="0" y2="43"/>
    <line x1="9.5" y1="6.7" x2="19" y2="43"/>
    <polygon points="9.5,13.5 7.9,12.8 9.5,12 11,12.8"/>
    <polygon points="9.5,15.5 7.4,14.6 9.5,13.6 11.5,14.6"/>
    <polygon points="9.5,18.1 6.8,16.9 9.5,15.7 12.2,16.9"/>
    <polygon points="9.5,21.3 6,19.9 9.5,18.3 12.9,20"/>
    <polygon points="9.5,25.7 5,23.8 9.5,21.7 13.9,23.8"/>
    <polygon points="9.5,31.1 3.8,28.7 9.5,26.1 15.2,28.6"/>
    <polygon points="9.5,38.1 2.1,35 9.5,31.6 16.9,34.9"/>
    <polygon points="9.5,47 0,43 9.5,38.8 19,43"/>
    <path d="M12.1,10.4c1.8,-1,3.1,-2.8,3.1,-4.9C15.2,2.5,12.6,0,9.5,0S3.7,2.5,3.7,5.5c0,2.1,1.2,4,3.1,4.9"/>
    <path d="M11.7,8.7c1.1,-0.7,1.8,-1.8,1.8,-3.2c0,-2.1,-1.8,-3.8,-4,-3.8S5.5,3.4,5.5,5.5c0,1.4,0.8,2.5,1.8,3.2"/>
    <path d="M11.3,7.1c0.4,-0.4,0.7,-1,0.7,-1.6c0,-1.3,-1.1,-2.3,-2.4,-2.3S7.1,4.2,7.1,5.5c0,0.6,0.2,1.2,0.7,1.7"/>
</g>
<rect x="1.2" y="17.2" width="17.1" height="16" fill="none"/>
<circle fill="none" cx="9.4" cy="0" r="0.1"/>
<circle fill="none" cx="15.2" cy="5.5" r="0.1"/>
<circle fill="none" cx="11.5" cy="14.6" r="0.1"/>
<circle fill="none" cx="13.9" cy="23.8" r="0.1"/>
<circle fill="none" cx="16.9" cy="34.9" r="0.1"/>
<circle fill="none" cx="19" cy="43" r="0.1"/>
<circle fill="none" cx="9.5" cy="47" r="0.1"/>
<circle fill="none" cx="0" cy="43" r="0.1"/>
<circle fill="none" cx="2.1" cy="35" r="0.1"/>
<circle fill="none" cx="5" cy="23.7" r="0.1"/>
<circle fill="none" cx="7.4" cy="14.6" r="0.1"/>
<circle fill="none" cx="3.7" cy="5.5" r="0.1"/>
</g></g><rect stroke="none" stroke-width="1" fill="#FFFFFF" x="0" y="0" width="40" height="20" transform="translate(51.4,4.5)"/><path stroke="#000000" fill="none" d="M11.5,14.6 C28.5,31.5 34.5,-2.4 51.4 14.5"/><text font-family="OpenSansCondensedLight" font-size="14pt" fill="black" transform="translate(51.4,4.5)" text-anchor="middle"><tspan x="20" y="16.3">802</tspan></text><rect stroke-width="0" fill="none" width="57.6" transform="translate(-19.3,57.1)"/><text font-family="OpenSansCondensedLight" font-size="14pt" fill="black" transform="translate(-19.3,57.1)" text-anchor="middle"><tspan x="28.8" y="16.8"> </tspan></text><path stroke="#000000" fill="none" transform="translate(-19.3,57.1)" d="M 0 0"/></g><g transform="translate(218,150)"><g><g>
<path d="M94,0H0v216h94V0L94,0z" stroke="#000000" stroke-dasharray="none" fill="#FFFFFF"/>
<rect x="4.1" y="9.8" width="85.8" height="196.3" fill="none"/>
<circle fill="none" cx="47" cy="0" r="0.1"/>
<circle fill="none" cx="70.3" cy="0" r="0.1"/>
<circle fill="none" cx="94" cy="54.5" r="0.1"/>
<circle fill="none" cx="94" cy="108" r="0.1"/>
<circle fill="none" cx="94" cy="161.5" r="0.1"/>
<circle fill="none" cx="70.3" cy="216" r="0.1"/>
<circle fill="none" cx="47" cy="216" r="0.1"/>
<circle fill="none" cx="23.7" cy="216" r="0.1"/>
<circle fill="none" cx="0" cy="161.5" r="0.1"/>
<circle fill="none" cx="0" cy="108" r="0.1"/>
<circle fill="none" cx="0" cy="54.5" r="0.1"/>
<circle fill="none" cx="23.7" cy="0" r="0.1"/>
</g></g><rect stroke="none" stroke-width="1" fill="#FFFFFF" x="0" y="0" width="40" height="20" transform="translate(80.2,-62.1)"/><path stroke="#000000" fill="none" d="M70.3,0 C98.4,-7.6 66.4,-34.5 94.5 -42.1"/><text font-family="OpenSansCondensedLight" font-size="14pt" fill="black" transform="translate(80.2,-62.1)" text-anchor="middle"><tspan x="20" y="16.3">804</tspan></text><rect stroke-width="0" fill="none" width="85.8" height="196.3" transform="translate(4.1,9.8)"/><text font-family="OpenSansCondensedLight" font-size="14pt" fill="black" transform="translate(4.1,9.8)" text-anchor="middle"><tspan x="42.9" y="104.4">CONTROLLER</tspan></text><path stroke="#000000" fill="none" transform="translate(4.1,9.8)" d="M 0 0"/></g><g transform="translate(29.3,155)"><g><g>
<path d="M94.5,0H0v94.5h94.5V0L94.5,0z" stroke="#000000" stroke-dasharray="none" fill="#FFFFFF"/>
<rect x="4.1" y="4.3" width="86.2" height="85.9" fill="none"/>
<circle fill="none" cx="47.2" cy="0" r="0.1"/>
<circle fill="none" cx="70.7" cy="0" r="0.1"/>
<circle fill="none" cx="94.5" cy="23.8" r="0.1"/>
<circle fill="none" cx="94.5" cy="47.2" r="0.1"/>
<circle fill="none" cx="94.5" cy="70.7" r="0.1"/>
<circle fill="none" cx="70.7" cy="94.5" r="0.1"/>
<circle fill="none" cx="47.2" cy="94.5" r="0.1"/>
<circle fill="none" cx="23.8" cy="94.5" r="0.1"/>
<circle fill="none" cx="0" cy="70.7" r="0.1"/>
<circle fill="none" cx="0" cy="47.2" r="0.1"/>
<circle fill="none" cx="0" cy="23.8" r="0.1"/>
<circle fill="none" cx="23.8" cy="0" r="0.1"/>
</g></g><rect stroke="none" stroke-width="1" fill="#FFFFFF" x="0" y="0" width="40" height="20" transform="translate(126.3,-16.3)"/><path stroke="#000000" fill="none" d="M94.5,23.8 C117.7,30 105.9,-2.4 129.1 3.7"/><text font-family="OpenSansCondensedLight" font-size="14pt" fill="black" transform="translate(126.3,-16.3)" text-anchor="middle"><tspan x="20" y="16.3">806</tspan></text><rect stroke-width="0" fill="none" width="86.2" height="85.9" transform="translate(4.1,4.3)"/><text font-family="OpenSansCondensedLight" font-size="14pt" fill="black" transform="translate(4.1,4.3)" text-anchor="middle"><tspan x="43.1" y="38.7">WIRELESS</tspan><tspan x="43.1" y="59.7">COMM</tspan></text><path stroke="#000000" fill="none" transform="translate(4.1,4.3)" d="M 0 0"/></g><g><path stroke="black" stroke-dasharray="none" d="M 76 51 76 147" fill="none"/><path fill="black" stroke="black" d="" transform="translate(76,51) scale(1,1) rotate(-270)"/><path fill="black" stroke="black" d="M 8 0 L 0 4 L 8 8 z" transform="translate(72,155) scale(1,1) rotate(-90)"/><g><g label-idx="0" cursor="move" transform="translate(76, 99)"><rect fill="white" rx="3" ry="3" x="0" y="0" width="0" height="0"/><text text-anchor="middle" font-size="14pt" font-family="OpenSansCondensedLight" y="0.8em" display="none" xml:space="preserve" transform="translate(0,0)"/></g></g></g><g><path stroke="black" stroke-dasharray="none" d="M 76 155 76 59" fill="none"/><path fill="black" stroke="black" d="" transform="translate(76,155) scale(1,1) rotate(-90)"/><path fill="black" stroke="black" d="M 8 0 L 0 4 L 8 8 z" transform="translate(80,51) scale(1,1) rotate(-270)"/><g><g label-idx="0" cursor="move" transform="translate(76, 107)"><rect fill="white" rx="3" ry="3" x="0" y="0" width="0" height="0"/><text text-anchor="middle" font-size="14pt" font-family="OpenSansCondensedLight" y="0.8em" display="none" xml:space="preserve" transform="translate(0,0)"/></g></g></g><g><path stroke="black" stroke-dasharray="none" d="M 218 202 132 202" fill="none"/><path fill="black" stroke="black" d="" transform="translate(218,202) scale(1,1) rotate(-180)"/><path fill="black" stroke="black" d="M 8 0 L 0 4 L 8 8 z" transform="translate(124,198) scale(1,1) rotate(0)"/><g><g label-idx="0" cursor="move" transform="translate(175, 202)"><rect fill="white" rx="3" ry="3" x="0" y="0" width="0" height="0"/><text text-anchor="middle" font-size="14pt" font-family="OpenSansCondensedLight" y="0.8em" display="none" xml:space="preserve" transform="translate(0,0)"/></g></g></g><g transform="translate(403,112)"><g><g>
<path d="M154,0H0v64h154V0L154,0z" stroke="#000000" stroke-dasharray="none" fill="#FFFFFF"/>
<rect x="6.7" y="2.9" width="140.5" height="58.2" fill="none"/>
<circle fill="none" cx="77" cy="0" r="0.1"/>
<circle fill="none" cx="115.2" cy="0" r="0.1"/>
<circle fill="none" cx="154" cy="16.1" r="0.1"/>
<circle fill="none" cx="154" cy="32" r="0.1"/>
<circle fill="none" cx="154" cy="47.9" r="0.1"/>
<circle fill="none" cx="115.2" cy="64" r="0.1"/>
<circle fill="none" cx="77" cy="64" r="0.1"/>
<circle fill="none" cx="38.9" cy="64" r="0.1"/>
<circle fill="none" cx="0" cy="47.9" r="0.1"/>
<circle fill="none" cx="0" cy="32" r="0.1"/>
<circle fill="none" cx="0" cy="16.1" r="0.1"/>
<circle fill="none" cx="38.9" cy="0" r="0.1"/>
</g></g><rect stroke="none" stroke-width="1" fill="#FFFFFF" x="0" y="0" width="40" height="20" transform="translate(185.9,-24)"/><path stroke="#000000" fill="none" d="M154,16.1 C177.2,22.3 165.4,-10.1 188.6 -4"/><text font-family="OpenSansCondensedLight" font-size="14pt" fill="black" transform="translate(185.9,-24)" text-anchor="middle"><tspan x="20" y="16.3">808</tspan></text><rect stroke-width="0" fill="none" width="140.5" height="58.2" transform="translate(6.7,2.9)"/><text font-family="OpenSansCondensedLight" font-size="14pt" fill="black" transform="translate(6.7,2.9)" text-anchor="middle"><tspan x="70.3" y="35.4">MEMORY</tspan></text><path stroke="#000000" fill="none" transform="translate(6.7,2.9)" d="M 0 0"/></g><g transform="translate(402.5,210)"><g><g>
<path d="M155,0H0v65h155V0L155,0z" stroke="#000000" stroke-dasharray="none" fill="#FFFFFF"/>
<rect x="6.8" y="3" width="141.5" height="59.1" fill="none"/>
<circle fill="none" cx="77.5" cy="0" r="0.1"/>
<circle fill="none" cx="115.9" cy="0" r="0.1"/>
<circle fill="none" cx="155" cy="16.4" r="0.1"/>
<circle fill="none" cx="155" cy="32.5" r="0.1"/>
<circle fill="none" cx="155" cy="48.6" r="0.1"/>
<circle fill="none" cx="115.9" cy="65" r="0.1"/>
<circle fill="none" cx="77.5" cy="65" r="0.1"/>
<circle fill="none" cx="39.1" cy="65" r="0.1"/>
<circle fill="none" cx="0" cy="48.6" r="0.1"/>
<circle fill="none" cx="0" cy="32.5" r="0.1"/>
<circle fill="none" cx="0" cy="16.4" r="0.1"/>
<circle fill="none" cx="39.1" cy="0" r="0.1"/>
</g></g><rect stroke="none" stroke-width="1" fill="#FFFFFF" x="0" y="0" width="40" height="20" transform="translate(186.9,-23.7)"/><path stroke="#000000" fill="none" d="M155,16.4 C178.2,22.6 166.4,-9.9 189.6 -3.7"/><text font-family="OpenSansCondensedLight" font-size="14pt" fill="black" transform="translate(186.9,-23.7)" text-anchor="middle"><tspan x="20" y="16.3">810</tspan></text><rect stroke-width="0" fill="none" width="141.5" height="59.1" transform="translate(6.8,3)"/><text font-family="OpenSansCondensedLight" font-size="14pt" fill="black" transform="translate(6.8,3)" text-anchor="middle"><tspan x="70.7" y="25.3">POWER</tspan><tspan x="70.7" y="46.3">MANAGER</tspan></text><path stroke="#000000" fill="none" transform="translate(6.8,3)" d="M 0 0"/></g><g transform="translate(507,309)"><g><g>
<path d="M94,0H0v57h94V0L94,0z" stroke="#000000" stroke-dasharray="none" fill="#FFFFFF"/>
<rect x="4.1" y="2.6" width="85.8" height="51.8" fill="none"/>
<circle fill="none" cx="47" cy="0" r="0.1"/>
<circle fill="none" cx="70.3" cy="0" r="0.1"/>
<circle fill="none" cx="94" cy="14.4" r="0.1"/>
<circle fill="none" cx="94" cy="28.5" r="0.1"/>
<circle fill="none" cx="94" cy="42.6" r="0.1"/>
<circle fill="none" cx="70.3" cy="57" r="0.1"/>
<circle fill="none" cx="47" cy="57" r="0.1"/>
<circle fill="none" cx="23.7" cy="57" r="0.1"/>
<circle fill="none" cx="0" cy="42.6" r="0.1"/>
<circle fill="none" cx="0" cy="28.5" r="0.1"/>
<circle fill="none" cx="0" cy="14.4" r="0.1"/>
<circle fill="none" cx="23.7" cy="0" r="0.1"/>
</g></g><rect stroke="none" stroke-width="1" fill="#FFFFFF" x="0" y="0" width="40" height="20" transform="translate(-72.1,62.5)"/><path stroke="#000000" fill="none" d="M0,42.6 C-23.1,36.4 -11.5,68.8 -34.6 62.5"/><text font-family="OpenSansCondensedLight" font-size="14pt" fill="black" transform="translate(-72.1,62.5)" text-anchor="middle"><tspan x="20" y="16.3">812</tspan></text><rect stroke-width="0" fill="none" width="85.8" height="51.8" transform="translate(4.1,2.6)"/><text font-family="OpenSansCondensedLight" font-size="14pt" fill="black" transform="translate(4.1,2.6)" text-anchor="middle"><tspan x="42.9" y="32.2">BATTERY</tspan></text><path stroke="#000000" fill="none" transform="translate(4.1,2.6)" d="M 0 0"/></g><g><path stroke="black" stroke-dasharray="none" d="M 507 335 501 335 443 335 443 283" fill="none"/><path fill="black" stroke="black" d="" transform="translate(507,335) scale(1,1) rotate(-180)"/><path fill="black" stroke="black" d="M 8 0 L 0 4 L 8 8 z" transform="translate(447,275) scale(1,1) rotate(-270)"/><g><g label-idx="0" cursor="move" transform="translate(449, 335)"><rect fill="white" rx="3" ry="3" x="0" y="0" width="0" height="0"/><text text-anchor="middle" font-size="14pt" font-family="OpenSansCondensedLight" y="0.8em" display="none" xml:space="preserve" transform="translate(0,0)"/></g></g></g><g><path stroke="black" stroke-dasharray="none" d="M 444 275 444 335 499 335" fill="none"/><path fill="black" stroke="black" d="" transform="translate(444,275) scale(1,1) rotate(-270)"/><path fill="black" stroke="black" d="M 8 0 L 0 4 L 8 8 z" transform="translate(507,339) scale(1,1) rotate(-180)"/><g><g label-idx="0" cursor="move" transform="translate(444, 332.5)"><rect fill="white" rx="3" ry="3" x="0" y="0" width="0" height="0"/><text text-anchor="middle" font-size="14pt" font-family="OpenSansCondensedLight" y="0.8em" display="none" xml:space="preserve" transform="translate(0,0)"/></g></g></g><g><path stroke="black" stroke-dasharray="none" d="M 403 160 319 201" fill="none"/><path fill="black" stroke="black" d="" transform="translate(403,160) scale(1,1) rotate(-205.8)"/><path fill="black" stroke="black" d="M 8 0 L 0 4 L 8 8 z" transform="translate(310.3,200.4) scale(1,1) rotate(-25.8)"/><g><g label-idx="0" cursor="move" transform="translate(361, 180.5)"><rect fill="white" rx="3" ry="3" x="0" y="0" width="0" height="0"/><text text-anchor="middle" font-size="14pt" font-family="OpenSansCondensedLight" y="0.8em" display="none" xml:space="preserve" transform="translate(0,0)"/></g></g></g><g><path stroke="black" stroke-dasharray="none" d="M 312 204 396 163" fill="none"/><path fill="black" stroke="black" d="" transform="translate(312,204) scale(1,1) rotate(-25.8)"/><path fill="black" stroke="black" d="M 8 0 L 0 4 L 8 8 z" transform="translate(404.7,163.6) scale(1,1) rotate(-205.8)"/><g><g label-idx="0" cursor="move" transform="translate(354, 183.5)"><rect fill="white" rx="3" ry="3" x="0" y="0" width="0" height="0"/><text text-anchor="middle" font-size="14pt" font-family="OpenSansCondensedLight" y="0.8em" display="none" xml:space="preserve" transform="translate(0,0)"/></g></g></g><g transform="translate(31,288)"><g><g>
<path d="M94.5,0H0v94.5h94.5V0L94.5,0z" stroke="#000000" stroke-dasharray="none" fill="#FFFFFF"/>
<rect x="4.1" y="4.3" width="86.2" height="85.9" fill="none"/>
<circle fill="none" cx="47.2" cy="0" r="0.1"/>
<circle fill="none" cx="70.7" cy="0" r="0.1"/>
<circle fill="none" cx="94.5" cy="23.8" r="0.1"/>
<circle fill="none" cx="94.5" cy="47.2" r="0.1"/>
<circle fill="none" cx="94.5" cy="70.7" r="0.1"/>
<circle fill="none" cx="70.7" cy="94.5" r="0.1"/>
<circle fill="none" cx="47.2" cy="94.5" r="0.1"/>
<circle fill="none" cx="23.8" cy="94.5" r="0.1"/>
<circle fill="none" cx="0" cy="70.7" r="0.1"/>
<circle fill="none" cx="0" cy="47.2" r="0.1"/>
<circle fill="none" cx="0" cy="23.8" r="0.1"/>
<circle fill="none" cx="23.8" cy="0" r="0.1"/>
</g></g><rect stroke="none" stroke-width="1" fill="#FFFFFF" x="0" y="0" width="40" height="20" transform="translate(126.3,90.6)"/><path stroke="#000000" fill="none" d="M94.5,70.7 C100.7,93.7 122.8,67.5 129 90.6"/><text font-family="OpenSansCondensedLight" font-size="14pt" fill="black" transform="translate(126.3,90.6)" text-anchor="middle"><tspan x="20" y="16.3">814</tspan></text><rect stroke-width="0" fill="none" width="86.2" height="85.9" transform="translate(4.1,4.3)"/><text font-family="OpenSansCondensedLight" font-size="14pt" fill="black" transform="translate(4.1,4.3)" text-anchor="middle"><tspan x="43.1" y="38.7">USER</tspan><tspan x="43.1" y="59.7">INTERFACE</tspan></text><path stroke="#000000" fill="none" transform="translate(4.1,4.3)" d="M 0 0"/></g><g><path stroke="black" stroke-dasharray="none" d="M 125 312 210 312" fill="none"/><path fill="black" stroke="black" d="" transform="translate(125,312) scale(1,1) rotate(0)"/><path fill="black" stroke="black" d="M 8 0 L 0 4 L 8 8 z" transform="translate(218,316) scale(1,1) rotate(-180)"/><g><g label-idx="0" cursor="move" transform="translate(167.5, 312)"><rect fill="white" rx="3" ry="3" x="0" y="0" width="0" height="0"/><text text-anchor="middle" font-size="14pt" font-family="OpenSansCondensedLight" y="0.8em" display="none" xml:space="preserve" transform="translate(0,0)"/></g></g></g><g><path stroke="black" stroke-dasharray="none" d="M 218 310 158 310 133 310" fill="none"/><path fill="black" stroke="black" d="" transform="translate(218,310) scale(1,1) rotate(-180)"/><path fill="black" stroke="black" d="M 8 0 L 0 4 L 8 8 z" transform="translate(125,306) scale(1,1) rotate(0)"/><g><g label-idx="0" cursor="move" transform="translate(175.5, 310)"><rect fill="white" rx="3" ry="3" x="0" y="0" width="0" height="0"/><text text-anchor="middle" font-size="14pt" font-family="OpenSansCondensedLight" y="0.8em" display="none" xml:space="preserve" transform="translate(0,0)"/></g></g></g><g transform="translate(217.8,625)"><g><g>
<path d="M94.5,0H0v94.5h94.5V0L94.5,0z" stroke="#000000" stroke-dasharray="none" fill="#FFFFFF"/>
<rect x="4.1" y="4.3" width="86.2" height="85.9" fill="none"/>
<circle fill="none" cx="47.2" cy="0" r="0.1"/>
<circle fill="none" cx="70.7" cy="0" r="0.1"/>
<circle fill="none" cx="94.5" cy="23.8" r="0.1"/>
<circle fill="none" cx="94.5" cy="47.2" r="0.1"/>
<circle fill="none" cx="94.5" cy="70.7" r="0.1"/>
<circle fill="none" cx="70.7" cy="94.5" r="0.1"/>
<circle fill="none" cx="47.2" cy="94.5" r="0.1"/>
<circle fill="none" cx="23.8" cy="94.5" r="0.1"/>
<circle fill="none" cx="0" cy="70.7" r="0.1"/>
<circle fill="none" cx="0" cy="47.2" r="0.1"/>
<circle fill="none" cx="0" cy="23.8" r="0.1"/>
<circle fill="none" cx="23.8" cy="0" r="0.1"/>
</g></g><rect stroke="none" stroke-width="1" fill="#FFFFFF" x="0" y="0" width="40" height="20" transform="translate(134.4,37.1)"/><path stroke="#000000" fill="none" d="M94.5,47.2 C111.4,64.1 117.4,30.3 134.4 47.2"/><text font-family="OpenSansCondensedLight" font-size="14pt" fill="black" transform="translate(134.4,37.1)" text-anchor="middle"><tspan x="20" y="16.3">816</tspan></text><rect stroke-width="0" fill="none" width="86.2" height="85.9" transform="translate(4.1,4.3)"/><text font-family="OpenSansCondensedLight" font-size="14pt" fill="black" transform="translate(4.1,4.3)" text-anchor="middle"><tspan x="43.1" y="49.2">CAMERA</tspan></text><path stroke="#000000" fill="none" transform="translate(4.1,4.3)" d="M 0 0"/></g><g transform="translate(217.8,434)"><g><g>
<path d="M94.5,0H0v94.5h94.5V0L94.5,0z" stroke="#000000" stroke-dasharray="none" fill="#FFFFFF"/>
<rect x="4.1" y="4.3" width="86.2" height="85.9" fill="none"/>
<circle fill="none" cx="47.2" cy="0" r="0.1"/>
<circle fill="none" cx="70.7" cy="0" r="0.1"/>
<circle fill="none" cx="94.5" cy="23.8" r="0.1"/>
<circle fill="none" cx="94.5" cy="47.2" r="0.1"/>
<circle fill="none" cx="94.5" cy="70.7" r="0.1"/>
<circle fill="none" cx="70.7" cy="94.5" r="0.1"/>
<circle fill="none" cx="47.2" cy="94.5" r="0.1"/>
<circle fill="none" cx="23.8" cy="94.5" r="0.1"/>
<circle fill="none" cx="0" cy="70.7" r="0.1"/>
<circle fill="none" cx="0" cy="47.2" r="0.1"/>
<circle fill="none" cx="0" cy="23.8" r="0.1"/>
<circle fill="none" cx="23.8" cy="0" r="0.1"/>
</g></g><rect stroke="none" stroke-width="1" fill="#FFFFFF" x="0" y="0" width="40" height="20" transform="translate(134.4,37.1)"/><path stroke="#000000" fill="none" d="M94.5,47.2 C111.4,64.1 117.4,30.3 134.4 47.2"/><text font-family="OpenSansCondensedLight" font-size="14pt" fill="black" transform="translate(134.4,37.1)" text-anchor="middle"><tspan x="20" y="16.3">818</tspan></text><rect stroke-width="0" fill="none" width="86.2" height="85.9" transform="translate(4.1,4.3)"/><text font-family="OpenSansCondensedLight" font-size="14pt" fill="black" transform="translate(4.1,4.3)" text-anchor="middle"><tspan x="43.1" y="38.7">IMAGE</tspan><tspan x="43.1" y="59.7">PROCESSING</tspan></text><path stroke="#000000" fill="none" transform="translate(4.1,4.3)" d="M 0 0"/></g><g><path stroke="black" stroke-dasharray="none" d="M 265 366 265 426" fill="none"/><path fill="black" stroke="black" d="" transform="translate(265,366) scale(1,1) rotate(-270)"/><path fill="black" stroke="black" d="M 8 0 L 0 4 L 8 8 z" transform="translate(261,434) scale(1,1) rotate(-90)"/><g><g label-idx="0" cursor="move" transform="translate(265, 396)"><rect fill="white" rx="3" ry="3" x="0" y="0" width="0" height="0"/><text text-anchor="middle" font-size="14pt" font-family="OpenSansCondensedLight" y="0.8em" display="none" xml:space="preserve" transform="translate(0,0)"/></g></g></g><g><path stroke="black" stroke-dasharray="none" d="M 265 434 265 370" fill="none"/><path fill="black" stroke="black" d="" transform="translate(265,434) scale(1,1) rotate(-90)"/><path fill="black" stroke="black" d="M 8 0 L 0 4 L 8 8 z" transform="translate(269,362) scale(1,1) rotate(-270)"/><g><g label-idx="0" cursor="move" transform="translate(265, 402)"><rect fill="white" rx="3" ry="3" x="0" y="0" width="0" height="0"/><text text-anchor="middle" font-size="14pt" font-family="OpenSansCondensedLight" y="0.8em" display="none" xml:space="preserve" transform="translate(0,0)"/></g></g></g><g><path stroke="black" stroke-dasharray="none" d="M 265 528 265 617" fill="none"/><path fill="black" stroke="black" d="" transform="translate(265,528) scale(1,1) rotate(-270)"/><path fill="black" stroke="black" d="M 8 0 L 0 4 L 8 8 z" transform="translate(261,625) scale(1,1) rotate(-90)"/><g><g label-idx="0" cursor="move" transform="translate(265, 572.5)"><rect fill="white" rx="3" ry="3" x="0" y="0" width="0" height="0"/><text text-anchor="middle" font-size="14pt" font-family="OpenSansCondensedLight" y="0.8em" display="none" xml:space="preserve" transform="translate(0,0)"/></g></g></g><g><path stroke="black" stroke-dasharray="none" d="M 265 625 265 536" fill="none"/><path fill="black" stroke="black" d="" transform="translate(265,625) scale(1,1) rotate(-90)"/><path fill="black" stroke="black" d="M 8 0 L 0 4 L 8 8 z" transform="translate(269,528) scale(1,1) rotate(-270)"/><g><g label-idx="0" cursor="move" transform="translate(265, 580.5)"><rect fill="white" rx="3" ry="3" x="0" y="0" width="0" height="0"/><text text-anchor="middle" font-size="14pt" font-family="OpenSansCondensedLight" y="0.8em" display="none" xml:space="preserve" transform="translate(0,0)"/></g></g></g></g><defs/></svg>